<svg version="1.1" xmlns:xlink="http://www.w3.org/1999/xlink" xmlns="http://www.w3.org/2000/svg" width="472" height="61" viewbox="0 0 472 61"><defs><style type="text/css">.c{fill:none;stroke:#222222;}.k{fill:#000000;font-family: ui-monospace, SFMono-Regular, Menlo, Monaco, Consolas, "Liberation Mono", "Courier New", monospace;font-size:20px;}.s{fill:#e4f4ff;stroke:#222222;}.syn{fill:#8D8D8D;font-family: ui-monospace, SFMono-Regular, Menlo, Monaco, Consolas, "Liberation Mono", "Courier New", monospace;font-size:20px;}</style></defs><path class="c" d="M0 46h5m140 0h10m32 0h10m44 0h30m-5 0q-5 0-5-5v-26q0-5 5-5h144q5 0 5 5v26q0 5-5 5m-107 0h10m92 0h30m32 0h5"/><rect class="s" x="5" y="20" width="140" height="36"/><text class="k" x="15" y="46">CIDR_MATCH</text><rect class="s" x="155" y="20" width="32" height="36" rx="7"/><text class="syn" x="165" y="46">(</text><rect class="s" x="197" y="20" width="44" height="36" rx="7"/><text class="k" x="207" y="46">ip</text><rect class="s" x="271" y="20" width="32" height="36" rx="7"/><text class="syn" x="281" y="46">,</text><rect class="s" x="313" y="20" width="92" height="36" rx="7"/><text class="k" x="323" y="46">blockX</text><rect class="s" x="435" y="20" width="32" height="36" rx="7"/><text class="syn" x="445" y="46">)</text></svg>