<svg version="1.1" xmlns:xlink="http://www.w3.org/1999/xlink" xmlns="http://www.w3.org/2000/svg" width="756" height="46" viewbox="0 0 756 46"><defs><style type="text/css">.c{fill:none;stroke:#222222;}.k{fill:#000000;font-family: ui-monospace, SFMono-Regular, Menlo, Monaco, Consolas, "Liberation Mono", "Courier New", monospace;font-size:20px;}.s{fill:#e4f4ff;stroke:#222222;}.syn{fill:#8D8D8D;font-family: ui-monospace, SFMono-Regular, Menlo, Monaco, Consolas, "Liberation Mono", "Courier New", monospace;font-size:20px;}</style></defs><path class="c" d="M0 31h5m128 0h10m32 0h10m44 0h10m32 0h10m188 0h10m32 0h10m188 0h10m32 0h5"/><rect class="s" x="5" y="5" width="128" height="36"/><text class="k" x="15" y="31">IP_PREFIX</text><rect class="s" x="143" y="5" width="32" height="36" rx="7"/><text class="syn" x="153" y="31">(</text><rect class="s" x="185" y="5" width="44" height="36" rx="7"/><text class="k" x="195" y="31">ip</text><rect class="s" x="239" y="5" width="32" height="36" rx="7"/><text class="syn" x="249" y="31">,</text><rect class="s" x="281" y="5" width="188" height="36" rx="7"/><text class="k" x="291" y="31">prefixLengthV4</text><rect class="s" x="479" y="5" width="32" height="36" rx="7"/><text class="syn" x="489" y="31">,</text><rect class="s" x="521" y="5" width="188" height="36" rx="7"/><text class="k" x="531" y="31">prefixLengthV6</text><rect class="s" x="719" y="5" width="32" height="36" rx="7"/><text class="syn" x="729" y="31">)</text></svg>