<svg xmlns="http://www.w3.org/2000/svg" width="340" height="340" viewBox="0 0 340 340">
  <path d="M 316.55 170.00 L 273.61 273.61 L 170.00 316.55 L 66.39 273.61 L 23.45 170.00 L 66.39 66.39 L 170.00 23.45 L 273.61 66.39 L 316.55 170.00 Z" fill="#80d0d0" fill-opacity="0.60" stroke="#0a8aa6" stroke-width="1.50" stroke-linejoin="round" stroke-linecap="round" fill-rule="evenodd"/>
  <path d="M 316.55 170.00 L 315.23 189.20 L 311.57 207.96 L 305.41 226.13 L 296.91 243.28 L 286.22 259.25 L 273.61 273.61 L 259.25 286.22 L 243.28 296.91 L 226.13 305.41 L 207.96 311.57 L 189.20 315.23 L 170.00 316.55 L 150.80 315.23 L 132.04 311.57 L 113.87 305.41 L 96.72 296.91 L 80.75 286.22 L 66.39 273.61 L 53.78 259.25 L 43.09 243.28 L 34.59 226.13 L 28.43 207.96 L 24.77 189.20 L 23.45 170.00 L 24.77 150.80 L 28.43 132.04 L 34.59 113.87 L 43.09 96.72 L 53.78 80.75 L 66.39 66.39 L 80.75 53.78 L 96.72 43.09 L 113.87 34.59 L 132.04 28.43 L 150.80 24.77 L 170.00 23.45 L 189.20 24.77 L 207.96 28.43 L 226.13 34.59 L 243.28 43.09 L 259.25 53.78 L 273.61 66.39 L 286.22 80.75 L 296.91 96.72 L 305.41 113.87 L 311.57 132.04 L 315.23 150.80 L 316.55 170.00 Z" fill="none" fill-opacity="1.00" stroke="#888888" stroke-width="1.50" stroke-linejoin="round" stroke-linecap="round" fill-rule="evenodd"/>
</svg>
