<svg version="1.1" xmlns:xlink="http://www.w3.org/1999/xlink" xmlns="http://www.w3.org/2000/svg" width="458" height="76" viewbox="0 0 458 76"><defs><style type="text/css">.c{fill:none;stroke:#222222;}.k{fill:#000000;font-family: ui-monospace, SFMono-Regular, Menlo, Monaco, Consolas, "Liberation Mono", "Courier New", monospace;font-size:20px;}.s{fill:#e4f4ff;stroke:#222222;}.syn{fill:#8D8D8D;font-family: ui-monospace, SFMono-Regular, Menlo, Monaco, Consolas, "Liberation Mono", "Courier New", monospace;font-size:20px;}</style></defs><path class="c" d="M0 46h5m104 0h10m32 0h50m-5 0q-5 0-5-5v-26q0-5 5-5h180q5 0 5 5v26q0 5-5 5m-143 0h10m128 0h40m-245 0q5 0 5 5v10q0 5 5 5h220q5 0 5-5v-10q0-5 5-5m5 0h10m32 0h5"/><rect class="s" x="5" y="20" width="104" height="36"/><text class="k" x="15" y="46">WITHOUT</text><rect class="s" x="119" y="20" width="32" height="36" rx="7"/><text class="syn" x="129" y="46">(</text><rect class="s" x="201" y="20" width="32" height="36" rx="7"/><text class="syn" x="211" y="46">,</text><rect class="s" x="243" y="20" width="128" height="36" rx="7"/><text class="k" x="253" y="46">dimension</text><rect class="s" x="421" y="20" width="32" height="36" rx="7"/><text class="syn" x="431" y="46">)</text></svg>