<?xml version="1.0" encoding="UTF-8"?>
<svg viewBox="-20 -80 840 380" xmlns="http://www.w3.org/2000/svg">
    <!-- Arrow markers definition -->
    <defs>
        <marker id="arrowhead" markerWidth="10" markerHeight="7" refX="9" refY="3.5" orient="auto">
            <polygon points="0 0, 10 3.5, 0 7" fill="#666"/>
        </marker>
        <marker id="arrowhead-blue" markerWidth="10" markerHeight="7" refX="9" refY="3.5" orient="auto">
            <polygon points="0 0, 10 3.5, 0 7" fill="#0066cc"/>
        </marker>
    </defs>
    
    <!-- Custom Instructions component -->
    <g>
        <text x="470" y="-15" text-anchor="middle" font-family="Arial" font-size="11" fill="#666">Define how the model should</text>
        <text x="470" y="-5" text-anchor="middle" font-family="Arial" font-size="11" fill="#666">parse and render information</text>
        <rect x="410" y="5" width="120" height="35" rx="10" fill="#e8f0f9" stroke="#0066cc"/>
        <text x="470" y="25" text-anchor="middle" font-family="Arial" font-size="12" fill="#333">Custom instructions</text>
        <line x1="470" y1="40" x2="470" y2="95" stroke="#0066cc" stroke-width="2" stroke-dasharray="2" marker-end="url(#arrowhead-blue)"/>
    </g>

    <!-- Search Strategy component -->
    <g>
        <text x="310" y="-15" text-anchor="middle" font-family="Arial" font-size="11" fill="#666">Full-text, semantic</text>
        <text x="310" y="-5" text-anchor="middle" font-family="Arial" font-size="11" fill="#666">or hybrid search</text>
        <rect x="250" y="5" width="120" height="35" rx="10" fill="#e8f0f9" stroke="#0066cc"/>
        <text x="310" y="25" text-anchor="middle" font-family="Arial" font-size="12" fill="#333">Search strategy</text>
        <line x1="310" y1="40" x2="310" y2="95" stroke="#0066cc" stroke-width="2" stroke-dasharray="2" marker-end="url(#arrowhead-blue)"/>
    </g>

    <!-- Number circles -->
    <g>
        <circle cx="150" cy="85" r="10" fill="#333"/>
        <text x="150" y="89" text-anchor="middle" font-family="Arial" font-size="12" fill="white">1</text>
        
        <circle cx="240" cy="85" r="10" fill="#333"/>
        <text x="240" y="89" text-anchor="middle" font-family="Arial" font-size="12" fill="white">2</text>
        
        <circle cx="400" cy="85" r="10" fill="#333"/>
        <text x="400" y="89" text-anchor="middle" font-family="Arial" font-size="12" fill="white">3</text>
        
        <circle cx="580" cy="85" r="10" fill="#333"/>
        <text x="580" y="89" text-anchor="middle" font-family="Arial" font-size="12" fill="white">4</text>
    </g>

    <!-- Main flow components -->
    <!-- Input component -->
    <path d="M150,115 h45 a15,15 0 0 1 0,30 h-45 a15,15 0 0 1 0,-30" fill="#edf7ec" stroke="#006400"/>
    <text x="172" y="135" text-anchor="middle" font-family="Arial" font-size="12" fill="#006400">User query</text>

    <!-- Search component -->
    <rect x="250" y="100" width="120" height="60" rx="10" fill="#f0f0f0" stroke="#000"/>
    <text x="310" y="135" text-anchor="middle" font-family="Arial" font-size="12" fill="#333">Elasticsearch</text>
    <text x="310" y="180" text-anchor="middle" font-family="Arial" font-size="12" fill="#666">
        <tspan font-weight="bold">Retrieves</tspan> relevant</text>
    <text x="310" y="195" text-anchor="middle" font-family="Arial" font-size="12" fill="#666">documents</text>

    <!-- Processing component -->
    <rect x="410" y="100" width="120" height="60" rx="10" fill="#f0f0f0" stroke="#000"/>
    <text x="470" y="135" text-anchor="middle" font-family="Arial" font-size="12" fill="#333">Language model</text>
    <text x="470" y="180" text-anchor="middle" font-family="Arial" font-size="12" fill="#666">Processes context &amp;</text>
    <text x="470" y="195" text-anchor="middle" font-family="Arial" font-size="12" fill="#666">
        <tspan font-weight="bold">generates</tspan> answer</text>

    <!-- Flow connections (arrows) -->
    <line x1="210" y1="130" x2="250" y2="130" stroke="#666" stroke-width="2" marker-end="url(#arrowhead)"/>
    <line x1="370" y1="130" x2="410" y2="130" stroke="#666" stroke-width="2" marker-end="url(#arrowhead)"/>
    <line x1="530" y1="130" x2="570" y2="130" stroke="#666" stroke-width="2" marker-end="url(#arrowhead)"/>

    <!-- Output component -->
    <path d="M585,115 h45 a15,15 0 0 1 0,30 h-45 a15,15 0 0 1 0,-30" fill="#edf7ec" stroke="#006400"/>
    <text x="607" y="135" text-anchor="middle" font-family="Arial" font-size="12" fill="#006400">Response</text>
</svg>