<svg version="1.1" viewBox="0.0 0.0 833.0 515.0" fill="none" stroke="none" stroke-linecap="square" stroke-miterlimit="10" width="833" height="515" xmlns:xlink="http://www.w3.org/1999/xlink" xmlns="http://www.w3.org/2000/svg"><path fill="#ffffff" d="M0 0L833.0 0L833.0 515.0L0 515.0L0 0Z" fill-rule="nonzero"/><path stroke="#cccccc" stroke-width="1.0" stroke-linecap="butt" d="M52.5 437.5L807.5 437.5" fill-rule="nonzero"/><path stroke="#cccccc" stroke-width="1.0" stroke-linecap="butt" d="M52.5 336.5L807.5 336.5" fill-rule="nonzero"/><path stroke="#cccccc" stroke-width="1.0" stroke-linecap="butt" d="M52.5 235.5L807.5 235.5" fill-rule="nonzero"/><path stroke="#cccccc" stroke-width="1.0" stroke-linecap="butt" d="M52.5 133.5L807.5 133.5" fill-rule="nonzero"/><path stroke="#cccccc" stroke-width="1.0" stroke-linecap="butt" d="M52.5 32.5L807.5 32.5" fill-rule="nonzero"/><path stroke="#000000" stroke-width="1.0" stroke-linecap="butt" d="M52.5 437.5L52.5 32.5" fill-rule="nonzero"/><clipPath id="id_0"><path d="M52.75 32.75L807.25 32.75L807.25 437.25L52.75 437.25L52.75 32.75Z" clip-rule="nonzero"/></clipPath><path stroke="#f04e98" stroke-width="2.0" stroke-linecap="butt" clip-path="url(#id_0)" d="M66.24904 336.125L248.12453 285.5625L430.0 133.875L611.8755 133.875L793.751 285.5625" fill-rule="nonzero"/><path fill="#f04e98" clip-path="url(#id_0)" d="M74.24904 336.125C74.24904 340.54327 70.66732 344.125 66.24904 344.125C61.830765 344.125 58.249043 340.54327 58.249043 336.125C58.249043 331.70673 61.830765 328.125 66.24904 328.125C70.66732 328.125 74.24904 331.70673 74.24904 336.125Z" fill-rule="nonzero"/><path fill="#f04e98" clip-path="url(#id_0)" d="M256.1245 285.5625C256.1245 289.98077 252.5428 293.5625 248.12453 293.5625C243.70624 293.5625 240.12453 289.98077 240.12453 285.5625C240.12453 281.14423 243.70624 277.5625 248.12453 277.5625C252.5428 277.5625 256.1245 281.14423 256.1245 285.5625Z" fill-rule="nonzero"/><path fill="#f04e98" clip-path="url(#id_0)" d="M438.0 133.875C438.0 138.29327 434.41827 141.875 430.0 141.875C425.58173 141.875 422.0 138.29327 422.0 133.875C422.0 129.45673 425.58173 125.875 430.0 125.875C434.41827 125.875 438.0 129.45673 438.0 133.875Z" fill-rule="nonzero"/><path fill="#f04e98" clip-path="url(#id_0)" d="M619.8755 133.875C619.8755 138.29327 616.29376 141.875 611.8755 141.875C607.4572 141.875 603.8755 138.29327 603.8755 133.875C603.8755 129.45673 607.4572 125.875 611.8755 125.875C616.29376 125.875 619.8755 129.45673 619.8755 133.875Z" fill-rule="nonzero"/><path fill="#f04e98" clip-path="url(#id_0)" d="M801.751 285.5625C801.751 289.98077 798.16925 293.5625 793.751 293.5625C789.3327 293.5625 785.751 289.98077 785.751 285.5625C785.751 281.14423 789.3327 277.5625 793.751 277.5625C798.16925 277.5625 801.751 281.14423 801.751 285.5625Z" fill-rule="nonzero"/><path fill="#000000" d="M401.29688 485.29688Q400.92188 485.73438 400.45312 486.0Q399.98438 486.26562 399.5 486.26562Q398.98438 486.26562 398.48438 485.96875Q398.0 485.65625 397.6875 485.03125Q397.39062 484.39062 397.39062 483.64062Q397.39062 482.70312 397.85938 481.76562Q398.34375 480.82812 399.04688 480.35938Q399.75 479.89062 400.42188 479.89062Q400.9375 479.89062 401.39062 480.17188Q401.85938 480.4375 402.1875 480.96875L402.39062 480.0625L403.4375 480.0625L402.59375 484.0Q402.42188 484.8125 402.42188 484.90625Q402.42188 485.0625 402.53125 485.1875Q402.65625 485.29688 402.82812 485.29688Q403.14062 485.29688 403.64062 484.9375Q404.3125 484.46875 404.70312 483.6875Q405.09375 482.89062 405.09375 482.04688Q405.09375 481.07812 404.59375 480.23438Q404.09375 479.375 403.09375 478.875Q402.10938 478.35938 400.90625 478.35938Q399.53125 478.35938 398.39062 479.0Q397.26562 479.64062 396.64062 480.84375Q396.01562 482.03125 396.01562 483.40625Q396.01562 484.84375 396.64062 485.89062Q397.26562 486.92188 398.4375 487.40625Q399.625 487.90625 401.0625 487.90625Q402.59375 487.90625 403.625 487.39062Q404.67188 486.875 405.1875 486.14062L406.25 486.14062Q405.95312 486.75 405.21875 487.39062Q404.5 488.03125 403.5 488.40625Q402.5 488.78125 401.07812 488.78125Q399.78125 488.78125 398.67188 488.4375Q397.57812 488.10938 396.79688 487.4375Q396.03125 486.76562 395.64062 485.89062Q395.15625 484.78125 395.15625 483.5Q395.15625 482.07812 395.73438 480.78125Q396.45312 479.1875 397.76562 478.34375Q399.07812 477.5 400.95312 477.5Q402.40625 477.5 403.5625 478.09375Q404.71875 478.6875 405.39062 479.875Q405.96875 480.875 405.96875 482.07812Q405.96875 483.76562 404.76562 485.09375Q403.70312 486.28125 402.4375 486.28125Q402.03125 486.28125 401.78125 486.15625Q401.53125 486.03125 401.42188 485.79688Q401.34375 485.65625 401.29688 485.29688ZM398.46875 483.70312Q398.46875 484.51562 398.84375 484.96875Q399.23438 485.40625 399.71875 485.40625Q400.04688 485.40625 400.40625 485.20312Q400.78125 485.0 401.10938 484.625Q401.4375 484.23438 401.64062 483.64062Q401.85938 483.04688 401.85938 482.45312Q401.85938 481.65625 401.45312 481.21875Q401.0625 480.76562 400.5 480.76562Q400.125 480.76562 399.79688 480.96875Q399.46875 481.15625 399.15625 481.57812Q398.84375 482.0 398.65625 482.60938Q398.46875 483.20312 398.46875 483.70312ZM409.59375 485.3125L409.75 486.23438Q409.29688 486.32812 408.95312 486.32812Q408.375 486.32812 408.0625 486.15625Q407.75 485.96875 407.60938 485.67188Q407.48438 485.375 407.48438 484.42188L407.48438 480.84375L406.71875 480.84375L406.71875 480.03125L407.48438 480.03125L407.48438 478.48438L408.53125 477.85938L408.53125 480.03125L409.59375 480.03125L409.59375 480.84375L408.53125 480.84375L408.53125 484.48438Q408.53125 484.9375 408.57812 485.0625Q408.64062 485.1875 408.76562 485.26562Q408.89062 485.34375 409.125 485.34375Q409.3125 485.34375 409.59375 485.3125ZM410.29688 478.875L410.29688 477.65625L411.35938 477.65625L411.35938 478.875L410.29688 478.875ZM410.29688 486.25L410.29688 480.03125L411.35938 480.03125L411.35938 486.25L410.29688 486.25ZM413.29688 486.25L413.29688 480.03125L414.23438 480.03125L414.23438 480.90625Q414.53125 480.4375 415.01562 480.17188Q415.5 479.89062 416.125 479.89062Q416.8125 479.89062 417.25 480.17188Q417.70312 480.45312 417.875 480.96875Q418.625 479.89062 419.79688 479.89062Q420.73438 479.89062 421.21875 480.40625Q421.71875 480.90625 421.71875 481.98438L421.71875 486.25L420.67188 486.25L420.67188 482.32812Q420.67188 481.70312 420.5625 481.42188Q420.46875 481.14062 420.20312 480.96875Q419.9375 480.79688 419.5625 480.79688Q418.90625 480.79688 418.46875 481.23438Q418.04688 481.67188 418.04688 482.64062L418.04688 486.25L416.98438 486.25L416.98438 482.20312Q416.98438 481.5 416.71875 481.15625Q416.46875 480.79688 415.89062 480.79688Q415.4375 480.79688 415.0625 481.03125Q414.6875 481.26562 414.51562 481.71875Q414.34375 482.17188 414.34375 483.01562L414.34375 486.25L413.29688 486.25ZM428.54688 484.25L429.64062 484.375Q429.39062 485.32812 428.6875 485.85938Q427.98438 486.39062 426.90625 486.39062Q425.54688 486.39062 424.73438 485.54688Q423.9375 484.70312 423.9375 483.1875Q423.9375 481.625 424.75 480.76562Q425.5625 479.89062 426.84375 479.89062Q428.09375 479.89062 428.875 480.73438Q429.67188 481.57812 429.67188 483.125Q429.67188 483.21875 429.67188 483.40625L425.03125 483.40625Q425.09375 484.4375 425.60938 484.98438Q426.125 485.51562 426.90625 485.51562Q427.48438 485.51562 427.89062 485.21875Q428.3125 484.90625 428.54688 484.25ZM425.09375 482.54688L428.5625 482.54688Q428.5 481.75 428.17188 481.35938Q427.65625 480.75 426.85938 480.75Q426.125 480.75 425.625 481.23438Q425.14062 481.71875 425.09375 482.54688ZM430.875 484.39062L431.90625 484.23438Q432.0 484.85938 432.39062 485.1875Q432.79688 485.51562 433.53125 485.51562Q434.25 485.51562 434.59375 485.23438Q434.95312 484.9375 434.95312 484.53125Q434.95312 484.17188 434.64062 483.96875Q434.42188 483.82812 433.5625 483.60938Q432.40625 483.3125 431.95312 483.10938Q431.51562 482.89062 431.28125 482.51562Q431.04688 482.14062 431.04688 481.67188Q431.04688 481.26562 431.23438 480.90625Q431.42188 480.54688 431.75 480.3125Q432.0 480.14062 432.42188 480.01562Q432.84375 479.89062 433.34375 479.89062Q434.0625 479.89062 434.60938 480.10938Q435.17188 480.3125 435.4375 480.67188Q435.70312 481.03125 435.79688 481.625L434.76562 481.76562Q434.70312 481.29688 434.35938 481.03125Q434.03125 480.75 433.40625 480.75Q432.6875 480.75 432.375 481.0Q432.0625 481.23438 432.0625 481.5625Q432.0625 481.76562 432.1875 481.92188Q432.32812 482.09375 432.59375 482.20312Q432.75 482.26562 433.53125 482.46875Q434.65625 482.78125 435.09375 482.96875Q435.53125 483.15625 435.78125 483.51562Q436.03125 483.875 436.03125 484.42188Q436.03125 484.95312 435.71875 485.42188Q435.42188 485.875 434.84375 486.14062Q434.26562 486.39062 433.53125 486.39062Q432.3125 486.39062 431.67188 485.89062Q431.04688 485.375 430.875 484.39062ZM440.59375 485.3125L440.75 486.23438Q440.29688 486.32812 439.95312 486.32812Q439.375 486.32812 439.0625 486.15625Q438.75 485.96875 438.60938 485.67188Q438.48438 485.375 438.48438 484.42188L438.48438 480.84375L437.71875 480.84375L437.71875 480.03125L438.48438 480.03125L438.48438 478.48438L439.53125 477.85938L439.53125 480.03125L440.59375 480.03125L440.59375 480.84375L439.53125 480.84375L439.53125 484.48438Q439.53125 484.9375 439.57812 485.0625Q439.64062 485.1875 439.76562 485.26562Q439.89062 485.34375 440.125 485.34375Q440.3125 485.34375 440.59375 485.3125ZM445.35938 485.48438Q444.76562 485.98438 444.21875 486.1875Q443.6875 486.39062 443.0625 486.39062Q442.03125 486.39062 441.48438 485.89062Q440.9375 485.39062 440.9375 484.60938Q440.9375 484.15625 441.14062 483.78125Q441.34375 483.39062 441.6875 483.17188Q442.03125 482.9375 442.45312 482.82812Q442.75 482.73438 443.39062 482.65625Q444.65625 482.51562 445.26562 482.29688Q445.26562 482.07812 445.26562 482.03125Q445.26562 481.375 444.96875 481.10938Q444.5625 480.76562 443.76562 480.76562Q443.03125 480.76562 442.67188 481.03125Q442.3125 481.28125 442.14062 481.9375L441.10938 481.79688Q441.25 481.14062 441.57812 480.73438Q441.90625 480.32812 442.51562 480.10938Q443.125 479.89062 443.92188 479.89062Q444.71875 479.89062 445.21875 480.07812Q445.71875 480.26562 445.95312 480.54688Q446.1875 480.82812 446.28125 481.26562Q446.32812 481.53125 446.32812 482.23438L446.32812 483.64062Q446.32812 485.10938 446.39062 485.5Q446.46875 485.89062 446.67188 486.25L445.5625 486.25Q445.40625 485.92188 445.35938 485.48438ZM445.26562 483.125Q444.6875 483.35938 443.54688 483.53125Q442.89062 483.625 442.625 483.75Q442.35938 483.85938 442.20312 484.07812Q442.0625 484.29688 442.0625 484.57812Q442.0625 485.0 442.375 485.28125Q442.70312 485.5625 443.3125 485.5625Q443.92188 485.5625 444.39062 485.29688Q444.875 485.03125 445.09375 484.5625Q445.26562 484.20312 445.26562 483.51562L445.26562 483.125ZM448.29688 486.25L448.29688 480.03125L449.23438 480.03125L449.23438 480.90625Q449.53125 480.4375 450.01562 480.17188Q450.5 479.89062 451.125 479.89062Q451.8125 479.89062 452.25 480.17188Q452.70312 480.45312 452.875 480.96875Q453.625 479.89062 454.79688 479.89062Q455.73438 479.89062 456.21875 480.40625Q456.71875 480.90625 456.71875 481.98438L456.71875 486.25L455.67188 486.25L455.67188 482.32812Q455.67188 481.70312 455.5625 481.42188Q455.46875 481.14062 455.20312 480.96875Q454.9375 480.79688 454.5625 480.79688Q453.90625 480.79688 453.46875 481.23438Q453.04688 481.67188 453.04688 482.64062L453.04688 486.25L451.98438 486.25L451.98438 482.20312Q451.98438 481.5 451.71875 481.15625Q451.46875 480.79688 450.89062 480.79688Q450.4375 480.79688 450.0625 481.03125Q449.6875 481.26562 449.51562 481.71875Q449.34375 482.17188 449.34375 483.01562L449.34375 486.25L448.29688 486.25ZM459.29688 488.64062L459.29688 480.03125L460.25 480.03125L460.25 480.82812Q460.59375 480.35938 461.01562 480.125Q461.45312 479.89062 462.0625 479.89062Q462.85938 479.89062 463.46875 480.29688Q464.07812 480.70312 464.375 481.45312Q464.6875 482.20312 464.6875 483.09375Q464.6875 484.04688 464.34375 484.8125Q464.01562 485.57812 463.35938 485.98438Q462.70312 486.39062 461.98438 486.39062Q461.45312 486.39062 461.03125 486.17188Q460.60938 485.9375 460.34375 485.60938L460.34375 488.64062L459.29688 488.64062ZM460.25 483.17188Q460.25 484.375 460.73438 484.95312Q461.21875 485.51562 461.90625 485.51562Q462.60938 485.51562 463.10938 484.92188Q463.60938 484.32812 463.60938 483.07812Q463.60938 481.89062 463.125 481.3125Q462.64062 480.71875 461.95312 480.71875Q461.28125 480.71875 460.76562 481.34375Q460.25 481.96875 460.25 483.17188Z" fill-rule="nonzero"/><path fill="#000000" d="M33.25 438.98438L34.3125 438.84375Q34.484375 439.73438 34.921875 440.14062Q35.359375 440.53125 35.984375 440.53125Q36.734375 440.53125 37.25 440.01562Q37.765625 439.5 37.765625 438.73438Q37.765625 438.01562 37.28125 437.54688Q36.8125 437.0625 36.078125 437.0625Q35.78125 437.0625 35.328125 437.1875L35.453125 436.25Q35.5625 436.26562 35.625 436.26562Q36.296875 436.26562 36.828125 435.92188Q37.375 435.5625 37.375 434.82812Q37.375 434.25 36.984375 433.875Q36.59375 433.48438 35.96875 433.48438Q35.359375 433.48438 34.9375 433.875Q34.53125 434.26562 34.421875 435.03125L33.359375 434.84375Q33.546875 433.79688 34.234375 433.21875Q34.921875 432.625 35.9375 432.625Q36.640625 432.625 37.234375 432.9375Q37.828125 433.23438 38.140625 433.75Q38.453125 434.26562 38.453125 434.85938Q38.453125 435.40625 38.15625 435.875Q37.859375 436.32812 37.28125 436.59375Q38.03125 436.76562 38.453125 437.32812Q38.875 437.875 38.875 438.71875Q38.875 439.84375 38.046875 440.625Q37.234375 441.40625 35.984375 441.40625Q34.859375 441.40625 34.109375 440.73438Q33.359375 440.04688 33.25 438.98438ZM45.796875 440.23438L45.796875 441.25L40.109375 441.25Q40.109375 440.875 40.234375 440.51562Q40.453125 439.9375 40.921875 439.375Q41.40625 438.8125 42.3125 438.07812Q43.71875 436.92188 44.203125 436.25Q44.703125 435.57812 44.703125 434.98438Q44.703125 434.35938 44.25 433.9375Q43.796875 433.5 43.078125 433.5Q42.3125 433.5 41.859375 433.95312Q41.40625 434.40625 41.390625 435.21875L40.3125 435.10938Q40.421875 433.89062 41.140625 433.26562Q41.875 432.625 43.109375 432.625Q44.34375 432.625 45.0625 433.3125Q45.78125 434.0 45.78125 435.01562Q45.78125 435.53125 45.5625 436.03125Q45.359375 436.51562 44.859375 437.07812Q44.375 437.625 43.25 438.57812Q42.296875 439.375 42.015625 439.67188Q41.75 439.95312 41.578125 440.23438L45.796875 440.23438Z" fill-rule="nonzero"/><path fill="#000000" d="M33.25 337.85938L34.3125 337.71875Q34.484375 338.60938 34.921875 339.01562Q35.359375 339.40625 35.984375 339.40625Q36.734375 339.40625 37.25 338.89062Q37.765625 338.375 37.765625 337.60938Q37.765625 336.89062 37.28125 336.42188Q36.8125 335.9375 36.078125 335.9375Q35.78125 335.9375 35.328125 336.0625L35.453125 335.125Q35.5625 335.14062 35.625 335.14062Q36.296875 335.14062 36.828125 334.79688Q37.375 334.4375 37.375 333.70312Q37.375 333.125 36.984375 332.75Q36.59375 332.35938 35.96875 332.35938Q35.359375 332.35938 34.9375 332.75Q34.53125 333.14062 34.421875 333.90625L33.359375 333.71875Q33.546875 332.67188 34.234375 332.09375Q34.921875 331.5 35.9375 331.5Q36.640625 331.5 37.234375 331.8125Q37.828125 332.10938 38.140625 332.625Q38.453125 333.14062 38.453125 333.73438Q38.453125 334.28125 38.15625 334.75Q37.859375 335.20312 37.28125 335.46875Q38.03125 335.64062 38.453125 336.20312Q38.875 336.75 38.875 337.59375Q38.875 338.71875 38.046875 339.5Q37.234375 340.28125 35.984375 340.28125Q34.859375 340.28125 34.109375 339.60938Q33.359375 338.92188 33.25 337.85938ZM43.625 340.125L43.625 338.0625L39.90625 338.0625L39.90625 337.09375L43.828125 331.53125L44.6875 331.53125L44.6875 337.09375L45.84375 337.09375L45.84375 338.0625L44.6875 338.0625L44.6875 340.125L43.625 340.125ZM43.625 337.09375L43.625 333.23438L40.9375 337.09375L43.625 337.09375Z" fill-rule="nonzero"/><path fill="#000000" d="M33.25 236.73438L34.3125 236.59375Q34.484375 237.48438 34.921875 237.89062Q35.359375 238.28125 35.984375 238.28125Q36.734375 238.28125 37.25 237.76562Q37.765625 237.25 37.765625 236.48438Q37.765625 235.76562 37.28125 235.29688Q36.8125 234.8125 36.078125 234.8125Q35.78125 234.8125 35.328125 234.9375L35.453125 234.0Q35.5625 234.01562 35.625 234.01562Q36.296875 234.01562 36.828125 233.67188Q37.375 233.3125 37.375 232.57812Q37.375 232.0 36.984375 231.625Q36.59375 231.23438 35.96875 231.23438Q35.359375 231.23438 34.9375 231.625Q34.53125 232.01562 34.421875 232.78125L33.359375 232.59375Q33.546875 231.54688 34.234375 230.96875Q34.921875 230.375 35.9375 230.375Q36.640625 230.375 37.234375 230.6875Q37.828125 230.98438 38.140625 231.5Q38.453125 232.01562 38.453125 232.60938Q38.453125 233.15625 38.15625 233.625Q37.859375 234.07812 37.28125 234.34375Q38.03125 234.51562 38.453125 235.07812Q38.875 235.625 38.875 236.46875Q38.875 237.59375 38.046875 238.375Q37.234375 239.15625 35.984375 239.15625Q34.859375 239.15625 34.109375 238.48438Q33.359375 237.79688 33.25 236.73438ZM45.71875 232.51562L44.671875 232.59375Q44.53125 231.96875 44.28125 231.6875Q43.84375 231.23438 43.21875 231.23438Q42.71875 231.23438 42.328125 231.51562Q41.84375 231.89062 41.546875 232.59375Q41.265625 233.28125 41.25 234.5625Q41.625 233.98438 42.171875 233.70312Q42.734375 233.42188 43.34375 233.42188Q44.390625 233.42188 45.125 234.20312Q45.875 234.98438 45.875 236.20312Q45.875 237.01562 45.515625 237.71875Q45.171875 238.40625 44.5625 238.78125Q43.953125 239.14062 43.1875 239.14062Q41.859375 239.14062 41.03125 238.17188Q40.203125 237.20312 40.203125 234.98438Q40.203125 232.48438 41.125 231.35938Q41.921875 230.375 43.28125 230.375Q44.296875 230.375 44.9375 230.95312Q45.59375 231.51562 45.71875 232.51562ZM41.421875 236.21875Q41.421875 236.76562 41.640625 237.26562Q41.875 237.75 42.28125 238.01562Q42.703125 238.28125 43.171875 238.28125Q43.828125 238.28125 44.3125 237.75Q44.796875 237.20312 44.796875 236.28125Q44.796875 235.39062 44.3125 234.875Q43.84375 234.35938 43.125 234.35938Q42.40625 234.35938 41.90625 234.875Q41.421875 235.39062 41.421875 236.21875Z" fill-rule="nonzero"/><path fill="#000000" d="M33.25 135.60938L34.3125 135.46875Q34.484375 136.35938 34.921875 136.76562Q35.359375 137.15625 35.984375 137.15625Q36.734375 137.15625 37.25 136.64062Q37.765625 136.125 37.765625 135.35938Q37.765625 134.64062 37.28125 134.17188Q36.8125 133.6875 36.078125 133.6875Q35.78125 133.6875 35.328125 133.8125L35.453125 132.875Q35.5625 132.89062 35.625 132.89062Q36.296875 132.89062 36.828125 132.54688Q37.375 132.1875 37.375 131.45312Q37.375 130.875 36.984375 130.5Q36.59375 130.10938 35.96875 130.10938Q35.359375 130.10938 34.9375 130.5Q34.53125 130.89062 34.421875 131.65625L33.359375 131.46875Q33.546875 130.42188 34.234375 129.84375Q34.921875 129.25 35.9375 129.25Q36.640625 129.25 37.234375 129.5625Q37.828125 129.85938 38.140625 130.375Q38.453125 130.89062 38.453125 131.48438Q38.453125 132.03125 38.15625 132.5Q37.859375 132.95312 37.28125 133.21875Q38.03125 133.39062 38.453125 133.95312Q38.875 134.5 38.875 135.34375Q38.875 136.46875 38.046875 137.25Q37.234375 138.03125 35.984375 138.03125Q34.859375 138.03125 34.109375 137.35938Q33.359375 136.67188 33.25 135.60938ZM41.875 133.21875Q41.21875 132.96875 40.890625 132.53125Q40.578125 132.07812 40.578125 131.46875Q40.578125 130.53125 41.25 129.89062Q41.9375 129.25 43.046875 129.25Q44.171875 129.25 44.859375 129.90625Q45.546875 130.5625 45.546875 131.5Q45.546875 132.09375 45.234375 132.53125Q44.921875 132.96875 44.28125 133.21875Q45.078125 133.46875 45.484375 134.04688Q45.890625 134.625 45.890625 135.42188Q45.890625 136.51562 45.109375 137.26562Q44.34375 138.01562 43.0625 138.01562Q41.796875 138.01562 41.015625 137.26562Q40.234375 136.51562 40.234375 135.39062Q40.234375 134.54688 40.65625 133.98438Q41.09375 133.42188 41.875 133.21875ZM41.65625 131.42188Q41.65625 132.03125 42.046875 132.42188Q42.453125 132.8125 43.078125 132.8125Q43.6875 132.8125 44.078125 132.4375Q44.46875 132.04688 44.46875 131.48438Q44.46875 130.90625 44.0625 130.51562Q43.65625 130.10938 43.0625 130.10938Q42.453125 130.10938 42.046875 130.5Q41.65625 130.89062 41.65625 131.42188ZM41.328125 135.39062Q41.328125 135.84375 41.53125 136.26562Q41.75 136.6875 42.171875 136.92188Q42.59375 137.15625 43.078125 137.15625Q43.828125 137.15625 44.3125 136.67188Q44.8125 136.1875 44.8125 135.4375Q44.8125 134.67188 44.3125 134.17188Q43.8125 133.67188 43.046875 133.67188Q42.296875 133.67188 41.8125 134.17188Q41.328125 134.65625 41.328125 135.39062Z" fill-rule="nonzero"/><path fill="#000000" d="M36.625 36.75L36.625 34.6875L32.90625 34.6875L32.90625 33.71875L36.828125 28.15625L37.6875 28.15625L37.6875 33.71875L38.84375 33.71875L38.84375 34.6875L37.6875 34.6875L37.6875 36.75L36.625 36.75ZM36.625 33.71875L36.625 29.859375L33.9375 33.71875L36.625 33.71875ZM40.25 32.515625Q40.25 30.984375 40.5625 30.0625Q40.875 29.125 41.484375 28.625Q42.109375 28.125 43.046875 28.125Q43.734375 28.125 44.25 28.40625Q44.78125 28.6875 45.125 29.21875Q45.46875 29.734375 45.65625 30.484375Q45.84375 31.234375 45.84375 32.515625Q45.84375 34.03125 45.53125 34.953125Q45.234375 35.875 44.609375 36.390625Q44.0 36.890625 43.046875 36.890625Q41.8125 36.890625 41.09375 36.0Q40.25 34.9375 40.25 32.515625ZM41.328125 32.515625Q41.328125 34.625 41.828125 35.328125Q42.328125 36.03125 43.046875 36.03125Q43.78125 36.03125 44.265625 35.328125Q44.765625 34.625 44.765625 32.515625Q44.765625 30.390625 44.265625 29.703125Q43.78125 29.0 43.03125 29.0Q42.3125 29.0 41.875 29.609375Q41.328125 30.390625 41.328125 32.515625Z" fill-rule="nonzero"/><path fill="#000000" d="M46.311543 446.78125L46.311543 445.76562L51.874043 445.76562L51.874043 446.59375Q51.061543 447.46875 50.249043 448.92188Q49.452168 450.35938 49.014668 451.89062Q48.686543 452.96875 48.608418 454.25L47.514668 454.25Q47.530293 453.23438 47.905293 451.79688Q48.295918 450.35938 48.999043 449.03125Q49.717793 447.70312 50.530293 446.78125L46.311543 446.78125ZM53.827168 449.23438L53.827168 448.03125L55.030293 448.03125L55.030293 449.23438L53.827168 449.23438ZM53.827168 454.25L53.827168 453.04688L55.030293 453.04688L55.030293 454.25L53.827168 454.25ZM56.249043 450.01562Q56.249043 448.48438 56.561543 447.5625Q56.874043 446.625 57.483418 446.125Q58.108418 445.625 59.045918 445.625Q59.733418 445.625 60.249043 445.90625Q60.780293 446.1875 61.124043 446.71875Q61.467793 447.23438 61.655293 447.98438Q61.842793 448.73438 61.842793 450.01562Q61.842793 451.53125 61.530293 452.45312Q61.233418 453.375 60.608418 453.89062Q59.999043 454.39062 59.045918 454.39062Q57.811543 454.39062 57.092793 453.5Q56.249043 452.4375 56.249043 450.01562ZM57.327168 450.01562Q57.327168 452.125 57.827168 452.82812Q58.327168 453.53125 59.045918 453.53125Q59.780293 453.53125 60.264668 452.82812Q60.764668 452.125 60.764668 450.01562Q60.764668 447.89062 60.264668 447.20312Q59.780293 446.5 59.030293 446.5Q58.311543 446.5 57.874043 447.10938Q57.327168 447.89062 57.327168 450.01562ZM63.249043 450.01562Q63.249043 448.48438 63.561543 447.5625Q63.874043 446.625 64.48341 446.125Q65.10841 445.625 66.04591 445.625Q66.73341 445.625 67.24904 445.90625Q67.78029 446.1875 68.12404 446.71875Q68.46779 447.23438 68.65529 447.98438Q68.84279 448.73438 68.84279 450.01562Q68.84279 451.53125 68.53029 452.45312Q68.23341 453.375 67.60841 453.89062Q66.99904 454.39062 66.04591 454.39062Q64.81154 454.39062 64.09279 453.5Q63.249043 452.4375 63.249043 450.01562ZM64.32716 450.01562Q64.32716 452.125 64.82716 452.82812Q65.32716 453.53125 66.04591 453.53125Q66.78029 453.53125 67.26466 452.82812Q67.76466 452.125 67.76466 450.01562Q67.76466 447.89062 67.26466 447.20312Q66.78029 446.5 66.03029 446.5Q65.31154 446.5 64.87404 447.10938Q64.32716 447.89062 64.32716 450.01562ZM70.82716 449.23438L70.82716 448.03125L72.03029 448.03125L72.03029 449.23438L70.82716 449.23438ZM70.82716 454.25L70.82716 453.04688L72.03029 453.04688L72.03029 454.25L70.82716 454.25ZM73.24904 450.01562Q73.24904 448.48438 73.56154 447.5625Q73.87404 446.625 74.48341 446.125Q75.10841 445.625 76.04591 445.625Q76.73341 445.625 77.24904 445.90625Q77.78029 446.1875 78.12404 446.71875Q78.46779 447.23438 78.65529 447.98438Q78.84279 448.73438 78.84279 450.01562Q78.84279 451.53125 78.53029 452.45312Q78.23341 453.375 77.60841 453.89062Q76.99904 454.39062 76.04591 454.39062Q74.81154 454.39062 74.09279 453.5Q73.24904 452.4375 73.24904 450.01562ZM74.32716 450.01562Q74.32716 452.125 74.82716 452.82812Q75.32716 453.53125 76.04591 453.53125Q76.78029 453.53125 77.26466 452.82812Q77.76466 452.125 77.76466 450.01562Q77.76466 447.89062 77.26466 447.20312Q76.78029 446.5 76.03029 446.5Q75.31154 446.5 74.87404 447.10938Q74.32716 447.89062 74.32716 450.01562ZM80.24904 450.01562Q80.24904 448.48438 80.56154 447.5625Q80.87404 446.625 81.48341 446.125Q82.10841 445.625 83.04591 445.625Q83.73341 445.625 84.24904 445.90625Q84.78029 446.1875 85.12404 446.71875Q85.46779 447.23438 85.65529 447.98438Q85.84279 448.73438 85.84279 450.01562Q85.84279 451.53125 85.53029 452.45312Q85.23341 453.375 84.60841 453.89062Q83.99904 454.39062 83.04591 454.39062Q81.81154 454.39062 81.09279 453.5Q80.24904 452.4375 80.24904 450.01562ZM81.32716 450.01562Q81.32716 452.125 81.82716 452.82812Q82.32716 453.53125 83.04591 453.53125Q83.78029 453.53125 84.26466 452.82812Q84.76466 452.125 84.76466 450.01562Q84.76466 447.89062 84.26466 447.20312Q83.78029 446.5 83.03029 446.5Q82.31154 446.5 81.87404 447.10938Q81.32716 447.89062 81.32716 450.01562Z" fill-rule="nonzero"/><path fill="#000000" d="M228.18703 446.78125L228.18703 445.76562L233.74953 445.76562L233.74953 446.59375Q232.93703 447.46875 232.12453 448.92188Q231.32765 450.35938 230.89015 451.89062Q230.56203 452.96875 230.4839 454.25L229.39015 454.25Q229.40578 453.23438 229.78078 451.79688Q230.1714 450.35938 230.87453 449.03125Q231.59328 447.70312 232.40578 446.78125L228.18703 446.78125ZM235.70265 449.23438L235.70265 448.03125L236.90578 448.03125L236.90578 449.23438L235.70265 449.23438ZM235.70265 454.25L235.70265 453.04688L236.90578 453.04688L236.90578 454.25L235.70265 454.25ZM238.12453 450.01562Q238.12453 448.48438 238.43703 447.5625Q238.74953 446.625 239.3589 446.125Q239.9839 445.625 240.9214 445.625Q241.6089 445.625 242.12453 445.90625Q242.65578 446.1875 242.99953 446.71875Q243.34328 447.23438 243.53078 447.98438Q243.71828 448.73438 243.71828 450.01562Q243.71828 451.53125 243.40578 452.45312Q243.1089 453.375 242.4839 453.89062Q241.87453 454.39062 240.9214 454.39062Q239.68703 454.39062 238.96828 453.5Q238.12453 452.4375 238.12453 450.01562ZM239.20265 450.01562Q239.20265 452.125 239.70265 452.82812Q240.20265 453.53125 240.9214 453.53125Q241.65578 453.53125 242.14015 452.82812Q242.64015 452.125 242.64015 450.01562Q242.64015 447.89062 242.14015 447.20312Q241.65578 446.5 240.90578 446.5Q240.18703 446.5 239.74953 447.10938Q239.20265 447.89062 239.20265 450.01562ZM250.6714 453.23438L250.6714 454.25L244.9839 454.25Q244.9839 453.875 245.1089 453.51562Q245.32765 452.9375 245.7964 452.375Q246.28078 451.8125 247.18703 451.07812Q248.59328 449.92188 249.07765 449.25Q249.57765 448.57812 249.57765 447.98438Q249.57765 447.35938 249.12453 446.9375Q248.6714 446.5 247.95265 446.5Q247.18703 446.5 246.7339 446.95312Q246.28078 447.40625 246.26515 448.21875L245.18703 448.10938Q245.2964 446.89062 246.01515 446.26562Q246.74953 445.625 247.9839 445.625Q249.21828 445.625 249.93703 446.3125Q250.65578 447.0 250.65578 448.01562Q250.65578 448.53125 250.43703 449.03125Q250.2339 449.51562 249.7339 450.07812Q249.24953 450.625 248.12453 451.57812Q247.1714 452.375 246.89015 452.67188Q246.62453 452.95312 246.45265 453.23438L250.6714 453.23438ZM252.70265 449.23438L252.70265 448.03125L253.90578 448.03125L253.90578 449.23438L252.70265 449.23438ZM252.70265 454.25L252.70265 453.04688L253.90578 453.04688L253.90578 454.25L252.70265 454.25ZM255.12453 450.01562Q255.12453 448.48438 255.43703 447.5625Q255.74953 446.625 256.3589 446.125Q256.9839 445.625 257.9214 445.625Q258.6089 445.625 259.1245 445.90625Q259.65576 446.1875 259.9995 446.71875Q260.34326 447.23438 260.53076 447.98438Q260.71826 448.73438 260.71826 450.01562Q260.71826 451.53125 260.40576 452.45312Q260.1089 453.375 259.4839 453.89062Q258.8745 454.39062 257.9214 454.39062Q256.687 454.39062 255.96828 453.5Q255.12453 452.4375 255.12453 450.01562ZM256.20264 450.01562Q256.20264 452.125 256.70264 452.82812Q257.20264 453.53125 257.9214 453.53125Q258.65576 453.53125 259.14014 452.82812Q259.64014 452.125 259.64014 450.01562Q259.64014 447.89062 259.14014 447.20312Q258.65576 446.5 257.90576 446.5Q257.187 446.5 256.7495 447.10938Q256.20264 447.89062 256.20264 450.01562ZM262.1245 450.01562Q262.1245 448.48438 262.437 447.5625Q262.7495 446.625 263.3589 446.125Q263.9839 445.625 264.9214 445.625Q265.6089 445.625 266.1245 445.90625Q266.65576 446.1875 266.9995 446.71875Q267.34326 447.23438 267.53076 447.98438Q267.71826 448.73438 267.71826 450.01562Q267.71826 451.53125 267.40576 452.45312Q267.1089 453.375 266.4839 453.89062Q265.8745 454.39062 264.9214 454.39062Q263.687 454.39062 262.96826 453.5Q262.1245 452.4375 262.1245 450.01562ZM263.20264 450.01562Q263.20264 452.125 263.70264 452.82812Q264.20264 453.53125 264.9214 453.53125Q265.65576 453.53125 266.14014 452.82812Q266.64014 452.125 266.64014 450.01562Q266.64014 447.89062 266.14014 447.20312Q265.65576 446.5 264.90576 446.5Q264.187 446.5 263.7495 447.10938Q263.20264 447.89062 263.20264 450.01562Z" fill-rule="nonzero"/><path fill="#000000" d="M410.0625 446.78125L410.0625 445.76562L415.625 445.76562L415.625 446.59375Q414.8125 447.46875 414.0 448.92188Q413.20312 450.35938 412.76562 451.89062Q412.4375 452.96875 412.35938 454.25L411.26562 454.25Q411.28125 453.23438 411.65625 451.79688Q412.04688 450.35938 412.75 449.03125Q413.46875 447.70312 414.28125 446.78125L410.0625 446.78125ZM417.57812 449.23438L417.57812 448.03125L418.78125 448.03125L418.78125 449.23438L417.57812 449.23438ZM417.57812 454.25L417.57812 453.04688L418.78125 453.04688L418.78125 454.25L417.57812 454.25ZM420.0 450.01562Q420.0 448.48438 420.3125 447.5625Q420.625 446.625 421.23438 446.125Q421.85938 445.625 422.79688 445.625Q423.48438 445.625 424.0 445.90625Q424.53125 446.1875 424.875 446.71875Q425.21875 447.23438 425.40625 447.98438Q425.59375 448.73438 425.59375 450.01562Q425.59375 451.53125 425.28125 452.45312Q424.98438 453.375 424.35938 453.89062Q423.75 454.39062 422.79688 454.39062Q421.5625 454.39062 420.84375 453.5Q420.0 452.4375 420.0 450.01562ZM421.07812 450.01562Q421.07812 452.125 421.57812 452.82812Q422.07812 453.53125 422.79688 453.53125Q423.53125 453.53125 424.01562 452.82812Q424.51562 452.125 424.51562 450.01562Q424.51562 447.89062 424.01562 447.20312Q423.53125 446.5 422.78125 446.5Q422.0625 446.5 421.625 447.10938Q421.07812 447.89062 421.07812 450.01562ZM430.375 454.25L430.375 452.1875L426.65625 452.1875L426.65625 451.21875L430.57812 445.65625L431.4375 445.65625L431.4375 451.21875L432.59375 451.21875L432.59375 452.1875L431.4375 452.1875L431.4375 454.25L430.375 454.25ZM430.375 451.21875L430.375 447.35938L427.6875 451.21875L430.375 451.21875ZM434.57812 449.23438L434.57812 448.03125L435.78125 448.03125L435.78125 449.23438L434.57812 449.23438ZM434.57812 454.25L434.57812 453.04688L435.78125 453.04688L435.78125 454.25L434.57812 454.25ZM437.0 450.01562Q437.0 448.48438 437.3125 447.5625Q437.625 446.625 438.23438 446.125Q438.85938 445.625 439.79688 445.625Q440.48438 445.625 441.0 445.90625Q441.53125 446.1875 441.875 446.71875Q442.21875 447.23438 442.40625 447.98438Q442.59375 448.73438 442.59375 450.01562Q442.59375 451.53125 442.28125 452.45312Q441.98438 453.375 441.35938 453.89062Q440.75 454.39062 439.79688 454.39062Q438.5625 454.39062 437.84375 453.5Q437.0 452.4375 437.0 450.01562ZM438.07812 450.01562Q438.07812 452.125 438.57812 452.82812Q439.07812 453.53125 439.79688 453.53125Q440.53125 453.53125 441.01562 452.82812Q441.51562 452.125 441.51562 450.01562Q441.51562 447.89062 441.01562 447.20312Q440.53125 446.5 439.78125 446.5Q439.0625 446.5 438.625 447.10938Q438.07812 447.89062 438.07812 450.01562ZM444.0 450.01562Q444.0 448.48438 444.3125 447.5625Q444.625 446.625 445.23438 446.125Q445.85938 445.625 446.79688 445.625Q447.48438 445.625 448.0 445.90625Q448.53125 446.1875 448.875 446.71875Q449.21875 447.23438 449.40625 447.98438Q449.59375 448.73438 449.59375 450.01562Q449.59375 451.53125 449.28125 452.45312Q448.98438 453.375 448.35938 453.89062Q447.75 454.39062 446.79688 454.39062Q445.5625 454.39062 444.84375 453.5Q444.0 452.4375 444.0 450.01562ZM445.07812 450.01562Q445.07812 452.125 445.57812 452.82812Q446.07812 453.53125 446.79688 453.53125Q447.53125 453.53125 448.01562 452.82812Q448.51562 452.125 448.51562 450.01562Q448.51562 447.89062 448.01562 447.20312Q447.53125 446.5 446.78125 446.5Q446.0625 446.5 445.625 447.10938Q445.07812 447.89062 445.07812 450.01562Z" fill-rule="nonzero"/><path fill="#000000" d="M591.938 446.78125L591.938 445.76562L597.5005 445.76562L597.5005 446.59375Q596.688 447.46875 595.8755 448.92188Q595.0786 450.35938 594.6411 451.89062Q594.313 452.96875 594.23486 454.25L593.1411 454.25Q593.15674 453.23438 593.53174 451.79688Q593.92236 450.35938 594.6255 449.03125Q595.34424 447.70312 596.15674 446.78125L591.938 446.78125ZM599.4536 449.23438L599.4536 448.03125L600.65674 448.03125L600.65674 449.23438L599.4536 449.23438ZM599.4536 454.25L599.4536 453.04688L600.65674 453.04688L600.65674 454.25L599.4536 454.25ZM601.8755 450.01562Q601.8755 448.48438 602.188 447.5625Q602.5005 446.625 603.10986 446.125Q603.73486 445.625 604.67236 445.625Q605.35986 445.625 605.8755 445.90625Q606.40674 446.1875 606.7505 446.71875Q607.09424 447.23438 607.28174 447.98438Q607.46924 448.73438 607.46924 450.01562Q607.46924 451.53125 607.15674 452.45312Q606.85986 453.375 606.23486 453.89062Q605.6255 454.39062 604.67236 454.39062Q603.438 454.39062 602.71924 453.5Q601.8755 452.4375 601.8755 450.01562ZM602.9536 450.01562Q602.9536 452.125 603.4536 452.82812Q603.9536 453.53125 604.67236 453.53125Q605.40674 453.53125 605.8911 452.82812Q606.3911 452.125 606.3911 450.01562Q606.3911 447.89062 605.8911 447.20312Q605.40674 446.5 604.65674 446.5Q603.938 446.5 603.5005 447.10938Q602.9536 447.89062 602.9536 450.01562ZM614.34424 447.76562L613.29736 447.84375Q613.15674 447.21875 612.90674 446.9375Q612.46924 446.48438 611.84424 446.48438Q611.34424 446.48438 610.9536 446.76562Q610.46924 447.14062 610.17236 447.84375Q609.8911 448.53125 609.8755 449.8125Q610.2505 449.23438 610.79736 448.95312Q611.35986 448.67188 611.96924 448.67188Q613.0161 448.67188 613.7505 449.45312Q614.5005 450.23438 614.5005 451.45312Q614.5005 452.26562 614.1411 452.96875Q613.79736 453.65625 613.188 454.03125Q612.5786 454.39062 611.813 454.39062Q610.48486 454.39062 609.65674 453.42188Q608.8286 452.45312 608.8286 450.23438Q608.8286 447.73438 609.7505 446.60938Q610.54736 445.625 611.90674 445.625Q612.92236 445.625 613.563 446.20312Q614.21924 446.76562 614.34424 447.76562ZM610.04736 451.46875Q610.04736 452.01562 610.2661 452.51562Q610.5005 453.0 610.90674 453.26562Q611.3286 453.53125 611.79736 453.53125Q612.4536 453.53125 612.938 453.0Q613.42236 452.45312 613.42236 451.53125Q613.42236 450.64062 612.938 450.125Q612.46924 449.60938 611.7505 449.60938Q611.03174 449.60938 610.53174 450.125Q610.04736 450.64062 610.04736 451.46875ZM616.4536 449.23438L616.4536 448.03125L617.65674 448.03125L617.65674 449.23438L616.4536 449.23438ZM616.4536 454.25L616.4536 453.04688L617.65674 453.04688L617.65674 454.25L616.4536 454.25ZM618.8755 450.01562Q618.8755 448.48438 619.188 447.5625Q619.5005 446.625 620.10986 446.125Q620.73486 445.625 621.67236 445.625Q622.35986 445.625 622.8755 445.90625Q623.40674 446.1875 623.7505 446.71875Q624.09424 447.23438 624.28174 447.98438Q624.46924 448.73438 624.46924 450.01562Q624.46924 451.53125 624.15674 452.45312Q623.85986 453.375 623.23486 453.89062Q622.6255 454.39062 621.67236 454.39062Q620.438 454.39062 619.71924 453.5Q618.8755 452.4375 618.8755 450.01562ZM619.9536 450.01562Q619.9536 452.125 620.4536 452.82812Q620.9536 453.53125 621.67236 453.53125Q622.40674 453.53125 622.8911 452.82812Q623.3911 452.125 623.3911 450.01562Q623.3911 447.89062 622.8911 447.20312Q622.40674 446.5 621.65674 446.5Q620.938 446.5 620.5005 447.10938Q619.9536 447.89062 619.9536 450.01562ZM625.8755 450.01562Q625.8755 448.48438 626.188 447.5625Q626.5005 446.625 627.10986 446.125Q627.73486 445.625 628.67236 445.625Q629.35986 445.625 629.8755 445.90625Q630.40674 446.1875 630.7505 446.71875Q631.09424 447.23438 631.28174 447.98438Q631.46924 448.73438 631.46924 450.01562Q631.46924 451.53125 631.15674 452.45312Q630.85986 453.375 630.23486 453.89062Q629.6255 454.39062 628.67236 454.39062Q627.438 454.39062 626.71924 453.5Q625.8755 452.4375 625.8755 450.01562ZM626.9536 450.01562Q626.9536 452.125 627.4536 452.82812Q627.9536 453.53125 628.67236 453.53125Q629.40674 453.53125 629.8911 452.82812Q630.3911 452.125 630.3911 450.01562Q630.3911 447.89062 629.8911 447.20312Q629.40674 446.5 628.65674 446.5Q627.938 446.5 627.5005 447.10938Q626.9536 447.89062 626.9536 450.01562Z" fill-rule="nonzero"/><path fill="#000000" d="M773.8135 446.78125L773.8135 445.76562L779.376 445.76562L779.376 446.59375Q778.5635 447.46875 777.751 448.92188Q776.9541 450.35938 776.5166 451.89062Q776.1885 452.96875 776.11035 454.25L775.0166 454.25Q775.0322 453.23438 775.4072 451.79688Q775.79785 450.35938 776.501 449.03125Q777.2197 447.70312 778.0322 446.78125L773.8135 446.78125ZM781.3291 449.23438L781.3291 448.03125L782.5322 448.03125L782.5322 449.23438L781.3291 449.23438ZM781.3291 454.25L781.3291 453.04688L782.5322 453.04688L782.5322 454.25L781.3291 454.25ZM783.751 450.01562Q783.751 448.48438 784.0635 447.5625Q784.376 446.625 784.98535 446.125Q785.61035 445.625 786.54785 445.625Q787.23535 445.625 787.751 445.90625Q788.2822 446.1875 788.626 446.71875Q788.9697 447.23438 789.1572 447.98438Q789.3447 448.73438 789.3447 450.01562Q789.3447 451.53125 789.0322 452.45312Q788.73535 453.375 788.11035 453.89062Q787.501 454.39062 786.54785 454.39062Q785.3135 454.39062 784.5947 453.5Q783.751 452.4375 783.751 450.01562ZM784.8291 450.01562Q784.8291 452.125 785.3291 452.82812Q785.8291 453.53125 786.54785 453.53125Q787.2822 453.53125 787.7666 452.82812Q788.2666 452.125 788.2666 450.01562Q788.2666 447.89062 787.7666 447.20312Q787.2822 446.5 786.5322 446.5Q785.8135 446.5 785.376 447.10938Q784.8291 447.89062 784.8291 450.01562ZM792.376 449.59375Q791.7197 449.34375 791.3916 448.90625Q791.0791 448.45312 791.0791 447.84375Q791.0791 446.90625 791.751 446.26562Q792.4385 445.625 793.54785 445.625Q794.67285 445.625 795.36035 446.28125Q796.04785 446.9375 796.04785 447.875Q796.04785 448.46875 795.73535 448.90625Q795.42285 449.34375 794.7822 449.59375Q795.5791 449.84375 795.98535 450.42188Q796.3916 451.0 796.3916 451.79688Q796.3916 452.89062 795.61035 453.64062Q794.8447 454.39062 793.5635 454.39062Q792.29785 454.39062 791.5166 453.64062Q790.73535 452.89062 790.73535 451.76562Q790.73535 450.92188 791.1572 450.35938Q791.5947 449.79688 792.376 449.59375ZM792.1572 447.79688Q792.1572 448.40625 792.54785 448.79688Q792.9541 449.1875 793.5791 449.1875Q794.1885 449.1875 794.5791 448.8125Q794.9697 448.42188 794.9697 447.85938Q794.9697 447.28125 794.5635 446.89062Q794.1572 446.48438 793.5635 446.48438Q792.9541 446.48438 792.54785 446.875Q792.1572 447.26562 792.1572 447.79688ZM791.8291 451.76562Q791.8291 452.21875 792.0322 452.64062Q792.251 453.0625 792.67285 453.29688Q793.0947 453.53125 793.5791 453.53125Q794.3291 453.53125 794.8135 453.04688Q795.3135 452.5625 795.3135 451.8125Q795.3135 451.04688 794.8135 450.54688Q794.3135 450.04688 793.54785 450.04688Q792.79785 450.04688 792.3135 450.54688Q791.8291 451.03125 791.8291 451.76562ZM798.3291 449.23438L798.3291 448.03125L799.5322 448.03125L799.5322 449.23438L798.3291 449.23438ZM798.3291 454.25L798.3291 453.04688L799.5322 453.04688L799.5322 454.25L798.3291 454.25ZM800.751 450.01562Q800.751 448.48438 801.0635 447.5625Q801.376 446.625 801.98535 446.125Q802.61035 445.625 803.54785 445.625Q804.23535 445.625 804.751 445.90625Q805.2822 446.1875 805.626 446.71875Q805.9697 447.23438 806.1572 447.98438Q806.3447 448.73438 806.3447 450.01562Q806.3447 451.53125 806.0322 452.45312Q805.73535 453.375 805.11035 453.89062Q804.501 454.39062 803.54785 454.39062Q802.3135 454.39062 801.5947 453.5Q800.751 452.4375 800.751 450.01562ZM801.8291 450.01562Q801.8291 452.125 802.3291 452.82812Q802.8291 453.53125 803.54785 453.53125Q804.2822 453.53125 804.7666 452.82812Q805.2666 452.125 805.2666 450.01562Q805.2666 447.89062 804.7666 447.20312Q804.2822 446.5 803.5322 446.5Q802.8135 446.5 802.376 447.10938Q801.8291 447.89062 801.8291 450.01562ZM807.751 450.01562Q807.751 448.48438 808.0635 447.5625Q808.376 446.625 808.98535 446.125Q809.61035 445.625 810.54785 445.625Q811.23535 445.625 811.751 445.90625Q812.2822 446.1875 812.626 446.71875Q812.9697 447.23438 813.1572 447.98438Q813.3447 448.73438 813.3447 450.01562Q813.3447 451.53125 813.0322 452.45312Q812.73535 453.375 812.11035 453.89062Q811.501 454.39062 810.54785 454.39062Q809.3135 454.39062 808.5947 453.5Q807.751 452.4375 807.751 450.01562ZM808.8291 450.01562Q808.8291 452.125 809.3291 452.82812Q809.8291 453.53125 810.54785 453.53125Q811.2822 453.53125 811.7666 452.82812Q812.2666 452.125 812.2666 450.01562Q812.2666 447.89062 811.7666 447.20312Q811.2822 446.5 810.5322 446.5Q809.8135 446.5 809.376 447.10938Q808.8291 447.89062 808.8291 450.01562Z" fill-rule="nonzero"/></svg>