<svg version="1.1" viewBox="0.0 0.0 484.0 426.0" fill="none" stroke="none" stroke-linecap="square" stroke-miterlimit="10" xmlns:xlink="http://www.w3.org/1999/xlink" xmlns="http://www.w3.org/2000/svg"><clipPath id="p.0"><path d="m0 0l484.0 0l0 426.0l-484.0 0l0 -426.0z" clip-rule="nonzero"/></clipPath><g clip-path="url(#p.0)"><path fill="#000000" fill-opacity="0.0" d="m0 0l484.0 0l0 426.0l-484.0 0z" fill-rule="evenodd"/><path fill="#000000" fill-opacity="0.0" d="m8.9921255 253.67249l0 0c0 -15.925247 12.909968 -28.83522 28.83522 -28.83522l408.34528 0c7.647583 0 14.981934 3.0379944 20.389587 8.445648c5.407654 5.407654 8.445648 12.742004 8.445648 20.389572l0 115.33743c0 15.925262 -12.909973 28.835236 -28.835236 28.835236l-408.34528 0c-15.925253 0 -28.83522 -12.909973 -28.83522 -28.835236z" fill-rule="evenodd"/><path stroke="#dd0a73" stroke-width="2.0" stroke-linejoin="round" stroke-linecap="butt" d="m8.9921255 253.67249l0 0c0 -15.925247 12.909968 -28.83522 28.83522 -28.83522l408.34528 0c7.647583 0 14.981934 3.0379944 20.389587 8.445648c5.407654 5.407654 8.445648 12.742004 8.445648 20.389572l0 115.33743c0 15.925262 -12.909973 28.835236 -28.835236 28.835236l-408.34528 0c-15.925253 0 -28.83522 -12.909973 -28.83522 -28.835236z" fill-rule="evenodd"/><path fill="#000000" fill-opacity="0.0" d="m8.9921255 54.12131l0 0c0 -15.925255 12.909968 -28.835222 28.83522 -28.835222l408.34528 0c7.647583 0 14.981934 3.0379887 20.389587 8.445642c5.407654 5.407654 8.445648 12.742004 8.445648 20.38958l0 115.33743c0 15.925247 -12.909973 28.83522 -28.835236 28.83522l-408.34528 0c-15.925253 0 -28.83522 -12.909973 -28.83522 -28.83522z" fill-rule="evenodd"/><path stroke="#006bb4" stroke-width="2.0" stroke-linejoin="round" stroke-linecap="butt" d="m8.9921255 54.12131l0 0c0 -15.925255 12.909968 -28.835222 28.83522 -28.835222l408.34528 0c7.647583 0 14.981934 3.0379887 20.389587 8.445642c5.407654 5.407654 8.445648 12.742004 8.445648 20.38958l0 115.33743c0 15.925247 -12.909973 28.83522 -28.835236 28.83522l-408.34528 0c-15.925253 0 -28.83522 -12.909973 -28.83522 -28.83522z" fill-rule="evenodd"/><path fill="#ff7e62" d="m336.64825 111.78871l0 0c0 -36.31163 29.436401 -65.74803 65.74802 -65.74803l0 0c17.43747 0 34.160736 6.927002 46.490875 19.257153c12.33017 12.330147 19.257172 29.053413 19.257172 46.490875l0 0c0 36.31163 -29.436401 65.74803 -65.74805 65.74803l0 0c-36.311615 0 -65.74802 -29.436401 -65.74802 -65.74803z" fill-rule="evenodd"/><path fill="#000000" fill-opacity="0.0" d="m365.8967 74.15801l72.999176 0l0 19.363419l-72.999176 0l0 -19.363419z" fill-rule="nonzero"/><path fill="#ffffff" d="m376.66232 81.65784l-1.40625 0q-0.125 -0.609375 -0.4375 -1.0625q-0.296875 -0.46875 -0.75 -0.78125q-0.4375 -0.3125 -0.96875 -0.46875q-0.53125 -0.171875 -1.109375 -0.171875q-1.0625 0 -1.921875 0.546875q-0.84375 0.53125 -1.359375 1.578125q-0.5 1.03125 -0.5 2.546875q0 1.5 0.5 2.546875q0.515625 1.03125 1.359375 1.578125q0.859375 0.53125 1.921875 0.53125q0.578125 0 1.109375 -0.15625q0.53125 -0.171875 0.96875 -0.484375q0.453125 -0.3125 0.75 -0.765625q0.3125 -0.46875 0.4375 -1.078125l1.40625 0q-0.15625 0.890625 -0.578125 1.609375q-0.421875 0.703125 -1.046875 1.1875q-0.625 0.484375 -1.40625 0.75q-0.765625 0.25 -1.640625 0.25q-1.484375 0 -2.65625 -0.71875q-1.15625 -0.734375 -1.828125 -2.078125q-0.65625 -1.34375 -0.65625 -3.171875q0 -1.84375 0.65625 -3.1875q0.671875 -1.34375 1.828125 -2.0625q1.171875 -0.734375 2.65625 -0.734375q0.875 0 1.640625 0.265625q0.78125 0.25 1.40625 0.75q0.625 0.484375 1.046875 1.1875q0.421875 0.703125 0.578125 1.59375zm5.6362305 8.1875q-1.171875 0 -2.0625 -0.5625q-0.890625 -0.5625 -1.390625 -1.578125q-0.5 -1.015625 -0.5 -2.359375q0 -1.375 0.5 -2.390625q0.5 -1.015625 1.390625 -1.578125q0.890625 -0.5625 2.0625 -0.5625q1.1875 0 2.078125 0.5625q0.890625 0.5625 1.390625 1.578125q0.5 1.015625 0.5 2.390625q0 1.34375 -0.5 2.359375q-0.5 1.015625 -1.390625 1.578125q-0.890625 0.5625 -2.078125 0.5625zm0 -1.203125q0.90625 0 1.484375 -0.453125q0.578125 -0.46875 0.859375 -1.21875q0.28125 -0.75 0.28125 -1.625q0 -0.875 -0.28125 -1.625q-0.28125 -0.765625 -0.859375 -1.234375q-0.578125 -0.46875 -1.484375 -0.46875q-0.890625 0 -1.46875 0.46875q-0.578125 0.46875 -0.859375 1.234375q-0.28125 0.75 -0.28125 1.625q0 0.875 0.28125 1.625q0.28125 0.75 0.859375 1.21875q0.578125 0.453125 1.46875 0.453125zm6.014099 1.015625l0 -8.734375l1.28125 0l0 1.375l0.125 0q0.265625 -0.703125 0.875 -1.09375q0.609375 -0.390625 1.46875 -0.390625q0.859375 0 1.4375 0.390625q0.578125 0.390625 0.890625 1.09375l0.09375 0q0.34375 -0.6875 1.0 -1.078125q0.671875 -0.40625 1.609375 -0.40625q1.171875 0 1.921875 0.734375q0.75 0.734375 0.75 2.265625l0 5.84375l-1.34375 0l0 -5.84375q0 -0.96875 -0.53125 -1.375q-0.53125 -0.421875 -1.25 -0.421875q-0.921875 0 -1.421875 0.5625q-0.5 0.546875 -0.5 1.390625l0 5.6875l-1.375 0l0 -5.984375q0 -0.734375 -0.484375 -1.1875q-0.46875 -0.46875 -1.234375 -0.46875q-0.53125 0 -0.984375 0.28125q-0.4375 0.28125 -0.71875 0.78125q-0.28125 0.484375 -0.28125 1.125l0 5.453125l-1.328125 0zm13.908936 3.265625l0 -12.0l1.28125 0l0 1.390625l0.171875 0q0.140625 -0.21875 0.40625 -0.578125q0.265625 -0.359375 0.765625 -0.640625q0.5 -0.28125 1.34375 -0.28125q1.109375 0 1.9375 0.5625q0.84375 0.546875 1.3125 1.5625q0.484375 1.0 0.484375 2.375q0 1.390625 -0.484375 2.40625q-0.46875 1.015625 -1.3125 1.578125q-0.828125 0.546875 -1.90625 0.546875q-0.84375 0 -1.359375 -0.28125q-0.5 -0.28125 -0.78125 -0.640625q-0.265625 -0.375 -0.40625 -0.609375l-0.125 0l0 4.609375l-1.328125 0zm1.3125 -7.625q0 0.984375 0.28125 1.734375q0.296875 0.75 0.84375 1.1875q0.5625 0.421875 1.375 0.421875q0.84375 0 1.40625 -0.453125q0.5625 -0.453125 0.84375 -1.203125q0.296875 -0.765625 0.296875 -1.6875q0 -0.921875 -0.28125 -1.65625q-0.28125 -0.75 -0.859375 -1.1875q-0.5625 -0.4375 -1.40625 -0.4375q-0.8125 0 -1.375 0.421875q-0.5625 0.40625 -0.84375 1.140625q-0.28125 0.734375 -0.28125 1.71875zm9.765533 -7.28125l0 11.640625l-1.328125 0l0 -11.640625l1.328125 0zm6.123535 11.828125q-1.265625 0 -2.1875 -0.5625q-0.90625 -0.5625 -1.40625 -1.5625q-0.484375 -1.015625 -0.484375 -2.359375q0 -1.34375 0.484375 -2.359375q0.5 -1.03125 1.375 -1.609375q0.890625 -0.578125 2.078125 -0.578125q0.6875 0 1.34375 0.234375q0.671875 0.21875 1.21875 0.734375q0.546875 0.5 0.859375 1.34375q0.328125 0.828125 0.328125 2.046875l0 0.578125l-6.734375 0l0 -1.15625l5.375 0q0 -0.75 -0.296875 -1.328125q-0.296875 -0.578125 -0.828125 -0.90625q-0.53125 -0.34375 -1.265625 -0.34375q-0.796875 0 -1.390625 0.40625q-0.578125 0.390625 -0.890625 1.03125q-0.3125 0.625 -0.3125 1.34375l0 0.765625q0 0.984375 0.34375 1.671875q0.34375 0.6875 0.953125 1.046875q0.625 0.359375 1.4375 0.359375q0.53125 0 0.953125 -0.15625q0.421875 -0.15625 0.734375 -0.453125q0.3125 -0.3125 0.484375 -0.765625l1.296875 0.375q-0.203125 0.65625 -0.6875 1.15625q-0.484375 0.484375 -1.203125 0.765625q-0.703125 0.28125 -1.578125 0.28125zm9.443054 -8.921875l0 1.140625l-4.515625 0l0 -1.140625l4.515625 0zm-3.203125 -2.078125l1.34375 0l0 8.3125q0 0.5625 0.171875 0.84375q0.171875 0.28125 0.421875 0.375q0.265625 0.09375 0.5625 0.09375q0.234375 0 0.375 -0.015625q0.140625 -0.03125 0.21875 -0.046875l0.28125 1.203125q-0.140625 0.046875 -0.390625 0.09375q-0.234375 0.0625 -0.609375 0.0625q-0.578125 0 -1.125 -0.234375q-0.53125 -0.25 -0.890625 -0.75q-0.359375 -0.5 -0.359375 -1.265625l0 -8.671875zm8.805328 11.0q-1.265625 0 -2.1875 -0.5625q-0.90625 -0.5625 -1.40625 -1.5625q-0.484375 -1.015625 -0.484375 -2.359375q0 -1.34375 0.484375 -2.359375q0.5 -1.03125 1.375 -1.609375q0.890625 -0.578125 2.078125 -0.578125q0.6875 0 1.34375 0.234375q0.671875 0.21875 1.21875 0.734375q0.546875 0.5 0.859375 1.34375q0.328125 0.828125 0.328125 2.046875l0 0.578125l-6.734375 0l0 -1.15625l5.375 0q0 -0.75 -0.296875 -1.328125q-0.296875 -0.578125 -0.828125 -0.90625q-0.53125 -0.34375 -1.265625 -0.34375q-0.796875 0 -1.390625 0.40625q-0.578125 0.390625 -0.890625 1.03125q-0.3125 0.625 -0.3125 1.34375l0 0.765625q0 0.984375 0.34375 1.671875q0.34375 0.6875 0.953125 1.046875q0.625 0.359375 1.4375 0.359375q0.53125 0 0.953125 -0.15625q0.421875 -0.15625 0.734375 -0.453125q0.3125 -0.3125 0.484375 -0.765625l1.296875 0.375q-0.203125 0.65625 -0.6875 1.15625q-0.484375 0.484375 -1.203125 0.765625q-0.703125 0.28125 -1.578125 0.28125z" fill-rule="nonzero"/><path fill="#010000" fill-opacity="0.0" d="m438.89587 74.15801l0 0l0 19.363419l0 0l0 -19.363419z" fill-rule="nonzero"/><path fill="#ffffff" d="m365.8967 90.69784l72.999176 0l0 1.4399948l-72.999176 0l0 -1.4399948z" fill-rule="nonzero"/><path fill="#f5a35c" d="m181.25017 111.78871l0 0c0 -36.31163 29.436401 -65.74803 65.74803 -65.74803l0 0c17.43747 0 34.160736 6.927002 46.490875 19.257153c12.33017 12.330147 19.257172 29.053413 19.257172 46.490875l0 0c0 36.31163 -29.436401 65.74803 -65.74805 65.74803l0 0c-36.31163 0 -65.74803 -29.436401 -65.74803 -65.74803z" fill-rule="evenodd"/><path fill="#000000" fill-opacity="0.0" d="m219.49852 74.15801l54.999374 0l0 19.363419l-54.999374 0l0 -19.363419z" fill-rule="nonzero"/><path fill="#ffffff" d="m227.26414 80.92346q-0.09375 -0.859375 -0.828125 -1.328125q-0.71875 -0.484375 -1.78125 -0.484375q-0.765625 0 -1.34375 0.25q-0.578125 0.25 -0.90625 0.6875q-0.3125 0.4375 -0.3125 1.0q0 0.46875 0.21875 0.796875q0.234375 0.328125 0.578125 0.546875q0.359375 0.21875 0.734375 0.359375q0.390625 0.140625 0.71875 0.21875l1.171875 0.328125q0.46875 0.109375 1.015625 0.328125q0.5625 0.203125 1.078125 0.5625q0.515625 0.359375 0.84375 0.921875q0.34375 0.5625 0.34375 1.390625q0 0.9375 -0.5 1.703125q-0.484375 0.765625 -1.421875 1.21875q-0.9375 0.4375 -2.28125 0.4375q-1.25 0 -2.171875 -0.40625q-0.90625 -0.40625 -1.421875 -1.125q-0.515625 -0.71875 -0.59375 -1.671875l1.453125 0q0.0625 0.65625 0.453125 1.09375q0.390625 0.421875 0.984375 0.640625q0.59375 0.203125 1.296875 0.203125q0.796875 0 1.4375 -0.265625q0.65625 -0.265625 1.03125 -0.734375q0.375 -0.484375 0.375 -1.125q0 -0.578125 -0.328125 -0.9375q-0.328125 -0.359375 -0.859375 -0.578125q-0.515625 -0.234375 -1.140625 -0.40625l-1.421875 -0.40625q-1.375 -0.40625 -2.171875 -1.125q-0.78125 -0.734375 -0.78125 -1.90625q0 -0.96875 0.53125 -1.703125q0.53125 -0.734375 1.421875 -1.140625q0.90625 -0.40625 2.015625 -0.40625q1.125 0 2.0 0.40625q0.875 0.390625 1.390625 1.09375q0.515625 0.6875 0.546875 1.5625l-1.375 0zm7.454422 0l0 1.140625l-4.515625 0l0 -1.140625l4.515625 0zm-3.203125 -2.078125l1.34375 0l0 8.3125q0 0.5625 0.171875 0.84375q0.171875 0.28125 0.421875 0.375q0.265625 0.09375 0.5625 0.09375q0.234375 0 0.375 -0.015625q0.140625 -0.03125 0.21875 -0.046875l0.28125 1.203125q-0.140625 0.046875 -0.390625 0.09375q-0.234375 0.0625 -0.609375 0.0625q-0.578125 0 -1.125 -0.234375q-0.53125 -0.25 -0.890625 -0.75q-0.359375 -0.5 -0.359375 -1.265625l0 -8.671875zm7.80249 11.015625q-0.828125 0 -1.515625 -0.3125q-0.671875 -0.3125 -1.078125 -0.90625q-0.390625 -0.609375 -0.390625 -1.46875q0 -0.75 0.296875 -1.21875q0.296875 -0.46875 0.78125 -0.734375q0.5 -0.265625 1.09375 -0.390625q0.609375 -0.140625 1.21875 -0.21875q0.796875 -0.09375 1.296875 -0.140625q0.5 -0.0625 0.71875 -0.1875q0.234375 -0.140625 0.234375 -0.46875l0 -0.046875q0 -0.84375 -0.453125 -1.296875q-0.453125 -0.46875 -1.390625 -0.46875q-0.953125 0 -1.5 0.421875q-0.546875 0.421875 -0.765625 0.890625l-1.28125 -0.453125q0.34375 -0.796875 0.90625 -1.234375q0.578125 -0.453125 1.25 -0.625q0.6875 -0.1875 1.34375 -0.1875q0.421875 0 0.96875 0.109375q0.546875 0.09375 1.0625 0.40625q0.515625 0.296875 0.859375 0.921875q0.34375 0.609375 0.34375 1.65625l0 5.75l-1.34375 0l0 -1.1875l-0.0625 0q-0.140625 0.296875 -0.46875 0.625q-0.3125 0.3125 -0.84375 0.546875q-0.515625 0.21875 -1.28125 0.21875zm0.203125 -1.203125q0.796875 0 1.34375 -0.3125q0.546875 -0.3125 0.828125 -0.796875q0.28125 -0.5 0.28125 -1.046875l0 -1.234375q-0.078125 0.109375 -0.375 0.1875q-0.28125 0.078125 -0.65625 0.140625q-0.375 0.0625 -0.71875 0.109375q-0.34375 0.03125 -0.5625 0.0625q-0.53125 0.078125 -0.984375 0.234375q-0.453125 0.140625 -0.734375 0.4375q-0.265625 0.296875 -0.265625 0.8125q0 0.703125 0.515625 1.0625q0.53125 0.34375 1.328125 0.34375zm10.038254 -7.734375l0 1.140625l-4.515625 0l0 -1.140625l4.515625 0zm-3.203125 -2.078125l1.34375 0l0 8.3125q0 0.5625 0.171875 0.84375q0.171875 0.28125 0.421875 0.375q0.265625 0.09375 0.5625 0.09375q0.234375 0 0.375 -0.015625q0.140625 -0.03125 0.21875 -0.046875l0.28125 1.203125q-0.140625 0.046875 -0.390625 0.09375q-0.234375 0.0625 -0.609375 0.0625q-0.578125 0 -1.125 -0.234375q-0.53125 -0.25 -0.890625 -0.75q-0.359375 -0.5 -0.359375 -1.265625l0 -8.671875zm8.805328 11.0q-1.265625 0 -2.1875 -0.5625q-0.90625 -0.5625 -1.40625 -1.5625q-0.484375 -1.015625 -0.484375 -2.359375q0 -1.34375 0.484375 -2.359375q0.5 -1.03125 1.375 -1.609375q0.890625 -0.578125 2.078125 -0.578125q0.6875 0 1.3437653 0.234375q0.671875 0.21875 1.21875 0.734375q0.546875 0.5 0.859375 1.34375q0.328125 0.828125 0.328125 2.046875l0 0.578125l-6.7343903 0l0 -1.15625l5.3750153 0q0 -0.75 -0.296875 -1.328125q-0.296875 -0.578125 -0.828125 -0.90625q-0.53126526 -0.34375 -1.2656403 -0.34375q-0.796875 0 -1.390625 0.40625q-0.578125 0.390625 -0.890625 1.03125q-0.3125 0.625 -0.3125 1.34375l0 0.765625q0 0.984375 0.34375 1.671875q0.34375 0.6875 0.953125 1.046875q0.625 0.359375 1.4375 0.359375q0.53125 0 0.95314026 -0.15625q0.421875 -0.15625 0.734375 -0.453125q0.3125 -0.3125 0.484375 -0.765625l1.296875 0.375q-0.203125 0.65625 -0.6875 1.15625q-0.484375 0.484375 -1.203125 0.765625q-0.703125 0.28125 -1.5781403 0.28125zm10.333664 -0.1875l0 -11.640625l4.078125 0q1.203125 0 1.984375 0.421875q0.796875 0.421875 1.1875 1.125q0.390625 0.703125 0.390625 1.546875q0 0.75 -0.265625 1.25q-0.265625 0.484375 -0.703125 0.765625q-0.421875 0.28125 -0.921875 0.421875l0 0.109375q0.53125 0.03125 1.0625 0.375q0.546875 0.34375 0.90625 0.984375q0.375 0.625 0.375 1.546875q0 0.875 -0.40625 1.578125q-0.390625 0.703125 -1.25 1.109375q-0.859375 0.40625 -2.234375 0.40625l-4.203125 0zm1.40625 -1.25l2.796875 0q1.390625 0 1.96875 -0.53125q0.578125 -0.546875 0.578125 -1.3125q0 -0.59375 -0.296875 -1.09375q-0.296875 -0.5 -0.859375 -0.796875q-0.5625 -0.3125 -1.3125 -0.3125l-2.875 0l0 4.046875zm0 -5.265625l2.625 0q0.625 0 1.140625 -0.25q0.515625 -0.25 0.8125 -0.703125q0.3125 -0.46875 0.3125 -1.078125q0 -0.765625 -0.53125 -1.296875q-0.53125 -0.546875 -1.6875 -0.546875l-2.671875 0l0 3.875z" fill-rule="nonzero"/><path fill="#010000" fill-opacity="0.0" d="m274.4979 74.15801l0 0l0 19.363419l0 0l0 -19.363419z" fill-rule="nonzero"/><path fill="#ffffff" d="m219.49852 90.69784l54.999374 0l0 1.4399948l-54.999374 0l0 -1.4399948z" fill-rule="nonzero"/><path fill="#6dccb1" d="m25.8521 111.78871l0 0c0 -36.31163 29.436398 -65.74803 65.74803 -65.74803l0 0c17.437462 0 34.16073 6.927002 46.490883 19.257153c12.330139 12.330147 19.257141 29.053413 19.257141 46.490875l0 0c0 36.31163 -29.436394 65.74803 -65.748024 65.74803l0 0c-36.311638 0 -65.74803 -29.436401 -65.74803 -65.74803z" fill-rule="evenodd"/><path fill="#000000" fill-opacity="0.0" d="m63.89591 74.15801l55.408443 0l0 19.363419l-55.408443 0l0 -19.363419z" fill-rule="nonzero"/><path fill="#ffffff" d="m71.66154 80.92346q-0.09375 -0.859375 -0.828125 -1.328125q-0.71875 -0.484375 -1.78125 -0.484375q-0.765625 0 -1.34375 0.25q-0.578125 0.25 -0.90625 0.6875q-0.3125 0.4375 -0.3125 1.0q0 0.46875 0.21875 0.796875q0.234375 0.328125 0.578125 0.546875q0.359375 0.21875 0.734375 0.359375q0.390625 0.140625 0.71875 0.21875l1.171875 0.328125q0.46875 0.109375 1.015625 0.328125q0.5625 0.203125 1.078125 0.5625q0.515625 0.359375 0.84375 0.921875q0.34375 0.5625 0.34375 1.390625q0 0.9375 -0.5 1.703125q-0.484375 0.765625 -1.421875 1.21875q-0.9375 0.4375 -2.28125 0.4375q-1.25 0 -2.171875 -0.40625q-0.90625 -0.40625 -1.421875 -1.125q-0.515625 -0.71875 -0.59375 -1.671875l1.453125 0q0.0625 0.65625 0.453125 1.09375q0.390625 0.421875 0.984375 0.640625q0.59375 0.203125 1.296875 0.203125q0.796875 0 1.4375 -0.265625q0.65625 -0.265625 1.03125 -0.734375q0.375 -0.484375 0.375 -1.125q0 -0.578125 -0.328125 -0.9375q-0.328125 -0.359375 -0.859375 -0.578125q-0.515625 -0.234375 -1.140625 -0.40625l-1.421875 -0.40625q-1.375 -0.40625 -2.171875 -1.125q-0.78125 -0.734375 -0.78125 -1.90625q0 -0.96875 0.53125 -1.703125q0.53125 -0.734375 1.421875 -1.140625q0.90625 -0.40625 2.015625 -0.40625q1.125 0 2.0 0.40625q0.875 0.390625 1.390625 1.09375q0.515625 0.6875 0.546875 1.5625l-1.375 0zm7.454422 0l0 1.140625l-4.515625 0l0 -1.140625l4.515625 0zm-3.203125 -2.078125l1.34375 0l0 8.3125q0 0.5625 0.171875 0.84375q0.171875 0.28125 0.421875 0.375q0.265625 0.09375 0.5625 0.09375q0.234375 0 0.375 -0.015625q0.140625 -0.03125 0.21875 -0.046875l0.28125 1.203125q-0.140625 0.046875 -0.390625 0.09375q-0.234375 0.0625 -0.609375 0.0625q-0.578125 0 -1.125 -0.234375q-0.53125 -0.25 -0.890625 -0.75q-0.359375 -0.5 -0.359375 -1.265625l0 -8.671875zm7.80249 11.015625q-0.828125 0 -1.515625 -0.3125q-0.671875 -0.3125 -1.078125 -0.90625q-0.390625 -0.609375 -0.390625 -1.46875q0 -0.75 0.296875 -1.21875q0.296875 -0.46875 0.78125 -0.734375q0.5 -0.265625 1.09375 -0.390625q0.609375 -0.140625 1.21875 -0.21875q0.796875 -0.09375 1.296875 -0.140625q0.5 -0.0625 0.71875 -0.1875q0.234375 -0.140625 0.234375 -0.46875l0 -0.046875q0 -0.84375 -0.453125 -1.296875q-0.453125 -0.46875 -1.390625 -0.46875q-0.953125 0 -1.5 0.421875q-0.546875 0.421875 -0.765625 0.890625l-1.28125 -0.453125q0.34375 -0.796875 0.90625 -1.234375q0.578125 -0.453125 1.25 -0.625q0.6875 -0.1875 1.34375 -0.1875q0.421875 0 0.96875 0.109375q0.546875 0.09375 1.0625 0.40625q0.515625 0.296875 0.859375 0.921875q0.34375 0.609375 0.34375 1.65625l0 5.75l-1.34375 0l0 -1.1875l-0.0625 0q-0.140625 0.296875 -0.46875 0.625q-0.3125 0.3125 -0.84375 0.546875q-0.515625 0.21875 -1.28125 0.21875zm0.203125 -1.203125q0.796875 0 1.34375 -0.3125q0.546875 -0.3125 0.828125 -0.796875q0.28125 -0.5 0.28125 -1.046875l0 -1.234375q-0.078125 0.109375 -0.375 0.1875q-0.28125 0.078125 -0.65625 0.140625q-0.375 0.0625 -0.71875 0.109375q-0.34375 0.03125 -0.5625 0.0625q-0.53125 0.078125 -0.984375 0.234375q-0.453125 0.140625 -0.734375 0.4375q-0.265625 0.296875 -0.265625 0.8125q0 0.703125 0.515625 1.0625q0.53125 0.34375 1.328125 0.34375zm10.038254 -7.734375l0 1.140625l-4.515625 0l0 -1.140625l4.515625 0zm-3.203125 -2.078125l1.34375 0l0 8.3125q0 0.5625 0.171875 0.84375q0.171875 0.28125 0.421875 0.375q0.265625 0.09375 0.5625 0.09375q0.234375 0 0.375 -0.015625q0.140625 -0.03125 0.21875 -0.046875l0.28125 1.203125q-0.140625 0.046875 -0.390625 0.09375q-0.234375 0.0625 -0.609375 0.0625q-0.578125 0 -1.125 -0.234375q-0.53125 -0.25 -0.890625 -0.75q-0.359375 -0.5 -0.359375 -1.265625l0 -8.671875zm8.805328 11.0q-1.265625 0 -2.1875 -0.5625q-0.90625 -0.5625 -1.40625 -1.5625q-0.484375 -1.015625 -0.484375 -2.359375q0 -1.34375 0.484375 -2.359375q0.5 -1.03125 1.375 -1.609375q0.890625 -0.578125 2.078125 -0.578125q0.6875 0 1.34375 0.234375q0.671875 0.21875 1.21875 0.734375q0.546875 0.5 0.859375 1.34375q0.328125 0.828125 0.328125 2.046875l0 0.578125l-6.734375 0l0 -1.15625l5.375 0q0 -0.75 -0.296875 -1.328125q-0.296875 -0.578125 -0.828125 -0.90625q-0.53125 -0.34375 -1.265625 -0.34375q-0.796875 0 -1.390625 0.40625q-0.578125 0.390625 -0.890625 1.03125q-0.3125 0.625 -0.3125 1.34375l0 0.765625q0 0.984375 0.34375 1.671875q0.34375 0.6875 0.953125 1.046875q0.625 0.359375 1.4375 0.359375q0.53125 0 0.953125 -0.15625q0.421875 -0.15625 0.734375 -0.453125q0.3125 -0.3125 0.484375 -0.765625l1.296875 0.375q-0.203125 0.65625 -0.6875 1.15625q-0.484375 0.484375 -1.203125 0.765625q-0.703125 0.28125 -1.578125 0.28125zm10.818016 -0.1875l-1.4843674 0l4.2812424 -11.640625l1.453125 0l4.265625 11.640625l-1.46875 0l-3.484375 -9.796875l-0.09375 0l-3.46875 9.796875zm0.546875 -4.546875l5.953125 0l0 1.25l-5.953125 0l0 -1.25z" fill-rule="nonzero"/><path fill="#010000" fill-opacity="0.0" d="m119.30435 74.15801l0 0l0 19.363419l0 0l0 -19.363419z" fill-rule="nonzero"/><path fill="#ffffff" d="m63.89591 90.69784l55.40845 0l0 1.4399948l-55.40845 0l0 -1.4399948z" fill-rule="nonzero"/><path fill="#000000" fill-opacity="0.0" d="m157.34816 111.78871l23.905518 0" fill-rule="evenodd"/><path stroke="#98a2b3" stroke-width="2.0" stroke-linejoin="round" stroke-linecap="butt" d="m157.34818 111.78871l11.905502 0" fill-rule="evenodd"/><path fill="#98a2b3" stroke="#98a2b3" stroke-width="2.0" stroke-linecap="butt" d="m169.25368 115.09218l9.076187 -3.3034668l-9.076187 -3.3034592z" fill-rule="evenodd"/><path fill="#000000" fill-opacity="0.0" d="m312.74625 111.78871l23.905518 0" fill-rule="evenodd"/><path stroke="#98a2b3" stroke-width="2.0" stroke-linejoin="round" stroke-linecap="butt" d="m312.74625 111.78871l11.905518 0" fill-rule="evenodd"/><path fill="#98a2b3" stroke="#98a2b3" stroke-width="2.0" stroke-linecap="butt" d="m324.65176 115.09218l9.076202 -3.3034668l-9.076202 -3.3034592z" fill-rule="evenodd"/><path fill="#ffffff" d="m212.00525 12.783509l69.98425 0l0 25.165356l-69.98425 0z" fill-rule="evenodd"/><path fill="#006bb4" d="m232.14243 32.286186l0 -9.671877l1.46875 0l0 1.46875q0.5625 -1.03125 1.03125 -1.359375q0.484375 -0.328125 1.0625 -0.328125q0.828125 0 1.6875 0.53125l-0.5625 1.515625q-0.609375 -0.359375 -1.203125 -0.359375q-0.546875 0 -0.96875 0.328125q-0.421875 0.328125 -0.609375 0.890625q-0.28125 0.875 -0.28125 1.921875l0 5.062502l-1.625 0zm5.618927 -4.843752q0 -2.6875 1.484375 -3.96875q1.25 -1.078125 3.046875 -1.078125q2.0 0 3.265625 1.3125q1.265625 1.296875 1.265625 3.609375q0 1.859375 -0.5625 2.9375q-0.5625 1.0625 -1.640625 1.65625q-1.0625 0.5937519 -2.328125 0.5937519q-2.03125 0 -3.28125 -1.2968769q-1.25 -1.3125 -1.25 -3.765625zm1.6875 0q0 1.859375 0.796875 2.796875q0.8125 0.921875 2.046875 0.921875q1.21875 0 2.03125 -0.921875q0.8125 -0.9375 0.8125 -2.84375q0 -1.796875 -0.8125 -2.71875q-0.8125 -0.921875 -2.03125 -0.921875q-1.234375 0 -2.046875 0.921875q-0.796875 0.90625 -0.796875 2.765625zm8.688217 0q0 -2.6875 1.484375 -3.96875q1.25 -1.078125 3.046875 -1.078125q2.0 0 3.265625 1.3125q1.2656097 1.296875 1.2656097 3.609375q0 1.859375 -0.5625 2.9375q-0.5625 1.0625 -1.6406097 1.65625q-1.0625 0.5937519 -2.328125 0.5937519q-2.03125 0 -3.28125 -1.2968769q-1.25 -1.3125 -1.25 -3.765625zm1.6875 0q0 1.859375 0.796875 2.796875q0.8125 0.921875 2.046875 0.921875q1.21875 0 2.03125 -0.921875q0.8125 -0.9375 0.8125 -2.84375q0 -1.796875 -0.8125 -2.71875q-0.8125 -0.921875 -2.03125 -0.921875q-1.234375 0 -2.046875 0.921875q-0.796875 0.90625 -0.796875 2.765625zm12.875717 3.375l0.234375 1.4531269q-0.6875 0.140625 -1.234375 0.140625q-0.890625 0 -1.390625 -0.28125q-0.484375 -0.2812519 -0.6875 -0.7343769q-0.203125 -0.46875 -0.203125 -1.9375l0 -5.578125l-1.203125 0l0 -1.265625l1.203125 0l0 -2.390625l1.625 -0.984375l0 3.375l1.65625 0l0 1.265625l-1.65625 0l0 5.671875q0 0.6875 0.078125 0.890625q0.09375 0.203125 0.28125 0.328125q0.203125 0.109375 0.578125 0.109375q0.265625 0 0.71875 -0.0625z" fill-rule="nonzero"/><path fill="#ff7e62" d="m336.64825 311.3399l0 0c0 -36.311646 29.436401 -65.74805 65.74802 -65.74805l0 0c17.43747 0 34.160736 6.927017 46.490875 19.257172c12.33017 12.330139 19.257172 29.053406 19.257172 46.490875l0 0c0 36.311615 -29.436401 65.74802 -65.74805 65.74802l0 0c-36.311615 0 -65.74802 -29.436401 -65.74802 -65.74802z" fill-rule="evenodd"/><path fill="#000000" fill-opacity="0.0" d="m365.8967 273.7092l72.999176 0l0 19.363403l-72.999176 0l0 -19.363403z" fill-rule="nonzero"/><path fill="#ffffff" d="m376.66232 281.209l-1.40625 0q-0.125 -0.609375 -0.4375 -1.0625q-0.296875 -0.46875 -0.75 -0.78125q-0.4375 -0.3125 -0.96875 -0.46875q-0.53125 -0.171875 -1.109375 -0.171875q-1.0625 0 -1.921875 0.546875q-0.84375 0.53125 -1.359375 1.578125q-0.5 1.03125 -0.5 2.546875q0 1.5 0.5 2.546875q0.515625 1.03125 1.359375 1.578125q0.859375 0.53125 1.921875 0.53125q0.578125 0 1.109375 -0.15625q0.53125 -0.171875 0.96875 -0.484375q0.453125 -0.3125 0.75 -0.765625q0.3125 -0.46875 0.4375 -1.078125l1.40625 0q-0.15625 0.890625 -0.578125 1.609375q-0.421875 0.703125 -1.046875 1.1875q-0.625 0.484375 -1.40625 0.75q-0.765625 0.25 -1.640625 0.25q-1.484375 0 -2.65625 -0.71875q-1.15625 -0.734375 -1.828125 -2.078125q-0.65625 -1.34375 -0.65625 -3.171875q0 -1.84375 0.65625 -3.1875q0.671875 -1.34375 1.828125 -2.0625q1.171875 -0.734375 2.65625 -0.734375q0.875 0 1.640625 0.265625q0.78125 0.25 1.40625 0.75q0.625 0.484375 1.046875 1.1875q0.421875 0.703125 0.578125 1.59375zm5.6362305 8.1875q-1.171875 0 -2.0625 -0.5625q-0.890625 -0.5625 -1.390625 -1.578125q-0.5 -1.015625 -0.5 -2.359375q0 -1.375 0.5 -2.390625q0.5 -1.015625 1.390625 -1.578125q0.890625 -0.5625 2.0625 -0.5625q1.1875 0 2.078125 0.5625q0.890625 0.5625 1.390625 1.578125q0.5 1.015625 0.5 2.390625q0 1.34375 -0.5 2.359375q-0.5 1.015625 -1.390625 1.578125q-0.890625 0.5625 -2.078125 0.5625zm0 -1.203125q0.90625 0 1.484375 -0.453125q0.578125 -0.46875 0.859375 -1.21875q0.28125 -0.75 0.28125 -1.625q0 -0.875 -0.28125 -1.625q-0.28125 -0.765625 -0.859375 -1.234375q-0.578125 -0.46875 -1.484375 -0.46875q-0.890625 0 -1.46875 0.46875q-0.578125 0.46875 -0.859375 1.234375q-0.28125 0.75 -0.28125 1.625q0 0.875 0.28125 1.625q0.28125 0.75 0.859375 1.21875q0.578125 0.453125 1.46875 0.453125zm6.014099 1.015625l0 -8.734375l1.28125 0l0 1.375l0.125 0q0.265625 -0.703125 0.875 -1.09375q0.609375 -0.390625 1.46875 -0.390625q0.859375 0 1.4375 0.390625q0.578125 0.390625 0.890625 1.09375l0.09375 0q0.34375 -0.6875 1.0 -1.078125q0.671875 -0.40625 1.609375 -0.40625q1.171875 0 1.921875 0.734375q0.75 0.734375 0.75 2.265625l0 5.84375l-1.34375 0l0 -5.84375q0 -0.96875 -0.53125 -1.375q-0.53125 -0.421875 -1.25 -0.421875q-0.921875 0 -1.421875 0.5625q-0.5 0.546875 -0.5 1.390625l0 5.6875l-1.375 0l0 -5.984375q0 -0.734375 -0.484375 -1.1875q-0.46875 -0.46875 -1.234375 -0.46875q-0.53125 0 -0.984375 0.28125q-0.4375 0.28125 -0.71875 0.78125q-0.28125 0.484375 -0.28125 1.125l0 5.453125l-1.328125 0zm13.908936 3.265625l0 -12.0l1.28125 0l0 1.390625l0.171875 0q0.140625 -0.21875 0.40625 -0.578125q0.265625 -0.359375 0.765625 -0.640625q0.5 -0.28125 1.34375 -0.28125q1.109375 0 1.9375 0.5625q0.84375 0.546875 1.3125 1.5625q0.484375 1.0 0.484375 2.375q0 1.390625 -0.484375 2.40625q-0.46875 1.015625 -1.3125 1.578125q-0.828125 0.546875 -1.90625 0.546875q-0.84375 0 -1.359375 -0.28125q-0.5 -0.28125 -0.78125 -0.640625q-0.265625 -0.375 -0.40625 -0.609375l-0.125 0l0 4.609375l-1.328125 0zm1.3125 -7.625q0 0.984375 0.28125 1.734375q0.296875 0.75 0.84375 1.1875q0.5625 0.421875 1.375 0.421875q0.84375 0 1.40625 -0.453125q0.5625 -0.453125 0.84375 -1.203125q0.296875 -0.765625 0.296875 -1.6875q0 -0.921875 -0.28125 -1.65625q-0.28125 -0.75 -0.859375 -1.1875q-0.5625 -0.4375 -1.40625 -0.4375q-0.8125 0 -1.375 0.421875q-0.5625 0.40625 -0.84375 1.140625q-0.28125 0.734375 -0.28125 1.71875zm9.765533 -7.28125l0 11.640625l-1.328125 0l0 -11.640625l1.328125 0zm6.123535 11.828125q-1.265625 0 -2.1875 -0.5625q-0.90625 -0.5625 -1.40625 -1.5625q-0.484375 -1.015625 -0.484375 -2.359375q0 -1.34375 0.484375 -2.359375q0.5 -1.03125 1.375 -1.609375q0.890625 -0.578125 2.078125 -0.578125q0.6875 0 1.34375 0.234375q0.671875 0.21875 1.21875 0.734375q0.546875 0.5 0.859375 1.34375q0.328125 0.828125 0.328125 2.046875l0 0.578125l-6.734375 0l0 -1.15625l5.375 0q0 -0.75 -0.296875 -1.328125q-0.296875 -0.578125 -0.828125 -0.90625q-0.53125 -0.34375 -1.265625 -0.34375q-0.796875 0 -1.390625 0.40625q-0.578125 0.390625 -0.890625 1.03125q-0.3125 0.625 -0.3125 1.34375l0 0.765625q0 0.984375 0.34375 1.671875q0.34375 0.6875 0.953125 1.046875q0.625 0.359375 1.4375 0.359375q0.53125 0 0.953125 -0.15625q0.421875 -0.15625 0.734375 -0.453125q0.3125 -0.3125 0.484375 -0.765625l1.296875 0.375q-0.203125 0.65625 -0.6875 1.15625q-0.484375 0.484375 -1.203125 0.765625q-0.703125 0.28125 -1.578125 0.28125zm9.443054 -8.921875l0 1.140625l-4.515625 0l0 -1.140625l4.515625 0zm-3.203125 -2.078125l1.34375 0l0 8.3125q0 0.5625 0.171875 0.84375q0.171875 0.28125 0.421875 0.375q0.265625 0.09375 0.5625 0.09375q0.234375 0 0.375 -0.015625q0.140625 -0.03125 0.21875 -0.046875l0.28125 1.203125q-0.140625 0.046875 -0.390625 0.09375q-0.234375 0.0625 -0.609375 0.0625q-0.578125 0 -1.125 -0.234375q-0.53125 -0.25 -0.890625 -0.75q-0.359375 -0.5 -0.359375 -1.265625l0 -8.671875zm8.805328 11.0q-1.265625 0 -2.1875 -0.5625q-0.90625 -0.5625 -1.40625 -1.5625q-0.484375 -1.015625 -0.484375 -2.359375q0 -1.34375 0.484375 -2.359375q0.5 -1.03125 1.375 -1.609375q0.890625 -0.578125 2.078125 -0.578125q0.6875 0 1.34375 0.234375q0.671875 0.21875 1.21875 0.734375q0.546875 0.5 0.859375 1.34375q0.328125 0.828125 0.328125 2.046875l0 0.578125l-6.734375 0l0 -1.15625l5.375 0q0 -0.75 -0.296875 -1.328125q-0.296875 -0.578125 -0.828125 -0.90625q-0.53125 -0.34375 -1.265625 -0.34375q-0.796875 0 -1.390625 0.40625q-0.578125 0.390625 -0.890625 1.03125q-0.3125 0.625 -0.3125 1.34375l0 0.765625q0 0.984375 0.34375 1.671875q0.34375 0.6875 0.953125 1.046875q0.625 0.359375 1.4375 0.359375q0.53125 0 0.953125 -0.15625q0.421875 -0.15625 0.734375 -0.453125q0.3125 -0.3125 0.484375 -0.765625l1.296875 0.375q-0.203125 0.65625 -0.6875 1.15625q-0.484375 0.484375 -1.203125 0.765625q-0.703125 0.28125 -1.578125 0.28125z" fill-rule="nonzero"/><path fill="#000000" fill-opacity="0.0" d="m438.89587 273.7092l0 0l0 19.363403l0 0l0 -19.363403z" fill-rule="nonzero"/><path fill="#ffffff" d="m365.8967 290.24902l72.999176 0l0 1.4400024l-72.999176 0l0 -1.4400024z" fill-rule="nonzero"/><path fill="#f5a35c" d="m181.25017 311.3399l0 0c0 -36.311646 29.436401 -65.74805 65.74803 -65.74805l0 0c17.43747 0 34.160736 6.927017 46.490875 19.257172c12.33017 12.330139 19.257172 29.053406 19.257172 46.490875l0 0c0 36.311615 -29.436401 65.74802 -65.74805 65.74802l0 0c-36.31163 0 -65.74803 -29.436401 -65.74803 -65.74802z" fill-rule="evenodd"/><path fill="#000000" fill-opacity="0.0" d="m219.49852 273.7092l54.999374 0l0 19.363403l-54.999374 0l0 -19.363403z" fill-rule="nonzero"/><path fill="#ffffff" d="m227.26414 280.47464q-0.09375 -0.859375 -0.828125 -1.328125q-0.71875 -0.484375 -1.78125 -0.484375q-0.765625 0 -1.34375 0.25q-0.578125 0.25 -0.90625 0.6875q-0.3125 0.4375 -0.3125 1.0q0 0.46875 0.21875 0.796875q0.234375 0.328125 0.578125 0.546875q0.359375 0.21875 0.734375 0.359375q0.390625 0.140625 0.71875 0.21875l1.171875 0.328125q0.46875 0.109375 1.015625 0.328125q0.5625 0.203125 1.078125 0.5625q0.515625 0.359375 0.84375 0.921875q0.34375 0.5625 0.34375 1.390625q0 0.9375 -0.5 1.703125q-0.484375 0.765625 -1.421875 1.21875q-0.9375 0.4375 -2.28125 0.4375q-1.25 0 -2.171875 -0.40625q-0.90625 -0.40625 -1.421875 -1.125q-0.515625 -0.71875 -0.59375 -1.671875l1.453125 0q0.0625 0.65625 0.453125 1.09375q0.390625 0.421875 0.984375 0.640625q0.59375 0.203125 1.296875 0.203125q0.796875 0 1.4375 -0.265625q0.65625 -0.265625 1.03125 -0.734375q0.375 -0.484375 0.375 -1.125q0 -0.578125 -0.328125 -0.9375q-0.328125 -0.359375 -0.859375 -0.578125q-0.515625 -0.234375 -1.140625 -0.40625l-1.421875 -0.40625q-1.375 -0.40625 -2.171875 -1.125q-0.78125 -0.734375 -0.78125 -1.90625q0 -0.96875 0.53125 -1.703125q0.53125 -0.734375 1.421875 -1.140625q0.90625 -0.40625 2.015625 -0.40625q1.125 0 2.0 0.40625q0.875 0.390625 1.390625 1.09375q0.515625 0.6875 0.546875 1.5625l-1.375 0zm7.454422 0l0 1.140625l-4.515625 0l0 -1.140625l4.515625 0zm-3.203125 -2.078125l1.34375 0l0 8.3125q0 0.5625 0.171875 0.84375q0.171875 0.28125 0.421875 0.375q0.265625 0.09375 0.5625 0.09375q0.234375 0 0.375 -0.015625q0.140625 -0.03125 0.21875 -0.046875l0.28125 1.203125q-0.140625 0.046875 -0.390625 0.09375q-0.234375 0.0625 -0.609375 0.0625q-0.578125 0 -1.125 -0.234375q-0.53125 -0.25 -0.890625 -0.75q-0.359375 -0.5 -0.359375 -1.265625l0 -8.671875zm7.80249 11.015625q-0.828125 0 -1.515625 -0.3125q-0.671875 -0.3125 -1.078125 -0.90625q-0.390625 -0.609375 -0.390625 -1.46875q0 -0.75 0.296875 -1.21875q0.296875 -0.46875 0.78125 -0.734375q0.5 -0.265625 1.09375 -0.390625q0.609375 -0.140625 1.21875 -0.21875q0.796875 -0.09375 1.296875 -0.140625q0.5 -0.0625 0.71875 -0.1875q0.234375 -0.140625 0.234375 -0.46875l0 -0.046875q0 -0.84375 -0.453125 -1.296875q-0.453125 -0.46875 -1.390625 -0.46875q-0.953125 0 -1.5 0.421875q-0.546875 0.421875 -0.765625 0.890625l-1.28125 -0.453125q0.34375 -0.796875 0.90625 -1.234375q0.578125 -0.453125 1.25 -0.625q0.6875 -0.1875 1.34375 -0.1875q0.421875 0 0.96875 0.109375q0.546875 0.09375 1.0625 0.40625q0.515625 0.296875 0.859375 0.921875q0.34375 0.609375 0.34375 1.65625l0 5.75l-1.34375 0l0 -1.1875l-0.0625 0q-0.140625 0.296875 -0.46875 0.625q-0.3125 0.3125 -0.84375 0.546875q-0.515625 0.21875 -1.28125 0.21875zm0.203125 -1.203125q0.796875 0 1.34375 -0.3125q0.546875 -0.3125 0.828125 -0.796875q0.28125 -0.5 0.28125 -1.046875l0 -1.234375q-0.078125 0.109375 -0.375 0.1875q-0.28125 0.078125 -0.65625 0.140625q-0.375 0.0625 -0.71875 0.109375q-0.34375 0.03125 -0.5625 0.0625q-0.53125 0.078125 -0.984375 0.234375q-0.453125 0.140625 -0.734375 0.4375q-0.265625 0.296875 -0.265625 0.8125q0 0.703125 0.515625 1.0625q0.53125 0.34375 1.328125 0.34375zm10.038254 -7.734375l0 1.140625l-4.515625 0l0 -1.140625l4.515625 0zm-3.203125 -2.078125l1.34375 0l0 8.3125q0 0.5625 0.171875 0.84375q0.171875 0.28125 0.421875 0.375q0.265625 0.09375 0.5625 0.09375q0.234375 0 0.375 -0.015625q0.140625 -0.03125 0.21875 -0.046875l0.28125 1.203125q-0.140625 0.046875 -0.390625 0.09375q-0.234375 0.0625 -0.609375 0.0625q-0.578125 0 -1.125 -0.234375q-0.53125 -0.25 -0.890625 -0.75q-0.359375 -0.5 -0.359375 -1.265625l0 -8.671875zm8.805328 11.0q-1.265625 0 -2.1875 -0.5625q-0.90625 -0.5625 -1.40625 -1.5625q-0.484375 -1.015625 -0.484375 -2.359375q0 -1.34375 0.484375 -2.359375q0.5 -1.03125 1.375 -1.609375q0.890625 -0.578125 2.078125 -0.578125q0.6875 0 1.3437653 0.234375q0.671875 0.21875 1.21875 0.734375q0.546875 0.5 0.859375 1.34375q0.328125 0.828125 0.328125 2.046875l0 0.578125l-6.7343903 0l0 -1.15625l5.3750153 0q0 -0.75 -0.296875 -1.328125q-0.296875 -0.578125 -0.828125 -0.90625q-0.53126526 -0.34375 -1.2656403 -0.34375q-0.796875 0 -1.390625 0.40625q-0.578125 0.390625 -0.890625 1.03125q-0.3125 0.625 -0.3125 1.34375l0 0.765625q0 0.984375 0.34375 1.671875q0.34375 0.6875 0.953125 1.046875q0.625 0.359375 1.4375 0.359375q0.53125 0 0.95314026 -0.15625q0.421875 -0.15625 0.734375 -0.453125q0.3125 -0.3125 0.484375 -0.765625l1.296875 0.375q-0.203125 0.65625 -0.6875 1.15625q-0.484375 0.484375 -1.203125 0.765625q-0.703125 0.28125 -1.5781403 0.28125zm10.333664 -0.1875l0 -11.640625l4.078125 0q1.203125 0 1.984375 0.421875q0.796875 0.421875 1.1875 1.125q0.390625 0.703125 0.390625 1.546875q0 0.75 -0.265625 1.25q-0.265625 0.484375 -0.703125 0.765625q-0.421875 0.28125 -0.921875 0.421875l0 0.109375q0.53125 0.03125 1.0625 0.375q0.546875 0.34375 0.90625 0.984375q0.375 0.625 0.375 1.546875q0 0.875 -0.40625 1.578125q-0.390625 0.703125 -1.25 1.109375q-0.859375 0.40625 -2.234375 0.40625l-4.203125 0zm1.40625 -1.25l2.796875 0q1.390625 0 1.96875 -0.53125q0.578125 -0.546875 0.578125 -1.3125q0 -0.59375 -0.296875 -1.09375q-0.296875 -0.5 -0.859375 -0.796875q-0.5625 -0.3125 -1.3125 -0.3125l-2.875 0l0 4.046875zm0 -5.265625l2.625 0q0.625 0 1.140625 -0.25q0.515625 -0.25 0.8125 -0.703125q0.3125 -0.46875 0.3125 -1.078125q0 -0.765625 -0.53125 -1.296875q-0.53125 -0.546875 -1.6875 -0.546875l-2.671875 0l0 3.875z" fill-rule="nonzero"/><path fill="#000000" fill-opacity="0.0" d="m274.4979 273.7092l0 0l0 19.363403l0 0l0 -19.363403z" fill-rule="nonzero"/><path fill="#ffffff" d="m219.49852 290.24902l54.999374 0l0 1.4400024l-54.999374 0l0 -1.4400024z" fill-rule="nonzero"/><path fill="#6dccb1" d="m25.8521 311.3399l0 0c0 -36.311646 29.436398 -65.74805 65.74803 -65.74805l0 0c17.437462 0 34.16073 6.927017 46.490883 19.257172c12.330139 12.330139 19.257141 29.053406 19.257141 46.490875l0 0c0 36.311615 -29.436394 65.74802 -65.748024 65.74802l0 0c-36.311638 0 -65.74803 -29.436401 -65.74803 -65.74802z" fill-rule="evenodd"/><path fill="#000000" fill-opacity="0.0" d="m63.89591 273.7092l55.408443 0l0 19.363403l-55.408443 0l0 -19.363403z" fill-rule="nonzero"/><path fill="#ffffff" d="m71.66154 280.47464q-0.09375 -0.859375 -0.828125 -1.328125q-0.71875 -0.484375 -1.78125 -0.484375q-0.765625 0 -1.34375 0.25q-0.578125 0.25 -0.90625 0.6875q-0.3125 0.4375 -0.3125 1.0q0 0.46875 0.21875 0.796875q0.234375 0.328125 0.578125 0.546875q0.359375 0.21875 0.734375 0.359375q0.390625 0.140625 0.71875 0.21875l1.171875 0.328125q0.46875 0.109375 1.015625 0.328125q0.5625 0.203125 1.078125 0.5625q0.515625 0.359375 0.84375 0.921875q0.34375 0.5625 0.34375 1.390625q0 0.9375 -0.5 1.703125q-0.484375 0.765625 -1.421875 1.21875q-0.9375 0.4375 -2.28125 0.4375q-1.25 0 -2.171875 -0.40625q-0.90625 -0.40625 -1.421875 -1.125q-0.515625 -0.71875 -0.59375 -1.671875l1.453125 0q0.0625 0.65625 0.453125 1.09375q0.390625 0.421875 0.984375 0.640625q0.59375 0.203125 1.296875 0.203125q0.796875 0 1.4375 -0.265625q0.65625 -0.265625 1.03125 -0.734375q0.375 -0.484375 0.375 -1.125q0 -0.578125 -0.328125 -0.9375q-0.328125 -0.359375 -0.859375 -0.578125q-0.515625 -0.234375 -1.140625 -0.40625l-1.421875 -0.40625q-1.375 -0.40625 -2.171875 -1.125q-0.78125 -0.734375 -0.78125 -1.90625q0 -0.96875 0.53125 -1.703125q0.53125 -0.734375 1.421875 -1.140625q0.90625 -0.40625 2.015625 -0.40625q1.125 0 2.0 0.40625q0.875 0.390625 1.390625 1.09375q0.515625 0.6875 0.546875 1.5625l-1.375 0zm7.454422 0l0 1.140625l-4.515625 0l0 -1.140625l4.515625 0zm-3.203125 -2.078125l1.34375 0l0 8.3125q0 0.5625 0.171875 0.84375q0.171875 0.28125 0.421875 0.375q0.265625 0.09375 0.5625 0.09375q0.234375 0 0.375 -0.015625q0.140625 -0.03125 0.21875 -0.046875l0.28125 1.203125q-0.140625 0.046875 -0.390625 0.09375q-0.234375 0.0625 -0.609375 0.0625q-0.578125 0 -1.125 -0.234375q-0.53125 -0.25 -0.890625 -0.75q-0.359375 -0.5 -0.359375 -1.265625l0 -8.671875zm7.80249 11.015625q-0.828125 0 -1.515625 -0.3125q-0.671875 -0.3125 -1.078125 -0.90625q-0.390625 -0.609375 -0.390625 -1.46875q0 -0.75 0.296875 -1.21875q0.296875 -0.46875 0.78125 -0.734375q0.5 -0.265625 1.09375 -0.390625q0.609375 -0.140625 1.21875 -0.21875q0.796875 -0.09375 1.296875 -0.140625q0.5 -0.0625 0.71875 -0.1875q0.234375 -0.140625 0.234375 -0.46875l0 -0.046875q0 -0.84375 -0.453125 -1.296875q-0.453125 -0.46875 -1.390625 -0.46875q-0.953125 0 -1.5 0.421875q-0.546875 0.421875 -0.765625 0.890625l-1.28125 -0.453125q0.34375 -0.796875 0.90625 -1.234375q0.578125 -0.453125 1.25 -0.625q0.6875 -0.1875 1.34375 -0.1875q0.421875 0 0.96875 0.109375q0.546875 0.09375 1.0625 0.40625q0.515625 0.296875 0.859375 0.921875q0.34375 0.609375 0.34375 1.65625l0 5.75l-1.34375 0l0 -1.1875l-0.0625 0q-0.140625 0.296875 -0.46875 0.625q-0.3125 0.3125 -0.84375 0.546875q-0.515625 0.21875 -1.28125 0.21875zm0.203125 -1.203125q0.796875 0 1.34375 -0.3125q0.546875 -0.3125 0.828125 -0.796875q0.28125 -0.5 0.28125 -1.046875l0 -1.234375q-0.078125 0.109375 -0.375 0.1875q-0.28125 0.078125 -0.65625 0.140625q-0.375 0.0625 -0.71875 0.109375q-0.34375 0.03125 -0.5625 0.0625q-0.53125 0.078125 -0.984375 0.234375q-0.453125 0.140625 -0.734375 0.4375q-0.265625 0.296875 -0.265625 0.8125q0 0.703125 0.515625 1.0625q0.53125 0.34375 1.328125 0.34375zm10.038254 -7.734375l0 1.140625l-4.515625 0l0 -1.140625l4.515625 0zm-3.203125 -2.078125l1.34375 0l0 8.3125q0 0.5625 0.171875 0.84375q0.171875 0.28125 0.421875 0.375q0.265625 0.09375 0.5625 0.09375q0.234375 0 0.375 -0.015625q0.140625 -0.03125 0.21875 -0.046875l0.28125 1.203125q-0.140625 0.046875 -0.390625 0.09375q-0.234375 0.0625 -0.609375 0.0625q-0.578125 0 -1.125 -0.234375q-0.53125 -0.25 -0.890625 -0.75q-0.359375 -0.5 -0.359375 -1.265625l0 -8.671875zm8.805328 11.0q-1.265625 0 -2.1875 -0.5625q-0.90625 -0.5625 -1.40625 -1.5625q-0.484375 -1.015625 -0.484375 -2.359375q0 -1.34375 0.484375 -2.359375q0.5 -1.03125 1.375 -1.609375q0.890625 -0.578125 2.078125 -0.578125q0.6875 0 1.34375 0.234375q0.671875 0.21875 1.21875 0.734375q0.546875 0.5 0.859375 1.34375q0.328125 0.828125 0.328125 2.046875l0 0.578125l-6.734375 0l0 -1.15625l5.375 0q0 -0.75 -0.296875 -1.328125q-0.296875 -0.578125 -0.828125 -0.90625q-0.53125 -0.34375 -1.265625 -0.34375q-0.796875 0 -1.390625 0.40625q-0.578125 0.390625 -0.890625 1.03125q-0.3125 0.625 -0.3125 1.34375l0 0.765625q0 0.984375 0.34375 1.671875q0.34375 0.6875 0.953125 1.046875q0.625 0.359375 1.4375 0.359375q0.53125 0 0.953125 -0.15625q0.421875 -0.15625 0.734375 -0.453125q0.3125 -0.3125 0.484375 -0.765625l1.296875 0.375q-0.203125 0.65625 -0.6875 1.15625q-0.484375 0.484375 -1.203125 0.765625q-0.703125 0.28125 -1.578125 0.28125zm10.818016 -0.1875l-1.4843674 0l4.2812424 -11.640625l1.453125 0l4.265625 11.640625l-1.46875 0l-3.484375 -9.796875l-0.09375 0l-3.46875 9.796875zm0.546875 -4.546875l5.953125 0l0 1.25l-5.953125 0l0 -1.25z" fill-rule="nonzero"/><path fill="#000000" fill-opacity="0.0" d="m119.30435 273.7092l0 0l0 19.363403l0 0l0 -19.363403z" fill-rule="nonzero"/><path fill="#ffffff" d="m63.89591 290.24902l55.40845 0l0 1.4400024l-55.40845 0l0 -1.4400024z" fill-rule="nonzero"/><path fill="#000000" fill-opacity="0.0" d="m157.34816 311.3399l23.905518 0" fill-rule="evenodd"/><path stroke="#98a2b3" stroke-width="2.0" stroke-linejoin="round" stroke-linecap="butt" d="m157.34818 311.3399l11.905502 0" fill-rule="evenodd"/><path fill="#98a2b3" stroke="#98a2b3" stroke-width="2.0" stroke-linecap="butt" d="m169.25368 314.64337l9.076187 -3.3034668l-9.076187 -3.3034668z" fill-rule="evenodd"/><path fill="#000000" fill-opacity="0.0" d="m312.74625 311.3399l23.905518 0" fill-rule="evenodd"/><path stroke="#98a2b3" stroke-width="2.0" stroke-linejoin="round" stroke-linecap="butt" d="m312.74625 311.3399l11.905518 0" fill-rule="evenodd"/><path fill="#98a2b3" stroke="#98a2b3" stroke-width="2.0" stroke-linecap="butt" d="m324.65176 314.64337l9.076202 -3.3034668l-9.076202 -3.3034668z" fill-rule="evenodd"/><path fill="#ffffff" d="m200.69554 212.82677l89.07088 0l0 25.16536l-89.07088 0z" fill-rule="evenodd"/><path fill="#dd0a73" d="m221.55806 232.5482q-1.46875 0 -2.546875 -0.65625q-1.0625 -0.65625 -1.640625 -1.828125q-0.5625 -1.171875 -0.5625 -2.75q0 -1.5625 0.5625 -2.75q0.578125 -1.203125 1.609375 -1.875q1.03125 -0.671875 2.40625 -0.671875q0.796875 0 1.578125 0.265625q0.78125 0.265625 1.40625 0.859375q0.640625 0.59375 1.015625 1.578125q0.375 0.96875 0.375 2.390625l0 0.65625l-7.84375 0l0 -1.34375l6.265625 0q0 -0.859375 -0.34375 -1.53125q-0.34375 -0.6875 -0.96875 -1.078125q-0.625 -0.390625 -1.484375 -0.390625q-0.921875 0 -1.609375 0.46875q-0.671875 0.453125 -1.046875 1.1875q-0.359375 0.734375 -0.359375 1.578125l0 0.90625q0 1.140625 0.390625 1.953125q0.40625 0.796875 1.125 1.21875q0.71875 0.40625 1.671875 0.40625q0.609375 0 1.109375 -0.171875q0.5 -0.1875 0.859375 -0.53125q0.375 -0.359375 0.5625 -0.890625l1.515625 0.421875q-0.234375 0.765625 -0.796875 1.34375q-0.5625 0.578125 -1.390625 0.90625q-0.828125 0.328125 -1.859375 0.328125zm8.16217 -13.78125l0 13.5625l-1.5625 0l0 -13.5625l1.5625 0zm4.3162384 9.859375l-0.03125 -1.9375l0.328125 0l4.4375 -4.53125l1.9375 0l-4.734375 4.796875l-0.140625 0l-1.796875 1.671875zm-1.453125 3.703125l0 -13.5625l1.5625 0l0 13.5625l-1.5625 0zm6.453125 0l-3.96875 -5.03125l1.109375 -1.09375l4.859375 6.125l-2.0 0zm3.899765 0l0 -13.5625l1.5625 0l0 5.0l0.140625 0q0.171875 -0.265625 0.46875 -0.671875q0.3125 -0.421875 0.890625 -0.75q0.578125 -0.328125 1.578125 -0.328125q1.28125 0 2.265625 0.640625q0.984375 0.640625 1.53125 1.828125q0.546875 1.171875 0.546875 2.78125q0 1.625 -0.546875 2.8125q-0.546875 1.171875 -1.53125 1.828125q-0.96875 0.640625 -2.234375 0.640625q-0.984375 0 -1.578125 -0.328125q-0.59375 -0.328125 -0.90625 -0.75q-0.3125 -0.421875 -0.484375 -0.703125l-0.1875 0l0 1.5625l-1.515625 0zm1.546875 -5.09375q0 1.15625 0.328125 2.046875q0.34375 0.875 0.984375 1.375q0.65625 0.484375 1.59375 0.484375q0.984375 0 1.640625 -0.515625q0.65625 -0.53125 0.984375 -1.40625q0.34375 -0.890625 0.34375 -1.984375q0 -1.0625 -0.328125 -1.921875q-0.328125 -0.875 -0.984375 -1.375q-0.65625 -0.515625 -1.65625 -0.515625q-0.953125 0 -1.609375 0.484375q-0.640625 0.484375 -0.96875 1.34375q-0.328125 0.84375 -0.328125 1.984375zm14.096451 5.3125q-1.46875 0 -2.546875 -0.65625q-1.0625153 -0.65625 -1.6406403 -1.828125q-0.5625 -1.171875 -0.5625 -2.75q0 -1.5625 0.5625 -2.75q0.578125 -1.203125 1.6093903 -1.875q1.03125 -0.671875 2.40625 -0.671875q0.796875 0 1.578125 0.265625q0.78125 0.265625 1.40625 0.859375q0.640625 0.59375 1.015625 1.578125q0.375 0.96875 0.375 2.390625l0 0.65625l-7.8437653 0l0 -1.34375l6.2656403 0q0 -0.859375 -0.34375 -1.53125q-0.34375 -0.6875 -0.96875 -1.078125q-0.625 -0.390625 -1.484375 -0.390625q-0.921875 0 -1.609375 0.46875q-0.671875 0.453125 -1.0468903 1.1875q-0.359375 0.734375 -0.359375 1.578125l0 0.90625q0 1.140625 0.390625 1.953125q0.40626526 0.796875 1.1250153 1.21875q0.71875 0.40625 1.671875 0.40625q0.609375 0 1.109375 -0.171875q0.5 -0.1875 0.859375 -0.53125q0.375 -0.359375 0.5625 -0.890625l1.515625 0.421875q-0.234375 0.765625 -0.796875 1.34375q-0.5625 0.578125 -1.390625 0.90625q-0.828125 0.328125 -1.859375 0.328125zm10.865265 0q-1.46875 0 -2.546875 -0.65625q-1.0625 -0.65625 -1.640625 -1.828125q-0.5624695 -1.171875 -0.5624695 -2.75q0 -1.5625 0.5624695 -2.75q0.578125 -1.203125 1.609375 -1.875q1.03125 -0.671875 2.40625 -0.671875q0.796875 0 1.578125 0.265625q0.78125 0.265625 1.40625 0.859375q0.640625 0.59375 1.015625 1.578125q0.375 0.96875 0.375 2.390625l0 0.65625l-7.84375 0l0 -1.34375l6.265625 0q0 -0.859375 -0.34375 -1.53125q-0.34375 -0.6875 -0.96875 -1.078125q-0.625 -0.390625 -1.484375 -0.390625q-0.921875 0 -1.609375 0.46875q-0.671875 0.453125 -1.046875 1.1875q-0.359375 0.734375 -0.359375 1.578125l0 0.90625q0 1.140625 0.390625 1.953125q0.40625 0.796875 1.125 1.21875q0.71875 0.40625 1.671875 0.40625q0.609375 0 1.109375 -0.171875q0.5 -0.1875 0.859375 -0.53125q0.375 -0.359375 0.5625 -0.890625l1.515625 0.421875q-0.234375 0.765625 -0.796875 1.34375q-0.5625 0.578125 -1.390625 0.90625q-0.828125 0.328125 -1.859375 0.328125z" fill-rule="nonzero"/></g></svg>