<?xml version="1.0" encoding="UTF-8"?>
<svg width="602px" height="54px" viewBox="0 0 602 54" version="1.1" xmlns="http://www.w3.org/2000/svg" xmlns:xlink="http://www.w3.org/1999/xlink">
    <!-- Generator: Sketch 60.1 (88133) - https://sketch.com -->
    <title>Slice 1</title>
    <desc>Created with Sketch.</desc>
    <g id="Page-1" stroke="none" stroke-width="1" fill="none" fill-rule="evenodd">
        <g id="Analysis" transform="translate(1.000000, -13.000000)">
            <g id="Group">
                <path d="M0.209972,15.39317 L0.209972,15.39317 C0.209972,14.6962172 0.774963,14.13123 1.471912,14.13123 L46.318115,14.13123 C46.6528013,14.13123 46.9737775,14.2641875 47.2104414,14.5008437 C47.4470975,14.7374998 47.580055,15.0584838 47.580055,15.39317 L47.580055,62.948025 C47.580055,63.6449855 47.0150602,64.2099726 46.318115,64.2099726 L1.471912,64.2099726 C0.774963,64.2099726 0.209972,63.6449854 0.209972,62.948025 L0.209972,15.39317 Z" id="Path" stroke="#979CAB" stroke-width="2" stroke-linejoin="round"></path>
                <path d="M19.488403,39.49685 C19.488403,37.9239333 19.6498613,36.6583083 19.972778,35.699975 C20.2956947,34.731225 20.7748613,33.9864333 21.410278,33.4656 C22.0561113,32.9447667 22.863403,32.68435 23.832153,32.68435 C24.550903,32.68435 25.1811113,32.8301833 25.722778,33.12185 C26.2644447,33.4031 26.707153,33.8197667 27.050903,34.37185 C27.4050697,34.9135167 27.6811113,35.574975 27.879028,36.356225 C28.0873613,37.1270583 28.191528,38.1739333 28.191528,39.49685 C28.191528,41.0697667 28.0300697,42.3406025 27.707153,43.3093576 C27.3842363,44.2676909 26.8998613,45.0124826 26.254028,45.5437326 C25.6186113,46.0645659 24.8113197,46.3249826 23.832153,46.3249826 C22.550903,46.3249826 21.5404863,45.8614409 20.800903,44.9343576 C19.925903,43.8197743 19.488403,42.0072717 19.488403,39.49685 L19.488403,39.49685 Z M21.160278,39.49685 C21.160278,41.6947717 21.4154863,43.1583159 21.925903,43.8874826 C22.4467363,44.6062326 23.082153,44.9656076 23.832153,44.9656076 C24.5925697,44.9656076 25.2279863,44.6010243 25.738403,43.8718576 C26.2488197,43.1426909 26.504028,41.6843551 26.504028,39.49685 C26.504028,37.2989333 26.2488197,35.8406 25.738403,35.12185 C25.2279863,34.4031 24.5873613,34.043725 23.816528,34.043725 C23.066528,34.043725 22.4675697,34.3614333 22.019653,34.99685 C21.4467363,35.80935 21.160278,37.30935 21.160278,39.49685 L21.160278,39.49685 Z" id="Shape" fill="#000000" fill-rule="nonzero"></path>
                <polygon id="Path" fill-opacity="0" fill="#000000" points="81.96063 0.47244 292.22833 0.47244 292.22833 31.842519 81.96063 31.842519"></polygon>
                <path d="M92.39813,27.39244 L92.39813,14.033065 L97.445005,14.033065 C98.3304217,14.033065 99.007505,14.0747317 99.476255,14.158065 C100.122088,14.2726483 100.668963,14.48619 101.11688,14.79869 C101.564797,15.1007733 101.924172,15.5278567 102.195005,16.07994 C102.465838,16.6320233 102.601255,17.2413983 102.601255,17.908065 C102.601255,19.0434817 102.236672,20.0070233 101.507505,20.79869 C100.788755,21.57994 99.4814633,21.970565 97.58563,21.970565 L94.163755,21.970565 L94.163755,27.39244 L92.39813,27.39244 Z M94.163755,20.39244 L97.61688,20.39244 C98.7627133,20.39244 99.5752133,20.1788983 100.05438,19.751815 C100.533547,19.3247317 100.77313,18.7257733 100.77313,17.95494 C100.77313,17.39244 100.632505,16.9132733 100.351255,16.51744 C100.070005,16.1216067 99.695005,15.86119 99.226255,15.73619 C98.9345883,15.6528567 98.3877133,15.61119 97.58563,15.61119 L94.163755,15.61119 L94.163755,20.39244 Z M104.029203,22.54869 C104.029203,20.7570233 104.523995,19.4341067 105.513578,18.57994 C106.346911,17.86119 107.362536,17.501815 108.560453,17.501815 C109.893786,17.501815 110.982328,17.939315 111.826078,18.814315 C112.669828,19.6788983 113.091703,20.8820233 113.091703,22.42369 C113.091703,23.6632733 112.904203,24.64244 112.529203,25.36119 C112.154203,26.0695233 111.607328,26.6216067 110.888578,27.01744 C110.180245,27.4132733 109.404203,27.61119 108.560453,27.61119 C107.206286,27.61119 106.112536,27.1788983 105.279203,26.314315 C104.44587,25.439315 104.029203,24.1841067 104.029203,22.54869 Z M105.716703,22.54869 C105.716703,23.7882733 105.982328,24.720565 106.513578,25.345565 C107.055245,25.9601483 107.737536,26.26744 108.560453,26.26744 C109.372953,26.26744 110.050036,25.9601483 110.591703,25.345565 C111.13337,24.720565 111.404203,23.7726483 111.404203,22.501815 C111.404203,21.3038983 111.13337,20.3976483 110.591703,19.783065 C110.050036,19.1684817 109.372953,18.86119 108.560453,18.86119 C107.737536,18.86119 107.055245,19.1684817 106.513578,19.783065 C105.982328,20.3872317 105.716703,21.3091067 105.716703,22.54869 Z M116.795545,27.39244 L113.826795,17.720565 L115.52992,17.720565 L117.06117,23.29869 L117.639295,25.376815 C117.670545,25.2726483 117.837212,24.6059817 118.139295,23.376815 L119.68617,17.720565 L121.37367,17.720565 L122.81117,23.32994 L123.295545,25.17369 L123.858045,23.314315 L125.514295,17.720565 L127.108045,17.720565 L124.076795,27.39244 L122.37367,27.39244 L120.84242,21.595565 L120.46742,19.95494 L118.514295,27.39244 L116.795545,27.39244 Z M135.112241,24.283065 L136.799741,24.48619 C136.528908,25.4757733 136.034116,26.2466067 135.315366,26.79869 C134.596616,27.3403567 133.674741,27.61119 132.549741,27.61119 C131.133074,27.61119 130.008074,27.1788983 129.174741,26.314315 C128.351824,25.439315 127.940366,24.2153567 127.940366,22.64244 C127.940366,21.0070233 128.357033,19.7413983 129.190366,18.845565 C130.034116,17.9497317 131.122658,17.501815 132.455991,17.501815 C133.747658,17.501815 134.799741,17.9445233 135.612241,18.82994 C136.435158,19.70494 136.846616,20.939315 136.846616,22.533065 C136.846616,22.6372317 136.846616,22.783065 136.846616,22.970565 L129.627866,22.970565 C129.690366,24.033065 129.992449,24.8507733 130.534116,25.42369 C131.075783,25.98619 131.747658,26.26744 132.549741,26.26744 C133.153908,26.26744 133.669533,26.11119 134.096616,25.79869 C134.523699,25.4757733 134.862241,24.970565 135.112241,24.283065 Z M129.721616,21.626815 L135.127866,21.626815 C135.054949,20.814315 134.846616,20.20494 134.502866,19.79869 C133.982033,19.1632733 133.304949,18.845565 132.471616,18.845565 C131.721616,18.845565 131.086199,19.1007733 130.565366,19.61119 C130.054949,20.11119 129.773699,20.783065 129.721616,21.626815 Z M138.847333,27.39244 L138.847333,17.720565 L140.316083,17.720565 L140.316083,19.189315 C140.691083,18.501815 141.034833,18.04869 141.347333,17.82994 C141.67025,17.61119 142.024416,17.501815 142.409833,17.501815 C142.961916,17.501815 143.524416,17.6788983 144.097333,18.033065 L143.534833,19.54869 C143.128583,19.3091067 142.727541,19.189315 142.331708,19.189315 C141.967125,19.189315 141.644208,19.29869 141.362958,19.51744 C141.081708,19.73619 140.878583,20.033065 140.753583,20.408065 C140.566083,20.9913983 140.472333,21.6320233 140.472333,22.32994 L140.472333,27.39244 L138.847333,27.39244 Z" id="Shape" fill="#000000" fill-rule="nonzero"></path>
                <path d="M183.71559,18.1045 L183.71559,18.1045 C183.71559,16.5803148 184.951186,15.344719 186.475371,15.344719 L228.325896,15.344719 C229.05783,15.344719 229.759795,15.6354752 230.277342,16.1530381 C230.794921,16.670601 231.085662,17.3725587 231.085662,18.1044999 L231.085662,62.6636799 C231.085662,64.1878651 229.850066,65.4234609 228.325896,65.4234609 L186.475371,65.4234609 C184.951186,65.4234609 183.71559,64.1878652 183.71559,62.6636799 L183.71559,18.1045 Z" id="Path" fill-opacity="0" fill="#000000"></path>
                <path d="M183.71559,18.1045 L183.71559,18.1045 C183.71559,16.5803148 184.951186,15.344719 186.475371,15.344719 L228.325896,15.344719 C229.05783,15.344719 229.759795,15.6354752 230.277342,16.1530381 C230.794921,16.670601 231.085662,17.3725587 231.085662,18.1044999 L231.085662,62.6636799 C231.085662,64.1878651 229.850066,65.4234609 228.325896,65.4234609 L186.475371,65.4234609 C184.951186,65.4234609 183.71559,64.1878652 183.71559,62.6636799 L183.71559,18.1045 Z" id="Path" stroke="#979CAB" stroke-width="2" stroke-linejoin="round"></path>
                <path d="M209.1659,47.3041 L207.525275,47.3041 L207.525275,36.850967 C207.129442,37.225967 206.608608,37.6061753 205.962775,37.991592 C205.327358,38.366592 204.754442,38.647842 204.244025,38.835342 L204.244025,37.241592 C205.160692,36.8145087 205.962775,36.2936753 206.650275,35.679092 C207.337775,35.0645087 207.82215,34.4707587 208.1034,33.897842 L209.1659,33.897842 L209.1659,47.3041 Z" id="Path" fill="#000000" fill-rule="nonzero"></path>
                <polygon id="Path" fill="#FFFFFF" points="39.08891 30.85302 58.521977 30.85302 58.521977 52.679795 39.08891 52.679795"></polygon>
                <polygon id="Path" fill="#FFFFFF" points="175.08891 30.85302 194.521985 30.85302 194.521985 52.679795 175.08891 52.679795"></polygon>
                <line x1="194.52199" y1="41.7664" x2="47.56136" y2="42.2073485" id="Path" fill-opacity="0" fill="#000000"></line>
                <line x1="176.52206" y1="41.82041" x2="47.56134" y2="42.20735" id="Path" stroke="#00BFB3" stroke-width="3" stroke-linejoin="round"></line>
                <polygon id="Path" stroke="#00BFB3" stroke-width="3" fill="#00BFB3" points="176.53693 46.77559 190.136295 41.779565 176.507206 36.8652355"></polygon>
                <polygon id="Path" fill-opacity="0" fill="#000000" points="265.96063 0.47244 476.22833 0.47244 476.22833 31.842519 265.96063 31.842519"></polygon>
                <path d="M275.80438,23.095566 L277.46063,22.954941 C277.543963,23.6216077 277.726255,24.1684827 278.007505,24.595566 C278.299172,25.0226493 278.747088,25.3716077 279.351255,25.642441 C279.965838,25.9028577 280.653338,26.033066 281.413755,26.033066 C282.080422,26.033066 282.674172,25.9341077 283.195005,25.736191 C283.715838,25.5382743 284.101255,25.267441 284.351255,24.923691 C284.601255,24.5695243 284.726255,24.1841077 284.726255,23.767441 C284.726255,23.3507743 284.601255,22.986191 284.351255,22.673691 C284.111672,22.361191 283.715838,22.095566 283.163755,21.876816 C282.799172,21.7413993 282.002297,21.5278577 280.77313,21.236191 C279.55438,20.9341077 278.700213,20.6528577 278.21063,20.392441 C277.564797,20.0591077 277.08563,19.6476493 276.77313,19.158066 C276.46063,18.658066 276.30438,18.1007743 276.30438,17.486191 C276.30438,16.8195243 276.497088,16.1945243 276.882505,15.611191 C277.267922,15.017441 277.825213,14.5695243 278.55438,14.267441 C279.293963,13.9653577 280.111672,13.814316 281.007505,13.814316 C281.997088,13.814316 282.86688,13.9757743 283.61688,14.298691 C284.377297,14.611191 284.96063,15.079941 285.36688,15.704941 C285.77313,16.3195243 285.99188,17.017441 286.02313,17.798691 L284.33563,17.923691 C284.24188,17.079941 283.92938,16.4445243 283.39813,16.017441 C282.877297,15.579941 282.106463,15.361191 281.08563,15.361191 C280.012713,15.361191 279.231463,15.5591077 278.74188,15.954941 C278.252297,16.3507743 278.007505,16.8247327 278.007505,17.376816 C278.007505,17.8559827 278.184588,18.2466077 278.538755,18.548691 C278.872088,18.861191 279.757505,19.1841077 281.195005,19.517441 C282.632505,19.8403577 283.61688,20.1216077 284.14813,20.361191 C284.92938,20.7153577 285.502297,21.1684827 285.86688,21.720566 C286.24188,22.2726493 286.42938,22.908066 286.42938,23.626816 C286.42938,24.3351493 286.226255,25.0070243 285.820005,25.642441 C285.413755,26.267441 284.830422,26.7570243 284.070005,27.111191 C283.309588,27.454941 282.450213,27.626816 281.49188,27.626816 C280.283547,27.626816 279.267922,27.4497327 278.445005,27.095566 C277.632505,26.7413993 276.99188,26.2101493 276.52313,25.501816 C276.064797,24.7934827 275.825213,23.9913993 275.80438,23.095566 Z M288.638578,27.392441 L288.638578,14.033066 L290.279203,14.033066 L290.279203,18.829941 C291.03962,17.9445243 292.003161,17.501816 293.169828,17.501816 C293.888578,17.501816 294.50837,17.642441 295.029203,17.923691 C295.560453,18.204941 295.940661,18.595566 296.169828,19.095566 C296.398995,19.595566 296.513578,20.3195243 296.513578,21.267441 L296.513578,27.392441 L294.872953,27.392441 L294.872953,21.267441 C294.872953,20.4445243 294.69587,19.845566 294.341703,19.470566 C293.987536,19.095566 293.482328,18.908066 292.826078,18.908066 C292.346911,18.908066 291.893786,19.0382743 291.466703,19.298691 C291.03962,19.548691 290.732328,19.8872327 290.544828,20.314316 C290.367745,20.7413993 290.279203,21.3351493 290.279203,22.095566 L290.279203,27.392441 L288.638578,27.392441 Z M298.404905,22.548691 C298.404905,20.7570243 298.899697,19.4341077 299.88928,18.579941 C300.722613,17.861191 301.738238,17.501816 302.936155,17.501816 C304.269488,17.501816 305.35803,17.939316 306.20178,18.814316 C307.04553,19.6788993 307.467405,20.8820243 307.467405,22.423691 C307.467405,23.6632743 307.279905,24.642441 306.904905,25.361191 C306.529905,26.0695243 305.98303,26.6216077 305.26428,27.017441 C304.555947,27.4132743 303.779905,27.611191 302.936155,27.611191 C301.581988,27.611191 300.488238,27.1788993 299.654905,26.314316 C298.821572,25.439316 298.404905,24.1841077 298.404905,22.548691 Z M300.092405,22.548691 C300.092405,23.7882743 300.35803,24.720566 300.88928,25.345566 C301.430947,25.9601493 302.113238,26.267441 302.936155,26.267441 C303.748655,26.267441 304.425738,25.9601493 304.967405,25.345566 C305.509072,24.720566 305.779905,23.7726493 305.779905,22.501816 C305.779905,21.3038993 305.509072,20.3976493 304.967405,19.783066 C304.425738,19.1684827 303.748655,18.861191 302.936155,18.861191 C302.113238,18.861191 301.430947,19.1684827 300.88928,19.783066 C300.35803,20.3872327 300.092405,21.3091077 300.092405,22.548691 Z M312.968137,25.923691 L313.202512,27.376816 C312.744179,27.470566 312.33272,27.517441 311.968137,27.517441 C311.374387,27.517441 310.910845,27.423691 310.577512,27.236191 C310.254595,27.048691 310.025429,26.8038993 309.890012,26.501816 C309.754595,26.189316 309.686887,25.5434827 309.686887,24.564316 L309.686887,18.986191 L308.483762,18.986191 L308.483762,17.720566 L309.686887,17.720566 L309.686887,15.329941 L311.311887,14.345566 L311.311887,17.720566 L312.968137,17.720566 L312.968137,18.986191 L311.311887,18.986191 L311.311887,24.658066 C311.311887,25.1163993 311.337929,25.4132743 311.390012,25.548691 C311.452512,25.6841077 311.546262,25.7934827 311.671262,25.876816 C311.806679,25.9497327 311.999387,25.986191 312.249387,25.986191 C312.42647,25.986191 312.666054,25.9653577 312.968137,25.923691 Z" id="Shape" fill="#000000" fill-rule="nonzero"></path>
                <path d="M367.71558,18.1045 L367.71558,18.1045 C367.71558,16.5803148 368.951206,15.344719 370.475376,15.344719 L412.325901,15.344719 C413.057835,15.344719 413.7598,15.6354752 414.277348,16.1530381 C414.794926,16.670601 415.085667,17.3725587 415.085667,18.1044999 L415.085667,62.6636799 C415.085667,64.1878651 413.850071,65.4234609 412.325901,65.4234609 L370.475376,65.4234609 C368.951206,65.4234609 367.71558,64.1878652 367.71558,62.6636799 L367.71558,18.1045 Z" id="Path" fill-opacity="0" fill="#000000"></path>
                <path d="M367.71558,18.1045 L367.71558,18.1045 C367.71558,16.5803148 368.951206,15.344719 370.475376,15.344719 L412.325901,15.344719 C413.057835,15.344719 413.7598,15.6354752 414.277348,16.1530381 C414.794926,16.670601 415.085667,17.3725587 415.085667,18.1044999 L415.085667,62.6636799 C415.085667,64.1878651 413.850071,65.4234609 412.325901,65.4234609 L370.475376,65.4234609 C368.951206,65.4234609 367.71558,64.1878652 367.71558,62.6636799 L367.71558,18.1045 Z" id="Path" stroke="#979CAB" stroke-width="2" stroke-linejoin="round"></path>
                <path d="M395.6034,45.72597 L395.6034,47.304095 L386.775275,47.304095 C386.764858,46.9082617 386.827358,46.5280533 386.962775,46.16347 C387.191942,45.5593033 387.551317,44.9655533 388.0409,44.38222 C388.5409,43.7988867 389.25965,43.1270117 390.19715,42.366595 C391.645067,41.1790899 392.624233,40.2363791 393.13465,39.5384624 C393.645067,38.8405457 393.900275,38.1842957 393.900275,37.5697124 C393.900275,36.9134624 393.6659,36.3665874 393.19715,35.9290874 C392.738817,35.4811707 392.13465,35.2572124 391.38465,35.2572124 C390.592983,35.2572124 389.957567,35.4967957 389.4784,35.9759624 C389.00965,36.4447124 388.775275,37.0957541 388.775275,37.9290874 L387.087775,37.7572124 C387.202358,36.4967957 387.63465,35.5384624 388.38465,34.8822124 C389.145067,34.2259624 390.155483,33.8978374 391.4159,33.8978374 C392.69715,33.8978374 393.712775,34.2520041 394.462775,34.9603374 C395.212775,35.6686707 395.587775,36.5488791 395.587775,37.6009624 C395.587775,38.1322124 395.4784,38.6582541 395.25965,39.1790874 C395.0409,39.6999207 394.676317,40.2467957 394.1659,40.8197124 C393.6659,41.3822124 392.82215,42.1634649 391.63465,43.16347 C390.655483,43.9863867 390.025275,44.5488867 389.744025,44.85097 C389.462775,45.1426367 389.233608,45.4343033 389.056525,45.72597 L395.6034,45.72597 Z" id="Path" fill="#000000" fill-rule="nonzero"></path>
                <polygon id="Path" fill="#FFFFFF" points="223.0889 30.85302 242.521975 30.85302 242.521975 52.679795 223.0889 52.679795"></polygon>
                <polygon id="Path" fill="#FFFFFF" points="359.0889 30.85302 378.521975 30.85302 378.521975 52.679795 359.0889 52.679795"></polygon>
                <line x1="378.52197" y1="41.7664" x2="231.56134" y2="42.2073485" id="Path" fill-opacity="0" fill="#000000"></line>
                <line x1="360.52206" y1="41.82041" x2="231.56134" y2="42.20735" id="Path" stroke="#00BFB3" stroke-width="3" stroke-linejoin="round"></line>
                <polygon id="Path" stroke="#00BFB3" stroke-width="3" fill="#00BFB3" points="360.53693 46.77559 374.136295 41.779565 360.507206 36.8652355"></polygon>
                <polygon id="Path" fill-opacity="0" fill="#000000" points="449.96063 0.47244 660.22833 0.47244 660.22833 31.842519 449.96063 31.842519"></polygon>
                <path d="M468.35126,25.814316 L468.35126,27.392441 L459.523135,27.392441 C459.512718,26.9966077 459.575218,26.6163993 459.710635,26.251816 C459.939802,25.6476493 460.299177,25.0538993 460.78876,24.470566 C461.28876,23.8872327 462.00751,23.2153577 462.94501,22.454941 C464.392927,21.267441 465.372093,20.3247327 465.88251,19.626816 C466.392927,18.9288993 466.648135,18.2726493 466.648135,17.658066 C466.648135,17.001816 466.41376,16.454941 465.94501,16.017441 C465.486677,15.5695243 464.88251,15.345566 464.13251,15.345566 C463.340843,15.345566 462.705427,15.5851493 462.22626,16.064316 C461.75751,16.533066 461.523135,17.1841077 461.523135,18.017441 L459.835635,17.845566 C459.950218,16.5851493 460.38251,15.626816 461.13251,14.970566 C461.892927,14.314316 462.903343,13.986191 464.16376,13.986191 C465.44501,13.986191 466.460635,14.3403577 467.210635,15.048691 C467.960635,15.7570243 468.335635,16.6372327 468.335635,17.689316 C468.335635,18.220566 468.22626,18.7466077 468.00751,19.267441 C467.78876,19.7882743 467.424177,20.3351493 466.91376,20.908066 C466.41376,21.470566 465.57001,22.251816 464.38251,23.251816 C463.403343,24.0747327 462.773135,24.6372327 462.491885,24.939316 C462.210635,25.2309827 461.981468,25.5226493 461.804385,25.814316 L468.35126,25.814316 Z M470.117587,20.798691 C470.117587,19.2257743 470.279045,17.9601493 470.601962,17.001816 C470.924899,16.033066 471.404076,15.2882743 472.039492,14.767441 C472.685326,14.2466077 473.492617,13.986191 474.461367,13.986191 C475.180117,13.986191 475.810326,14.1320243 476.351992,14.423691 C476.893659,14.704941 477.336367,15.1216077 477.680117,15.673691 C478.034284,16.2153577 478.310326,16.876816 478.508242,17.658066 C478.716576,18.4288993 478.820742,19.4757743 478.820742,20.798691 C478.820742,22.3716077 478.659284,23.642441 478.336367,24.611191 C478.013451,25.5695243 477.529076,26.314316 476.883242,26.845566 C476.247826,27.3663993 475.440534,27.626816 474.461367,27.626816 C473.180117,27.626816 472.169701,27.1632743 471.430117,26.236191 C470.555097,25.1216077 470.117587,23.3091077 470.117587,20.798691 L470.117587,20.798691 Z M471.789492,20.798691 C471.789492,22.9966077 472.044701,24.4601493 472.555117,25.189316 C473.075951,25.908066 473.711367,26.267441 474.461367,26.267441 C475.221784,26.267441 475.857201,25.9028577 476.367617,25.173691 C476.878034,24.4445243 477.133242,22.986191 477.133242,20.798691 C477.133242,18.6007743 476.878034,17.142441 476.367617,16.423691 C475.857201,15.704941 475.216576,15.345566 474.445742,15.345566 C473.695742,15.345566 473.096784,15.6632743 472.648867,16.298691 C472.075951,17.111191 471.789492,18.611191 471.789492,20.798691 Z M480.493288,20.798691 C480.493288,19.2257743 480.654747,17.9601493 480.977663,17.001816 C481.30058,16.033066 481.779747,15.2882743 482.415163,14.767441 C483.060997,14.2466077 483.868288,13.986191 484.837038,13.986191 C485.555788,13.986191 486.185997,14.1320243 486.727663,14.423691 C487.26933,14.704941 487.712038,15.1216077 488.055788,15.673691 C488.409955,16.2153577 488.685997,16.876816 488.883913,17.658066 C489.092247,18.4288993 489.196413,19.4757743 489.196413,20.798691 C489.196413,22.3716077 489.034955,23.642441 488.712038,24.611191 C488.389122,25.5695243 487.904747,26.314316 487.258913,26.845566 C486.623497,27.3663993 485.816205,27.626816 484.837038,27.626816 C483.555788,27.626816 482.545372,27.1632743 481.805788,26.236191 C480.930788,25.1216077 480.493288,23.3091077 480.493288,20.798691 Z M482.165163,20.798691 C482.165163,22.9966077 482.420372,24.4601493 482.930788,25.189316 C483.451622,25.908066 484.087038,26.267441 484.837038,26.267441 C485.597455,26.267441 486.232872,25.9028577 486.743288,25.173691 C487.253705,24.4445243 487.508913,22.986191 487.508913,20.798691 C487.508913,18.6007743 487.253705,17.142441 486.743288,16.423691 C486.232872,15.704941 485.592247,15.345566 484.821413,15.345566 C484.071413,15.345566 483.472455,15.6632743 483.024538,16.298691 C482.451622,17.111191 482.165163,18.611191 482.165163,20.798691 Z M490.86902,20.798691 C490.86902,19.2257743 491.030479,17.9601493 491.353395,17.001816 C491.676312,16.033066 492.155479,15.2882743 492.790895,14.767441 C493.436729,14.2466077 494.24402,13.986191 495.21277,13.986191 C495.93152,13.986191 496.561729,14.1320243 497.103395,14.423691 C497.645062,14.704941 498.08777,15.1216077 498.43152,15.673691 C498.785687,16.2153577 499.061729,16.876816 499.259645,17.658066 C499.467979,18.4288993 499.572145,19.4757743 499.572145,20.798691 C499.572145,22.3716077 499.410687,23.642441 499.08777,24.611191 C498.764854,25.5695243 498.280479,26.314316 497.634645,26.845566 C496.999229,27.3663993 496.191937,27.626816 495.21277,27.626816 C493.93152,27.626816 492.921104,27.1632743 492.18152,26.236191 C491.30652,25.1216077 490.86902,23.3091077 490.86902,20.798691 Z M492.540895,20.798691 C492.540895,22.9966077 492.796104,24.4601493 493.30652,25.189316 C493.827354,25.908066 494.46277,26.267441 495.21277,26.267441 C495.973187,26.267441 496.608604,25.9028577 497.11902,25.173691 C497.629437,24.4445243 497.884645,22.986191 497.884645,20.798691 C497.884645,18.6007743 497.629437,17.142441 497.11902,16.423691 C496.608604,15.704941 495.967979,15.345566 495.197145,15.345566 C494.447145,15.345566 493.848187,15.6632743 493.40027,16.298691 C492.827354,17.111191 492.540895,18.611191 492.540895,20.798691 Z" id="Shape" fill="#000000" fill-rule="nonzero"></path>
                <path d="M551.7156,18.1045 L551.7156,18.1045 C551.7156,16.5803148 552.951196,15.344719 554.475366,15.344719 L596.325891,15.344719 C597.057824,15.344719 597.75979,15.6354752 598.277368,16.1530381 C598.794946,16.670601 599.085717,17.3725587 599.085717,18.1044999 L599.085717,62.6636799 C599.085717,64.1878651 597.850122,65.4234609 596.325891,65.4234609 L554.475366,65.4234609 C552.951196,65.4234609 551.7156,64.1878652 551.7156,62.6636799 L551.7156,18.1045 Z" id="Path" fill-opacity="0" fill="#000000"></path>
                <path d="M551.7156,18.1045 L551.7156,18.1045 C551.7156,16.5803148 552.951196,15.344719 554.475366,15.344719 L596.325891,15.344719 C597.057824,15.344719 597.75979,15.6354752 598.277368,16.1530381 C598.794946,16.670601 599.085717,17.3725587 599.085717,18.1044999 L599.085717,62.6636799 C599.085717,64.1878651 597.850122,65.4234609 596.325891,65.4234609 L554.475366,65.4234609 C552.951196,65.4234609 551.7156,64.1878652 551.7156,62.6636799 L551.7156,18.1045 Z" id="Path" stroke="#979CAB" stroke-width="2" stroke-linejoin="round"></path>
                <path d="M570.994,43.77284 L572.634625,43.55409 C572.822125,44.49159 573.139833,45.163465 573.58775,45.569715 C574.046083,45.975965 574.598167,46.17909 575.244,46.17909 C576.014833,46.17909 576.665875,45.913465 577.197125,45.382215 C577.728375,44.850965 577.994,44.1895067 577.994,43.3978324 C577.994,42.64784 577.749208,42.0280458 577.259625,41.5384574 C576.770042,41.0488741 576.145042,40.8040824 575.384625,40.8040824 C575.072125,40.8040824 574.686708,40.8613741 574.228375,40.9759574 L574.415875,39.5384574 C574.520042,39.5488741 574.608583,39.5540824 574.6815,39.5540824 C575.379417,39.5540824 576.004417,39.3717907 576.5565,39.0072074 C577.119,38.6426241 577.40025,38.0853324 577.40025,37.3353324 C577.40025,36.7311657 577.197125,36.2311657 576.790875,35.8353324 C576.384625,35.4394991 575.858583,35.2415824 575.21275,35.2415824 C574.577333,35.2415824 574.046083,35.4447074 573.619,35.8509574 C573.191917,36.2467907 572.921083,36.8457491 572.8065,37.6478324 L571.165875,37.3509574 C571.363792,36.2572074 571.816917,35.4082491 572.52525,34.8040824 C573.233583,34.1999157 574.119,33.8978324 575.1815,33.8978324 C575.910667,33.8978324 576.577333,34.0540824 577.1815,34.3665824 C577.796083,34.6790824 578.264833,35.1061657 578.58775,35.6478324 C578.921083,36.1894991 579.08775,36.7624157 579.08775,37.3665824 C579.08775,37.9394991 578.9315,38.4655407 578.619,38.9447074 C578.3065,39.4134574 577.848167,39.7884574 577.244,40.0697074 C578.035667,40.2572074 578.65025,40.6374157 579.08775,41.2103324 C579.52525,41.7832541 579.744,42.5020067 579.744,43.36659 C579.744,44.52284 579.316917,45.507215 578.46275,46.319715 C577.619,47.132215 576.546083,47.538465 575.244,47.538465 C574.066917,47.538465 573.092958,47.1895067 572.322125,46.49159 C571.551292,45.7936733 571.108583,44.8874233 570.994,43.77284 Z" id="Path" fill="#000000" fill-rule="nonzero"></path>
                <polygon id="Path" fill="#FFFFFF" points="407.0889 30.85302 426.521975 30.85302 426.521975 52.679795 407.0889 52.679795"></polygon>
                <polygon id="Path" fill="#FFFFFF" points="543.0889 30.85302 562.521944 30.85302 562.521944 52.679795 543.0889 52.679795"></polygon>
                <line x1="562.522" y1="41.7664" x2="415.56137" y2="42.2073485" id="Path" fill-opacity="0" fill="#000000"></line>
                <line x1="544.52203" y1="41.82041" x2="415.56133" y2="42.20735" id="Path" stroke="#00BFB3" stroke-width="3" stroke-linejoin="round"></line>
                <polygon id="Path" stroke="#00BFB3" stroke-width="3" fill="#00BFB3" points="544.5369 46.77559 558.136265 41.779565 544.507176 36.8652355"></polygon>
            </g>
        </g>
    </g>
</svg>