<?xml version="1.0" encoding="UTF-8"?>
<svg width="810px" height="127px" viewBox="0 0 810 127" version="1.1" xmlns="http://www.w3.org/2000/svg" xmlns:xlink="http://www.w3.org/1999/xlink">
    <!-- Generator: Sketch 60.1 (88133) - https://sketch.com -->
    <title>Slice 1</title>
    <desc>Created with Sketch.</desc>
    <g id="Page-1" stroke="none" stroke-width="1" fill="none" fill-rule="evenodd">
        <g id="token-graph-dns-invalid-ex" transform="translate(1.000000, 1.000000)">
            <g id="Group">
                <path d="M0.209972,1.39317 L0.209972,1.39317 C0.209972,0.6962172 0.774963,0.13123 1.471912,0.13123 L46.318115,0.13123 C46.6528013,0.13123 46.9737775,0.26418746 47.2104414,0.50084365 C47.4470975,0.73749984 47.580055,1.05848375 47.580055,1.39317 L47.580055,48.948025 C47.580055,49.6449855 47.0150602,50.2099726 46.318115,50.2099726 L1.471912,50.2099726 C0.774963,50.2099726 0.209972,49.6449854 0.209972,48.948025 L0.209972,1.39317 Z" id="Path" fill-opacity="0" fill="#000000"></path>
                <path d="M0.209972,1.39317 L0.209972,1.39317 C0.209972,0.6962172 0.774963,0.13123 1.471912,0.13123 L46.318115,0.13123 C46.6528013,0.13123 46.9737775,0.26418746 47.2104414,0.50084365 C47.4470975,0.73749984 47.580055,1.05848375 47.580055,1.39317 L47.580055,48.948025 C47.580055,49.6449855 47.0150602,50.2099726 46.318115,50.2099726 L1.471912,50.2099726 C0.774963,50.2099726 0.209972,49.6449854 0.209972,48.948025 L0.209972,1.39317 Z" id="Path" stroke="#979CAB" stroke-width="2" stroke-linejoin="round"></path>
                <path d="M19.488403,25.49685 C19.488403,23.9239333 19.6498613,22.6583083 19.972778,21.699975 C20.2956947,20.731225 20.7748613,19.9864333 21.410278,19.4656 C22.0561113,18.9447667 22.863403,18.68435 23.832153,18.68435 C24.550903,18.68435 25.1811113,18.8301833 25.722778,19.12185 C26.2644447,19.4031 26.707153,19.8197667 27.050903,20.37185 C27.4050697,20.9135167 27.6811113,21.574975 27.879028,22.356225 C28.0873613,23.1270583 28.191528,24.1739333 28.191528,25.49685 C28.191528,27.0697667 28.0300697,28.3406025 27.707153,29.3093576 C27.3842363,30.2676909 26.8998613,31.0124826 26.254028,31.5437326 C25.6186113,32.0645659 24.8113197,32.3249826 23.832153,32.3249826 C22.550903,32.3249826 21.5404863,31.8614409 20.800903,30.9343576 C19.925903,29.8197743 19.488403,28.0072717 19.488403,25.49685 L19.488403,25.49685 Z M21.160278,25.49685 C21.160278,27.6947717 21.4154863,29.1583159 21.925903,29.8874826 C22.4467363,30.6062326 23.082153,30.9656076 23.832153,30.9656076 C24.5925697,30.9656076 25.2279863,30.6010243 25.738403,29.8718576 C26.2488197,29.1426909 26.504028,27.6843551 26.504028,25.49685 C26.504028,23.2989333 26.2488197,21.8406 25.738403,21.12185 C25.2279863,20.4031 24.5873613,20.043725 23.816528,20.043725 C23.066528,20.043725 22.4675697,20.3614333 22.019653,20.99685 C21.4467363,21.80935 21.160278,23.30935 21.160278,25.49685 L21.160278,25.49685 Z" id="Shape" fill="#000000" fill-rule="nonzero"></path>
                <path d="M167.71559,4.1045 L167.71559,4.1045 C167.71559,2.5803148 168.951186,1.344719 170.475371,1.344719 L212.325881,1.344719 C213.05783,1.344719 213.759795,1.63547523 214.277343,2.1530381 C214.794906,2.67060097 215.085662,3.3725587 215.085662,4.1044999 L215.085662,48.6636799 C215.085662,50.1878651 213.850066,51.4234609 212.325881,51.4234609 L170.475371,51.4234609 C168.951186,51.4234609 167.71559,50.1878652 167.71559,48.6636799 L167.71559,4.1045 Z" id="Path" fill-opacity="0" fill="#000000"></path>
                <path d="M167.71559,4.1045 L167.71559,4.1045 C167.71559,2.5803148 168.951186,1.344719 170.475371,1.344719 L212.325881,1.344719 C213.05783,1.344719 213.759795,1.63547523 214.277343,2.1530381 C214.794906,2.67060097 215.085662,3.3725587 215.085662,4.1044999 L215.085662,48.6636799 C215.085662,50.1878651 213.850066,51.4234609 212.325881,51.4234609 L170.475371,51.4234609 C168.951186,51.4234609 167.71559,50.1878652 167.71559,48.6636799 L167.71559,4.1045 Z" id="Path" stroke="#979CAB" stroke-width="2" stroke-linejoin="round"></path>
                <path d="M193.1659,33.3041 L191.525275,33.3041 L191.525275,22.850967 C191.129442,23.225967 190.608608,23.6061753 189.962775,23.991592 C189.327358,24.366592 188.754442,24.647842 188.244025,24.835342 L188.244025,23.241592 C189.160692,22.8145087 189.962775,22.2936753 190.650275,21.679092 C191.337775,21.0645087 191.82215,20.4707587 192.1034,19.897842 L193.1659,19.897842 L193.1659,33.3041 Z" id="Path" fill="#000000" fill-rule="nonzero"></path>
                <polygon id="Path" fill="#FFFFFF" points="39.08891 16.85302 58.521977 16.85302 58.521977 38.679795 39.08891 38.679795"></polygon>
                <polygon id="Path" fill="#FFFFFF" points="159.08891 16.85302 178.521985 16.85302 178.521985 38.679795 159.08891 38.679795"></polygon>
                <line x1="178.52199" y1="27.7664" x2="48.19127" y2="27.2309691" id="Path" fill-opacity="0" fill="#000000"></line>
                <line x1="160.52213" y1="27.69245" x2="48.19128" y2="27.2309708" id="Path" stroke="#00BFB3" stroke-width="3" stroke-linejoin="round"></line>
                <polygon id="Path" stroke="#00BFB3" stroke-width="3" fill="#00BFB3" points="160.50177 32.64761 174.136307 27.7483867 160.542496 22.7372937"></polygon>
                <path d="M319.71558,4.1045 L319.71558,4.1045 C319.71558,2.5803148 320.951206,1.344719 322.475376,1.344719 L364.325901,1.344719 C365.057835,1.344719 365.7598,1.63547523 366.277348,2.1530381 C366.794926,2.67060097 367.085667,3.3725587 367.085667,4.1044999 L367.085667,48.6636799 C367.085667,50.1878651 365.850071,51.4234609 364.325901,51.4234609 L322.475376,51.4234609 C320.951206,51.4234609 319.71558,50.1878652 319.71558,48.6636799 L319.71558,4.1045 Z" id="Path" fill-opacity="0" fill="#000000"></path>
                <path d="M319.71558,4.1045 L319.71558,4.1045 C319.71558,2.5803148 320.951206,1.344719 322.475376,1.344719 L364.325901,1.344719 C365.057835,1.344719 365.7598,1.63547523 366.277348,2.1530381 C366.794926,2.67060097 367.085667,3.3725587 367.085667,4.1044999 L367.085667,48.6636799 C367.085667,50.1878651 365.850071,51.4234609 364.325901,51.4234609 L322.475376,51.4234609 C320.951206,51.4234609 319.71558,50.1878652 319.71558,48.6636799 L319.71558,4.1045 Z" id="Path" stroke="#979CAB" stroke-width="2" stroke-linejoin="round"></path>
                <path d="M347.6034,31.72597 L347.6034,33.304095 L338.775275,33.304095 C338.764858,32.9082617 338.827358,32.5280533 338.962775,32.16347 C339.191942,31.5593033 339.551317,30.9655533 340.0409,30.38222 C340.5409,29.7988867 341.25965,29.1270117 342.19715,28.366595 C343.645067,27.1790899 344.624233,26.2363791 345.13465,25.5384624 C345.645067,24.8405457 345.900275,24.1842957 345.900275,23.5697124 C345.900275,22.9134624 345.6659,22.3665874 345.19715,21.9290874 C344.738817,21.4811707 344.13465,21.2572124 343.38465,21.2572124 C342.592983,21.2572124 341.957567,21.4967957 341.4784,21.9759624 C341.00965,22.4447124 340.775275,23.0957541 340.775275,23.9290874 L339.087775,23.7572124 C339.202358,22.4967957 339.63465,21.5384624 340.38465,20.8822124 C341.145067,20.2259624 342.155483,19.8978374 343.4159,19.8978374 C344.69715,19.8978374 345.712775,20.2520041 346.462775,20.9603374 C347.212775,21.6686707 347.587775,22.5488791 347.587775,23.6009624 C347.587775,24.1322124 347.4784,24.6582541 347.25965,25.1790874 C347.0409,25.6999207 346.676317,26.2467957 346.1659,26.8197124 C345.6659,27.3822124 344.82215,28.1634649 343.63465,29.16347 C342.655483,29.9863867 342.025275,30.5488867 341.744025,30.85097 C341.462775,31.1426367 341.233608,31.4343033 341.056525,31.72597 L347.6034,31.72597 Z" id="Path" fill="#000000" fill-rule="nonzero"></path>
                <polygon id="Path" fill="#FFFFFF" points="207.08891 16.85302 226.52197 16.85302 226.52197 38.679795 207.08891 38.679795"></polygon>
                <polygon id="Path" fill="#FFFFFF" points="311.0889 16.85302 330.521975 16.85302 330.521975 38.679795 311.0889 38.679795"></polygon>
                <path d="M487.7156,4.1045 L487.7156,4.1045 C487.7156,2.5803148 488.951196,1.344719 490.475366,1.344719 L532.325891,1.344719 C533.057824,1.344719 533.75979,1.63547523 534.277368,2.1530381 C534.794946,2.67060097 535.085717,3.3725587 535.085717,4.1044999 L535.085717,48.6636799 C535.085717,50.1878651 533.850122,51.4234609 532.325891,51.4234609 L490.475366,51.4234609 C488.951196,51.4234609 487.7156,50.1878652 487.7156,48.6636799 L487.7156,4.1045 Z" id="Path" fill-opacity="0" fill="#000000"></path>
                <path d="M487.7156,4.1045 L487.7156,4.1045 C487.7156,2.5803148 488.951196,1.344719 490.475366,1.344719 L532.325891,1.344719 C533.057824,1.344719 533.75979,1.63547523 534.277368,2.1530381 C534.794946,2.67060097 535.085717,3.3725587 535.085717,4.1044999 L535.085717,48.6636799 C535.085717,50.1878651 533.850122,51.4234609 532.325891,51.4234609 L490.475366,51.4234609 C488.951196,51.4234609 487.7156,50.1878652 487.7156,48.6636799 L487.7156,4.1045 Z" id="Path" stroke="#979CAB" stroke-width="2" stroke-linejoin="round"></path>
                <path d="M506.994,29.77284 L508.634625,29.55409 C508.822125,30.49159 509.139833,31.163465 509.58775,31.569715 C510.046083,31.975965 510.598167,32.17909 511.244,32.17909 C512.014833,32.17909 512.665875,31.913465 513.197125,31.382215 C513.728375,30.850965 513.994,30.1895067 513.994,29.3978324 C513.994,28.64784 513.749208,28.0280458 513.259625,27.5384574 C512.770042,27.0488741 512.145042,26.8040824 511.384625,26.8040824 C511.072125,26.8040824 510.686708,26.8613741 510.228375,26.9759574 L510.415875,25.5384574 C510.520042,25.5488741 510.608583,25.5540824 510.6815,25.5540824 C511.379417,25.5540824 512.004417,25.3717907 512.5565,25.0072074 C513.119,24.6426241 513.40025,24.0853324 513.40025,23.3353324 C513.40025,22.7311657 513.197125,22.2311657 512.790875,21.8353324 C512.384625,21.4394991 511.858583,21.2415824 511.21275,21.2415824 C510.577333,21.2415824 510.046083,21.4447074 509.619,21.8509574 C509.191917,22.2467907 508.921083,22.8457491 508.8065,23.6478324 L507.165875,23.3509574 C507.363792,22.2572074 507.816917,21.4082491 508.52525,20.8040824 C509.233583,20.1999157 510.119,19.8978324 511.1815,19.8978324 C511.910667,19.8978324 512.577333,20.0540824 513.1815,20.3665824 C513.796083,20.6790824 514.264833,21.1061657 514.58775,21.6478324 C514.921083,22.1894991 515.08775,22.7624157 515.08775,23.3665824 C515.08775,23.9394991 514.9315,24.4655407 514.619,24.9447074 C514.3065,25.4134574 513.848167,25.7884574 513.244,26.0697074 C514.035667,26.2572074 514.65025,26.6374157 515.08775,27.2103324 C515.52525,27.7832541 515.744,28.5020067 515.744,29.36659 C515.744,30.52284 515.316917,31.507215 514.46275,32.319715 C513.619,33.132215 512.546083,33.538465 511.244,33.538465 C510.066917,33.538465 509.092958,33.1895067 508.322125,32.49159 C507.551292,31.7936733 507.108583,30.8874233 506.994,29.77284 Z" id="Path" fill="#000000" fill-rule="nonzero"></path>
                <polygon id="Path" fill="#FFFFFF" points="359.0889 16.85302 378.521975 16.85302 378.521975 38.679795 359.0889 38.679795"></polygon>
                <polygon id="Path" fill="#FFFFFF" points="479.0889 16.85302 498.521944 16.85302 498.521944 38.679795 479.0889 38.679795"></polygon>
                <line x1="496.9606" y1="27.00144" x2="369.18106" y2="28.765211" id="Path" fill-opacity="0" fill="#000000"></line>
                <line x1="478.9623" y1="27.24987" x2="369.18105" y2="28.7652127" id="Path" stroke="#00BFB3" stroke-width="3" stroke-linejoin="round"></line>
                <polygon id="Path" stroke="#00BFB3" stroke-width="3" fill="#00BFB3" points="479.03064 32.20459 492.575257 27.061966 478.89386 22.295143"></polygon>
                <polygon id="Path" fill="#FFFFFF" points="58.385826 10.47244 147.83464 10.47244 147.83464 41.842511 58.385826 41.842511"></polygon>
                <path d="M80.01599,33.07748 L80.01599,31.85873 C79.4118233,32.8170633 78.5107817,33.29623 77.312865,33.29623 C76.5420317,33.29623 75.8336983,33.0826883 75.187865,32.655605 C74.5420317,32.2285217 74.0420317,31.6347717 73.687865,30.874355 C73.3336983,30.1139383 73.156615,29.2389383 73.156615,28.249355 C73.156615,27.2805999 73.3180733,26.4055974 73.64099,25.6243474 C73.9639067,24.8326807 74.4430733,24.2285141 75.07849,23.8118474 C75.7243233,23.3951807 76.4482817,23.1868474 77.250365,23.1868474 C77.8336983,23.1868474 78.3493233,23.3118474 78.79724,23.5618474 C79.2555733,23.8014307 79.625365,24.1191391 79.906615,24.5149724 L79.906615,19.7180974 L81.54724,19.7180974 L81.54724,33.0774804 L80.01599,33.0774804 L80.01599,33.07748 Z M74.844115,28.249355 C74.844115,29.4889383 75.1045317,30.4160217 75.625365,31.030605 C76.1461983,31.6451883 76.7607817,31.95248 77.469115,31.95248 C78.187865,31.95248 78.79724,31.6608133 79.29724,31.07748 C79.79724,30.48373 80.04724,29.5878967 80.04724,28.38998 C80.04724,27.0670583 79.7920317,26.0983057 79.281615,25.4837224 C78.7711983,24.8587224 78.14099,24.5462224 77.39099,24.5462224 C76.67224,24.5462224 76.0680733,24.8430974 75.57849,25.4368474 C75.0889067,26.0305974 74.844115,26.9680999 74.844115,28.249355 Z M83.516707,28.23373 C83.516707,26.4420583 84.0114987,25.1191391 85.001082,24.2649724 C85.8344153,23.5462224 86.8500403,23.1868474 88.047957,23.1868474 C89.3812903,23.1868474 90.469832,23.6243474 91.313582,24.4993474 C92.157332,25.3639307 92.579207,26.5670583 92.579207,28.10873 C92.579207,29.3483133 92.391707,30.32748 92.016707,31.04623 C91.641707,31.7545633 91.094832,32.3066467 90.376082,32.70248 C89.6677487,33.0983133 88.891707,33.29623 88.047957,33.29623 C86.6937903,33.29623 85.6000403,32.8639383 84.766707,31.999355 C83.9333737,31.124355 83.516707,29.8691467 83.516707,28.23373 Z M85.204207,28.23373 C85.204207,29.4733133 85.469832,30.405605 86.001082,31.030605 C86.5427487,31.6451883 87.2250403,31.95248 88.047957,31.95248 C88.860457,31.95248 89.5375403,31.6451883 90.079207,31.030605 C90.6208737,30.405605 90.891707,29.4576883 90.891707,28.186855 C90.891707,26.9889333 90.6208737,26.0826807 90.079207,25.4680974 C89.5375403,24.8535141 88.860457,24.5462224 88.047957,24.5462224 C87.2250403,24.5462224 86.5427487,24.8535141 86.001082,25.4680974 C85.469832,26.0722641 85.204207,26.9941416 85.204207,28.23373 Z M94.501799,33.07748 L94.501799,23.405597 L95.970549,23.405597 L95.970549,24.764972 C96.2726323,24.2858053 96.673674,23.905597 97.173674,23.624347 C97.6840907,23.3326803 98.2570073,23.186847 98.892424,23.186847 C99.611174,23.186847 100.199716,23.3378887 100.658049,23.639972 C101.116382,23.9316387 101.439299,24.343097 101.626799,24.874347 C102.397632,23.749347 103.392424,23.186847 104.611174,23.186847 C105.579924,23.186847 106.319507,23.452472 106.829924,23.983722 C107.350757,24.514972 107.611174,25.3326803 107.611174,26.436847 L107.611174,33.07748 L105.970549,33.07748 L105.970549,26.983722 C105.970549,26.327472 105.918466,25.858722 105.814299,25.577472 C105.710132,25.2858053 105.517424,25.0514303 105.236174,24.874347 C104.954924,24.6972637 104.626799,24.608722 104.251799,24.608722 C103.574716,24.608722 103.012216,24.8378887 102.564299,25.296222 C102.116382,25.7441387 101.892424,26.4628887 101.892424,27.452472 L101.892424,33.07748 L100.251799,33.07748 L100.251799,26.796222 C100.251799,26.0670553 100.116382,25.5201803 99.845549,25.155597 C99.5747157,24.7910137 99.1372157,24.608722 98.533049,24.608722 C98.0747157,24.608722 97.6476323,24.7285137 97.251799,24.968097 C96.8559657,25.2076803 96.5695073,25.561847 96.392424,26.030597 C96.2257573,26.499347 96.142424,27.1764329 96.142424,28.0618546 L96.142424,33.07748 L94.501799,33.07748 L94.501799,33.07748 Z M116.355101,31.88998 C115.740518,32.4003967 115.151976,32.76498 114.589476,32.98373 C114.037393,33.1920633 113.438434,33.29623 112.792601,33.29623 C111.730101,33.29623 110.912393,33.0358133 110.339476,32.51498 C109.766559,31.9941467 109.480101,31.3326883 109.480101,30.530605 C109.480101,30.0514383 109.589476,29.6191467 109.808226,29.23373 C110.026976,28.8378967 110.308226,28.5253967 110.651976,28.29623 C111.006143,28.0566416 111.401976,27.8743474 111.839476,27.7493474 C112.151976,27.6660141 112.636351,27.5826807 113.292601,27.4993474 C114.615518,27.3430974 115.589476,27.1555974 116.214476,26.9368474 C116.224893,26.7076807 116.230101,26.5670557 116.230101,26.5149724 C116.230101,25.8483057 116.073851,25.3743474 115.761351,25.0930974 C115.344684,24.7285141 114.719684,24.5462224 113.886351,24.5462224 C113.115518,24.5462224 112.547809,24.6816391 112.183226,24.9524724 C111.818643,25.2233057 111.547809,25.6972641 111.370726,26.3743474 L109.761351,26.1555974 C109.907184,25.4785141 110.146768,24.9316391 110.480101,24.5149724 C110.813434,24.0878891 111.297809,23.7597641 111.933226,23.5305974 C112.568643,23.3014307 113.297809,23.1868474 114.120726,23.1868474 C114.954059,23.1868474 115.625934,23.2858057 116.136351,23.4837224 C116.657184,23.6712224 117.037393,23.9160141 117.276976,24.2180974 C117.526976,24.5097641 117.698851,24.8795557 117.792601,25.3274724 C117.844684,25.6087224 117.870726,26.1139307 117.870726,26.8430974 L117.870726,29.030605 C117.870726,30.5514383 117.907184,31.51498 117.980101,31.92123 C118.053018,32.3170633 118.188434,32.70248 118.386351,33.07748 L116.683226,33.07748 C116.506143,32.73373 116.396768,32.3378967 116.355101,31.88998 Z M116.214476,28.218105 C115.620726,28.468105 114.730101,28.6764383 113.542601,28.843105 C112.865518,28.936855 112.386351,29.04623 112.105101,29.17123 C111.823851,29.29623 111.605101,29.4733133 111.448851,29.70248 C111.303018,29.9316467 111.230101,30.1920633 111.230101,30.48373 C111.230101,30.92123 111.396768,31.2858133 111.730101,31.57748 C112.063434,31.8691467 112.547809,32.01498 113.183226,32.01498 C113.808226,32.01498 114.365518,31.8795633 114.855101,31.60873 C115.355101,31.32748 115.719684,30.9472717 115.948851,30.468105 C116.125934,30.093105 116.214476,29.54623 116.214476,28.82748 L116.214476,28.218105 Z M120.418318,21.6087224 L120.418318,19.7180974 L122.058943,19.7180974 L122.058943,21.6087224 L120.418318,21.6087224 Z M120.418318,33.0774804 L120.418318,23.4055974 L122.058943,23.4055974 L122.058943,33.0774804 L120.418318,33.0774804 Z M124.563139,33.0774804 L124.563139,23.4055974 L126.031889,23.4055974 L126.031889,24.7805974 C126.740222,23.7180974 127.766264,23.1868474 129.110014,23.1868474 C129.693347,23.1868474 130.229806,23.2910141 130.719389,23.4993474 C131.208972,23.7076807 131.573556,23.9837224 131.813139,24.3274724 C132.063139,24.6608057 132.235014,25.0618474 132.328764,25.5305974 C132.391264,25.8326807 132.422514,26.3639307 132.422514,27.1243474 L132.422514,33.0774804 L130.781889,33.0774804 L130.781889,27.1868474 C130.781889,26.5201807 130.714181,26.0253891 130.578764,25.7024724 C130.453764,25.3691391 130.229806,25.1035141 129.906889,24.9055974 C129.583972,24.7076807 129.203764,24.6087224 128.766264,24.6087224 C128.068347,24.6087224 127.464181,24.8326807 126.953764,25.2805974 C126.453764,25.7180974 126.203764,26.5566391 126.203764,27.7962224 L126.203764,33.0774804 L124.563139,33.0774804 L124.563139,33.0774804 Z" id="Shape" fill="#000000" fill-rule="nonzero"></path>
                <polygon id="Path" fill="#FFFFFF" points="383 10.47244 466.653534 10.47244 466.653534 41.842511 383 41.842511"></polygon>
                <path d="M395.8628,30.1868524 L397.4878,29.93686 C397.571133,30.5826933 397.821133,31.0826933 398.2378,31.43686 C398.654467,31.78061 399.2378,31.952485 399.9878,31.952485 C400.7378,31.952485 401.295092,31.8014433 401.659675,31.49936 C402.024258,31.1868524 402.20655,30.8222767 402.20655,30.40561 C402.20655,30.0410267 402.045092,29.74936 401.722175,29.53061 C401.503425,29.3847767 400.946133,29.202485 400.0503,28.983735 C398.841967,28.671235 398.003425,28.40561 397.534675,28.1868524 C397.076342,27.9681049 396.727383,27.666019 396.4878,27.2806024 C396.248217,26.8847691 396.128425,26.4472691 396.128425,25.9681024 C396.128425,25.5410191 396.227383,25.1451857 396.4253,24.7806024 C396.623217,24.4056024 396.89405,24.0983107 397.2378,23.8587274 C397.4878,23.6712274 397.83155,23.5149774 398.26905,23.3899774 C398.716967,23.2545607 399.190925,23.1868524 399.690925,23.1868524 C400.451342,23.1868524 401.118008,23.2962274 401.690925,23.5149774 C402.263842,23.7337274 402.685717,24.0306024 402.95655,24.4056024 C403.2378,24.7806024 403.430508,25.2806024 403.534675,25.9056024 L401.9253,26.1243524 C401.852383,25.6243524 401.638842,25.2337274 401.284675,24.9524774 C400.940925,24.6712274 400.451342,24.5306024 399.815925,24.5306024 C399.055508,24.5306024 398.513842,24.6556024 398.190925,24.9056024 C397.878425,25.1556024 397.722175,25.4472691 397.722175,25.7806024 C397.722175,25.9889357 397.784675,26.1816441 397.909675,26.3587274 C398.045092,26.5358107 398.258633,26.6816441 398.5503,26.7962274 C398.70655,26.8587274 399.185717,26.9993524 399.9878,27.2181024 C401.154467,27.5201857 401.966967,27.7701857 402.4253,27.9681024 C402.883633,28.1660242 403.243008,28.452485 403.503425,28.827485 C403.763842,29.202485 403.89405,29.671235 403.89405,30.233735 C403.89405,30.7858183 403.732592,31.3014433 403.409675,31.78061 C403.097175,32.2597767 402.638842,32.6347767 402.034675,32.90561 C401.430508,33.1660267 400.748217,33.296235 399.9878,33.296235 C398.7378,33.296235 397.779467,33.0358183 397.1128,32.514985 C396.45655,31.9941517 396.039883,31.21811 395.8628,30.1868524 Z M405.76905,36.796235 L405.58155,35.264985 C405.946133,35.358735 406.258633,35.405602 406.51905,35.405602 C406.883633,35.405602 407.1753,35.34311 407.39405,35.21811 C407.6128,35.1035267 407.795092,34.93686 407.940925,34.71811 C408.045092,34.5514433 408.211758,34.1451933 408.440925,33.49936 C408.472175,33.405602 408.51905,33.2701933 408.58155,33.09311 L404.909675,23.405602 L406.6753,23.405602 L408.690925,28.9993596 C408.951342,29.7181096 409.185717,30.4681096 409.39405,31.2493596 C409.58155,30.4993596 409.805508,29.7649846 410.065925,29.0462346 L412.14405,23.405602 L413.784675,23.405602 L410.097175,33.233735 C409.701342,34.3066517 409.39405,35.0410267 409.1753,35.43686 C408.883633,35.9785267 408.5503,36.37436 408.1753,36.62436 C407.8003,36.87436 407.352383,36.99936 406.83155,36.99936 C406.508633,36.99936 406.154467,36.9316517 405.76905,36.796235 Z M414.51905,30.1868524 L416.14405,29.93686 C416.227383,30.5826933 416.477383,31.0826933 416.89405,31.43686 C417.310717,31.78061 417.89405,31.952485 418.64405,31.952485 C419.39405,31.952485 419.951342,31.8014433 420.315925,31.49936 C420.680508,31.1868524 420.8628,30.8222767 420.8628,30.40561 C420.8628,30.0410267 420.701342,29.74936 420.378425,29.53061 C420.159675,29.3847767 419.602383,29.202485 418.70655,28.983735 C417.498217,28.671235 416.659675,28.40561 416.190925,28.1868524 C415.732592,27.9681049 415.383633,27.666019 415.14405,27.2806024 C414.904467,26.8847691 414.784675,26.4472691 414.784675,25.9681024 C414.784675,25.5410191 414.883633,25.1451857 415.08155,24.7806024 C415.279467,24.4056024 415.5503,24.0983107 415.89405,23.8587274 C416.14405,23.6712274 416.4878,23.5149774 416.9253,23.3899774 C417.373217,23.2545607 417.847175,23.1868524 418.347175,23.1868524 C419.107592,23.1868524 419.774258,23.2962274 420.347175,23.5149774 C420.920092,23.7337274 421.341967,24.0306024 421.6128,24.4056024 C421.89405,24.7806024 422.086758,25.2806024 422.190925,25.9056024 L420.58155,26.1243524 C420.508633,25.6243524 420.295092,25.2337274 419.940925,24.9524774 C419.597175,24.6712274 419.107592,24.5306024 418.472175,24.5306024 C417.711758,24.5306024 417.170092,24.6556024 416.847175,24.9056024 C416.534675,25.1556024 416.378425,25.4472691 416.378425,25.7806024 C416.378425,25.9889357 416.440925,26.1816441 416.565925,26.3587274 C416.701342,26.5358107 416.914883,26.6816441 417.20655,26.7962274 C417.3628,26.8587274 417.841967,26.9993524 418.64405,27.2181024 C419.810717,27.5201857 420.623217,27.7701857 421.08155,27.9681024 C421.539883,28.1660242 421.899258,28.452485 422.159675,28.827485 C422.420092,29.202485 422.5503,29.671235 422.5503,30.233735 C422.5503,30.7858183 422.388842,31.3014433 422.065925,31.78061 C421.753425,32.2597767 421.295092,32.6347767 420.690925,32.90561 C420.086758,33.1660267 419.404467,33.296235 418.64405,33.296235 C417.39405,33.296235 416.435717,33.0358183 415.76905,32.514985 C415.1128,31.9941517 414.696133,31.21811 414.51905,30.1868524 Z M428.08155,31.608735 L428.315925,33.06186 C427.857592,33.15561 427.446133,33.202485 427.08155,33.202485 C426.4878,33.202485 426.024258,33.108735 425.690925,32.921235 C425.368008,32.733735 425.138842,32.4889433 425.003425,32.18686 C424.868008,31.87436 424.8003,31.2285267 424.8003,30.24936 L424.8003,24.6712274 L423.597175,24.6712274 L423.597175,23.4056024 L424.8003,23.4056024 L424.8003,21.0149774 L426.4253,20.0306024 L426.4253,23.4056024 L428.08155,23.4056024 L428.08155,24.6712274 L426.4253,24.6712274 L426.4253,30.34311 C426.4253,30.8014433 426.451342,31.0983183 426.503425,31.233735 C426.565925,31.3691517 426.659675,31.4785267 426.784675,31.56186 C426.920092,31.6347767 427.1128,31.671235 427.3628,31.671235 C427.539883,31.671235 427.779467,31.6504017 428.08155,31.608735 Z M436.311744,29.96811 L437.999244,30.171235 C437.728411,31.1608183 437.233619,31.9316517 436.514869,32.483735 C435.796119,33.0254017 434.874244,33.296235 433.749244,33.296235 C432.332577,33.296235 431.207577,32.8639433 430.374244,31.99936 C429.551327,31.12436 429.139869,29.9004017 429.139869,28.327485 C429.139869,26.6920633 429.556536,25.4264357 430.389869,24.5306024 C431.233619,23.6347691 432.322161,23.1868524 433.655494,23.1868524 C434.947161,23.1868524 435.999244,23.6295607 436.811744,24.5149774 C437.634661,25.3899774 438.046119,26.6243549 438.046119,28.21811 C438.046119,28.3222767 438.046119,28.46811 438.046119,28.65561 L430.827369,28.65561 C430.889869,29.71811 431.191952,30.5358183 431.733619,31.108735 C432.275286,31.671235 432.947161,31.952485 433.749244,31.952485 C434.353411,31.952485 434.869036,31.796235 435.296119,31.483735 C435.723202,31.1608183 436.061744,30.65561 436.311744,29.96811 Z M430.921119,27.3118524 L436.327369,27.3118524 C436.254452,26.4993524 436.046119,25.8899774 435.702369,25.4837274 C435.181536,24.8483107 434.504452,24.5306024 433.671119,24.5306024 C432.921119,24.5306024 432.285702,24.7858107 431.764869,25.2962274 C431.254452,25.7962274 430.973202,26.4681024 430.921119,27.3118524 Z M440.062446,33.077485 L440.062446,23.405602 L441.531196,23.405602 L441.531196,24.764977 C441.833279,24.2858103 442.234321,23.905602 442.734321,23.624352 C443.244738,23.3326853 443.817654,23.186852 444.453071,23.186852 C445.171821,23.186852 445.760363,23.3378937 446.218696,23.639977 C446.677029,23.9316437 446.999946,24.343102 447.187446,24.874352 C447.958279,23.749352 448.953071,23.186852 450.171821,23.186852 C451.140571,23.186852 451.880154,23.452477 452.390571,23.983727 C452.911404,24.514977 453.171821,25.3326853 453.171821,26.436852 L453.171821,33.077485 L451.531196,33.077485 L451.531196,26.983727 C451.531196,26.327477 451.479113,25.858727 451.374946,25.577477 C451.270779,25.2858103 451.078071,25.0514353 450.796821,24.874352 C450.515571,24.6972687 450.187446,24.608727 449.812446,24.608727 C449.135363,24.608727 448.572863,24.8378937 448.124946,25.296227 C447.677029,25.7441437 447.453071,26.4628937 447.453071,27.452477 L447.453071,33.077485 L445.812446,33.077485 L445.812446,26.796227 C445.812446,26.0670603 445.677029,25.5201853 445.406196,25.155602 C445.135363,24.7910187 444.697863,24.608727 444.093696,24.608727 C443.635363,24.608727 443.208279,24.7285187 442.812446,24.968102 C442.416613,25.2076853 442.130154,25.561852 441.953071,26.030602 C441.786404,26.499352 441.703071,27.1764379 441.703071,28.0618596 L441.703071,33.077485 L440.062446,33.077485 L440.062446,33.077485 Z" id="Shape" fill="#000000" fill-rule="nonzero"></path>
                <path d="M607.7156,4.1045 L607.7156,4.1045 C607.7156,2.5803148 608.951196,1.344719 610.475366,1.344719 L652.325891,1.344719 C653.057824,1.344719 653.75979,1.63547523 654.277368,2.1530381 C654.794946,2.67060097 655.085717,3.3725587 655.085717,4.1044999 L655.085717,48.6636799 C655.085717,50.1878651 653.850122,51.4234609 652.325891,51.4234609 L610.475366,51.4234609 C608.951196,51.4234609 607.7156,50.1878652 607.7156,48.6636799 L607.7156,4.1045 Z" id="Path" fill-opacity="0" fill="#000000"></path>
                <path d="M607.7156,4.1045 L607.7156,4.1045 C607.7156,2.5803148 608.951196,1.344719 610.475366,1.344719 L652.325891,1.344719 C653.057824,1.344719 653.75979,1.63547523 654.277368,2.1530381 C654.794946,2.67060097 655.085717,3.3725587 655.085717,4.1044999 L655.085717,48.6636799 C655.085717,50.1878651 653.850122,51.4234609 652.325891,51.4234609 L610.475366,51.4234609 C608.951196,51.4234609 607.7156,50.1878652 607.7156,48.6636799 L607.7156,4.1045 Z" id="Path" stroke="#979CAB" stroke-width="2" stroke-linejoin="round"></path>
                <path d="M632.244,33.3041 L632.244,30.100975 L626.447125,30.100975 L626.447125,28.600975 L632.540875,19.944717 L633.884625,19.944717 L633.884625,28.600975 L635.6815,28.600975 L635.6815,30.100975 L633.884625,30.100975 L633.884625,33.3041 L632.244,33.3041 Z M632.244,28.600975 L632.244,22.5853424 L628.0565,28.600975 L632.244,28.600975 Z" id="Shape" fill="#000000" fill-rule="nonzero"></path>
                <polygon id="Path" fill="#FFFFFF" points="527.0889 16.85302 546.521944 16.85302 546.521944 38.679795 527.0889 38.679795"></polygon>
                <polygon id="Path" fill="#FFFFFF" points="599.0889 16.85302 618.521944 16.85302 618.521944 38.679795 599.0889 38.679795"></polygon>
                <line x1="618.522" y1="27.7664" x2="533.1362" y2="28.7427794" id="Path" fill-opacity="0" fill="#000000"></line>
                <line x1="600.5232" y1="27.97221" x2="533.136176" y2="28.7427789" id="Path" stroke="#00BFB3" stroke-width="3" stroke-linejoin="round"></line>
                <polygon id="Path" stroke="#00BFB3" stroke-width="3" fill="#00BFB3" points="600.57983 32.9271 614.136532 27.8165577 600.466488 23.0173557"></polygon>
                <polygon id="Path" fill="#FFFFFF" points="543.8793 12.06562 588.603726 12.06562 588.603726 43.435699 543.8793 43.435699"></polygon>
                <path d="M560.7394,23.201904 L560.7394,21.311279 L562.380025,21.311279 L562.380025,23.201904 L560.7394,23.201904 Z M560.7394,34.670654 L560.7394,24.998779 L562.380025,24.998779 L562.380025,34.670654 L560.7394,34.670654 Z M564.227986,31.780029 L565.852986,31.530029 C565.93632,32.1758623 566.18632,32.6758623 566.602986,33.030029 C567.019653,33.373779 567.602986,33.545654 568.352986,33.545654 C569.102986,33.545654 569.660278,33.3946123 570.024861,33.092529 C570.389445,32.780029 570.571736,32.4154457 570.571736,31.998779 C570.571736,31.6341957 570.410278,31.342529 570.087361,31.123779 C569.868611,30.9779457 569.31132,30.795654 568.415486,30.576904 C567.207153,30.264404 566.368611,29.998779 565.899861,29.780029 C565.441528,29.561279 565.09257,29.2591957 564.852986,28.873779 C564.613403,28.4779457 564.493611,28.0404457 564.493611,27.561279 C564.493611,27.1341957 564.59257,26.7383623 564.790486,26.373779 C564.988403,25.998779 565.259236,25.6914873 565.602986,25.451904 C565.852986,25.264404 566.196736,25.108154 566.634236,24.983154 C567.082153,24.8477373 567.556111,24.780029 568.056111,24.780029 C568.816528,24.780029 569.483195,24.889404 570.056111,25.108154 C570.629028,25.326904 571.050903,25.623779 571.321736,25.998779 C571.602986,26.373779 571.795695,26.873779 571.899861,27.498779 L570.290486,27.717529 C570.21757,27.217529 570.004028,26.826904 569.649861,26.545654 C569.306111,26.264404 568.816528,26.123779 568.181111,26.123779 C567.420695,26.123779 566.879028,26.248779 566.556111,26.498779 C566.243611,26.748779 566.087361,27.0404457 566.087361,27.373779 C566.087361,27.5821123 566.149861,27.7748207 566.274861,27.951904 C566.410278,28.1289873 566.62382,28.2748207 566.915486,28.389404 C567.071736,28.451904 567.550903,28.592529 568.352986,28.811279 C569.519653,29.1133623 570.332153,29.3633623 570.790486,29.561279 C571.24882,29.7591957 571.608195,30.045654 571.868611,30.420654 C572.129028,30.795654 572.259236,31.264404 572.259236,31.826904 C572.259236,32.3789873 572.097778,32.8946123 571.774861,33.373779 C571.462361,33.8529457 571.004028,34.2279457 570.399861,34.498779 C569.795695,34.7591957 569.113403,34.889404 568.352986,34.889404 C567.102986,34.889404 566.144653,34.6289873 565.477986,34.108154 C564.821736,33.5873207 564.40507,32.811279 564.227986,31.780029 Z" id="Shape" fill="#000000" fill-rule="nonzero"></path>
                <path d="M759.7156,4.1045 L759.7156,4.1045 C759.7156,2.5803148 760.951196,1.344719 762.475366,1.344719 L804.325891,1.344719 C805.057824,1.344719 805.75979,1.63547523 806.277368,2.1530381 C806.794946,2.67060097 807.085717,3.3725587 807.085717,4.1044999 L807.085717,48.6636799 C807.085717,50.1878651 805.850122,51.4234609 804.325891,51.4234609 L762.475366,51.4234609 C760.951196,51.4234609 759.7156,50.1878652 759.7156,48.6636799 L759.7156,4.1045 Z" id="Path" fill-opacity="0" fill="#000000"></path>
                <path d="M759.7156,4.1045 L759.7156,4.1045 C759.7156,2.5803148 760.951196,1.344719 762.475366,1.344719 L804.325891,1.344719 C805.057824,1.344719 805.75979,1.63547523 806.277368,2.1530381 C806.794946,2.67060097 807.085717,3.3725587 807.085717,4.1044999 L807.085717,48.6636799 C807.085717,50.1878651 805.850122,51.4234609 804.325891,51.4234609 L762.475366,51.4234609 C760.951196,51.4234609 759.7156,50.1878652 759.7156,48.6636799 L759.7156,4.1045 Z" id="Path" stroke="#979CAB" stroke-width="2" stroke-linejoin="round"></path>
                <path d="M778.994,29.8041 L780.71275,29.663475 C780.83775,30.4968083 781.129417,31.1270167 781.58775,31.5541 C782.0565,31.9707667 782.619,32.1791 783.27525,32.1791 C784.066917,32.1791 784.733583,31.882225 785.27525,31.288475 C785.827333,30.694725 786.103375,29.9082667 786.103375,28.9291 C786.103375,27.9915949 785.83775,27.2520091 785.3065,26.7103424 C784.785667,26.1686757 784.098167,25.8978424 783.244,25.8978424 C782.723167,25.8978424 782.249208,26.0176341 781.822125,26.2572174 C781.395042,26.4968007 781.061708,26.8093007 780.822125,27.1947174 L779.27525,26.9915924 L780.572125,20.1322174 L787.21275,20.1322174 L787.21275,21.6947174 L781.884625,21.6947174 L781.165875,25.2884674 C781.967958,24.7259674 782.8065,24.4447174 783.6815,24.4447174 C784.848167,24.4447174 785.832542,24.8509674 786.634625,25.6634674 C787.436708,26.4655507 787.83775,27.5020116 787.83775,28.77285 C787.83775,29.9811833 787.488792,31.0280583 786.790875,31.913475 C785.926292,32.9968083 784.754417,33.538475 783.27525,33.538475 C782.066917,33.538475 781.077333,33.1999333 780.3065,32.52285 C779.535667,31.83535 779.098167,30.9291 778.994,29.8041 Z" id="Path" fill="#000000" fill-rule="nonzero"></path>
                <polygon id="Path" fill="#FFFFFF" points="647.0889 16.85302 666.521944 16.85302 666.521944 38.679795 647.0889 38.679795"></polygon>
                <polygon id="Path" fill="#FFFFFF" points="751.0889 16.85302 770.521944 16.85302 770.521944 38.679795 751.0889 38.679795"></polygon>
                <line x1="770.522" y1="27.7664" x2="657.38815" y2="29.5616728" id="Path" fill-opacity="0" fill="#000000"></line>
                <line x1="752.5243" y1="28.052" x2="657.38813" y2="29.5616741" id="Path" stroke="#00BFB3" stroke-width="3" stroke-linejoin="round"></line>
                <polygon id="Path" stroke="#00BFB3" stroke-width="3" fill="#00BFB3" points="752.60284 33.00658 766.136837 27.8359944 752.445614 23.0974309"></polygon>
                <polygon id="Path" fill="#FFFFFF" points="669.7087 10.47244 740.606344 10.47244 740.606344 41.842511 669.7087 41.842511"></polygon>
                <path d="M681.3761,33.07748 L681.3761,24.671222 L679.922975,24.671222 L679.922975,23.405597 L681.3761,23.405597 L681.3761,22.374347 C681.3761,21.7285137 681.433392,21.2441387 681.547975,20.921222 C681.704225,20.4941387 681.980267,20.1503887 682.3761,19.889972 C682.771933,19.6295553 683.329225,19.499347 684.047975,19.499347 C684.506308,19.499347 685.016725,19.5514303 685.579225,19.655597 L685.329225,21.093097 C684.995892,21.030597 684.678183,20.999347 684.3761,20.999347 C683.8761,20.999347 683.521933,21.108722 683.3136,21.327472 C683.105267,21.5358053 683.0011,21.9316387 683.0011,22.514972 L683.0011,23.405597 L684.891725,23.405597 L684.891725,24.671222 L683.0011,24.671222 L683.0011,33.07748 L681.3761,33.07748 Z M686.153139,33.07748 L686.153139,23.405597 L687.621889,23.405597 L687.621889,24.874347 C687.996889,24.186847 688.340639,23.733722 688.653139,23.514972 C688.976055,23.296222 689.330222,23.186847 689.715639,23.186847 C690.267722,23.186847 690.830222,23.3639303 691.403139,23.718097 L690.840639,25.233722 C690.434389,24.9941387 690.033347,24.874347 689.637514,24.874347 C689.27293,24.874347 688.950014,24.983722 688.668764,25.202472 C688.387514,25.421222 688.184389,25.718097 688.059389,26.093097 C687.871889,26.6764303 687.778139,27.3170579 687.778139,28.0149796 L687.778139,33.07748 L686.153139,33.07748 L686.153139,33.07748 Z M698.693971,31.88998 C698.079388,32.4003967 697.490846,32.76498 696.928346,32.98373 C696.376263,33.1920633 695.777304,33.29623 695.131471,33.29623 C694.068971,33.29623 693.251263,33.0358133 692.678346,32.51498 C692.105429,31.9941467 691.818971,31.3326883 691.818971,30.530605 C691.818971,30.0514383 691.928346,29.6191467 692.147096,29.23373 C692.365846,28.8378967 692.647096,28.5253967 692.990846,28.29623 C693.345013,28.0566416 693.740846,27.8743474 694.178346,27.7493474 C694.490846,27.6660141 694.975221,27.5826807 695.631471,27.4993474 C696.954388,27.3430974 697.928346,27.1555974 698.553346,26.9368474 C698.563763,26.7076807 698.568971,26.5670557 698.568971,26.5149724 C698.568971,25.8483057 698.412721,25.3743474 698.100221,25.0930974 C697.683554,24.7285141 697.058554,24.5462224 696.225221,24.5462224 C695.454388,24.5462224 694.886679,24.6816391 694.522096,24.9524724 C694.157513,25.2233057 693.886679,25.6972641 693.709596,26.3743474 L692.100221,26.1555974 C692.246054,25.4785141 692.485638,24.9316391 692.818971,24.5149724 C693.152304,24.0878891 693.636679,23.7597641 694.272096,23.5305974 C694.907513,23.3014307 695.636679,23.1868474 696.459596,23.1868474 C697.292929,23.1868474 697.964804,23.2858057 698.475221,23.4837224 C698.996054,23.6712224 699.376263,23.9160141 699.615846,24.2180974 C699.865846,24.5097641 700.037721,24.8795557 700.131471,25.3274724 C700.183554,25.6087224 700.209596,26.1139307 700.209596,26.8430974 L700.209596,29.030605 C700.209596,30.5514383 700.246054,31.51498 700.318971,31.92123 C700.391888,32.3170633 700.527304,32.70248 700.725221,33.07748 L699.022096,33.07748 C698.845013,32.73373 698.735638,32.3378967 698.693971,31.88998 Z M698.553346,28.218105 C697.959596,28.468105 697.068971,28.6764383 695.881471,28.843105 C695.204388,28.936855 694.725221,29.04623 694.443971,29.17123 C694.162721,29.29623 693.943971,29.4733133 693.787721,29.70248 C693.641888,29.9316467 693.568971,30.1920633 693.568971,30.48373 C693.568971,30.92123 693.735638,31.2858133 694.068971,31.57748 C694.402304,31.8691467 694.886679,32.01498 695.522096,32.01498 C696.147096,32.01498 696.704388,31.8795633 697.193971,31.60873 C697.693971,31.32748 698.058554,30.9472717 698.287721,30.468105 C698.464804,30.093105 698.553346,29.54623 698.553346,28.82748 L698.553346,28.218105 Z M702.444642,33.874355 L704.038392,34.10873 C704.111309,34.60873 704.298809,34.968105 704.600892,35.1868474 C705.007142,35.4889383 705.564434,35.63998 706.272767,35.63998 C707.033184,35.63998 707.616517,35.4889383 708.022767,35.1868474 C708.439434,34.8847717 708.720684,34.4628967 708.866517,33.92123 C708.949851,33.5878967 708.986309,32.8847717 708.975892,31.811855 C708.267559,32.655605 707.376934,33.07748 706.304017,33.07748 C704.970684,33.07748 703.939434,32.5983133 703.210267,31.63998 C702.481101,30.6816467 702.116517,29.530605 702.116517,28.1868474 C702.116517,27.2597666 702.283184,26.4055974 702.616517,25.6243474 C702.960267,24.8430974 703.444642,24.2441391 704.069642,23.8274724 C704.705059,23.4003891 705.455059,23.1868474 706.319642,23.1868474 C707.455059,23.1868474 708.392559,23.6451807 709.132142,24.5618474 L709.132142,23.4055974 L710.647767,23.4055974 L710.647767,31.7649804 C710.647767,33.2753971 710.491517,34.3431054 710.179017,34.9681054 C709.876934,35.5931054 709.392559,36.0878971 708.725892,36.4524804 C708.069642,36.8170637 707.251934,36.9993554 706.272767,36.9993554 C705.126934,36.9993554 704.194642,36.7389387 703.475892,36.2181054 C702.767559,35.7076887 702.423809,34.9264387 702.444642,33.8743554 L702.444642,33.874355 Z M703.804017,28.061855 C703.804017,29.3326883 704.054017,30.2597717 704.554017,30.843105 C705.064434,31.4264383 705.699851,31.718105 706.460267,31.718105 C707.210267,31.718105 707.840476,31.4316467 708.350892,30.85873 C708.861309,30.2753967 709.116517,29.3639383 709.116517,28.124355 C709.116517,26.9368499 708.850892,26.0462224 708.319642,25.4524724 C707.798809,24.8483057 707.168601,24.5462224 706.429017,24.5462224 C705.699851,24.5462224 705.080059,24.8430974 704.569642,25.4368474 C704.059226,26.0201807 703.804017,26.8951833 703.804017,28.061855 Z M713.132874,21.6087224 L713.132874,19.7180974 L714.773499,19.7180974 L714.773499,21.6087224 L713.132874,21.6087224 Z M713.132874,33.0774804 L713.132874,23.4055974 L714.773499,23.4055974 L714.773499,33.0774804 L713.132874,33.0774804 Z M717.230836,33.0774804 L717.230836,19.7180974 L718.871461,19.7180974 L718.871461,33.0774804 L717.230836,33.0774804 Z M728.047547,29.9681054 L729.735047,30.1712304 C729.464214,31.1608137 728.969422,31.9316471 728.250672,32.4837304 C727.531922,33.0253971 726.610047,33.2962304 725.485047,33.2962304 C724.06838,33.2962304 722.94338,32.8639387 722.110047,31.9993554 C721.28713,31.1243554 720.875672,29.9003971 720.875672,28.3274804 C720.875672,26.6920587 721.292339,25.4264311 722.125672,24.5305978 C722.969422,23.6347645 724.057964,23.1868478 725.391297,23.1868478 C726.682964,23.1868478 727.735047,23.6295561 728.547547,24.5149728 C729.370464,25.3899728 729.781922,26.6243503 729.781922,28.2181054 C729.781922,28.3222721 729.781922,28.4681054 729.781922,28.6556054 L722.563172,28.6556054 C722.625672,29.7181054 722.927755,30.5358137 723.469422,31.1087304 C724.011089,31.6712304 724.682964,31.9524804 725.485047,31.9524804 C726.089214,31.9524804 726.604839,31.7962304 727.031922,31.4837304 C727.459005,31.1608137 727.797547,30.6556054 728.047547,29.9681054 Z M722.656922,27.3118478 L728.063172,27.3118478 C727.990255,26.4993478 727.781922,25.8899728 727.438172,25.4837228 C726.917339,24.8483061 726.240255,24.5305978 725.406922,24.5305978 C724.656922,24.5305978 724.021505,24.7858061 723.500672,25.2962228 C722.990255,25.7962228 722.709005,26.4680978 722.656922,27.3118478 Z" id="Shape" fill="#000000" fill-rule="nonzero"></path>
                <line x1="330.52197" y1="27.7664" x2="217.45111" y2="27.7664" id="Path" fill-opacity="0" fill="#000000"></line>
                <line x1="312.52197" y1="27.7664" x2="217.45111" y2="27.7664" id="Path" stroke="#00BFB3" stroke-width="3" stroke-linejoin="round"></line>
                <polygon id="Path" stroke="#00BFB3" stroke-width="3" fill="#00BFB3" points="312.52197 32.7216 326.136258 27.7664 312.52197 22.8112074"></polygon>
                <polygon id="Path" fill="#FFFFFF" points="229.4882 10.47244 300.385844 10.47244 300.385844 41.842511 229.4882 41.842511"></polygon>
                <path d="M242.8374,33.07748 L242.8374,23.405597 L244.30615,23.405597 L244.30615,24.780597 C245.014483,23.718097 246.040525,23.186847 247.384275,23.186847 C247.967608,23.186847 248.504067,23.2910137 248.99365,23.499347 C249.483233,23.7076803 249.847817,23.983722 250.0874,24.327472 C250.3374,24.6608053 250.509275,25.061847 250.603025,25.530597 C250.665525,25.8326803 250.696775,26.3639303 250.696775,27.124347 L250.696775,33.07748 L249.05615,33.07748 L249.05615,27.186847 C249.05615,26.5201803 248.988442,26.0253887 248.853025,25.702472 C248.728025,25.3691387 248.504067,25.1035137 248.18115,24.905597 C247.858233,24.7076803 247.478025,24.608722 247.040525,24.608722 C246.342608,24.608722 245.738442,24.8326803 245.228025,25.280597 C244.728025,25.718097 244.478025,26.5566387 244.478025,27.796222 L244.478025,33.07748 L242.8374,33.07748 L242.8374,33.07748 Z M259.525632,31.88998 C258.911049,32.4003967 258.322507,32.76498 257.760007,32.98373 C257.207924,33.1920633 256.608965,33.29623 255.963132,33.29623 C254.900632,33.29623 254.082924,33.0358133 253.510007,32.51498 C252.93709,31.9941467 252.650632,31.3326883 252.650632,30.530605 C252.650632,30.0514383 252.760007,29.6191467 252.978757,29.23373 C253.197507,28.8378967 253.478757,28.5253967 253.822507,28.29623 C254.176674,28.0566416 254.572507,27.8743474 255.010007,27.7493474 C255.322507,27.6660141 255.806882,27.5826807 256.463132,27.4993474 C257.786049,27.3430974 258.760007,27.1555974 259.385007,26.9368474 C259.395424,26.7076807 259.400632,26.5670557 259.400632,26.5149724 C259.400632,25.8483057 259.244382,25.3743474 258.931882,25.0930974 C258.515215,24.7285141 257.890215,24.5462224 257.056882,24.5462224 C256.286049,24.5462224 255.71834,24.6816391 255.353757,24.9524724 C254.989174,25.2233057 254.71834,25.6972641 254.541257,26.3743474 L252.931882,26.1555974 C253.077715,25.4785141 253.317299,24.9316391 253.650632,24.5149724 C253.983965,24.0878891 254.46834,23.7597641 255.103757,23.5305974 C255.739174,23.3014307 256.46834,23.1868474 257.291257,23.1868474 C258.12459,23.1868474 258.796465,23.2858057 259.306882,23.4837224 C259.827715,23.6712224 260.207924,23.9160141 260.447507,24.2180974 C260.697507,24.5097641 260.869382,24.8795557 260.963132,25.3274724 C261.015215,25.6087224 261.041257,26.1139307 261.041257,26.8430974 L261.041257,29.030605 C261.041257,30.5514383 261.077715,31.51498 261.150632,31.92123 C261.223549,32.3170633 261.358965,32.70248 261.556882,33.07748 L259.853757,33.07748 C259.676674,32.73373 259.567299,32.3378967 259.525632,31.88998 Z M259.385007,28.218105 C258.791257,28.468105 257.900632,28.6764383 256.713132,28.843105 C256.036049,28.936855 255.556882,29.04623 255.275632,29.17123 C254.994382,29.29623 254.775632,29.4733133 254.619382,29.70248 C254.473549,29.9316467 254.400632,30.1920633 254.400632,30.48373 C254.400632,30.92123 254.567299,31.2858133 254.900632,31.57748 C255.233965,31.8691467 255.71834,32.01498 256.353757,32.01498 C256.978757,32.01498 257.536049,31.8795633 258.025632,31.60873 C258.525632,31.32748 258.890215,30.9472717 259.119382,30.468105 C259.296465,30.093105 259.385007,29.54623 259.385007,28.82748 L259.385007,28.218105 Z M263.588834,33.07748 L263.588834,23.405597 L265.057584,23.405597 L265.057584,24.764972 C265.359667,24.2858053 265.760709,23.905597 266.260709,23.624347 C266.771126,23.3326803 267.344042,23.186847 267.979459,23.186847 C268.698209,23.186847 269.286751,23.3378887 269.745084,23.639972 C270.203417,23.9316387 270.526334,24.343097 270.713834,24.874347 C271.484667,23.749347 272.479459,23.186847 273.698209,23.186847 C274.666959,23.186847 275.406542,23.452472 275.916959,23.983722 C276.437792,24.514972 276.698209,25.3326803 276.698209,26.436847 L276.698209,33.07748 L275.057584,33.07748 L275.057584,26.983722 C275.057584,26.327472 275.005501,25.858722 274.901334,25.577472 C274.797167,25.2858053 274.604459,25.0514303 274.323209,24.874347 C274.041959,24.6972637 273.713834,24.608722 273.338834,24.608722 C272.661751,24.608722 272.099251,24.8378887 271.651334,25.296222 C271.203417,25.7441387 270.979459,26.4628887 270.979459,27.452472 L270.979459,33.07748 L269.338834,33.07748 L269.338834,26.796222 C269.338834,26.0670553 269.203417,25.5201803 268.932584,25.155597 C268.661751,24.7910137 268.224251,24.608722 267.620084,24.608722 C267.161751,24.608722 266.734667,24.7285137 266.338834,24.968097 C265.943001,25.2076803 265.656542,25.561847 265.479459,26.030597 C265.312792,26.499347 265.229459,27.1764329 265.229459,28.0618546 L265.229459,33.07748 L263.588834,33.07748 L263.588834,33.07748 Z M285.754636,29.968105 L287.442136,30.17123 C287.171303,31.1608133 286.676511,31.9316467 285.957761,32.48373 C285.239011,33.0253967 284.317136,33.29623 283.192136,33.29623 C281.775469,33.29623 280.650469,32.8639383 279.817136,31.999355 C278.994219,31.124355 278.582761,29.9003967 278.582761,28.32748 C278.582761,26.6920583 278.999428,25.4264307 279.832761,24.5305974 C280.676511,23.6347641 281.765053,23.1868474 283.098386,23.1868474 C284.390053,23.1868474 285.442136,23.6295557 286.254636,24.5149724 C287.077553,25.3899724 287.489011,26.6243499 287.489011,28.218105 C287.489011,28.3222717 287.489011,28.468105 287.489011,28.655605 L280.270261,28.655605 C280.332761,29.718105 280.634844,30.5358133 281.176511,31.10873 C281.718178,31.67123 282.390053,31.95248 283.192136,31.95248 C283.796303,31.95248 284.311928,31.79623 284.739011,31.48373 C285.166094,31.1608133 285.504636,30.655605 285.754636,29.968105 Z M280.364011,27.3118474 L285.770261,27.3118474 C285.697344,26.4993474 285.489011,25.8899724 285.145261,25.4837224 C284.624428,24.8483057 283.947344,24.5305974 283.114011,24.5305974 C282.364011,24.5305974 281.728594,24.7858057 281.207761,25.2962224 C280.697344,25.7962224 280.416094,26.4680974 280.364011,27.3118474 Z" id="Shape" fill="#000000" fill-rule="nonzero"></path>
                <polyline id="Path" fill-opacity="0" fill="#000000" points="192.80577 54.64905 192.80577 111.062975 24.80577 111.062975 24.80577 51.436449"></polyline>
                <polyline id="Path" stroke="#00BFB3" stroke-width="3" stroke-linejoin="round" points="192.80577 72.64903 192.80577 111.06297 24.80577 111.06297 24.80577 51.436444"></polyline>
                <polygon id="Path" stroke="#00BFB3" stroke-width="3" fill="#00BFB3" points="197.76097 72.64905 192.80577 59.034746 187.85057 72.64905"></polygon>
                <polygon id="Path" fill="#FFFFFF" points="67.93664 94.56168 138.83428 94.56168 138.83428 125.931767 67.93664 125.931767"></polygon>
                <path d="M95.84567,117.16672 L95.84567,115.94797 C95.2415033,116.906303 94.3404617,117.38547 93.142545,117.38547 C92.3717117,117.38547 91.6633783,117.171928 91.017545,116.744845 C90.3717117,116.317762 89.8717117,115.724012 89.517545,114.963595 C89.1633783,114.203178 88.986295,113.328178 88.986295,112.338595 C88.986295,111.369845 89.1477533,110.494845 89.47067,109.713595 C89.7935867,108.921928 90.2727533,108.317762 90.90817,107.901095 C91.5540033,107.484428 92.2779617,107.276095 93.080045,107.276095 C93.6633783,107.276095 94.1790033,107.401095 94.62692,107.651095 C95.0852533,107.890678 95.455045,108.208387 95.736295,108.60422 L95.736295,103.807345 L97.37692,103.807345 L97.37692,117.16672 L95.84567,117.16672 Z M90.673795,112.338595 C90.673795,113.578178 90.9342117,114.505262 91.455045,115.119845 C91.9758783,115.734428 92.5904617,116.04172 93.298795,116.04172 C94.017545,116.04172 94.62692,115.750053 95.12692,115.16672 C95.62692,114.57297 95.87692,113.677137 95.87692,112.47922 C95.87692,111.156303 95.6217117,110.187553 95.111295,109.57297 C94.6008783,108.94797 93.97067,108.63547 93.22067,108.63547 C92.50192,108.63547 91.8977533,108.932345 91.40817,109.526095 C90.9185867,110.119845 90.673795,111.057345 90.673795,112.338595 Z M99.955762,117.16672 L99.955762,107.494845 L101.424512,107.494845 L101.424512,108.869845 C102.132845,107.807345 103.158887,107.276095 104.502637,107.276095 C105.08597,107.276095 105.622429,107.380262 106.112012,107.588595 C106.601595,107.796928 106.966179,108.07297 107.205762,108.41672 C107.455762,108.750053 107.627637,109.151095 107.721387,109.619845 C107.783887,109.921928 107.815137,110.453178 107.815137,111.213595 L107.815137,117.16672 L106.174512,117.16672 L106.174512,111.276095 C106.174512,110.609428 106.106804,110.114637 105.971387,109.79172 C105.846387,109.458387 105.622429,109.192762 105.299512,108.994845 C104.976595,108.796928 104.596387,108.69797 104.158887,108.69797 C103.46097,108.69797 102.856804,108.921928 102.346387,109.369845 C101.846387,109.807345 101.596387,110.645887 101.596387,111.88547 L101.596387,117.16672 L99.955762,117.16672 Z M109.675229,114.276095 L111.300229,114.026095 C111.383562,114.671928 111.633562,115.171928 112.050229,115.526095 C112.466896,115.869845 113.050229,116.04172 113.800229,116.04172 C114.550229,116.04172 115.107521,115.890678 115.472104,115.588595 C115.836687,115.276095 116.018979,114.911512 116.018979,114.494845 C116.018979,114.130262 115.857521,113.838595 115.534604,113.619845 C115.315854,113.474012 114.758562,113.29172 113.862729,113.07297 C112.654396,112.76047 111.815854,112.494845 111.347104,112.276095 C110.888771,112.057345 110.539812,111.755262 110.300229,111.369845 C110.060646,110.974012 109.940854,110.536512 109.940854,110.057345 C109.940854,109.630262 110.039812,109.234428 110.237729,108.869845 C110.435646,108.494845 110.706479,108.187553 111.050229,107.94797 C111.300229,107.76047 111.643979,107.60422 112.081479,107.47922 C112.529396,107.343803 113.003354,107.276095 113.503354,107.276095 C114.263771,107.276095 114.930437,107.38547 115.503354,107.60422 C116.076271,107.82297 116.498146,108.119845 116.768979,108.494845 C117.050229,108.869845 117.242937,109.369845 117.347104,109.994845 L115.737729,110.213595 C115.664812,109.713595 115.451271,109.32297 115.097104,109.04172 C114.753354,108.76047 114.263771,108.619845 113.628354,108.619845 C112.867937,108.619845 112.326271,108.744845 112.003354,108.994845 C111.690854,109.244845 111.534604,109.536512 111.534604,109.869845 C111.534604,110.078178 111.597104,110.270887 111.722104,110.44797 C111.857521,110.625053 112.071062,110.770887 112.362729,110.88547 C112.518979,110.94797 112.998146,111.088595 113.800229,111.307345 C114.966896,111.609428 115.779396,111.859428 116.237729,112.057345 C116.696062,112.255262 117.055437,112.54172 117.315854,112.91672 C117.576271,113.29172 117.706479,113.76047 117.706479,114.32297 C117.706479,114.875053 117.545021,115.390678 117.222104,115.869845 C116.909604,116.349012 116.451271,116.724012 115.847104,116.994845 C115.242937,117.255262 114.560646,117.38547 113.800229,117.38547 C112.550229,117.38547 111.591896,117.125053 110.925229,116.60422 C110.268979,116.083387 109.852312,115.307345 109.675229,114.276095 Z" id="Shape" fill="#000000" fill-rule="nonzero"></path>
                <polygon id="Path" fill="#FFFFFF" points="15.089237 39.1447 34.522308 39.1447 34.522308 51.428163 15.089237 51.428163"></polygon>
                <polygon id="Path" fill="#FFFFFF" points="183.08923 42.36557 202.522305 42.36557 202.522305 54.649048 183.08923 54.649048"></polygon>
            </g>
        </g>
    </g>
</svg>