<svg version="1.1" xmlns:xlink="http://www.w3.org/1999/xlink" xmlns="http://www.w3.org/2000/svg" width="283" height="44" viewbox="0 0 283 44"><defs><style type="text/css">.c{fill:none;stroke:#222222;}.k{fill:#000000;font-family:Dialog,Sans-serif;font-size:20px;}.s{fill:#e4f4ff;stroke:#222222;}.syn{fill:#8D8D8D;font-family:Dialog,Sans-serif;font-size:20px;}</style></defs><path class="c" d="M0 29h5m83 0h10m27 0h10m30 0h10m26 0h10m30 0h10m27 0h5"/><rect class="s" x="5" y="5" width="83" height="34"/><text class="k" x="15" y="29">ATAN2</text><rect class="s" x="98" y="5" width="27" height="34" rx="7"/><text class="syn" x="108" y="29">(</text><rect class="s" x="135" y="5" width="30" height="34" rx="7"/><text class="k" x="145" y="29">y</text><rect class="s" x="175" y="5" width="26" height="34" rx="7"/><text class="syn" x="185" y="29">,</text><rect class="s" x="211" y="5" width="30" height="34" rx="7"/><text class="k" x="221" y="29">x</text><rect class="s" x="251" y="5" width="27" height="34" rx="7"/><text class="syn" x="261" y="29">)</text></svg>