<svg version="1.1" xmlns:xlink="http://www.w3.org/1999/xlink" xmlns="http://www.w3.org/2000/svg" width="708" height="46" viewbox="0 0 708 46"><defs><style type="text/css">#guide .c{fill:none;stroke:#222222;}#guide .k{fill:#000000;font-family:Roboto Mono,Sans-serif;font-size:20px;}#guide .s{fill:#e4f4ff;stroke:#222222;}#guide .syn{fill:#8D8D8D;font-family:Roboto Mono,Sans-serif;font-size:20px;}</style></defs><path class="c" d="M0 31h5m152 0h10m32 0h10m80 0h10m32 0h10m104 0h10m32 0h10m68 0h10m32 0h10m44 0h10m32 0h5"/><rect class="s" x="5" y="5" width="152" height="36"/><text class="k" x="15" y="31">AUTO_BUCKET</text><rect class="s" x="167" y="5" width="32" height="36" rx="7"/><text class="syn" x="177" y="31">(</text><rect class="s" x="209" y="5" width="80" height="36" rx="7"/><text class="k" x="219" y="31">field</text><rect class="s" x="299" y="5" width="32" height="36" rx="7"/><text class="syn" x="309" y="31">,</text><rect class="s" x="341" y="5" width="104" height="36" rx="7"/><text class="k" x="351" y="31">buckets</text><rect class="s" x="455" y="5" width="32" height="36" rx="7"/><text class="syn" x="465" y="31">,</text><rect class="s" x="497" y="5" width="68" height="36" rx="7"/><text class="k" x="507" y="31">from</text><rect class="s" x="575" y="5" width="32" height="36" rx="7"/><text class="syn" x="585" y="31">,</text><rect class="s" x="617" y="5" width="44" height="36" rx="7"/><text class="k" x="627" y="31">to</text><rect class="s" x="671" y="5" width="32" height="36" rx="7"/><text class="syn" x="681" y="31">)</text></svg>