<svg version="1.1" xmlns:xlink="http://www.w3.org/1999/xlink" xmlns="http://www.w3.org/2000/svg" width="413" height="74" viewbox="0 0 413 74"><defs><style type="text/css">.c{fill:none;stroke:#222222;}.k{fill:#000000;font-family:Dialog,Sans-serif;font-size:20px;}.s{fill:#e4f4ff;stroke:#222222;}.syn{fill:#8D8D8D;font-family:Dialog,Sans-serif;font-size:20px;}</style></defs><path class="c" d="M0 44h5m73 0h10m27 0h10m60 0h50m-5 0q-5 0-5-5v-24q0-5 5-5h106q5 0 5 5v24q0 5-5 5m-75 0h10m60 0h40m-171 0q5 0 5 5v10q0 5 5 5h146q5 0 5-5v-10q0-5 5-5m5 0h10m27 0h5"/><rect class="s" x="5" y="20" width="73" height="34"/><text class="k" x="15" y="44">CASE</text><rect class="s" x="88" y="20" width="27" height="34" rx="7"/><text class="syn" x="98" y="44">(</text><rect class="s" x="125" y="20" width="60" height="34" rx="7"/><text class="k" x="135" y="44">arg1</text><rect class="s" x="235" y="20" width="26" height="34" rx="7"/><text class="syn" x="245" y="44">,</text><rect class="s" x="271" y="20" width="60" height="34" rx="7"/><text class="k" x="281" y="44">arg2</text><rect class="s" x="381" y="20" width="27" height="34" rx="7"/><text class="syn" x="391" y="44">)</text></svg>