<svg version="1.1" xmlns:xlink="http://www.w3.org/1999/xlink" xmlns="http://www.w3.org/2000/svg" width="408" height="46" viewbox="0 0 408 46"><defs><style type="text/css">#guide .c{fill:none;stroke:#222222;}#guide .k{fill:#000000;font-family:Roboto Mono,Sans-serif;font-size:20px;}#guide .s{fill:#e4f4ff;stroke:#222222;}#guide .syn{fill:#8D8D8D;font-family:Roboto Mono,Sans-serif;font-size:20px;}</style></defs><path class="c" d="M0 31h5m116 0h10m32 0h10m68 0h10m32 0h10m68 0h10m32 0h5"/><rect class="s" x="5" y="5" width="116" height="36"/><text class="k" x="15" y="31">COALESCE</text><rect class="s" x="131" y="5" width="32" height="36" rx="7"/><text class="syn" x="141" y="31">(</text><rect class="s" x="173" y="5" width="68" height="36" rx="7"/><text class="k" x="183" y="31">arg1</text><rect class="s" x="251" y="5" width="32" height="36" rx="7"/><text class="syn" x="261" y="31">,</text><rect class="s" x="293" y="5" width="68" height="36" rx="7"/><text class="k" x="303" y="31">arg2</text><rect class="s" x="371" y="5" width="32" height="36" rx="7"/><text class="syn" x="381" y="31">)</text></svg>