<svg version="1.1" xmlns:xlink="http://www.w3.org/1999/xlink" xmlns="http://www.w3.org/2000/svg" width="467" height="74" viewbox="0 0 467 74"><defs><style type="text/css">.c{fill:none;stroke:#222222;}.k{fill:#000000;font-family:Dialog,Sans-serif;font-size:20px;}.s{fill:#e4f4ff;stroke:#222222;}.syn{fill:#8D8D8D;font-family:Dialog,Sans-serif;font-size:20px;}</style></defs><path class="c" d="M0 44h5m127 0h10m27 0h10m60 0h50m-5 0q-5 0-5-5v-24q0-5 5-5h106q5 0 5 5v24q0 5-5 5m-75 0h10m60 0h40m-171 0q5 0 5 5v10q0 5 5 5h146q5 0 5-5v-10q0-5 5-5m5 0h10m27 0h5"/><rect class="s" x="5" y="20" width="127" height="34"/><text class="k" x="15" y="44">COALESCE</text><rect class="s" x="142" y="20" width="27" height="34" rx="7"/><text class="syn" x="152" y="44">(</text><rect class="s" x="179" y="20" width="60" height="34" rx="7"/><text class="k" x="189" y="44">arg1</text><rect class="s" x="289" y="20" width="26" height="34" rx="7"/><text class="syn" x="299" y="44">,</text><rect class="s" x="325" y="20" width="60" height="34" rx="7"/><text class="k" x="335" y="44">arg2</text><rect class="s" x="435" y="20" width="27" height="34" rx="7"/><text class="syn" x="445" y="44">)</text></svg>