<svg version="1.1" xmlns:xlink="http://www.w3.org/1999/xlink" xmlns="http://www.w3.org/2000/svg" width="387" height="64" viewbox="0 0 387 64"><defs><style type="text/css">.c{fill:none;stroke:#222222;}.k{fill:#000000;font-family:Dialog,Sans-serif;font-size:12px;}.s{fill:#e4f4ff;stroke:#222222;}</style></defs><path class="c" d="M0 36h5m86 0h10m24 0h10m45 0h10m23 0h50m-5 0q-5 0-5-5v-16q0-5 5-5h55q5 0 5 5v16q0 5-5 5m-5 0h40m-120 0q5 0 5 5v8q0 5 5 5h95q5 0 5-5v-8q0-5 5-5m5 0h10m24 0h5"/><rect class="s" x="5" y="20" width="86" height="24"/><text class="k" x="15" y="36">COALESCE</text><rect class="s" x="101" y="20" width="24" height="24" rx="7"/><text class="k" x="111" y="36">(</text><rect class="s" x="135" y="20" width="45" height="24" rx="7"/><text class="k" x="145" y="36">arg1</text><rect class="s" x="190" y="20" width="23" height="24" rx="7"/><text class="k" x="200" y="36">,</text><rect class="s" x="263" y="20" width="45" height="24" rx="7"/><text class="k" x="273" y="36">arg2</text><rect class="s" x="358" y="20" width="24" height="24" rx="7"/><text class="k" x="368" y="36">)</text></svg>