<svg version="1.1" xmlns:xlink="http://www.w3.org/1999/xlink" xmlns="http://www.w3.org/2000/svg" width="456" height="46" viewbox="0 0 456 46"><defs><style type="text/css">#guide .c{fill:none;stroke:#222222;}#guide .k{fill:#000000;font-family:Roboto Mono,Sans-serif;font-size:20px;}#guide .s{fill:#e4f4ff;stroke:#222222;}#guide .syn{fill:#8D8D8D;font-family:Roboto Mono,Sans-serif;font-size:20px;}</style></defs><path class="c" d="M0 31h5m164 0h10m32 0h10m68 0h10m32 0h10m68 0h10m32 0h5"/><rect class="s" x="5" y="5" width="164" height="36"/><text class="k" x="15" y="31">DATE_EXTRACT</text><rect class="s" x="179" y="5" width="32" height="36" rx="7"/><text class="syn" x="189" y="31">(</text><rect class="s" x="221" y="5" width="68" height="36" rx="7"/><text class="k" x="231" y="31">arg1</text><rect class="s" x="299" y="5" width="32" height="36" rx="7"/><text class="syn" x="309" y="31">,</text><rect class="s" x="341" y="5" width="68" height="36" rx="7"/><text class="k" x="351" y="31">arg2</text><rect class="s" x="419" y="5" width="32" height="36" rx="7"/><text class="syn" x="429" y="31">)</text></svg>