<svg version="1.1" xmlns:xlink="http://www.w3.org/1999/xlink" xmlns="http://www.w3.org/2000/svg" width="453" height="74" viewbox="0 0 453 74"><defs><style type="text/css">.c{fill:none;stroke:#222222;}.k{fill:#000000;font-family:Dialog,Sans-serif;font-size:20px;}.s{fill:#e4f4ff;stroke:#222222;}.syn{fill:#8D8D8D;font-family:Dialog,Sans-serif;font-size:20px;}</style></defs><path class="c" d="M0 44h5m126 0h10m27 0h10m53 0h50m-5 0q-5 0-5-5v-24q0-5 5-5h100q5 0 5 5v24q0 5-5 5m-69 0h10m54 0h40m-165 0q5 0 5 5v10q0 5 5 5h140q5 0 5-5v-10q0-5 5-5m5 0h10m27 0h5"/><rect class="s" x="5" y="20" width="126" height="34"/><text class="k" x="15" y="44">GREATEST</text><rect class="s" x="141" y="20" width="27" height="34" rx="7"/><text class="syn" x="151" y="44">(</text><rect class="s" x="178" y="20" width="53" height="34" rx="7"/><text class="k" x="188" y="44">first</text><rect class="s" x="281" y="20" width="26" height="34" rx="7"/><text class="syn" x="291" y="44">,</text><rect class="s" x="317" y="20" width="54" height="34" rx="7"/><text class="k" x="327" y="44">rest</text><rect class="s" x="421" y="20" width="27" height="34" rx="7"/><text class="syn" x="431" y="44">)</text></svg>