<svg version="1.1" xmlns:xlink="http://www.w3.org/1999/xlink" xmlns="http://www.w3.org/2000/svg" width="422" height="74" viewbox="0 0 422 74"><defs><style type="text/css">.c{fill:none;stroke:#222222;}.k{fill:#000000;font-family:Dialog,Sans-serif;font-size:20px;}.s{fill:#e4f4ff;stroke:#222222;}.syn{fill:#8D8D8D;font-family:Dialog,Sans-serif;font-size:20px;}</style></defs><path class="c" d="M0 44h5m82 0h10m27 0h10m60 0h10m26 0h50m-5 0q-5 0-5-5v-24q0-5 5-5h70q5 0 5 5v24q0 5-5 5m-5 0h40m-135 0q5 0 5 5v10q0 5 5 5h110q5 0 5-5v-10q0-5 5-5m5 0h10m27 0h5"/><rect class="s" x="5" y="20" width="82" height="34"/><text class="k" x="15" y="44">LEAST</text><rect class="s" x="97" y="20" width="27" height="34" rx="7"/><text class="syn" x="107" y="44">(</text><rect class="s" x="134" y="20" width="60" height="34" rx="7"/><text class="k" x="144" y="44">arg1</text><rect class="s" x="204" y="20" width="26" height="34" rx="7"/><text class="syn" x="214" y="44">,</text><rect class="s" x="280" y="20" width="60" height="34" rx="7"/><text class="k" x="290" y="44">arg2</text><rect class="s" x="390" y="20" width="27" height="34" rx="7"/><text class="syn" x="400" y="44">)</text></svg>