<svg version="1.1" xmlns:xlink="http://www.w3.org/1999/xlink" xmlns="http://www.w3.org/2000/svg" width="564" height="46" viewbox="0 0 564 46"><defs><style type="text/css">#guide .c{fill:none;stroke:#222222;}#guide .k{fill:#000000;font-family:Roboto Mono,Sans-serif;font-size:20px;}#guide .s{fill:#e4f4ff;stroke:#222222;}#guide .syn{fill:#8D8D8D;font-family:Roboto Mono,Sans-serif;font-size:20px;}</style></defs><path class="c" d="M0 31h5m260 0h10m32 0h10m92 0h10m32 0h10m56 0h10m32 0h5"/><rect class="s" x="5" y="5" width="260" height="36"/><text class="k" x="15" y="31">LOG_WITH_BASE_IN_MAP</text><rect class="s" x="275" y="5" width="32" height="36" rx="7"/><text class="syn" x="285" y="31">(</text><rect class="s" x="317" y="5" width="92" height="36" rx="7"/><text class="k" x="327" y="31">number</text><rect class="s" x="419" y="5" width="32" height="36" rx="7"/><text class="syn" x="429" y="31">,</text><rect class="s" x="461" y="5" width="56" height="36" rx="7"/><text class="k" x="471" y="31">map</text><rect class="s" x="527" y="5" width="32" height="36" rx="7"/><text class="syn" x="537" y="31">)</text></svg>