<svg version="1.1" xmlns:xlink="http://www.w3.org/1999/xlink" xmlns="http://www.w3.org/2000/svg" width="636" height="46" viewbox="0 0 636 46"><defs><style type="text/css">#guide .c{fill:none;stroke:#222222;}#guide .k{fill:#000000;font-family:Roboto Mono,Sans-serif;font-size:20px;}#guide .s{fill:#e4f4ff;stroke:#222222;}#guide .syn{fill:#8D8D8D;font-family:Roboto Mono,Sans-serif;font-size:20px;}</style></defs><path class="c" d="M0 31h5m164 0h10m32 0h10m80 0h10m32 0h10m80 0h10m32 0h10m104 0h10m32 0h5"/><rect class="s" x="5" y="5" width="164" height="36"/><text class="k" x="15" y="31">MATCH_PHRASE</text><rect class="s" x="179" y="5" width="32" height="36" rx="7"/><text class="syn" x="189" y="31">(</text><rect class="s" x="221" y="5" width="80" height="36" rx="7"/><text class="k" x="231" y="31">field</text><rect class="s" x="311" y="5" width="32" height="36" rx="7"/><text class="syn" x="321" y="31">,</text><rect class="s" x="353" y="5" width="80" height="36" rx="7"/><text class="k" x="363" y="31">query</text><rect class="s" x="443" y="5" width="32" height="36" rx="7"/><text class="syn" x="453" y="31">,</text><rect class="s" x="485" y="5" width="104" height="36" rx="7"/><text class="k" x="495" y="31">options</text><rect class="s" x="599" y="5" width="32" height="36" rx="7"/><text class="syn" x="609" y="31">)</text></svg>