<svg version="1.1" xmlns:xlink="http://www.w3.org/1999/xlink" xmlns="http://www.w3.org/2000/svg" width="372" height="46" viewbox="0 0 372 46"><defs><style type="text/css">#guide .c{fill:none;stroke:#222222;}#guide .k{fill:#000000;font-family:Roboto Mono,Sans-serif;font-size:20px;}#guide .s{fill:#e4f4ff;stroke:#222222;}#guide .syn{fill:#8D8D8D;font-family:Roboto Mono,Sans-serif;font-size:20px;}</style></defs><path class="c" d="M0 31h5m128 0h10m32 0h10m44 0h10m32 0h10m44 0h10m32 0h5"/><rect class="s" x="5" y="5" width="128" height="36"/><text class="k" x="15" y="31">MV_APPEND</text><rect class="s" x="143" y="5" width="32" height="36" rx="7"/><text class="syn" x="153" y="31">(</text><rect class="s" x="185" y="5" width="44" height="36" rx="7"/><text class="k" x="195" y="31">v1</text><rect class="s" x="239" y="5" width="32" height="36" rx="7"/><text class="syn" x="249" y="31">,</text><rect class="s" x="281" y="5" width="44" height="36" rx="7"/><text class="k" x="291" y="31">v2</text><rect class="s" x="335" y="5" width="32" height="36" rx="7"/><text class="syn" x="345" y="31">)</text></svg>