<svg version="1.1" xmlns:xlink="http://www.w3.org/1999/xlink" xmlns="http://www.w3.org/2000/svg" width="492" height="46" viewbox="0 0 492 46"><defs><style type="text/css">#guide .c{fill:none;stroke:#222222;}#guide .k{fill:#000000;font-family:Roboto Mono,Sans-serif;font-size:20px;}#guide .s{fill:#e4f4ff;stroke:#222222;}#guide .syn{fill:#8D8D8D;font-family:Roboto Mono,Sans-serif;font-size:20px;}</style></defs><path class="c" d="M0 31h5m116 0h10m32 0h10m32 0h10m32 0h10m80 0h10m32 0h10m56 0h10m32 0h5"/><rect class="s" x="5" y="5" width="116" height="36"/><text class="k" x="15" y="31">MV_SLICE</text><rect class="s" x="131" y="5" width="32" height="36" rx="7"/><text class="syn" x="141" y="31">(</text><rect class="s" x="173" y="5" width="32" height="36" rx="7"/><text class="k" x="183" y="31">v</text><rect class="s" x="215" y="5" width="32" height="36" rx="7"/><text class="syn" x="225" y="31">,</text><rect class="s" x="257" y="5" width="80" height="36" rx="7"/><text class="k" x="267" y="31">start</text><rect class="s" x="347" y="5" width="32" height="36" rx="7"/><text class="syn" x="357" y="31">,</text><rect class="s" x="389" y="5" width="56" height="36" rx="7"/><text class="k" x="399" y="31">end</text><rect class="s" x="455" y="5" width="32" height="36" rx="7"/><text class="syn" x="465" y="31">)</text></svg>