<svg version="1.1" xmlns:xlink="http://www.w3.org/1999/xlink" xmlns="http://www.w3.org/2000/svg" width="373" height="44" viewbox="0 0 373 44"><defs><style type="text/css">.c{fill:none;stroke:#222222;}.k{fill:#000000;font-family:Dialog,Sans-serif;font-size:20px;}.s{fill:#e4f4ff;stroke:#222222;}.syn{fill:#8D8D8D;font-family:Dialog,Sans-serif;font-size:20px;}</style></defs><path class="c" d="M0 29h5m68 0h10m27 0h10m63 0h10m26 0h10m102 0h10m27 0h5"/><rect class="s" x="5" y="5" width="68" height="34"/><text class="k" x="15" y="29">POW</text><rect class="s" x="83" y="5" width="27" height="34" rx="7"/><text class="syn" x="93" y="29">(</text><rect class="s" x="120" y="5" width="63" height="34" rx="7"/><text class="k" x="130" y="29">base</text><rect class="s" x="193" y="5" width="26" height="34" rx="7"/><text class="syn" x="203" y="29">,</text><rect class="s" x="229" y="5" width="102" height="34" rx="7"/><text class="k" x="239" y="29">exponent</text><rect class="s" x="341" y="5" width="27" height="34" rx="7"/><text class="syn" x="351" y="29">)</text></svg>