<svg version="1.1" xmlns:xlink="http://www.w3.org/1999/xlink" xmlns="http://www.w3.org/2000/svg" width="297" height="34" viewbox="0 0 297 34"><defs><style type="text/css">.c{fill:none;stroke:#222222;}.k{fill:#000000;font-family:Dialog,Sans-serif;font-size:12px;}.s{fill:#e4f4ff;stroke:#222222;}.syn{fill:#8D8D8D;font-family:Dialog,Sans-serif;font-size:12px;}</style></defs><path class="c" d="M0 21h5m48 0h10m24 0h10m47 0h10m23 0h10m71 0h10m24 0h5"/><rect class="s" x="5" y="5" width="48" height="24"/><text class="k" x="15" y="21">POW</text><rect class="s" x="63" y="5" width="24" height="24" rx="7"/><text class="syn" x="73" y="21">(</text><rect class="s" x="97" y="5" width="47" height="24" rx="7"/><text class="null" x="107" y="21">base</text><rect class="s" x="154" y="5" width="23" height="24" rx="7"/><text class="syn" x="164" y="21">,</text><rect class="s" x="187" y="5" width="71" height="24" rx="7"/><text class="null" x="197" y="21">exponent</text><rect class="s" x="268" y="5" width="24" height="24" rx="7"/><text class="syn" x="278" y="21">)</text></svg>