<svg version="1.1" xmlns:xlink="http://www.w3.org/1999/xlink" xmlns="http://www.w3.org/2000/svg" width="286" height="34" viewbox="0 0 286 34"><defs><style type="text/css">.c{fill:none;stroke:#222222;}.k{fill:#000000;font-family:Dialog,Sans-serif;font-size:12px;}.s{fill:#e4f4ff;stroke:#222222;}.syn{fill:#8D8D8D;font-family:Dialog,Sans-serif;font-size:12px;}</style></defs><path class="c" d="M0 21h5m65 0h10m24 0h10m45 0h10m23 0h10m45 0h10m24 0h5"/><rect class="s" x="5" y="5" width="65" height="24"/><text class="k" x="15" y="21">ROUND</text><rect class="s" x="80" y="5" width="24" height="24" rx="7"/><text class="syn" x="90" y="21">(</text><rect class="s" x="114" y="5" width="45" height="24" rx="7"/><text class="null" x="124" y="21">arg1</text><rect class="s" x="169" y="5" width="23" height="24" rx="7"/><text class="syn" x="179" y="21">,</text><rect class="s" x="202" y="5" width="45" height="24" rx="7"/><text class="null" x="212" y="21">arg2</text><rect class="s" x="257" y="5" width="24" height="24" rx="7"/><text class="syn" x="267" y="21">)</text></svg>