<svg version="1.1" xmlns:xlink="http://www.w3.org/1999/xlink" xmlns="http://www.w3.org/2000/svg" width="352" height="44" viewbox="0 0 352 44"><defs><style type="text/css">.c{fill:none;stroke:#222222;}.k{fill:#000000;font-family:Dialog,Sans-serif;font-size:20px;}.s{fill:#e4f4ff;stroke:#222222;}.syn{fill:#8D8D8D;font-family:Dialog,Sans-serif;font-size:20px;}</style></defs><path class="c" d="M0 29h5m92 0h10m27 0h10m60 0h10m26 0h10m60 0h10m27 0h5"/><rect class="s" x="5" y="5" width="92" height="34"/><text class="k" x="15" y="29">ROUND</text><rect class="s" x="107" y="5" width="27" height="34" rx="7"/><text class="syn" x="117" y="29">(</text><rect class="s" x="144" y="5" width="60" height="34" rx="7"/><text class="k" x="154" y="29">arg1</text><rect class="s" x="214" y="5" width="26" height="34" rx="7"/><text class="syn" x="224" y="29">,</text><rect class="s" x="250" y="5" width="60" height="34" rx="7"/><text class="k" x="260" y="29">arg2</text><rect class="s" x="320" y="5" width="27" height="34" rx="7"/><text class="syn" x="330" y="29">)</text></svg>