<svg version="1.1" xmlns:xlink="http://www.w3.org/1999/xlink" xmlns="http://www.w3.org/2000/svg" width="274" height="34" viewbox="0 0 274 34"><defs><style type="text/css">.c{fill:none;stroke:#222222;}.k{fill:#000000;font-family:Dialog,Sans-serif;font-size:12px;}.s{fill:#e4f4ff;stroke:#222222;}</style></defs><path class="c" d="M0 21h5m53 0h10m24 0h10m45 0h10m23 0h10m45 0h10m24 0h5"/><rect class="s" x="5" y="5" width="53" height="24"/><text class="k" x="15" y="21">SPLIT</text><rect class="s" x="68" y="5" width="24" height="24" rx="7"/><text class="k" x="78" y="21">(</text><rect class="s" x="102" y="5" width="45" height="24" rx="7"/><text class="k" x="112" y="21">arg1</text><rect class="s" x="157" y="5" width="23" height="24" rx="7"/><text class="k" x="167" y="21">,</text><rect class="s" x="190" y="5" width="45" height="24" rx="7"/><text class="k" x="200" y="21">arg2</text><rect class="s" x="245" y="5" width="24" height="24" rx="7"/><text class="k" x="255" y="21">)</text></svg>