<svg version="1.1" xmlns:xlink="http://www.w3.org/1999/xlink" xmlns="http://www.w3.org/2000/svg" width="624" height="46" viewbox="0 0 624 46"><defs><style type="text/css">#guide .c{fill:none;stroke:#222222;}#guide .k{fill:#000000;font-family:Roboto Mono,Sans-serif;font-size:20px;}#guide .s{fill:#e4f4ff;stroke:#222222;}#guide .syn{fill:#8D8D8D;font-family:Roboto Mono,Sans-serif;font-size:20px;}</style></defs><path class="c" d="M0 31h5m140 0h10m32 0h10m80 0h10m32 0h10m80 0h10m32 0h10m116 0h10m32 0h5"/><rect class="s" x="5" y="5" width="140" height="36"/><text class="k" x="15" y="31">ST_DWITHIN</text><rect class="s" x="155" y="5" width="32" height="36" rx="7"/><text class="syn" x="165" y="31">(</text><rect class="s" x="197" y="5" width="80" height="36" rx="7"/><text class="k" x="207" y="31">geomA</text><rect class="s" x="287" y="5" width="32" height="36" rx="7"/><text class="syn" x="297" y="31">,</text><rect class="s" x="329" y="5" width="80" height="36" rx="7"/><text class="k" x="339" y="31">geomB</text><rect class="s" x="419" y="5" width="32" height="36" rx="7"/><text class="syn" x="429" y="31">,</text><rect class="s" x="461" y="5" width="116" height="36" rx="7"/><text class="k" x="471" y="31">distance</text><rect class="s" x="587" y="5" width="32" height="36" rx="7"/><text class="syn" x="597" y="31">)</text></svg>