<svg version="1.1" xmlns:xlink="http://www.w3.org/1999/xlink" xmlns="http://www.w3.org/2000/svg" width="684" height="46" viewbox="0 0 684 46"><defs><style type="text/css">#guide .c{fill:none;stroke:#222222;}#guide .k{fill:#000000;font-family:Roboto Mono,Sans-serif;font-size:20px;}#guide .s{fill:#e4f4ff;stroke:#222222;}#guide .syn{fill:#8D8D8D;font-family:Roboto Mono,Sans-serif;font-size:20px;}</style></defs><path class="c" d="M0 31h5m140 0h10m32 0h10m116 0h10m32 0h10m128 0h10m32 0h10m92 0h10m32 0h5"/><rect class="s" x="5" y="5" width="140" height="36"/><text class="k" x="15" y="31">ST_GEOTILE</text><rect class="s" x="155" y="5" width="32" height="36" rx="7"/><text class="syn" x="165" y="31">(</text><rect class="s" x="197" y="5" width="116" height="36" rx="7"/><text class="k" x="207" y="31">geometry</text><rect class="s" x="323" y="5" width="32" height="36" rx="7"/><text class="syn" x="333" y="31">,</text><rect class="s" x="365" y="5" width="128" height="36" rx="7"/><text class="k" x="375" y="31">precision</text><rect class="s" x="503" y="5" width="32" height="36" rx="7"/><text class="syn" x="513" y="31">,</text><rect class="s" x="545" y="5" width="92" height="36" rx="7"/><text class="k" x="555" y="31">bounds</text><rect class="s" x="647" y="5" width="32" height="36" rx="7"/><text class="syn" x="657" y="31">)</text></svg>