<svg version="1.1" xmlns:xlink="http://www.w3.org/1999/xlink" xmlns="http://www.w3.org/2000/svg" width="501" height="44" viewbox="0 0 501 44"><defs><style type="text/css">.c{fill:none;stroke:#222222;}.k{fill:#000000;font-family:Dialog,Sans-serif;font-size:20px;}.s{fill:#e4f4ff;stroke:#222222;}.syn{fill:#8D8D8D;font-family:Dialog,Sans-serif;font-size:20px;}</style></defs><path class="c" d="M0 29h5m135 0h10m27 0h10m60 0h10m26 0h10m60 0h10m26 0h10m60 0h10m27 0h5"/><rect class="s" x="5" y="5" width="135" height="34"/><text class="k" x="15" y="29">SUBSTRING</text><rect class="s" x="150" y="5" width="27" height="34" rx="7"/><text class="syn" x="160" y="29">(</text><rect class="s" x="187" y="5" width="60" height="34" rx="7"/><text class="k" x="197" y="29">arg1</text><rect class="s" x="257" y="5" width="26" height="34" rx="7"/><text class="syn" x="267" y="29">,</text><rect class="s" x="293" y="5" width="60" height="34" rx="7"/><text class="k" x="303" y="29">arg2</text><rect class="s" x="363" y="5" width="26" height="34" rx="7"/><text class="syn" x="373" y="29">,</text><rect class="s" x="399" y="5" width="60" height="34" rx="7"/><text class="k" x="409" y="29">arg3</text><rect class="s" x="469" y="5" width="27" height="34" rx="7"/><text class="syn" x="479" y="29">)</text></svg>