<?xml version="1.0" encoding="UTF-8"?>
<svg width="364px" height="147px" viewBox="0 0 364 147" version="1.1" xmlns="http://www.w3.org/2000/svg" xmlns:xlink="http://www.w3.org/1999/xlink">
    <!-- Generator: Sketch 53.2 (72643) - https://sketchapp.com -->
    <title>Slice 1</title>
    <desc>Created with Sketch.</desc>
    <defs>
        <polygon id="path-1" points="0 0 960 0 960 540 0 540"></polygon>
    </defs>
    <g id="Page-1" stroke="none" stroke-width="1" fill="none" fill-rule="evenodd">
        <g id="enrich-policy-index" transform="translate(-450.000000, -179.000000)">
            <mask id="mask-2" fill="white">
                <use xlink:href="#path-1"></use>
            </mask>
            <g id="Path"></g>
            <g id="Group" mask="url(#mask-2)">
                <polygon id="Path" fill="#FFFFFF" points="0 0 960 0 960 540 0 540"></polygon>
                <path d="M727.9239,188.19537 L727.9239,188.19537 C727.9239,183.403012 731.808849,179.518032 736.601207,179.518032 L805.136302,179.518032 C807.437694,179.518032 809.644786,180.432247 811.272105,182.059566 C812.899424,183.686886 813.81367,185.893993 813.81367,188.195369 L813.81367,222.903682 C813.81367,227.696041 809.92866,231.58102 805.136302,231.58102 L736.601207,231.58102 C731.808849,231.58102 727.9239,227.696041 727.9239,222.903682 L727.9239,188.19537 Z" id="Path" fill="#F04E98"></path>
                <path d="M747.35706,199.42516 L748.747685,199.20641 C748.820602,199.76891 749.034143,200.201202 749.38831,200.503285 C749.752893,200.794952 750.252893,200.940785 750.88831,200.940785 C751.534143,200.940785 752.01331,200.810577 752.32581,200.55016 C752.63831,200.279327 752.79456,199.966827 752.79456,199.61266 C752.79456,199.30016 752.659143,199.05016 752.38831,198.86266 C752.190393,198.73766 751.711227,198.58141 750.95081,198.39391 C749.91956,198.133493 749.20081,197.909535 748.79456,197.722035 C748.398727,197.524118 748.096643,197.258493 747.88831,196.92516 C747.690393,196.591827 747.591435,196.222035 747.591435,195.815785 C747.591435,195.440785 747.674768,195.097035 747.841435,194.784535 C748.008102,194.472035 748.237268,194.211618 748.528935,194.003285 C748.747685,193.836618 749.04456,193.701202 749.41956,193.597035 C749.804977,193.482452 750.211227,193.42516 750.63831,193.42516 C751.29456,193.42516 751.867477,193.51891 752.35706,193.70641 C752.846643,193.89391 753.206018,194.149118 753.435185,194.472035 C753.674768,194.784535 753.841435,195.211618 753.935185,195.753285 L752.560185,195.940785 C752.497685,195.513702 752.315393,195.180368 752.01331,194.940785 C751.711227,194.701202 751.289352,194.58141 750.747685,194.58141 C750.101852,194.58141 749.63831,194.690785 749.35706,194.909535 C749.086227,195.117868 748.95081,195.36266 748.95081,195.64391 C748.95081,195.83141 749.008102,195.998077 749.122685,196.14391 C749.237268,196.289743 749.414352,196.414743 749.653935,196.51891 C749.799768,196.570993 750.216435,196.690785 750.903935,196.878285 C751.893518,197.138702 752.586227,197.357452 752.98206,197.534535 C753.377893,197.701202 753.685185,197.945993 753.903935,198.26891 C754.133102,198.591827 754.247685,198.992868 754.247685,199.472035 C754.247685,199.940785 754.10706,200.383493 753.82581,200.80016 C753.554977,201.20641 753.159143,201.524118 752.63831,201.753285 C752.127893,201.982452 751.549768,202.097035 750.903935,202.097035 C749.820602,202.097035 748.997685,201.873077 748.435185,201.42516 C747.872685,200.977243 747.51331,200.310577 747.35706,199.42516 Z M755.38831,197.753285 C755.38831,196.222035 755.815393,195.086618 756.66956,194.347035 C757.38831,193.732452 758.258102,193.42516 759.278935,193.42516 C760.424768,193.42516 761.35706,193.80016 762.07581,194.55016 C762.804977,195.289743 763.16956,196.320993 763.16956,197.64391 C763.16956,198.70641 763.008102,199.544952 762.685185,200.159535 C762.362268,200.774118 761.893518,201.253285 761.278935,201.597035 C760.674768,201.930368 760.008102,202.097035 759.278935,202.097035 C758.122685,202.097035 757.185185,201.727243 756.466435,200.98766 C755.747685,200.23766 755.38831,199.159535 755.38831,197.753285 Z M756.841435,197.753285 C756.841435,198.815785 757.070602,199.61266 757.528935,200.14391 C757.997685,200.67516 758.581018,200.940785 759.278935,200.940785 C759.976852,200.940785 760.554977,200.67516 761.01331,200.14391 C761.48206,199.61266 761.716435,198.80016 761.716435,197.70641 C761.716435,196.685577 761.48206,195.909535 761.01331,195.378285 C760.554977,194.847035 759.976852,194.58141 759.278935,194.58141 C758.581018,194.58141 757.997685,194.847035 757.528935,195.378285 C757.070602,195.899118 756.841435,196.690785 756.841435,197.753285 Z M770.255498,201.909535 L770.255498,200.690785 C769.609664,201.628285 768.729456,202.097035 767.614873,202.097035 C767.125289,202.097035 766.666956,202.003285 766.239873,201.815785 C765.823206,201.628285 765.510706,201.39391 765.302373,201.11266 C765.094039,200.820993 764.948206,200.472035 764.864873,200.065785 C764.812789,199.784535 764.786748,199.347035 764.786748,198.753285 L764.786748,193.61266 L766.192998,193.61266 L766.192998,198.20641 C766.192998,198.945993 766.219039,199.440785 766.271123,199.690785 C766.364873,200.065785 766.552373,200.357452 766.833623,200.565785 C767.125289,200.774118 767.479456,200.878285 767.896123,200.878285 C768.323206,200.878285 768.719039,200.774118 769.083623,200.565785 C769.458623,200.347035 769.719039,200.05016 769.864873,199.67516 C770.021123,199.30016 770.099248,198.758493 770.099248,198.05016 L770.099248,193.61266 L771.505498,193.61266 L771.505498,201.909535 L770.255498,201.909535 Z M773.70081,201.909535 L773.70081,193.61266 L774.966435,193.61266 L774.966435,194.86266 C775.289352,194.279327 775.586227,193.89391 775.85706,193.70641 C776.127893,193.51891 776.429977,193.42516 776.76331,193.42516 C777.23206,193.42516 777.711227,193.576202 778.20081,193.878285 L777.716435,195.17516 C777.372685,194.977243 777.028935,194.878285 776.685185,194.878285 C776.383102,194.878285 776.10706,194.972035 775.85706,195.159535 C775.617477,195.336618 775.445602,195.591827 775.341435,195.92516 C775.185185,196.42516 775.10706,196.972035 775.10706,197.565785 L775.10706,201.909535 L773.70081,201.909535 Z M784.45081,198.86266 L785.841435,199.05016 C785.685185,199.998077 785.29456,200.742868 784.66956,201.284535 C784.054977,201.826202 783.29456,202.097035 782.38831,202.097035 C781.252893,202.097035 780.336227,201.727243 779.63831,200.98766 C778.95081,200.23766 778.60706,199.169952 778.60706,197.784535 C778.60706,196.888702 778.752893,196.107452 779.04456,195.440785 C779.346643,194.763702 779.799768,194.258493 780.403935,193.92516 C781.018518,193.591827 781.679977,193.42516 782.38831,193.42516 C783.29456,193.42516 784.034143,193.654327 784.60706,194.11266 C785.179977,194.560577 785.54456,195.20641 785.70081,196.05016 L784.341435,196.253285 C784.206018,195.701202 783.971643,195.284535 783.63831,195.003285 C783.315393,194.722035 782.91956,194.58141 782.45081,194.58141 C781.742477,194.58141 781.164352,194.836618 780.716435,195.347035 C780.278935,195.847035 780.060185,196.649118 780.060185,197.753285 C780.060185,198.867868 780.273727,199.680368 780.70081,200.190785 C781.127893,200.690785 781.685185,200.940785 782.372685,200.940785 C782.924768,200.940785 783.383102,200.774118 783.747685,200.440785 C784.122685,200.097035 784.35706,199.570993 784.45081,198.86266 Z M792.716435,199.23766 L794.16956,199.409535 C793.940393,200.263702 793.51331,200.92516 792.88831,201.39391 C792.273727,201.86266 791.487268,202.097035 790.528935,202.097035 C789.310185,202.097035 788.346643,201.722035 787.63831,200.972035 C786.929977,200.222035 786.57581,199.17516 786.57581,197.83141 C786.57581,196.435577 786.935185,195.352243 787.653935,194.58141 C788.372685,193.810577 789.304977,193.42516 790.45081,193.42516 C791.554977,193.42516 792.456018,193.805368 793.153935,194.565785 C793.862268,195.315785 794.216435,196.373077 794.216435,197.73766 C794.216435,197.820993 794.216435,197.945993 794.216435,198.11266 L788.028935,198.11266 C788.081018,199.029327 788.336227,199.732452 788.79456,200.222035 C789.26331,200.701202 789.841435,200.940785 790.528935,200.940785 C791.049768,200.940785 791.492477,200.805368 791.85706,200.534535 C792.221643,200.263702 792.508102,199.83141 792.716435,199.23766 Z M788.10706,196.95641 L792.73206,196.95641 C792.66956,196.258493 792.492477,195.73766 792.20081,195.39391 C791.752893,194.852243 791.174768,194.58141 790.466435,194.58141 C789.820602,194.58141 789.273727,194.80016 788.82581,195.23766 C788.38831,195.664743 788.148727,196.23766 788.10706,196.95641 Z" id="Shape" fill="#FFFFFF" fill-rule="nonzero"></path>
                <path d="M752.8063,211.06578 L752.8063,209.456405 L754.21255,209.456405 L754.21255,211.06578 L752.8063,211.06578 Z M752.8063,220.90953 L752.8063,212.612655 L754.21255,212.612655 L754.21255,220.90953 L752.8063,220.90953 Z M756.360987,220.90953 L756.360987,212.612655 L757.626612,212.612655 L757.626612,213.78453 C758.230779,212.87828 759.110987,212.425155 760.267237,212.425155 C760.767237,212.425155 761.225571,212.513697 761.642237,212.69078 C762.058904,212.867863 762.371404,213.102238 762.579737,213.393905 C762.788071,213.685572 762.933904,214.03453 763.017237,214.44078 C763.069321,214.701197 763.095362,215.154322 763.095362,215.800155 L763.095362,220.90953 L761.689112,220.90953 L761.689112,215.862655 C761.689112,215.289738 761.631821,214.862655 761.517237,214.581405 C761.413071,214.289738 761.220362,214.060572 760.939112,213.893905 C760.668279,213.727238 760.345362,213.643905 759.970362,213.643905 C759.366196,213.643905 758.845362,213.836613 758.407862,214.22203 C757.980779,214.59703 757.767237,215.31578 757.767237,216.37828 L757.767237,220.90953 L756.360987,220.90953 Z M770.634425,220.90953 L770.634425,219.862655 C770.113592,220.685572 769.342758,221.09703 768.321925,221.09703 C767.655258,221.09703 767.045883,220.914738 766.4938,220.550155 C765.941717,220.185572 765.509425,219.675155 765.196925,219.018905 C764.894842,218.362655 764.7438,217.612655 764.7438,216.768905 C764.7438,215.935572 764.879217,215.185572 765.15005,214.518905 C765.4313,213.841822 765.847967,213.326197 766.40005,212.97203 C766.952133,212.607447 767.571925,212.425155 768.259425,212.425155 C768.759425,212.425155 769.202133,212.529322 769.58755,212.737655 C769.983383,212.945988 770.301092,213.22203 770.540675,213.56578 L770.540675,209.456405 L771.946925,209.456405 L771.946925,220.90953 L770.634425,220.90953 Z M766.196925,216.768905 C766.196925,217.831405 766.420883,218.62828 766.8688,219.15953 C767.316717,219.680363 767.842758,219.94078 768.446925,219.94078 C769.061508,219.94078 769.582342,219.69078 770.009425,219.19078 C770.446925,218.680363 770.665675,217.90953 770.665675,216.87828 C770.665675,215.742863 770.446925,214.90953 770.009425,214.37828 C769.571925,213.84703 769.030258,213.581405 768.384425,213.581405 C767.759425,213.581405 767.238592,213.836613 766.821925,214.34703 C766.405258,214.857447 766.196925,215.664738 766.196925,216.768905 Z M779.829737,218.237655 L781.282862,218.40953 C781.053696,219.263697 780.626612,219.925155 780.001612,220.393905 C779.387029,220.862655 778.600571,221.09703 777.642237,221.09703 C776.423487,221.09703 775.459946,220.72203 774.751612,219.97203 C774.043279,219.22203 773.689112,218.175155 773.689112,216.831405 C773.689112,215.435572 774.048487,214.352238 774.767237,213.581405 C775.485987,212.810572 776.418279,212.425155 777.564112,212.425155 C778.668279,212.425155 779.569321,212.805363 780.267237,213.56578 C780.975571,214.31578 781.329737,215.373072 781.329737,216.737655 C781.329737,216.820988 781.329737,216.945988 781.329737,217.112655 L775.142237,217.112655 C775.194321,218.029322 775.449529,218.732447 775.907862,219.22203 C776.376612,219.701197 776.954737,219.94078 777.642237,219.94078 C778.163071,219.94078 778.605779,219.805363 778.970362,219.53453 C779.334946,219.263697 779.621404,218.831405 779.829737,218.237655 Z M775.220362,215.956405 L779.845362,215.956405 C779.782862,215.258488 779.605779,214.737655 779.314112,214.393905 C778.866196,213.852238 778.288071,213.581405 777.579737,213.581405 C776.933904,213.581405 776.387029,213.800155 775.939112,214.237655 C775.501612,214.664738 775.262029,215.237655 775.220362,215.956405 Z M782.1188,220.90953 L785.15005,216.59703 L782.33755,212.612655 L784.103175,212.612655 L785.3688,214.550155 C785.608383,214.925155 785.801092,215.237655 785.946925,215.487655 C786.176092,215.143905 786.389633,214.836613 786.58755,214.56578 L787.978175,212.612655 L789.665675,212.612655 L786.790675,216.518905 L789.884425,220.90953 L788.15005,220.90953 L786.446925,218.331405 L785.9938,217.62828 L783.821925,220.90953 L782.1188,220.90953 Z" id="Shape" fill="#FFFFFF" fill-rule="nonzero"></path>
                <path d="M727.9239,281.62582 L727.9239,281.62582 C727.9239,276.833462 731.808849,272.948482 736.601207,272.948482 L805.136302,272.948482 C807.437694,272.948482 809.644786,273.862697 811.272105,275.490016 C812.899424,277.117336 813.81367,279.324428 813.81367,281.625819 L813.81367,316.334132 C813.81367,321.126491 809.92866,325.01147 805.136302,325.01147 L736.601207,325.01147 C731.808849,325.01147 727.9239,321.126491 727.9239,316.334132 L727.9239,281.62582 Z" id="Path" fill="#F04E98"></path>
                <path d="M747.35706,292.8556 L748.747685,292.63685 C748.820602,293.19935 749.034143,293.631642 749.38831,293.933725 C749.752893,294.225392 750.252893,294.371225 750.88831,294.371225 C751.534143,294.371225 752.01331,294.241017 752.32581,293.9806 C752.63831,293.709767 752.79456,293.397267 752.79456,293.0431 C752.79456,292.7306 752.659143,292.4806 752.38831,292.2931 C752.190393,292.1681 751.711227,292.01185 750.95081,291.82435 C749.91956,291.563933 749.20081,291.339975 748.79456,291.152475 C748.398727,290.954558 748.096643,290.688933 747.88831,290.3556 C747.690393,290.022267 747.591435,289.652475 747.591435,289.246225 C747.591435,288.871225 747.674768,288.527475 747.841435,288.214975 C748.008102,287.902475 748.237268,287.642058 748.528935,287.433725 C748.747685,287.267058 749.04456,287.131642 749.41956,287.027475 C749.804977,286.912892 750.211227,286.8556 750.63831,286.8556 C751.29456,286.8556 751.867477,286.94935 752.35706,287.13685 C752.846643,287.32435 753.206018,287.579558 753.435185,287.902475 C753.674768,288.214975 753.841435,288.642058 753.935185,289.183725 L752.560185,289.371225 C752.497685,288.944142 752.315393,288.610808 752.01331,288.371225 C751.711227,288.131642 751.289352,288.01185 750.747685,288.01185 C750.101852,288.01185 749.63831,288.121225 749.35706,288.339975 C749.086227,288.548308 748.95081,288.7931 748.95081,289.07435 C748.95081,289.26185 749.008102,289.428517 749.122685,289.57435 C749.237268,289.720183 749.414352,289.845183 749.653935,289.94935 C749.799768,290.001433 750.216435,290.121225 750.903935,290.308725 C751.893518,290.569142 752.586227,290.787892 752.98206,290.964975 C753.377893,291.131642 753.685185,291.376433 753.903935,291.69935 C754.133102,292.022267 754.247685,292.423308 754.247685,292.902475 C754.247685,293.371225 754.10706,293.813933 753.82581,294.2306 C753.554977,294.63685 753.159143,294.954558 752.63831,295.183725 C752.127893,295.412892 751.549768,295.527475 750.903935,295.527475 C749.820602,295.527475 748.997685,295.303517 748.435185,294.8556 C747.872685,294.407683 747.51331,293.741017 747.35706,292.8556 Z M755.38831,291.183725 C755.38831,289.652475 755.815393,288.517058 756.66956,287.777475 C757.38831,287.162892 758.258102,286.8556 759.278935,286.8556 C760.424768,286.8556 761.35706,287.2306 762.07581,287.9806 C762.804977,288.720183 763.16956,289.751433 763.16956,291.07435 C763.16956,292.13685 763.008102,292.975392 762.685185,293.589975 C762.362268,294.204558 761.893518,294.683725 761.278935,295.027475 C760.674768,295.360808 760.008102,295.527475 759.278935,295.527475 C758.122685,295.527475 757.185185,295.157683 756.466435,294.4181 C755.747685,293.6681 755.38831,292.589975 755.38831,291.183725 Z M756.841435,291.183725 C756.841435,292.246225 757.070602,293.0431 757.528935,293.57435 C757.997685,294.1056 758.581018,294.371225 759.278935,294.371225 C759.976852,294.371225 760.554977,294.1056 761.01331,293.57435 C761.48206,293.0431 761.716435,292.2306 761.716435,291.13685 C761.716435,290.116017 761.48206,289.339975 761.01331,288.808725 C760.554977,288.277475 759.976852,288.01185 759.278935,288.01185 C758.581018,288.01185 757.997685,288.277475 757.528935,288.808725 C757.070602,289.329558 756.841435,290.121225 756.841435,291.183725 Z M770.255498,295.339975 L770.255498,294.121225 C769.609664,295.058725 768.729456,295.527475 767.614873,295.527475 C767.125289,295.527475 766.666956,295.433725 766.239873,295.246225 C765.823206,295.058725 765.510706,294.82435 765.302373,294.5431 C765.094039,294.251433 764.948206,293.902475 764.864873,293.496225 C764.812789,293.214975 764.786748,292.777475 764.786748,292.183725 L764.786748,287.0431 L766.192998,287.0431 L766.192998,291.63685 C766.192998,292.376433 766.219039,292.871225 766.271123,293.121225 C766.364873,293.496225 766.552373,293.787892 766.833623,293.996225 C767.125289,294.204558 767.479456,294.308725 767.896123,294.308725 C768.323206,294.308725 768.719039,294.204558 769.083623,293.996225 C769.458623,293.777475 769.719039,293.4806 769.864873,293.1056 C770.021123,292.7306 770.099248,292.188933 770.099248,291.4806 L770.099248,287.0431 L771.505498,287.0431 L771.505498,295.339975 L770.255498,295.339975 Z M773.70081,295.339975 L773.70081,287.0431 L774.966435,287.0431 L774.966435,288.2931 C775.289352,287.709767 775.586227,287.32435 775.85706,287.13685 C776.127893,286.94935 776.429977,286.8556 776.76331,286.8556 C777.23206,286.8556 777.711227,287.006642 778.20081,287.308725 L777.716435,288.6056 C777.372685,288.407683 777.028935,288.308725 776.685185,288.308725 C776.383102,288.308725 776.10706,288.402475 775.85706,288.589975 C775.617477,288.767058 775.445602,289.022267 775.341435,289.3556 C775.185185,289.8556 775.10706,290.402475 775.10706,290.996225 L775.10706,295.339975 L773.70081,295.339975 Z M784.45081,292.2931 L785.841435,292.4806 C785.685185,293.428517 785.29456,294.173308 784.66956,294.714975 C784.054977,295.256642 783.29456,295.527475 782.38831,295.527475 C781.252893,295.527475 780.336227,295.157683 779.63831,294.4181 C778.95081,293.6681 778.60706,292.600392 778.60706,291.214975 C778.60706,290.319142 778.752893,289.537892 779.04456,288.871225 C779.346643,288.194142 779.799768,287.688933 780.403935,287.3556 C781.018518,287.022267 781.679977,286.8556 782.38831,286.8556 C783.29456,286.8556 784.034143,287.084767 784.60706,287.5431 C785.179977,287.991017 785.54456,288.63685 785.70081,289.4806 L784.341435,289.683725 C784.206018,289.131642 783.971643,288.714975 783.63831,288.433725 C783.315393,288.152475 782.91956,288.01185 782.45081,288.01185 C781.742477,288.01185 781.164352,288.267058 780.716435,288.777475 C780.278935,289.277475 780.060185,290.079558 780.060185,291.183725 C780.060185,292.298308 780.273727,293.110808 780.70081,293.621225 C781.127893,294.121225 781.685185,294.371225 782.372685,294.371225 C782.924768,294.371225 783.383102,294.204558 783.747685,293.871225 C784.122685,293.527475 784.35706,293.001433 784.45081,292.2931 Z M792.716435,292.6681 L794.16956,292.839975 C793.940393,293.694142 793.51331,294.3556 792.88831,294.82435 C792.273727,295.2931 791.487268,295.527475 790.528935,295.527475 C789.310185,295.527475 788.346643,295.152475 787.63831,294.402475 C786.929977,293.652475 786.57581,292.6056 786.57581,291.26185 C786.57581,289.866017 786.935185,288.782683 787.653935,288.01185 C788.372685,287.241017 789.304977,286.8556 790.45081,286.8556 C791.554977,286.8556 792.456018,287.235808 793.153935,287.996225 C793.862268,288.746225 794.216435,289.803517 794.216435,291.1681 C794.216435,291.251433 794.216435,291.376433 794.216435,291.5431 L788.028935,291.5431 C788.081018,292.459767 788.336227,293.162892 788.79456,293.652475 C789.26331,294.131642 789.841435,294.371225 790.528935,294.371225 C791.049768,294.371225 791.492477,294.235808 791.85706,293.964975 C792.221643,293.694142 792.508102,293.26185 792.716435,292.6681 Z M788.10706,290.38685 L792.73206,290.38685 C792.66956,289.688933 792.492477,289.1681 792.20081,288.82435 C791.752893,288.282683 791.174768,288.01185 790.466435,288.01185 C789.820602,288.01185 789.273727,288.2306 788.82581,288.6681 C788.38831,289.095183 788.148727,289.6681 788.10706,290.38685 Z" id="Shape" fill="#FFFFFF" fill-rule="nonzero"></path>
                <path d="M752.8063,304.49622 L752.8063,302.886845 L754.21255,302.886845 L754.21255,304.49622 L752.8063,304.49622 Z M752.8063,314.33997 L752.8063,306.043095 L754.21255,306.043095 L754.21255,314.33997 L752.8063,314.33997 Z M756.360987,314.33997 L756.360987,306.043095 L757.626612,306.043095 L757.626612,307.21497 C758.230779,306.30872 759.110987,305.855595 760.267237,305.855595 C760.767237,305.855595 761.225571,305.944137 761.642237,306.12122 C762.058904,306.298303 762.371404,306.532678 762.579737,306.824345 C762.788071,307.116012 762.933904,307.46497 763.017237,307.87122 C763.069321,308.131637 763.095362,308.584762 763.095362,309.230595 L763.095362,314.33997 L761.689112,314.33997 L761.689112,309.293095 C761.689112,308.720178 761.631821,308.293095 761.517237,308.011845 C761.413071,307.720178 761.220362,307.491012 760.939112,307.324345 C760.668279,307.157678 760.345362,307.074345 759.970362,307.074345 C759.366196,307.074345 758.845362,307.267053 758.407862,307.65247 C757.980779,308.02747 757.767237,308.74622 757.767237,309.80872 L757.767237,314.33997 L756.360987,314.33997 Z M770.634425,314.33997 L770.634425,313.293095 C770.113592,314.116012 769.342758,314.52747 768.321925,314.52747 C767.655258,314.52747 767.045883,314.345178 766.4938,313.980595 C765.941717,313.616012 765.509425,313.105595 765.196925,312.449345 C764.894842,311.793095 764.7438,311.043095 764.7438,310.199345 C764.7438,309.366012 764.879217,308.616012 765.15005,307.949345 C765.4313,307.272262 765.847967,306.756637 766.40005,306.40247 C766.952133,306.037887 767.571925,305.855595 768.259425,305.855595 C768.759425,305.855595 769.202133,305.959762 769.58755,306.168095 C769.983383,306.376428 770.301092,306.65247 770.540675,306.99622 L770.540675,302.886845 L771.946925,302.886845 L771.946925,314.33997 L770.634425,314.33997 Z M766.196925,310.199345 C766.196925,311.261845 766.420883,312.05872 766.8688,312.58997 C767.316717,313.110803 767.842758,313.37122 768.446925,313.37122 C769.061508,313.37122 769.582342,313.12122 770.009425,312.62122 C770.446925,312.110803 770.665675,311.33997 770.665675,310.30872 C770.665675,309.173303 770.446925,308.33997 770.009425,307.80872 C769.571925,307.27747 769.030258,307.011845 768.384425,307.011845 C767.759425,307.011845 767.238592,307.267053 766.821925,307.77747 C766.405258,308.287887 766.196925,309.095178 766.196925,310.199345 Z M779.829737,311.668095 L781.282862,311.83997 C781.053696,312.694137 780.626612,313.355595 780.001612,313.824345 C779.387029,314.293095 778.600571,314.52747 777.642237,314.52747 C776.423487,314.52747 775.459946,314.15247 774.751612,313.40247 C774.043279,312.65247 773.689112,311.605595 773.689112,310.261845 C773.689112,308.866012 774.048487,307.782678 774.767237,307.011845 C775.485987,306.241012 776.418279,305.855595 777.564112,305.855595 C778.668279,305.855595 779.569321,306.235803 780.267237,306.99622 C780.975571,307.74622 781.329737,308.803512 781.329737,310.168095 C781.329737,310.251428 781.329737,310.376428 781.329737,310.543095 L775.142237,310.543095 C775.194321,311.459762 775.449529,312.162887 775.907862,312.65247 C776.376612,313.131637 776.954737,313.37122 777.642237,313.37122 C778.163071,313.37122 778.605779,313.235803 778.970362,312.96497 C779.334946,312.694137 779.621404,312.261845 779.829737,311.668095 Z M775.220362,309.386845 L779.845362,309.386845 C779.782862,308.688928 779.605779,308.168095 779.314112,307.824345 C778.866196,307.282678 778.288071,307.011845 777.579737,307.011845 C776.933904,307.011845 776.387029,307.230595 775.939112,307.668095 C775.501612,308.095178 775.262029,308.668095 775.220362,309.386845 Z M782.1188,314.33997 L785.15005,310.02747 L782.33755,306.043095 L784.103175,306.043095 L785.3688,307.980595 C785.608383,308.355595 785.801092,308.668095 785.946925,308.918095 C786.176092,308.574345 786.389633,308.267053 786.58755,307.99622 L787.978175,306.043095 L789.665675,306.043095 L786.790675,309.949345 L789.884425,314.33997 L788.15005,314.33997 L786.446925,311.761845 L785.9938,311.05872 L783.821925,314.33997 L782.1188,314.33997 Z" id="Shape" fill="#FFFFFF" fill-rule="nonzero"></path>
                <path d="M450.0971,241.7796 L450.0971,241.7796 C450.0971,236.987242 453.982079,233.102262 458.774438,233.102262 L527.309503,233.102262 C529.610895,233.102262 531.818048,234.016477 533.445306,235.643796 C535.072625,237.271116 535.986871,239.478223 535.986871,241.779599 L535.986871,276.487912 C535.986871,281.280271 532.101922,285.16525 527.309503,285.16525 L458.774438,285.16525 C453.98208,285.16525 450.0971,281.280271 450.0971,276.487912 L450.0971,241.7796 Z" id="Path" fill="#FA734F"></path>
                <path d="M477.9873,252.82188 L479.440425,252.993755 C479.211258,253.847922 478.784175,254.50938 478.159175,254.97813 C477.544592,255.44688 476.758133,255.681255 475.7998,255.681255 C474.58105,255.681255 473.617508,255.306255 472.909175,254.556255 C472.200842,253.806255 471.846675,252.75938 471.846675,251.41563 C471.846675,250.019797 472.20605,248.936463 472.9248,248.16563 C473.64355,247.394797 474.575842,247.00938 475.721675,247.00938 C476.825842,247.00938 477.726883,247.389588 478.4248,248.150005 C479.133133,248.900005 479.4873,249.957297 479.4873,251.32188 C479.4873,251.405213 479.4873,251.530213 479.4873,251.69688 L473.2998,251.69688 C473.351883,252.613547 473.607092,253.316672 474.065425,253.806255 C474.534175,254.285422 475.1123,254.525005 475.7998,254.525005 C476.320633,254.525005 476.763342,254.389588 477.127925,254.118755 C477.492508,253.847922 477.778967,253.41563 477.9873,252.82188 Z M473.377925,250.54063 L478.002925,250.54063 C477.940425,249.842713 477.763342,249.32188 477.471675,248.97813 C477.023758,248.436463 476.445633,248.16563 475.7373,248.16563 C475.091467,248.16563 474.544592,248.38438 474.096675,248.82188 C473.659175,249.248963 473.419592,249.82188 473.377925,250.54063 Z M481.213863,255.493755 L481.213863,247.19688 L482.479488,247.19688 L482.479488,248.368755 C483.083654,247.462505 483.963863,247.00938 485.120113,247.00938 C485.620113,247.00938 486.078446,247.097922 486.495113,247.275005 C486.911779,247.452088 487.224279,247.686463 487.432613,247.97813 C487.640946,248.269797 487.786779,248.618755 487.870113,249.025005 C487.922196,249.285422 487.948238,249.738547 487.948238,250.38438 L487.948238,255.493755 L486.541988,255.493755 L486.541988,250.44688 C486.541988,249.873963 486.484696,249.44688 486.370113,249.16563 C486.265946,248.873963 486.073238,248.644797 485.791988,248.47813 C485.521154,248.311463 485.198238,248.22813 484.823238,248.22813 C484.219071,248.22813 483.698238,248.420838 483.260738,248.806255 C482.833654,249.181255 482.620113,249.900005 482.620113,250.962505 L482.620113,255.493755 L481.213863,255.493755 Z M490.096675,255.493755 L490.096675,247.19688 L491.3623,247.19688 L491.3623,248.44688 C491.685217,247.863547 491.982092,247.47813 492.252925,247.29063 C492.523758,247.10313 492.825842,247.00938 493.159175,247.00938 C493.627925,247.00938 494.107092,247.160422 494.596675,247.462505 L494.1123,248.75938 C493.76855,248.561463 493.4248,248.462505 493.08105,248.462505 C492.778967,248.462505 492.502925,248.556255 492.252925,248.743755 C492.013342,248.920838 491.841467,249.176047 491.7373,249.50938 C491.58105,250.00938 491.502925,250.556255 491.502925,251.150005 L491.502925,255.493755 L490.096675,255.493755 Z M495.440425,245.650005 L495.440425,244.04063 L496.846675,244.04063 L496.846675,245.650005 L495.440425,245.650005 Z M495.440425,255.493755 L495.440425,247.19688 L496.846675,247.19688 L496.846675,255.493755 L495.440425,255.493755 Z M504.401363,252.44688 L505.791988,252.63438 C505.635738,253.582297 505.245113,254.327088 504.620113,254.868755 C504.005529,255.410422 503.245113,255.681255 502.338863,255.681255 C501.203446,255.681255 500.286779,255.311463 499.588863,254.57188 C498.901363,253.82188 498.557613,252.754172 498.557613,251.368755 C498.557613,250.472922 498.703446,249.691672 498.995113,249.025005 C499.297196,248.347922 499.750321,247.842713 500.354488,247.50938 C500.969071,247.176047 501.630529,247.00938 502.338863,247.00938 C503.245113,247.00938 503.984696,247.238547 504.557613,247.69688 C505.130529,248.144797 505.495113,248.79063 505.651363,249.63438 L504.291988,249.837505 C504.156571,249.285422 503.922196,248.868755 503.588863,248.587505 C503.265946,248.306255 502.870113,248.16563 502.401363,248.16563 C501.693029,248.16563 501.114904,248.420838 500.666988,248.931255 C500.229488,249.431255 500.010738,250.233338 500.010738,251.337505 C500.010738,252.452088 500.224279,253.264588 500.651363,253.775005 C501.078446,254.275005 501.635738,254.525005 502.323238,254.525005 C502.875321,254.525005 503.333654,254.358338 503.698238,254.025005 C504.073238,253.681255 504.307613,253.155213 504.401363,252.44688 Z M506.995113,255.493755 L506.995113,244.04063 L508.401363,244.04063 L508.401363,248.150005 C509.057613,247.389588 509.885738,247.00938 510.885738,247.00938 C511.500321,247.00938 512.031571,247.129172 512.479488,247.368755 C512.937821,247.608338 513.260738,247.941672 513.448238,248.368755 C513.646154,248.795838 513.745113,249.41563 513.745113,250.22813 L513.745113,255.493755 L512.338863,255.493755 L512.338863,250.22813 C512.338863,249.530213 512.187821,249.019797 511.885738,248.69688 C511.583654,248.373963 511.151363,248.212505 510.588863,248.212505 C510.172196,248.212505 509.781571,248.32188 509.416988,248.54063 C509.052404,248.75938 508.791988,249.056255 508.635738,249.431255 C508.479488,249.795838 508.401363,250.301047 508.401363,250.94688 L508.401363,255.493755 L506.995113,255.493755 Z" id="Shape" fill="#FFFFFF" fill-rule="nonzero"></path>
                <path d="M474.9795,264.65002 L474.9795,263.040645 L476.38575,263.040645 L476.38575,264.65002 L474.9795,264.65002 Z M474.9795,274.49377 L474.9795,266.196895 L476.38575,266.196895 L476.38575,274.49377 L474.9795,274.49377 Z M478.534187,274.49377 L478.534187,266.196895 L479.799812,266.196895 L479.799812,267.36877 C480.403979,266.46252 481.284187,266.009395 482.440437,266.009395 C482.940437,266.009395 483.398771,266.097937 483.815437,266.27502 C484.232104,266.452103 484.544604,266.686478 484.752937,266.978145 C484.961271,267.269812 485.107104,267.61877 485.190437,268.02502 C485.242521,268.285437 485.268562,268.738562 485.268562,269.384395 L485.268562,274.49377 L483.862312,274.49377 L483.862312,269.446895 C483.862312,268.873978 483.805021,268.446895 483.690437,268.165645 C483.586271,267.873978 483.393562,267.644812 483.112312,267.478145 C482.841479,267.311478 482.518562,267.228145 482.143562,267.228145 C481.539396,267.228145 481.018562,267.420853 480.581062,267.80627 C480.153979,268.18127 479.940437,268.90002 479.940437,269.96252 L479.940437,274.49377 L478.534187,274.49377 Z M492.807625,274.49377 L492.807625,273.446895 C492.286792,274.269812 491.515958,274.68127 490.495125,274.68127 C489.828458,274.68127 489.219083,274.498978 488.667,274.134395 C488.114917,273.769812 487.682625,273.259395 487.370125,272.603145 C487.068042,271.946895 486.917,271.196895 486.917,270.353145 C486.917,269.519812 487.052417,268.769812 487.32325,268.103145 C487.6045,267.426062 488.021167,266.910437 488.57325,266.55627 C489.125333,266.191687 489.745125,266.009395 490.432625,266.009395 C490.932625,266.009395 491.375333,266.113562 491.76075,266.321895 C492.156583,266.530228 492.474292,266.80627 492.713875,267.15002 L492.713875,263.040645 L494.120125,263.040645 L494.120125,274.49377 L492.807625,274.49377 Z M488.370125,270.353145 C488.370125,271.415645 488.594083,272.21252 489.042,272.74377 C489.489917,273.264603 490.015958,273.52502 490.620125,273.52502 C491.234708,273.52502 491.755542,273.27502 492.182625,272.77502 C492.620125,272.264603 492.838875,271.49377 492.838875,270.46252 C492.838875,269.327103 492.620125,268.49377 492.182625,267.96252 C491.745125,267.43127 491.203458,267.165645 490.557625,267.165645 C489.932625,267.165645 489.411792,267.420853 488.995125,267.93127 C488.578458,268.441687 488.370125,269.248978 488.370125,270.353145 Z M502.002937,271.821895 L503.456062,271.99377 C503.226896,272.847937 502.799812,273.509395 502.174812,273.978145 C501.560229,274.446895 500.773771,274.68127 499.815437,274.68127 C498.596687,274.68127 497.633146,274.30627 496.924812,273.55627 C496.216479,272.80627 495.862312,271.759395 495.862312,270.415645 C495.862312,269.019812 496.221687,267.936478 496.940437,267.165645 C497.659187,266.394812 498.591479,266.009395 499.737312,266.009395 C500.841479,266.009395 501.742521,266.389603 502.440437,267.15002 C503.148771,267.90002 503.502937,268.957312 503.502937,270.321895 C503.502937,270.405228 503.502937,270.530228 503.502937,270.696895 L497.315437,270.696895 C497.367521,271.613562 497.622729,272.316687 498.081062,272.80627 C498.549812,273.285437 499.127937,273.52502 499.815437,273.52502 C500.336271,273.52502 500.778979,273.389603 501.143562,273.11877 C501.508146,272.847937 501.794604,272.415645 502.002937,271.821895 Z M497.393562,269.540645 L502.018562,269.540645 C501.956062,268.842728 501.778979,268.321895 501.487312,267.978145 C501.039396,267.436478 500.461271,267.165645 499.752937,267.165645 C499.107104,267.165645 498.560229,267.384395 498.112312,267.821895 C497.674812,268.248978 497.435229,268.821895 497.393562,269.540645 Z M504.292,274.49377 L507.32325,270.18127 L504.51075,266.196895 L506.276375,266.196895 L507.542,268.134395 C507.781583,268.509395 507.974292,268.821895 508.120125,269.071895 C508.349292,268.728145 508.562833,268.420853 508.76075,268.15002 L510.151375,266.196895 L511.838875,266.196895 L508.963875,270.103145 L512.057625,274.49377 L510.32325,274.49377 L508.620125,271.915645 L508.167,271.21252 L505.995125,274.49377 L504.292,274.49377 L504.292,274.49377 Z" id="Shape" fill="#FFFFFF" fill-rule="nonzero"></path>
                <path d="M589.6299,259.23456 L589.6299,259.23456 C589.6299,233.62073 610.873491,212.856615 637.078753,212.856615 L637.078753,212.856615 C649.662921,212.856615 661.731768,217.742845 670.630143,226.440401 C679.528519,235.137957 684.527543,246.934374 684.527543,259.234561 L684.527543,259.234561 C684.527543,284.848422 663.284013,305.612521 637.078753,305.612521 L637.078753,305.612521 C610.873492,305.612521 589.6299,284.848421 589.6299,259.234561 L589.6299,259.23456 Z" id="Path" fill-opacity="0" fill="#000000"></path>
                <path d="M589.6299,259.23456 L589.6299,259.23456 C589.6299,233.62073 610.873491,212.856615 637.078753,212.856615 L637.078753,212.856615 C649.662921,212.856615 661.731768,217.742845 670.630143,226.440401 C679.528519,235.137957 684.527543,246.934374 684.527543,259.234561 L684.527543,259.234561 C684.527543,284.848422 663.284013,305.612521 637.078753,305.612521 L637.078753,305.612521 C610.873492,305.612521 589.6299,284.848421 589.6299,259.234561 L589.6299,259.23456 Z" id="Path" stroke="#434753" stroke-width="2" stroke-linejoin="round" stroke-dasharray="16,6"></path>
                <path d="M622.02405,252.9227 L623.477175,253.094575 C623.248008,253.948742 622.820925,254.6102 622.195925,255.07895 C621.581342,255.5477 620.794883,255.782075 619.83655,255.782075 C618.6178,255.782075 617.654258,255.407075 616.945925,254.657075 C616.237592,253.907075 615.883425,252.8602 615.883425,251.51645 C615.883425,250.120617 616.2428,249.037283 616.96155,248.26645 C617.6803,247.495617 618.612592,247.1102 619.758425,247.1102 C620.862592,247.1102 621.763633,247.490408 622.46155,248.250825 C623.169883,249.000825 623.52405,250.058117 623.52405,251.4227 C623.52405,251.506033 623.52405,251.631033 623.52405,251.7977 L617.33655,251.7977 C617.388633,252.714367 617.643842,253.417492 618.102175,253.907075 C618.570925,254.386242 619.14905,254.625825 619.83655,254.625825 C620.357383,254.625825 620.800092,254.490408 621.164675,254.219575 C621.529258,253.948742 621.815717,253.51645 622.02405,252.9227 Z M617.414675,250.64145 L622.039675,250.64145 C621.977175,249.943533 621.800092,249.4227 621.508425,249.07895 C621.060508,248.537283 620.482383,248.26645 619.77405,248.26645 C619.128217,248.26645 618.581342,248.4852 618.133425,248.9227 C617.695925,249.349783 617.456342,249.9227 617.414675,250.64145 Z M625.250612,255.594575 L625.250612,247.2977 L626.516237,247.2977 L626.516237,248.469575 C627.120404,247.563325 628.000612,247.1102 629.156862,247.1102 C629.656862,247.1102 630.115196,247.198742 630.531862,247.375825 C630.948529,247.552908 631.261029,247.787283 631.469362,248.07895 C631.677696,248.370617 631.823529,248.719575 631.906862,249.125825 C631.958946,249.386242 631.984987,249.839367 631.984987,250.4852 L631.984987,255.594575 L630.578737,255.594575 L630.578737,250.5477 C630.578737,249.974783 630.521446,249.5477 630.406862,249.26645 C630.302696,248.974783 630.109987,248.745617 629.828737,248.57895 C629.557904,248.412283 629.234987,248.32895 628.859987,248.32895 C628.255821,248.32895 627.734987,248.521658 627.297487,248.907075 C626.870404,249.282075 626.656862,250.000825 626.656862,251.063325 L626.656862,255.594575 L625.250612,255.594575 Z M634.133425,255.594575 L634.133425,247.2977 L635.39905,247.2977 L635.39905,248.5477 C635.721967,247.964367 636.018842,247.57895 636.289675,247.39145 C636.560508,247.20395 636.862592,247.1102 637.195925,247.1102 C637.664675,247.1102 638.143842,247.261242 638.633425,247.563325 L638.14905,248.8602 C637.8053,248.662283 637.46155,248.563325 637.1178,248.563325 C636.815717,248.563325 636.539675,248.657075 636.289675,248.844575 C636.050092,249.021658 635.878217,249.276867 635.77405,249.6102 C635.6178,250.1102 635.539675,250.657075 635.539675,251.250825 L635.539675,255.594575 L634.133425,255.594575 Z M639.477175,245.750825 L639.477175,244.14145 L640.883425,244.14145 L640.883425,245.750825 L639.477175,245.750825 Z M639.477175,255.594575 L639.477175,247.2977 L640.883425,247.2977 L640.883425,255.594575 L639.477175,255.594575 Z M648.438112,252.5477 L649.828737,252.7352 C649.672487,253.683117 649.281862,254.427908 648.656862,254.969575 C648.042279,255.511242 647.281862,255.782075 646.375612,255.782075 C645.240196,255.782075 644.323529,255.412283 643.625612,254.6727 C642.938112,253.9227 642.594362,252.854992 642.594362,251.469575 C642.594362,250.573742 642.740196,249.792492 643.031862,249.125825 C643.333946,248.448742 643.787071,247.943533 644.391237,247.6102 C645.005821,247.276867 645.667279,247.1102 646.375612,247.1102 C647.281862,247.1102 648.021446,247.339367 648.594362,247.7977 C649.167279,248.245617 649.531862,248.89145 649.688112,249.7352 L648.328737,249.938325 C648.193321,249.386242 647.958946,248.969575 647.625612,248.688325 C647.302696,248.407075 646.906862,248.26645 646.438112,248.26645 C645.729779,248.26645 645.151654,248.521658 644.703737,249.032075 C644.266237,249.532075 644.047487,250.334158 644.047487,251.438325 C644.047487,252.552908 644.261029,253.365408 644.688112,253.875825 C645.115196,254.375825 645.672487,254.625825 646.359987,254.625825 C646.912071,254.625825 647.370404,254.459158 647.734987,254.125825 C648.109987,253.782075 648.344362,253.256033 648.438112,252.5477 Z M651.031862,255.594575 L651.031862,244.14145 L652.438112,244.14145 L652.438112,248.250825 C653.094362,247.490408 653.922487,247.1102 654.922487,247.1102 C655.537071,247.1102 656.068321,247.229992 656.516237,247.469575 C656.974571,247.709158 657.297487,248.042492 657.484987,248.469575 C657.682904,248.896658 657.781862,249.51645 657.781862,250.32895 L657.781862,255.594575 L656.375612,255.594575 L656.375612,250.32895 C656.375612,249.631033 656.224571,249.120617 655.922487,248.7977 C655.620404,248.474783 655.188112,248.313325 654.625612,248.313325 C654.208946,248.313325 653.818321,248.4227 653.453737,248.64145 C653.089154,248.8602 652.828737,249.157075 652.672487,249.532075 C652.516237,249.896658 652.438112,250.401867 652.438112,251.0477 L652.438112,255.594575 L651.031862,255.594575 Z" id="Shape" fill="#000000" fill-rule="nonzero"></path>
                <path d="M617.6881,277.78207 L617.6881,266.297695 L618.96935,266.297695 L618.96935,267.37582 C619.271433,266.948737 619.609975,266.631028 619.984975,266.422695 C620.370392,266.214362 620.833933,266.110195 621.3756,266.110195 C622.083933,266.110195 622.708933,266.292487 623.2506,266.65707 C623.792267,267.021653 624.198517,267.537278 624.46935,268.203945 C624.7506,268.860195 624.891225,269.584153 624.891225,270.37582 C624.891225,271.229987 624.734975,271.995612 624.422475,272.672695 C624.120392,273.349778 623.677683,273.870612 623.09435,274.235195 C622.521433,274.599778 621.912058,274.78207 621.266225,274.78207 C620.797475,274.78207 620.3756,274.683112 620.0006,274.485195 C619.636017,274.287278 619.333933,274.037278 619.09435,273.735195 L619.09435,277.78207 L617.6881,277.78207 Z M618.953725,270.485195 C618.953725,271.558112 619.167267,272.349778 619.59435,272.860195 C620.03185,273.370612 620.557892,273.62582 621.172475,273.62582 C621.797475,273.62582 622.333933,273.360195 622.78185,272.828945 C623.229767,272.297695 623.453725,271.479987 623.453725,270.37582 C623.453725,269.31332 623.234975,268.521653 622.797475,268.00082 C622.359975,267.46957 621.839142,267.203945 621.234975,267.203945 C620.641225,267.203945 620.109975,267.485195 619.641225,268.047695 C619.182892,268.610195 618.953725,269.422695 618.953725,270.485195 Z M626.055287,270.43832 C626.055287,268.90707 626.482371,267.771653 627.336537,267.03207 C628.055287,266.417487 628.925079,266.110195 629.945912,266.110195 C631.091746,266.110195 632.024037,266.485195 632.742787,267.235195 C633.471954,267.974778 633.836537,269.006028 633.836537,270.328945 C633.836537,271.391445 633.675079,272.229987 633.352162,272.84457 C633.029246,273.459153 632.560496,273.93832 631.945912,274.28207 C631.341746,274.615403 630.675079,274.78207 629.945912,274.78207 C628.789662,274.78207 627.852162,274.412278 627.133412,273.672695 C626.414662,272.922695 626.055287,271.84457 626.055287,270.43832 Z M627.508412,270.43832 C627.508412,271.50082 627.737579,272.297695 628.195912,272.828945 C628.664662,273.360195 629.247996,273.62582 629.945912,273.62582 C630.643829,273.62582 631.221954,273.360195 631.680287,272.828945 C632.149037,272.297695 632.383412,271.485195 632.383412,270.391445 C632.383412,269.370612 632.149037,268.59457 631.680287,268.06332 C631.221954,267.53207 630.643829,267.266445 629.945912,267.266445 C629.247996,267.266445 628.664662,267.53207 628.195912,268.06332 C627.737579,268.584153 627.508412,269.37582 627.508412,270.43832 Z M635.453725,274.59457 L635.453725,263.141445 L636.859975,263.141445 L636.859975,274.59457 L635.453725,274.59457 Z M639.039662,264.75082 L639.039662,263.141445 L640.445912,263.141445 L640.445912,264.75082 L639.039662,264.75082 Z M639.039662,274.59457 L639.039662,266.297695 L640.445912,266.297695 L640.445912,274.59457 L639.039662,274.59457 Z M648.0006,271.547695 L649.391225,271.735195 C649.234975,272.683112 648.84435,273.427903 648.21935,273.96957 C647.604767,274.511237 646.84435,274.78207 645.9381,274.78207 C644.802683,274.78207 643.886017,274.412278 643.1881,273.672695 C642.5006,272.922695 642.15685,271.854987 642.15685,270.46957 C642.15685,269.573737 642.302683,268.792487 642.59435,268.12582 C642.896433,267.448737 643.349558,266.943528 643.953725,266.610195 C644.568308,266.276862 645.229767,266.110195 645.9381,266.110195 C646.84435,266.110195 647.583933,266.339362 648.15685,266.797695 C648.729767,267.245612 649.09435,267.891445 649.2506,268.735195 L647.891225,268.93832 C647.755808,268.386237 647.521433,267.96957 647.1881,267.68832 C646.865183,267.40707 646.46935,267.266445 646.0006,267.266445 C645.292267,267.266445 644.714142,267.521653 644.266225,268.03207 C643.828725,268.53207 643.609975,269.334153 643.609975,270.43832 C643.609975,271.552903 643.823517,272.365403 644.2506,272.87582 C644.677683,273.37582 645.234975,273.62582 645.922475,273.62582 C646.474558,273.62582 646.932892,273.459153 647.297475,273.12582 C647.672475,272.78207 647.90685,272.256028 648.0006,271.547695 Z M650.53185,277.797695 L650.3756,276.46957 C650.677683,276.552903 650.943308,276.59457 651.172475,276.59457 C651.484975,276.59457 651.734975,276.542487 651.922475,276.43832 C652.109975,276.334153 652.266225,276.18832 652.391225,276.00082 C652.474558,275.865403 652.615183,275.516445 652.8131,274.953945 C652.84435,274.881028 652.886017,274.766445 652.9381,274.610195 L649.797475,266.297695 L651.3131,266.297695 L653.03185,271.09457 C653.261017,271.709153 653.464142,272.349778 653.641225,273.016445 C653.797475,272.370612 653.990183,271.740403 654.21935,271.12582 L655.984975,266.297695 L657.391225,266.297695 L654.234975,274.735195 C653.901642,275.651862 653.641225,276.28207 653.453725,276.62582 C653.203725,277.084153 652.917267,277.422695 652.59435,277.641445 C652.271433,277.860195 651.886017,277.96957 651.4381,277.96957 C651.167267,277.96957 650.865183,277.912278 650.53185,277.797695 Z" id="Shape" fill="#000000" fill-rule="nonzero"></path>
                <path d="M670.6301,226.4404 L727.92142,205.558518" id="Path" fill-opacity="0" fill="#000000"></path>
                <path d="M670.6301,226.4404 L727.92142,205.558518" id="Path" stroke="#595959" stroke-width="2" stroke-linejoin="round"></path>
                <path d="M670.6301,292.02875 L727.92142,298.989352" id="Path" fill-opacity="0" fill="#000000"></path>
                <path d="M670.6301,292.02875 L727.92142,298.989352" id="Path" stroke="#595959" stroke-width="2" stroke-linejoin="round"></path>
                <path d="M589.6299,259.23456 L535.992144,259.140078" id="Path" fill-opacity="0" fill="#000000"></path>
                <path d="M589.62994,259.23456 L547.992123,259.161226" id="Path" stroke="#595959" stroke-width="2" stroke-linejoin="round"></path>
                <polygon id="Path" stroke="#595959" stroke-width="2" fill="#595959" points="547.9979 255.85776 538.91593 259.145236 547.986243 262.464663"></polygon>
            </g>
        </g>
    </g>
</svg>