<svg width="814" height="144" viewBox="0 0 814 144" fill="none" xmlns="http://www.w3.org/2000/svg">
<g style="mix-blend-mode:lighten" opacity="0.33">
<g clip-path="url(#clip0_1_517)">
<rect x="307" y="36" width="150" height="108" rx="8" fill="white"/>
<g clip-path="url(#clip1_1_517)">
<rect width="150" height="36" transform="translate(307 36)" fill="white" fill-opacity="0.01"/>
<mask id="path-5-inside-1_1_517" fill="white">
<path d="M307 36H357V72H307V36Z"/>
</mask>
<path d="M307 36H357V72H307V36Z" fill="white" fill-opacity="0.01"/>
<path d="M307 36V35H305V36H307ZM307 37H357V35H307V37ZM309 72V36H305V72H309Z" fill="black" fill-opacity="0.38" mask="url(#path-5-inside-1_1_517)"/>
<mask id="path-7-inside-2_1_517" fill="white">
<path d="M357 36H407V72H357V36Z"/>
</mask>
<path d="M357 36H407V72H357V36Z" fill="white" fill-opacity="0.01"/>
<path d="M357 36V35H356V36H357ZM357 37H407V35H357V37ZM358 72V36H356V72H358Z" fill="black" fill-opacity="0.38" mask="url(#path-7-inside-2_1_517)"/>
<mask id="path-9-inside-3_1_517" fill="white">
<path d="M407 36H457V72H407V36Z"/>
</mask>
<path d="M407 36H457V72H407V36Z" fill="white" fill-opacity="0.01"/>
<path d="M407 36V35H406V36H407ZM407 37H457V35H407V37ZM408 72V36H406V72H408Z" fill="black" fill-opacity="0.38" mask="url(#path-9-inside-3_1_517)"/>
</g>
<g clip-path="url(#clip2_1_517)">
<rect width="150" height="36" transform="translate(307 72)" fill="white" fill-opacity="0.01"/>
<mask id="path-11-inside-4_1_517" fill="white">
<path d="M307 72H357V108H307V72Z"/>
</mask>
<path d="M307 72H357V108H307V72Z" fill="white" fill-opacity="0.01"/>
<path d="M307 72V71H305V72H307ZM307 73H357V71H307V73ZM309 108V72H305V108H309Z" fill="black" fill-opacity="0.38" mask="url(#path-11-inside-4_1_517)"/>
<mask id="path-13-inside-5_1_517" fill="white">
<path d="M357 72H407V108H357V72Z"/>
</mask>
<path d="M357 72H407V108H357V72Z" fill="white" fill-opacity="0.01"/>
<path d="M357 72V71H356V72H357ZM357 73H407V71H357V73ZM358 108V72H356V108H358Z" fill="black" fill-opacity="0.38" mask="url(#path-13-inside-5_1_517)"/>
<mask id="path-15-inside-6_1_517" fill="white">
<path d="M407 72H457V108H407V72Z"/>
</mask>
<path d="M407 72H457V108H407V72Z" fill="white" fill-opacity="0.01"/>
<path d="M407 72V71H406V72H407ZM407 73H457V71H407V73ZM408 108V72H406V108H408Z" fill="black" fill-opacity="0.38" mask="url(#path-15-inside-6_1_517)"/>
</g>
<g clip-path="url(#clip3_1_517)">
<rect width="150" height="36" transform="translate(307 108)" fill="white" fill-opacity="0.01"/>
<mask id="path-17-inside-7_1_517" fill="white">
<path d="M307 108H357V144H307V108Z"/>
</mask>
<path d="M307 108H357V144H307V108Z" fill="white" fill-opacity="0.01"/>
<path d="M307 108V107H305V108H307ZM307 109H357V107H307V109ZM309 144V108H305V144H309Z" fill="black" fill-opacity="0.38" mask="url(#path-17-inside-7_1_517)"/>
<mask id="path-19-inside-8_1_517" fill="white">
<path d="M357 108H407V144H357V108Z"/>
</mask>
<path d="M357 108H407V144H357V108Z" fill="white" fill-opacity="0.01"/>
<path d="M357 108V107H356V108H357ZM357 109H407V107H357V109ZM358 144V108H356V144H358Z" fill="black" fill-opacity="0.38" mask="url(#path-19-inside-8_1_517)"/>
<mask id="path-21-inside-9_1_517" fill="white">
<path d="M407 108H457V144H407V108Z"/>
</mask>
<path d="M407 108H457V144H407V108Z" fill="white" fill-opacity="0.01"/>
<path d="M407 108V107H406V108H407ZM407 109H457V107H407V109ZM408 144V108H406V144H408Z" fill="black" fill-opacity="0.38" mask="url(#path-21-inside-9_1_517)"/>
</g>
</g>
<rect x="308.5" y="37.5" width="147" height="105" rx="6.5" stroke="#484848" stroke-width="3"/>
<rect x="307.5" y="36.5" width="149" height="107" stroke="black" stroke-opacity="0.38"/>
</g>
<g clip-path="url(#clip4_1_517)">
<rect width="150" height="144" rx="8" fill="white"/>
<g clip-path="url(#clip5_1_517)">
<rect width="150" height="36" fill="white" fill-opacity="0.01"/>
<mask id="path-25-inside-10_1_517" fill="white">
<path d="M0 0H50V36H0V0Z"/>
</mask>
<path d="M0 0H50V36H0V0Z" fill="white" fill-opacity="0.01"/>
<path d="M0 0V-1H-2V0H0ZM0 1H50V-1H0V1ZM2 36V0H-2V36H2Z" fill="black" mask="url(#path-25-inside-10_1_517)"/>
<mask id="path-27-inside-11_1_517" fill="white">
<path d="M50 0H100V36H50V0Z"/>
</mask>
<path d="M50 0H100V36H50V0Z" fill="white" fill-opacity="0.01"/>
<path d="M50 0V-1H49V0H50ZM50 1H100V-1H50V1ZM51 36V0H49V36H51Z" fill="black" mask="url(#path-27-inside-11_1_517)"/>
<mask id="path-29-inside-12_1_517" fill="white">
<path d="M100 0H150V36H100V0Z"/>
</mask>
<path d="M100 0H150V36H100V0Z" fill="white" fill-opacity="0.01"/>
<path d="M100 0V-1H99V0H100ZM100 1H150V-1H100V1ZM101 36V0H99V36H101Z" fill="black" mask="url(#path-29-inside-12_1_517)"/>
</g>
<g clip-path="url(#clip6_1_517)">
<rect width="150" height="36" transform="translate(0 36)" fill="white" fill-opacity="0.01"/>
<mask id="path-31-inside-13_1_517" fill="white">
<path d="M0 36H50V72H0V36Z"/>
</mask>
<path d="M0 36H50V72H0V36Z" fill="white" fill-opacity="0.01"/>
<path d="M0 36V35H-2V36H0ZM0 37H50V35H0V37ZM2 72V36H-2V72H2Z" fill="black" mask="url(#path-31-inside-13_1_517)"/>
<mask id="path-33-inside-14_1_517" fill="white">
<path d="M50 36H100V72H50V36Z"/>
</mask>
<path d="M50 36H100V72H50V36Z" fill="white" fill-opacity="0.01"/>
<path d="M50 36V35H49V36H50ZM50 37H100V35H50V37ZM51 72V36H49V72H51Z" fill="black" mask="url(#path-33-inside-14_1_517)"/>
<mask id="path-35-inside-15_1_517" fill="white">
<path d="M100 36H150V72H100V36Z"/>
</mask>
<path d="M100 36H150V72H100V36Z" fill="white" fill-opacity="0.01"/>
<path d="M100 36V35H99V36H100ZM100 37H150V35H100V37ZM101 72V36H99V72H101Z" fill="black" mask="url(#path-35-inside-15_1_517)"/>
</g>
<g clip-path="url(#clip7_1_517)">
<rect width="150" height="36" transform="translate(0 72)" fill="white" fill-opacity="0.01"/>
<mask id="path-37-inside-16_1_517" fill="white">
<path d="M0 72H50V108H0V72Z"/>
</mask>
<path d="M0 72H50V108H0V72Z" fill="white" fill-opacity="0.01"/>
<path d="M0 72V71H-2V72H0ZM0 73H50V71H0V73ZM2 108V72H-2V108H2Z" fill="black" mask="url(#path-37-inside-16_1_517)"/>
<mask id="path-39-inside-17_1_517" fill="white">
<path d="M50 72H100V108H50V72Z"/>
</mask>
<path d="M50 72H100V108H50V72Z" fill="white" fill-opacity="0.01"/>
<path d="M50 72V71H49V72H50ZM50 73H100V71H50V73ZM51 108V72H49V108H51Z" fill="black" mask="url(#path-39-inside-17_1_517)"/>
<mask id="path-41-inside-18_1_517" fill="white">
<path d="M100 72H150V108H100V72Z"/>
</mask>
<path d="M100 72H150V108H100V72Z" fill="white" fill-opacity="0.01"/>
<path d="M100 72V71H99V72H100ZM100 73H150V71H100V73ZM101 108V72H99V108H101Z" fill="black" mask="url(#path-41-inside-18_1_517)"/>
</g>
<g clip-path="url(#clip8_1_517)">
<rect width="150" height="36" transform="translate(0 108)" fill="white" fill-opacity="0.01"/>
<mask id="path-43-inside-19_1_517" fill="white">
<path d="M0 108H50V144H0V108Z"/>
</mask>
<path d="M0 108H50V144H0V108Z" fill="white" fill-opacity="0.01"/>
<path d="M0 108V107H-2V108H0ZM0 109H50V107H0V109ZM2 144V108H-2V144H2Z" fill="black" mask="url(#path-43-inside-19_1_517)"/>
<mask id="path-45-inside-20_1_517" fill="white">
<path d="M50 108H100V144H50V108Z"/>
</mask>
<path d="M50 108H100V144H50V108Z" fill="white" fill-opacity="0.01"/>
<path d="M50 108V107H49V108H50ZM50 109H100V107H50V109ZM51 144V108H49V144H51Z" fill="black" mask="url(#path-45-inside-20_1_517)"/>
<mask id="path-47-inside-21_1_517" fill="white">
<path d="M100 108H150V144H100V108Z"/>
</mask>
<path d="M100 108H150V144H100V108Z" fill="white" fill-opacity="0.01"/>
<path d="M100 108V107H99V108H100ZM100 109H150V107H100V109ZM101 144V108H99V144H101Z" fill="black" mask="url(#path-47-inside-21_1_517)"/>
</g>
</g>
<rect x="1.5" y="1.5" width="147" height="141" rx="6.5" stroke="#484848" stroke-width="3"/>
<g clip-path="url(#clip9_1_517)">
<rect x="614" width="200" height="108" rx="8" fill="white"/>
<g clip-path="url(#clip10_1_517)">
<rect width="50" height="108" transform="translate(614)" fill="white"/>
<mask id="path-51-inside-22_1_517" fill="white">
<path d="M614 0H664V36H614V0Z"/>
</mask>
<path d="M614 0H664V36H614V0Z" fill="white" fill-opacity="0.01"/>
<path d="M614 0V-1H612V0H614ZM614 1H664V-1H614V1ZM616 36V0H612V36H616Z" fill="black" mask="url(#path-51-inside-22_1_517)"/>
<mask id="path-53-inside-23_1_517" fill="white">
<path d="M614 36H664V72H614V36Z"/>
</mask>
<path d="M614 36H664V72H614V36Z" fill="white" fill-opacity="0.01"/>
<path d="M614 36V35H612V36H614ZM614 37H664V35H614V37ZM616 72V36H612V72H616Z" fill="black" mask="url(#path-53-inside-23_1_517)"/>
<mask id="path-55-inside-24_1_517" fill="white">
<path d="M614 72H664V108H614V72Z"/>
</mask>
<path d="M614 72H664V108H614V72Z" fill="white" fill-opacity="0.01"/>
<path d="M614 72V71H612V72H614ZM614 73H664V71H614V73ZM616 108V72H612V108H616Z" fill="black" mask="url(#path-55-inside-24_1_517)"/>
</g>
<g clip-path="url(#clip11_1_517)">
<rect width="50" height="108" transform="translate(664)" fill="white" fill-opacity="0.01"/>
<mask id="path-57-inside-25_1_517" fill="white">
<path d="M664 0H714V36H664V0Z"/>
</mask>
<path d="M664 0H714V36H664V0Z" fill="white" fill-opacity="0.01"/>
<path d="M664 0V-1H663V0H664ZM664 1H714V-1H664V1ZM665 36V0H663V36H665Z" fill="black" mask="url(#path-57-inside-25_1_517)"/>
<mask id="path-59-inside-26_1_517" fill="white">
<path d="M664 36H714V72H664V36Z"/>
</mask>
<path d="M664 36H714V72H664V36Z" fill="white" fill-opacity="0.01"/>
<path d="M664 36V35H663V36H664ZM664 37H714V35H664V37ZM665 72V36H663V72H665Z" fill="black" mask="url(#path-59-inside-26_1_517)"/>
<mask id="path-61-inside-27_1_517" fill="white">
<path d="M664 72H714V108H664V72Z"/>
</mask>
<path d="M664 72H714V108H664V72Z" fill="white" fill-opacity="0.01"/>
<path d="M664 72V71H663V72H664ZM664 73H714V71H664V73ZM665 108V72H663V108H665Z" fill="black" mask="url(#path-61-inside-27_1_517)"/>
</g>
<g clip-path="url(#clip12_1_517)">
<rect width="50" height="108" transform="translate(714)" fill="white" fill-opacity="0.01"/>
<mask id="path-63-inside-28_1_517" fill="white">
<path d="M714 0H764V36H714V0Z"/>
</mask>
<path d="M714 0H764V36H714V0Z" fill="white" fill-opacity="0.01"/>
<path d="M714 0V-1H713V0H714ZM714 1H764V-1H714V1ZM715 36V0H713V36H715Z" fill="black" mask="url(#path-63-inside-28_1_517)"/>
<mask id="path-65-inside-29_1_517" fill="white">
<path d="M714 36H764V72H714V36Z"/>
</mask>
<path d="M714 36H764V72H714V36Z" fill="white" fill-opacity="0.01"/>
<path d="M714 36V35H713V36H714ZM714 37H764V35H714V37ZM715 72V36H713V72H715Z" fill="black" mask="url(#path-65-inside-29_1_517)"/>
<mask id="path-67-inside-30_1_517" fill="white">
<path d="M714 72H764V108H714V72Z"/>
</mask>
<path d="M714 72H764V108H714V72Z" fill="white" fill-opacity="0.01"/>
<path d="M714 72V71H713V72H714ZM714 73H764V71H714V73ZM715 108V72H713V108H715Z" fill="black" mask="url(#path-67-inside-30_1_517)"/>
</g>
<g clip-path="url(#clip13_1_517)">
<rect width="50" height="108" transform="translate(764)" fill="#F990C6"/>
<mask id="path-69-inside-31_1_517" fill="white">
<path d="M764 0H814V36H764V0Z"/>
</mask>
<path d="M764 0H814V36H764V0Z" fill="white" fill-opacity="0.01"/>
<path d="M764 0V-1H763V0H764ZM764 1H814V-1H764V1ZM765 36V0H763V36H765Z" fill="black" mask="url(#path-69-inside-31_1_517)"/>
<mask id="path-71-inside-32_1_517" fill="white">
<path d="M764 36H814V72H764V36Z"/>
</mask>
<path d="M764 36H814V72H764V36Z" fill="white" fill-opacity="0.01"/>
<path d="M764 36V35H763V36H764ZM764 37H814V35H764V37ZM765 72V36H763V72H765Z" fill="black" mask="url(#path-71-inside-32_1_517)"/>
<mask id="path-73-inside-33_1_517" fill="white">
<path d="M764 72H814V108H764V72Z"/>
</mask>
<path d="M764 72H814V108H764V72Z" fill="white" fill-opacity="0.01"/>
<path d="M764 72V71H763V72H764ZM764 73H814V71H764V73ZM765 108V72H763V108H765Z" fill="black" mask="url(#path-73-inside-33_1_517)"/>
</g>
</g>
<rect x="615.5" y="1.5" width="197" height="105" rx="6.5" stroke="#484848" stroke-width="3"/>
<path d="M285.233 74.2348C286.744 73.5536 287.416 71.7771 286.735 70.2667L275.635 45.6538C274.954 44.1435 273.177 43.4713 271.667 44.1524C270.156 44.8335 269.484 46.6101 270.165 48.1205L280.032 69.9986L258.154 79.8651C256.643 80.5463 255.971 82.3229 256.652 83.8332C257.334 85.3436 259.11 86.0158 260.62 85.3347L285.233 74.2348ZM168.202 74.2485C199.387 60.6052 246.566 60.5433 282.938 74.3059L285.062 68.6942C247.434 54.4566 198.613 54.3948 165.798 68.7515L168.202 74.2485Z" fill="#484848"/>
<g clip-path="url(#clip14_1_517)">
<rect x="307" width="150" height="108" rx="8" fill="white"/>
<g clip-path="url(#clip15_1_517)">
<rect width="150" height="36" transform="translate(307)" fill="white" fill-opacity="0.01"/>
<mask id="path-78-inside-34_1_517" fill="white">
<path d="M307 0H357V36H307V0Z"/>
</mask>
<path d="M307 0H357V36H307V0Z" fill="white" fill-opacity="0.01"/>
<path d="M307 0V-1H305V0H307ZM307 1H357V-1H307V1ZM309 36V0H305V36H309Z" fill="black" mask="url(#path-78-inside-34_1_517)"/>
<mask id="path-80-inside-35_1_517" fill="white">
<path d="M357 0H407V36H357V0Z"/>
</mask>
<path d="M357 0H407V36H357V0Z" fill="white" fill-opacity="0.01"/>
<path d="M357 0V-1H356V0H357ZM357 1H407V-1H357V1ZM358 36V0H356V36H358Z" fill="black" mask="url(#path-80-inside-35_1_517)"/>
<mask id="path-82-inside-36_1_517" fill="white">
<path d="M407 0H457V36H407V0Z"/>
</mask>
<path d="M407 0H457V36H407V0Z" fill="white" fill-opacity="0.01"/>
<path d="M407 0V-1H406V0H407ZM407 1H457V-1H407V1ZM408 36V0H406V36H408Z" fill="black" mask="url(#path-82-inside-36_1_517)"/>
</g>
<g clip-path="url(#clip16_1_517)">
<rect width="150" height="36" transform="translate(307 36)" fill="white" fill-opacity="0.01"/>
<mask id="path-84-inside-37_1_517" fill="white">
<path d="M307 36H357V72H307V36Z"/>
</mask>
<path d="M307 36H357V72H307V36Z" fill="white" fill-opacity="0.01"/>
<path d="M307 36V35H305V36H307ZM307 37H357V35H307V37ZM309 72V36H305V72H309Z" fill="black" mask="url(#path-84-inside-37_1_517)"/>
<mask id="path-86-inside-38_1_517" fill="white">
<path d="M357 36H407V72H357V36Z"/>
</mask>
<path d="M357 36H407V72H357V36Z" fill="white" fill-opacity="0.01"/>
<path d="M357 36V35H356V36H357ZM357 37H407V35H357V37ZM358 72V36H356V72H358Z" fill="black" mask="url(#path-86-inside-38_1_517)"/>
<mask id="path-88-inside-39_1_517" fill="white">
<path d="M407 36H457V72H407V36Z"/>
</mask>
<path d="M407 36H457V72H407V36Z" fill="white" fill-opacity="0.01"/>
<path d="M407 36V35H406V36H407ZM407 37H457V35H407V37ZM408 72V36H406V72H408Z" fill="black" mask="url(#path-88-inside-39_1_517)"/>
</g>
<g clip-path="url(#clip17_1_517)">
<rect width="150" height="36" transform="translate(307 72)" fill="white" fill-opacity="0.01"/>
<mask id="path-90-inside-40_1_517" fill="white">
<path d="M307 72H357V108H307V72Z"/>
</mask>
<path d="M307 72H357V108H307V72Z" fill="white" fill-opacity="0.01"/>
<path d="M307 72V71H305V72H307ZM307 73H357V71H307V73ZM309 108V72H305V108H309Z" fill="black" mask="url(#path-90-inside-40_1_517)"/>
<mask id="path-92-inside-41_1_517" fill="white">
<path d="M357 72H407V108H357V72Z"/>
</mask>
<path d="M357 72H407V108H357V72Z" fill="white" fill-opacity="0.01"/>
<path d="M357 72V71H356V72H357ZM357 73H407V71H357V73ZM358 108V72H356V108H358Z" fill="black" mask="url(#path-92-inside-41_1_517)"/>
<mask id="path-94-inside-42_1_517" fill="white">
<path d="M407 72H457V108H407V72Z"/>
</mask>
<path d="M407 72H457V108H407V72Z" fill="white" fill-opacity="0.01"/>
<path d="M407 72V71H406V72H407ZM407 73H457V71H407V73ZM408 108V72H406V108H408Z" fill="black" mask="url(#path-94-inside-42_1_517)"/>
</g>
</g>
<rect x="308.5" y="1.5" width="147" height="105" rx="6.5" stroke="#484848" stroke-width="3"/>
<path d="M592.233 74.2348C593.744 73.5536 594.416 71.7771 593.735 70.2667L582.635 45.6538C581.954 44.1435 580.177 43.4713 578.667 44.1524C577.156 44.8335 576.484 46.6101 577.165 48.1205L587.032 69.9986L565.154 79.8651C563.643 80.5463 562.971 82.3229 563.652 83.8332C564.334 85.3436 566.11 86.0158 567.62 85.3347L592.233 74.2348ZM475.202 74.2485C506.387 60.6052 553.566 60.5433 589.938 74.3059L592.062 68.6942C554.434 54.4566 505.613 54.3948 472.798 68.7515L475.202 74.2485Z" fill="#484848"/>
<path d="M468.285 37.8047V15.9375H466.246V37.8047H468.285ZM496.633 33.2344C497.859 33.2344 498.922 32.9961 499.82 32.5195C500.719 32.043 501.375 31.5117 501.789 30.9258L500.16 29.168C499.785 29.6523 499.297 30.0156 498.695 30.2578C498.094 30.5 497.473 30.6211 496.832 30.6211C496.379 30.6211 495.961 30.5508 495.578 30.4102C495.195 30.2695 494.855 30.0703 494.559 29.8125C494.27 29.5625 494.039 29.2852 493.867 28.9805C493.695 28.668 493.555 28.2578 493.445 27.75V27.7148H502.047V26.332C502.047 25.4023 501.918 24.5547 501.66 23.7891C501.402 23.0156 501.027 22.3555 500.535 21.8086C500.035 21.2617 499.426 20.8398 498.707 20.543C497.996 20.2383 497.184 20.0859 496.27 20.0859C495.387 20.0859 494.57 20.2461 493.82 20.5664C493.07 20.8867 492.422 21.3359 491.875 21.9141C491.328 22.4922 490.902 23.1836 490.598 23.9883C490.293 24.7852 490.141 25.668 490.141 26.6367V27.1055C490.141 27.957 490.293 28.7578 490.598 29.5078C490.91 30.25 491.352 30.8945 491.922 31.4414C492.492 31.9961 493.176 32.4336 493.973 32.7539C494.77 33.0742 495.656 33.2344 496.633 33.2344ZM496.246 22.7227C496.66 22.7227 497.023 22.7891 497.336 22.9219C497.656 23.0469 497.926 23.2188 498.145 23.4375C498.363 23.6641 498.535 23.9297 498.66 24.2344C498.785 24.5391 498.848 24.8633 498.848 25.207V25.4648H493.504C493.582 25.0508 493.699 24.6758 493.855 24.3398C494.012 24.0039 494.207 23.7148 494.441 23.4727C494.668 23.2305 494.934 23.0469 495.238 22.9219C495.543 22.7891 495.879 22.7227 496.246 22.7227ZM508.926 33H511.984L516.801 20.3203H513.402L510.625 29.2617L510.449 30.1523L510.273 29.2617L507.484 20.3203H504.086L508.926 33ZM527.23 33H530.535V32.8008C530.371 32.4805 530.246 32.0977 530.16 31.6523C530.074 31.207 530.031 30.6445 530.031 29.9648V24.5273C530.031 23.793 529.895 23.1484 529.621 22.5938C529.348 22.0312 528.969 21.5664 528.484 21.1992C528 20.832 527.426 20.5547 526.762 20.3672C526.105 20.1797 525.395 20.0859 524.629 20.0859C523.777 20.0859 523.02 20.1953 522.355 20.4141C521.699 20.625 521.145 20.9141 520.691 21.2812C520.23 21.6484 519.879 22.0742 519.637 22.5586C519.402 23.043 519.285 23.5547 519.285 24.0938H522.543C522.543 23.8672 522.574 23.6602 522.637 23.4727C522.707 23.2852 522.812 23.125 522.953 22.9922C523.109 22.8438 523.312 22.7305 523.562 22.6523C523.812 22.5664 524.109 22.5234 524.453 22.5234C524.844 22.5234 525.184 22.5742 525.473 22.6758C525.77 22.7695 526.016 22.9062 526.211 23.0859C526.398 23.2578 526.539 23.4648 526.633 23.707C526.727 23.9414 526.773 24.207 526.773 24.5039V25.2539H524.957C524.02 25.2539 523.188 25.3398 522.461 25.5117C521.742 25.6758 521.137 25.918 520.645 26.2383C520.098 26.5898 519.688 27.0391 519.414 27.5859C519.141 28.125 519.004 28.7461 519.004 29.4492C519.004 29.9961 519.113 30.5039 519.332 30.9727C519.551 31.4336 519.855 31.832 520.246 32.168C520.637 32.5039 521.102 32.7656 521.641 32.9531C522.188 33.1406 522.785 33.2344 523.434 33.2344C523.832 33.2344 524.203 33.1953 524.547 33.1172C524.891 33.0469 525.207 32.9453 525.496 32.8125C525.777 32.6875 526.035 32.5391 526.27 32.3672C526.504 32.1953 526.711 32.0117 526.891 31.8164C526.93 32.043 526.977 32.2578 527.031 32.4609C527.086 32.6641 527.152 32.8438 527.23 33ZM524.125 30.7148C523.82 30.7148 523.551 30.6797 523.316 30.6094C523.09 30.5312 522.898 30.4297 522.742 30.3047C522.586 30.1719 522.465 30.0117 522.379 29.8242C522.301 29.6289 522.262 29.418 522.262 29.1914C522.262 28.9023 522.316 28.6367 522.426 28.3945C522.535 28.1445 522.703 27.9297 522.93 27.75C523.156 27.5781 523.449 27.4453 523.809 27.3516C524.168 27.25 524.602 27.1992 525.109 27.1992H526.773V29.3789C526.68 29.543 526.551 29.707 526.387 29.8711C526.223 30.0273 526.027 30.168 525.801 30.293C525.574 30.418 525.32 30.5195 525.039 30.5977C524.758 30.6758 524.453 30.7148 524.125 30.7148ZM534.402 15V17.6602H538.199V30.3516H534.402V33H545.125V30.3516H541.492V15H534.402ZM565.844 31.1133C565.844 31.7148 566.047 32.2188 566.453 32.625C566.859 33.0312 567.41 33.2344 568.105 33.2344C568.793 33.2344 569.34 33.0352 569.746 32.6367C570.16 32.2305 570.367 31.7227 570.367 31.1133C570.367 30.5039 570.164 29.9922 569.758 29.5781C569.359 29.1641 568.809 28.957 568.105 28.957C567.395 28.957 566.84 29.168 566.441 29.5898C566.043 30.0039 565.844 30.5117 565.844 31.1133ZM580.258 31.1133C580.258 31.7148 580.461 32.2188 580.867 32.625C581.273 33.0312 581.824 33.2344 582.52 33.2344C583.207 33.2344 583.754 33.0352 584.16 32.6367C584.574 32.2305 584.781 31.7227 584.781 31.1133C584.781 30.5039 584.578 29.9922 584.172 29.5781C583.773 29.1641 583.223 28.957 582.52 28.957C581.809 28.957 581.254 29.168 580.855 29.5898C580.457 30.0039 580.258 30.5117 580.258 31.1133ZM594.672 31.1133C594.672 31.7148 594.875 32.2188 595.281 32.625C595.688 33.0312 596.238 33.2344 596.934 33.2344C597.621 33.2344 598.168 33.0352 598.574 32.6367C598.988 32.2305 599.195 31.7227 599.195 31.1133C599.195 30.5039 598.992 29.9922 598.586 29.5781C598.188 29.1641 597.637 28.957 596.934 28.957C596.223 28.957 595.668 29.168 595.27 29.5898C594.871 30.0039 594.672 30.5117 594.672 31.1133Z" fill="#484848"/>
<path d="M168.074 37.6641V15.9375H166.328V37.6641H168.074ZM191.16 15V17.6602H194.957V30.3516H191.16V33H201.883V30.3516H198.25V15H191.16ZM205.762 20.3203V22.9805H209.371V30.3516H205.762V33H216.098V30.3516H212.664V20.3203H205.762ZM209.137 17.0742C209.137 17.3242 209.18 17.5586 209.266 17.7773C209.359 17.9883 209.488 18.168 209.652 18.3164C209.816 18.4727 210.012 18.5938 210.238 18.6797C210.473 18.7656 210.73 18.8086 211.012 18.8086C211.59 18.8086 212.047 18.6484 212.383 18.3281C212.727 18 212.898 17.582 212.898 17.0742C212.898 16.5664 212.727 16.1523 212.383 15.832C212.047 15.5039 211.59 15.3398 211.012 15.3398C210.73 15.3398 210.473 15.3828 210.238 15.4688C210.012 15.5547 209.816 15.6719 209.652 15.8203C209.488 15.9766 209.359 16.1641 209.266 16.3828C209.18 16.5938 209.137 16.8242 209.137 17.0742ZM221.336 20.3203H218.535V33H221.5V23.5078C221.539 23.4062 221.582 23.3125 221.629 23.2266C221.676 23.1406 221.73 23.0664 221.793 23.0039C221.879 22.918 221.977 22.8516 222.086 22.8047C222.195 22.7578 222.32 22.7344 222.461 22.7344C222.586 22.7344 222.703 22.7539 222.812 22.793C222.922 22.8242 223.02 22.8828 223.105 22.9688C223.184 23.0547 223.246 23.1758 223.293 23.332C223.34 23.4883 223.363 23.6875 223.363 23.9297V33H226.234V23.6484C226.234 23.5547 226.234 23.4805 226.234 23.4258C226.234 23.3711 226.234 23.3359 226.234 23.3203C226.273 23.2344 226.32 23.1602 226.375 23.0977C226.43 23.0273 226.492 22.9648 226.562 22.9102C226.648 22.8555 226.738 22.8125 226.832 22.7812C226.934 22.75 227.047 22.7344 227.172 22.7344C227.289 22.7344 227.402 22.7539 227.512 22.793C227.629 22.8242 227.73 22.8828 227.816 22.9688C227.902 23.0625 227.969 23.1875 228.016 23.3438C228.07 23.5 228.098 23.6992 228.098 23.9414V33H231.062V23.9531C231.062 23.25 230.992 22.6562 230.852 22.1719C230.719 21.6797 230.531 21.2773 230.289 20.9648C230.039 20.6602 229.746 20.4375 229.41 20.2969C229.082 20.1562 228.727 20.0859 228.344 20.0859C228.039 20.0859 227.758 20.125 227.5 20.2031C227.242 20.2812 227.012 20.3906 226.809 20.5312C226.645 20.6406 226.492 20.7734 226.352 20.9297C226.219 21.0781 226.098 21.2461 225.988 21.4336C225.918 21.2383 225.832 21.0664 225.73 20.918C225.637 20.7617 225.523 20.6289 225.391 20.5195C225.219 20.3711 225.016 20.2617 224.781 20.1914C224.547 20.1211 224.281 20.0859 223.984 20.0859C223.375 20.0859 222.855 20.2461 222.426 20.5664C222.004 20.8789 221.672 21.3086 221.43 21.8555L221.336 20.3203ZM234.59 20.3203V22.9805H238.199V30.3516H234.59V33H244.926V30.3516H241.492V20.3203H234.59ZM237.965 17.0742C237.965 17.3242 238.008 17.5586 238.094 17.7773C238.188 17.9883 238.316 18.168 238.48 18.3164C238.645 18.4727 238.84 18.5938 239.066 18.6797C239.301 18.7656 239.559 18.8086 239.84 18.8086C240.418 18.8086 240.875 18.6484 241.211 18.3281C241.555 18 241.727 17.582 241.727 17.0742C241.727 16.5664 241.555 16.1523 241.211 15.832C240.875 15.5039 240.418 15.3398 239.84 15.3398C239.559 15.3398 239.301 15.3828 239.066 15.4688C238.84 15.5547 238.645 15.6719 238.48 15.8203C238.316 15.9766 238.188 16.1641 238.094 16.3828C238.008 16.5938 237.965 16.8242 237.965 17.0742ZM254.113 17.2148H250.855V20.3203H247.961V22.7227H250.855V28.4883C250.855 29.3242 250.965 30.043 251.184 30.6445C251.402 31.2383 251.715 31.7266 252.121 32.1094C252.52 32.5 253 32.7891 253.562 32.9766C254.133 33.1562 254.766 33.2461 255.461 33.2461C255.82 33.2461 256.184 33.2266 256.551 33.1875C256.926 33.1562 257.285 33.1094 257.629 33.0469C257.973 32.9844 258.297 32.9062 258.602 32.8125C258.906 32.7109 259.172 32.5938 259.398 32.4609L259.082 30.2227C258.934 30.2617 258.754 30.3008 258.543 30.3398C258.34 30.3789 258.121 30.4141 257.887 30.4453C257.645 30.4844 257.391 30.5156 257.125 30.5391C256.867 30.5625 256.613 30.5742 256.363 30.5742C256.02 30.5742 255.707 30.5352 255.426 30.457C255.152 30.3789 254.918 30.2461 254.723 30.0586C254.527 29.8789 254.375 29.6367 254.266 29.332C254.164 29.0195 254.113 28.6328 254.113 28.1719V22.7227H258.848V20.3203H254.113V17.2148ZM280.246 23.0391V25.5703H282.016C282.461 25.5703 282.859 25.6211 283.211 25.7227C283.57 25.8242 283.879 25.9805 284.137 26.1914C284.387 26.4023 284.578 26.6719 284.711 27C284.844 27.3281 284.91 27.7227 284.91 28.1836C284.91 28.5508 284.852 28.8828 284.734 29.1797C284.625 29.4766 284.461 29.7266 284.242 29.9297C284.016 30.1562 283.734 30.3281 283.398 30.4453C283.062 30.5625 282.684 30.6211 282.262 30.6211C281.887 30.6211 281.543 30.5664 281.23 30.457C280.918 30.3398 280.648 30.1797 280.422 29.9766C280.188 29.7812 280.008 29.5469 279.883 29.2734C279.758 28.9922 279.695 28.6875 279.695 28.3594H276.438C276.438 29.1875 276.598 29.9062 276.918 30.5156C277.246 31.125 277.68 31.6289 278.219 32.0273C278.758 32.4336 279.371 32.7383 280.059 32.9414C280.754 33.1367 281.465 33.2344 282.191 33.2344C283.035 33.2344 283.82 33.125 284.547 32.9062C285.281 32.6797 285.914 32.3516 286.445 31.9219C286.977 31.5 287.395 30.9766 287.699 30.3516C288.004 29.7266 288.156 29.0156 288.156 28.2188C288.156 27.7656 288.102 27.3359 287.992 26.9297C287.883 26.5234 287.715 26.1484 287.488 25.8047C287.262 25.4688 286.973 25.168 286.621 24.9023C286.277 24.6367 285.867 24.418 285.391 24.2461C285.797 24.0508 286.156 23.8203 286.469 23.5547C286.781 23.2812 287.043 22.9844 287.254 22.6641C287.465 22.3438 287.625 22.0078 287.734 21.6562C287.844 21.2969 287.898 20.9336 287.898 20.5664C287.898 19.7695 287.758 19.0703 287.477 18.4688C287.203 17.8594 286.816 17.3477 286.316 16.9336C285.816 16.5273 285.215 16.2227 284.512 16.0195C283.809 15.8086 283.035 15.7031 282.191 15.7031C281.41 15.7031 280.68 15.8164 280 16.043C279.328 16.2695 278.742 16.5859 278.242 16.9922C277.742 17.4062 277.348 17.8984 277.059 18.4688C276.777 19.0391 276.637 19.6719 276.637 20.3672H279.895C279.895 20.0547 279.957 19.7734 280.082 19.5234C280.207 19.2734 280.379 19.0586 280.598 18.8789C280.809 18.707 281.055 18.5742 281.336 18.4805C281.625 18.3867 281.934 18.3398 282.262 18.3398C282.66 18.3398 283.008 18.3945 283.305 18.5039C283.609 18.6133 283.859 18.7656 284.055 18.9609C284.25 19.1641 284.395 19.4062 284.488 19.6875C284.59 19.9609 284.641 20.2656 284.641 20.6016C284.641 20.9453 284.59 21.2656 284.488 21.5625C284.395 21.8516 284.25 22.0977 284.055 22.3008C283.844 22.5352 283.566 22.7188 283.223 22.8516C282.887 22.9766 282.484 23.0391 282.016 23.0391H280.246Z" fill="#484848"/>
<defs>
<clipPath id="clip0_1_517">
<rect x="307" y="36" width="150" height="108" rx="8" fill="white"/>
</clipPath>
<clipPath id="clip1_1_517">
<rect width="150" height="36" fill="white" transform="translate(307 36)"/>
</clipPath>
<clipPath id="clip2_1_517">
<rect width="150" height="36" fill="white" transform="translate(307 72)"/>
</clipPath>
<clipPath id="clip3_1_517">
<rect width="150" height="36" fill="white" transform="translate(307 108)"/>
</clipPath>
<clipPath id="clip4_1_517">
<rect width="150" height="144" rx="8" fill="white"/>
</clipPath>
<clipPath id="clip5_1_517">
<rect width="150" height="36" fill="white"/>
</clipPath>
<clipPath id="clip6_1_517">
<rect width="150" height="36" fill="white" transform="translate(0 36)"/>
</clipPath>
<clipPath id="clip7_1_517">
<rect width="150" height="36" fill="white" transform="translate(0 72)"/>
</clipPath>
<clipPath id="clip8_1_517">
<rect width="150" height="36" fill="white" transform="translate(0 108)"/>
</clipPath>
<clipPath id="clip9_1_517">
<rect x="614" width="200" height="108" rx="8" fill="white"/>
</clipPath>
<clipPath id="clip10_1_517">
<rect width="50" height="108" fill="white" transform="translate(614)"/>
</clipPath>
<clipPath id="clip11_1_517">
<rect width="50" height="108" fill="white" transform="translate(664)"/>
</clipPath>
<clipPath id="clip12_1_517">
<rect width="50" height="108" fill="white" transform="translate(714)"/>
</clipPath>
<clipPath id="clip13_1_517">
<rect width="50" height="108" fill="white" transform="translate(764)"/>
</clipPath>
<clipPath id="clip14_1_517">
<rect x="307" width="150" height="108" rx="8" fill="white"/>
</clipPath>
<clipPath id="clip15_1_517">
<rect width="150" height="36" fill="white" transform="translate(307)"/>
</clipPath>
<clipPath id="clip16_1_517">
<rect width="150" height="36" fill="white" transform="translate(307 36)"/>
</clipPath>
<clipPath id="clip17_1_517">
<rect width="150" height="36" fill="white" transform="translate(307 72)"/>
</clipPath>
</defs>
</svg>
