<svg width="814" height="144" viewBox="0 0 814 144" fill="none" xmlns="http://www.w3.org/2000/svg">
<g style="mix-blend-mode:lighten" opacity="0.33">
<g clip-path="url(#clip0_1_517)">
<rect x="307" y="36" width="150" height="108" rx="8" fill="white"/>
<g clip-path="url(#clip1_1_517)">
<rect width="150" height="36" transform="translate(307 36)" fill="white" fill-opacity="0.01"/>
<mask id="path-4-inside-1_1_517" fill="white">
<path d="M307 36H357V72H307V36Z"/>
</mask>
<path d="M307 36H357V72H307V36Z" fill="white" fill-opacity="0.01"/>
<path d="M307 36V35H305V36H307ZM307 37H357V35H307V37ZM309 72V36H305V72H309Z" fill="black" fill-opacity="0.38" mask="url(#path-4-inside-1_1_517)"/>
<mask id="path-6-inside-2_1_517" fill="white">
<path d="M357 36H407V72H357V36Z"/>
</mask>
<path d="M357 36H407V72H357V36Z" fill="white" fill-opacity="0.01"/>
<path d="M357 36V35H356V36H357ZM357 37H407V35H357V37ZM358 72V36H356V72H358Z" fill="black" fill-opacity="0.38" mask="url(#path-6-inside-2_1_517)"/>
<mask id="path-8-inside-3_1_517" fill="white">
<path d="M407 36H457V72H407V36Z"/>
</mask>
<path d="M407 36H457V72H407V36Z" fill="white" fill-opacity="0.01"/>
<path d="M407 36V35H406V36H407ZM407 37H457V35H407V37ZM408 72V36H406V72H408Z" fill="black" fill-opacity="0.38" mask="url(#path-8-inside-3_1_517)"/>
</g>
<g clip-path="url(#clip2_1_517)">
<rect width="150" height="36" transform="translate(307 72)" fill="white" fill-opacity="0.01"/>
<mask id="path-10-inside-4_1_517" fill="white">
<path d="M307 72H357V108H307V72Z"/>
</mask>
<path d="M307 72H357V108H307V72Z" fill="white" fill-opacity="0.01"/>
<path d="M307 72V71H305V72H307ZM307 73H357V71H307V73ZM309 108V72H305V108H309Z" fill="black" fill-opacity="0.38" mask="url(#path-10-inside-4_1_517)"/>
<mask id="path-12-inside-5_1_517" fill="white">
<path d="M357 72H407V108H357V72Z"/>
</mask>
<path d="M357 72H407V108H357V72Z" fill="white" fill-opacity="0.01"/>
<path d="M357 72V71H356V72H357ZM357 73H407V71H357V73ZM358 108V72H356V108H358Z" fill="black" fill-opacity="0.38" mask="url(#path-12-inside-5_1_517)"/>
<mask id="path-14-inside-6_1_517" fill="white">
<path d="M407 72H457V108H407V72Z"/>
</mask>
<path d="M407 72H457V108H407V72Z" fill="white" fill-opacity="0.01"/>
<path d="M407 72V71H406V72H407ZM407 73H457V71H407V73ZM408 108V72H406V108H408Z" fill="black" fill-opacity="0.38" mask="url(#path-14-inside-6_1_517)"/>
</g>
<g clip-path="url(#clip3_1_517)">
<rect width="150" height="36" transform="translate(307 108)" fill="white" fill-opacity="0.01"/>
<mask id="path-16-inside-7_1_517" fill="white">
<path d="M307 108H357V144H307V108Z"/>
</mask>
<path d="M307 108H357V144H307V108Z" fill="white" fill-opacity="0.01"/>
<path d="M307 108V107H305V108H307ZM307 109H357V107H307V109ZM309 144V108H305V144H309Z" fill="black" fill-opacity="0.38" mask="url(#path-16-inside-7_1_517)"/>
<mask id="path-18-inside-8_1_517" fill="white">
<path d="M357 108H407V144H357V108Z"/>
</mask>
<path d="M357 108H407V144H357V108Z" fill="white" fill-opacity="0.01"/>
<path d="M357 108V107H356V108H357ZM357 109H407V107H357V109ZM358 144V108H356V144H358Z" fill="black" fill-opacity="0.38" mask="url(#path-18-inside-8_1_517)"/>
<mask id="path-20-inside-9_1_517" fill="white">
<path d="M407 108H457V144H407V108Z"/>
</mask>
<path d="M407 108H457V144H407V108Z" fill="white" fill-opacity="0.01"/>
<path d="M407 108V107H406V108H407ZM407 109H457V107H407V109ZM408 144V108H406V144H408Z" fill="black" fill-opacity="0.38" mask="url(#path-20-inside-9_1_517)"/>
</g>
</g>
<rect x="308.5" y="37.5" width="147" height="105" rx="6.5" stroke="#484848" stroke-width="3"/>
</g>
<g clip-path="url(#clip4_1_517)">
<rect width="150" height="144" rx="8" fill="white"/>
<g clip-path="url(#clip5_1_517)">
<rect width="150" height="36" fill="white" fill-opacity="0.01"/>
<mask id="path-24-inside-10_1_517" fill="white">
<path d="M0 0H50V36H0V0Z"/>
</mask>
<path d="M0 0H50V36H0V0Z" fill="white" fill-opacity="0.01"/>
<path d="M0 0V-1H-2V0H0ZM0 1H50V-1H0V1ZM2 36V0H-2V36H2Z" fill="black" mask="url(#path-24-inside-10_1_517)"/>
<mask id="path-26-inside-11_1_517" fill="white">
<path d="M50 0H100V36H50V0Z"/>
</mask>
<path d="M50 0H100V36H50V0Z" fill="white" fill-opacity="0.01"/>
<path d="M50 0V-1H49V0H50ZM50 1H100V-1H50V1ZM51 36V0H49V36H51Z" fill="black" mask="url(#path-26-inside-11_1_517)"/>
<mask id="path-28-inside-12_1_517" fill="white">
<path d="M100 0H150V36H100V0Z"/>
</mask>
<path d="M100 0H150V36H100V0Z" fill="white" fill-opacity="0.01"/>
<path d="M100 0V-1H99V0H100ZM100 1H150V-1H100V1ZM101 36V0H99V36H101Z" fill="black" mask="url(#path-28-inside-12_1_517)"/>
</g>
<g clip-path="url(#clip6_1_517)">
<rect width="150" height="36" transform="translate(0 36)" fill="white" fill-opacity="0.01"/>
<mask id="path-30-inside-13_1_517" fill="white">
<path d="M0 36H50V72H0V36Z"/>
</mask>
<path d="M0 36H50V72H0V36Z" fill="white" fill-opacity="0.01"/>
<path d="M0 36V35H-2V36H0ZM0 37H50V35H0V37ZM2 72V36H-2V72H2Z" fill="black" mask="url(#path-30-inside-13_1_517)"/>
<mask id="path-32-inside-14_1_517" fill="white">
<path d="M50 36H100V72H50V36Z"/>
</mask>
<path d="M50 36H100V72H50V36Z" fill="white" fill-opacity="0.01"/>
<path d="M50 36V35H49V36H50ZM50 37H100V35H50V37ZM51 72V36H49V72H51Z" fill="black" mask="url(#path-32-inside-14_1_517)"/>
<mask id="path-34-inside-15_1_517" fill="white">
<path d="M100 36H150V72H100V36Z"/>
</mask>
<path d="M100 36H150V72H100V36Z" fill="white" fill-opacity="0.01"/>
<path d="M100 36V35H99V36H100ZM100 37H150V35H100V37ZM101 72V36H99V72H101Z" fill="black" mask="url(#path-34-inside-15_1_517)"/>
</g>
<g clip-path="url(#clip7_1_517)">
<rect width="150" height="36" transform="translate(0 72)" fill="white" fill-opacity="0.01"/>
<mask id="path-36-inside-16_1_517" fill="white">
<path d="M0 72H50V108H0V72Z"/>
</mask>
<path d="M0 72H50V108H0V72Z" fill="white" fill-opacity="0.01"/>
<path d="M0 72V71H-2V72H0ZM0 73H50V71H0V73ZM2 108V72H-2V108H2Z" fill="black" mask="url(#path-36-inside-16_1_517)"/>
<mask id="path-38-inside-17_1_517" fill="white">
<path d="M50 72H100V108H50V72Z"/>
</mask>
<path d="M50 72H100V108H50V72Z" fill="white" fill-opacity="0.01"/>
<path d="M50 72V71H49V72H50ZM50 73H100V71H50V73ZM51 108V72H49V108H51Z" fill="black" mask="url(#path-38-inside-17_1_517)"/>
<mask id="path-40-inside-18_1_517" fill="white">
<path d="M100 72H150V108H100V72Z"/>
</mask>
<path d="M100 72H150V108H100V72Z" fill="white" fill-opacity="0.01"/>
<path d="M100 72V71H99V72H100ZM100 73H150V71H100V73ZM101 108V72H99V108H101Z" fill="black" mask="url(#path-40-inside-18_1_517)"/>
</g>
<g clip-path="url(#clip8_1_517)">
<rect width="150" height="36" transform="translate(0 108)" fill="white" fill-opacity="0.01"/>
<mask id="path-42-inside-19_1_517" fill="white">
<path d="M0 108H50V144H0V108Z"/>
</mask>
<path d="M0 108H50V144H0V108Z" fill="white" fill-opacity="0.01"/>
<path d="M0 108V107H-2V108H0ZM0 109H50V107H0V109ZM2 144V108H-2V144H2Z" fill="black" mask="url(#path-42-inside-19_1_517)"/>
<mask id="path-44-inside-20_1_517" fill="white">
<path d="M50 108H100V144H50V108Z"/>
</mask>
<path d="M50 108H100V144H50V108Z" fill="white" fill-opacity="0.01"/>
<path d="M50 108V107H49V108H50ZM50 109H100V107H50V109ZM51 144V108H49V144H51Z" fill="black" mask="url(#path-44-inside-20_1_517)"/>
<mask id="path-46-inside-21_1_517" fill="white">
<path d="M100 108H150V144H100V108Z"/>
</mask>
<path d="M100 108H150V144H100V108Z" fill="white" fill-opacity="0.01"/>
<path d="M100 108V107H99V108H100ZM100 109H150V107H100V109ZM101 144V108H99V144H101Z" fill="black" mask="url(#path-46-inside-21_1_517)"/>
</g>
</g>
<rect x="1.5" y="1.5" width="147" height="141" rx="6.5" stroke="#484848" stroke-width="3"/>
<g clip-path="url(#clip9_1_517)">
<rect x="614" width="200" height="108" rx="8" fill="white"/>
<g clip-path="url(#clip10_1_517)">
<rect width="50" height="108" transform="translate(614)" fill="white"/>
<mask id="path-50-inside-22_1_517" fill="white">
<path d="M614 0H664V36H614V0Z"/>
</mask>
<path d="M614 0H664V36H614V0Z" fill="white" fill-opacity="0.01"/>
<path d="M614 0V-1H612V0H614ZM614 1H664V-1H614V1ZM616 36V0H612V36H616Z" fill="black" mask="url(#path-50-inside-22_1_517)"/>
<mask id="path-52-inside-23_1_517" fill="white">
<path d="M614 36H664V72H614V36Z"/>
</mask>
<path d="M614 36H664V72H614V36Z" fill="white" fill-opacity="0.01"/>
<path d="M614 36V35H612V36H614ZM614 37H664V35H614V37ZM616 72V36H612V72H616Z" fill="black" mask="url(#path-52-inside-23_1_517)"/>
<mask id="path-54-inside-24_1_517" fill="white">
<path d="M614 72H664V108H614V72Z"/>
</mask>
<path d="M614 72H664V108H614V72Z" fill="white" fill-opacity="0.01"/>
<path d="M614 72V71H612V72H614ZM614 73H664V71H614V73ZM616 108V72H612V108H616Z" fill="black" mask="url(#path-54-inside-24_1_517)"/>
</g>
<g clip-path="url(#clip11_1_517)">
<rect width="50" height="108" transform="translate(664)" fill="white" fill-opacity="0.01"/>
<mask id="path-56-inside-25_1_517" fill="white">
<path d="M664 0H714V36H664V0Z"/>
</mask>
<path d="M664 0H714V36H664V0Z" fill="white" fill-opacity="0.01"/>
<path d="M664 0V-1H663V0H664ZM664 1H714V-1H664V1ZM665 36V0H663V36H665Z" fill="black" mask="url(#path-56-inside-25_1_517)"/>
<mask id="path-58-inside-26_1_517" fill="white">
<path d="M664 36H714V72H664V36Z"/>
</mask>
<path d="M664 36H714V72H664V36Z" fill="white" fill-opacity="0.01"/>
<path d="M664 36V35H663V36H664ZM664 37H714V35H664V37ZM665 72V36H663V72H665Z" fill="black" mask="url(#path-58-inside-26_1_517)"/>
<mask id="path-60-inside-27_1_517" fill="white">
<path d="M664 72H714V108H664V72Z"/>
</mask>
<path d="M664 72H714V108H664V72Z" fill="white" fill-opacity="0.01"/>
<path d="M664 72V71H663V72H664ZM664 73H714V71H664V73ZM665 108V72H663V108H665Z" fill="black" mask="url(#path-60-inside-27_1_517)"/>
</g>
<g clip-path="url(#clip12_1_517)">
<rect width="50" height="108" transform="translate(714)" fill="white" fill-opacity="0.01"/>
<mask id="path-62-inside-28_1_517" fill="white">
<path d="M714 0H764V36H714V0Z"/>
</mask>
<path d="M714 0H764V36H714V0Z" fill="white" fill-opacity="0.01"/>
<path d="M714 0V-1H713V0H714ZM714 1H764V-1H714V1ZM715 36V0H713V36H715Z" fill="black" mask="url(#path-62-inside-28_1_517)"/>
<mask id="path-64-inside-29_1_517" fill="white">
<path d="M714 36H764V72H714V36Z"/>
</mask>
<path d="M714 36H764V72H714V36Z" fill="white" fill-opacity="0.01"/>
<path d="M714 36V35H713V36H714ZM714 37H764V35H714V37ZM715 72V36H713V72H715Z" fill="black" mask="url(#path-64-inside-29_1_517)"/>
<mask id="path-66-inside-30_1_517" fill="white">
<path d="M714 72H764V108H714V72Z"/>
</mask>
<path d="M714 72H764V108H714V72Z" fill="white" fill-opacity="0.01"/>
<path d="M714 72V71H713V72H714ZM714 73H764V71H714V73ZM715 108V72H713V108H715Z" fill="black" mask="url(#path-66-inside-30_1_517)"/>
</g>
<g clip-path="url(#clip13_1_517)">
<rect width="50" height="108" transform="translate(764)" fill="#F990C6"/>
<mask id="path-68-inside-31_1_517" fill="white">
<path d="M764 0H814V36H764V0Z"/>
</mask>
<path d="M764 0H814V36H764V0Z" fill="white" fill-opacity="0.01"/>
<path d="M764 0V-1H763V0H764ZM764 1H814V-1H764V1ZM765 36V0H763V36H765Z" fill="black" mask="url(#path-68-inside-31_1_517)"/>
<mask id="path-70-inside-32_1_517" fill="white">
<path d="M764 36H814V72H764V36Z"/>
</mask>
<path d="M764 36H814V72H764V36Z" fill="white" fill-opacity="0.01"/>
<path d="M764 36V35H763V36H764ZM764 37H814V35H764V37ZM765 72V36H763V72H765Z" fill="black" mask="url(#path-70-inside-32_1_517)"/>
<mask id="path-72-inside-33_1_517" fill="white">
<path d="M764 72H814V108H764V72Z"/>
</mask>
<path d="M764 72H814V108H764V72Z" fill="white" fill-opacity="0.01"/>
<path d="M764 72V71H763V72H764ZM764 73H814V71H764V73ZM765 108V72H763V108H765Z" fill="black" mask="url(#path-72-inside-33_1_517)"/>
</g>
</g>
<rect x="615.5" y="1.5" width="197" height="105" rx="6.5" stroke="#484848" stroke-width="3"/>
<path d="M285.233 74.2348C286.744 73.5536 287.416 71.7771 286.735 70.2667L275.635 45.6538C274.954 44.1435 273.177 43.4713 271.667 44.1524C270.156 44.8335 269.484 46.6101 270.165 48.1205L280.032 69.9986L258.154 79.8651C256.643 80.5463 255.971 82.3229 256.652 83.8332C257.334 85.3436 259.11 86.0158 260.62 85.3347L285.233 74.2348ZM168.202 74.2485C199.387 60.6052 246.566 60.5433 282.938 74.3059L285.062 68.6942C247.434 54.4566 198.613 54.3948 165.798 68.7515L168.202 74.2485Z" fill="#484848"/>
<g clip-path="url(#clip14_1_517)">
<rect x="307" width="150" height="108" rx="8" fill="white"/>
<g clip-path="url(#clip15_1_517)">
<rect width="150" height="36" transform="translate(307)" fill="white" fill-opacity="0.01"/>
<mask id="path-77-inside-34_1_517" fill="white">
<path d="M307 0H357V36H307V0Z"/>
</mask>
<path d="M307 0H357V36H307V0Z" fill="white" fill-opacity="0.01"/>
<path d="M307 0V-1H305V0H307ZM307 1H357V-1H307V1ZM309 36V0H305V36H309Z" fill="black" mask="url(#path-77-inside-34_1_517)"/>
<mask id="path-79-inside-35_1_517" fill="white">
<path d="M357 0H407V36H357V0Z"/>
</mask>
<path d="M357 0H407V36H357V0Z" fill="white" fill-opacity="0.01"/>
<path d="M357 0V-1H356V0H357ZM357 1H407V-1H357V1ZM358 36V0H356V36H358Z" fill="black" mask="url(#path-79-inside-35_1_517)"/>
<mask id="path-81-inside-36_1_517" fill="white">
<path d="M407 0H457V36H407V0Z"/>
</mask>
<path d="M407 0H457V36H407V0Z" fill="white" fill-opacity="0.01"/>
<path d="M407 0V-1H406V0H407ZM407 1H457V-1H407V1ZM408 36V0H406V36H408Z" fill="black" mask="url(#path-81-inside-36_1_517)"/>
</g>
<g clip-path="url(#clip16_1_517)">
<rect width="150" height="36" transform="translate(307 36)" fill="white" fill-opacity="0.01"/>
<mask id="path-83-inside-37_1_517" fill="white">
<path d="M307 36H357V72H307V36Z"/>
</mask>
<path d="M307 36H357V72H307V36Z" fill="white" fill-opacity="0.01"/>
<path d="M307 36V35H305V36H307ZM307 37H357V35H307V37ZM309 72V36H305V72H309Z" fill="black" mask="url(#path-83-inside-37_1_517)"/>
<mask id="path-85-inside-38_1_517" fill="white">
<path d="M357 36H407V72H357V36Z"/>
</mask>
<path d="M357 36H407V72H357V36Z" fill="white" fill-opacity="0.01"/>
<path d="M357 36V35H356V36H357ZM357 37H407V35H357V37ZM358 72V36H356V72H358Z" fill="black" mask="url(#path-85-inside-38_1_517)"/>
<mask id="path-87-inside-39_1_517" fill="white">
<path d="M407 36H457V72H407V36Z"/>
</mask>
<path d="M407 36H457V72H407V36Z" fill="white" fill-opacity="0.01"/>
<path d="M407 36V35H406V36H407ZM407 37H457V35H407V37ZM408 72V36H406V72H408Z" fill="black" mask="url(#path-87-inside-39_1_517)"/>
</g>
<g clip-path="url(#clip17_1_517)">
<rect width="150" height="36" transform="translate(307 72)" fill="white" fill-opacity="0.01"/>
<mask id="path-89-inside-40_1_517" fill="white">
<path d="M307 72H357V108H307V72Z"/>
</mask>
<path d="M307 72H357V108H307V72Z" fill="white" fill-opacity="0.01"/>
<path d="M307 72V71H305V72H307ZM307 73H357V71H307V73ZM309 108V72H305V108H309Z" fill="black" mask="url(#path-89-inside-40_1_517)"/>
<mask id="path-91-inside-41_1_517" fill="white">
<path d="M357 72H407V108H357V72Z"/>
</mask>
<path d="M357 72H407V108H357V72Z" fill="white" fill-opacity="0.01"/>
<path d="M357 72V71H356V72H357ZM357 73H407V71H357V73ZM358 108V72H356V108H358Z" fill="black" mask="url(#path-91-inside-41_1_517)"/>
<mask id="path-93-inside-42_1_517" fill="white">
<path d="M407 72H457V108H407V72Z"/>
</mask>
<path d="M407 72H457V108H407V72Z" fill="white" fill-opacity="0.01"/>
<path d="M407 72V71H406V72H407ZM407 73H457V71H407V73ZM408 108V72H406V108H408Z" fill="black" mask="url(#path-93-inside-42_1_517)"/>
</g>
</g>
<rect x="308.5" y="1.5" width="147" height="105" rx="6.5" stroke="#484848" stroke-width="3"/>
<path d="M592.233 74.2348C593.744 73.5536 594.416 71.7771 593.735 70.2667L582.635 45.6538C581.954 44.1435 580.177 43.4713 578.667 44.1524C577.156 44.8335 576.484 46.6101 577.165 48.1205L587.032 69.9986L565.154 79.8651C563.643 80.5463 562.971 82.3229 563.652 83.8332C564.334 85.3436 566.11 86.0158 567.62 85.3347L592.233 74.2348ZM475.202 74.2485C506.387 60.6052 553.566 60.5433 589.938 74.3059L592.062 68.6942C554.434 54.4566 505.613 54.3948 472.798 68.7515L475.202 74.2485Z" fill="#484848"/>
<path d="M481.904 33.0039V14.7812H480.205V33.0039H481.904ZM505.391 29.1953C506.419 29.1953 507.282 28.9902 507.979 28.5801C508.682 28.1634 509.209 27.6882 509.561 27.1543L508.457 26.2949C508.125 26.7246 507.708 27.0697 507.207 27.3301C506.706 27.5905 506.133 27.7207 505.488 27.7207C505 27.7207 504.554 27.6296 504.15 27.4473C503.747 27.265 503.402 27.0143 503.115 26.6953C502.835 26.3958 502.614 26.0508 502.451 25.6602C502.295 25.2695 502.194 24.8171 502.148 24.3027V24.2344H509.697V23.4238C509.697 22.6882 509.603 22.0046 509.414 21.373C509.232 20.7415 508.952 20.1914 508.574 19.7227C508.197 19.2604 507.721 18.8991 507.148 18.6387C506.582 18.3717 505.918 18.2383 505.156 18.2383C504.551 18.2383 503.958 18.362 503.379 18.6094C502.806 18.8568 502.295 19.2116 501.846 19.6738C501.39 20.1426 501.025 20.7155 500.752 21.3926C500.479 22.0632 500.342 22.8249 500.342 23.6777V24.0879C500.342 24.8236 500.465 25.5039 500.713 26.1289C500.96 26.7539 501.305 27.2943 501.748 27.75C502.191 28.2057 502.721 28.5605 503.34 28.8145C503.965 29.0684 504.648 29.1953 505.391 29.1953ZM505.156 19.7227C505.618 19.7227 506.016 19.8073 506.348 19.9766C506.686 20.1458 506.966 20.3672 507.188 20.6406C507.409 20.9141 507.581 21.2396 507.705 21.6172C507.829 21.9883 507.891 22.3366 507.891 22.6621V22.75H502.207C502.279 22.2617 502.402 21.832 502.578 21.4609C502.76 21.0833 502.982 20.7643 503.242 20.5039C503.503 20.25 503.796 20.0579 504.121 19.9277C504.447 19.791 504.792 19.7227 505.156 19.7227ZM516.338 29H517.715L522.021 18.4336H520.176L517.217 26.4023L517.041 27.0566L516.875 26.4023L513.848 18.4336H511.992L516.338 29ZM531.689 29H533.574V28.8438C533.457 28.5508 533.366 28.209 533.301 27.8184C533.236 27.4212 533.203 27.0469 533.203 26.6953V21.7832C533.203 21.1908 533.096 20.6732 532.881 20.2305C532.666 19.7878 532.373 19.4167 532.002 19.1172C531.624 18.8242 531.178 18.6061 530.664 18.4629C530.15 18.3132 529.593 18.2383 528.994 18.2383C528.337 18.2383 527.747 18.3294 527.227 18.5117C526.712 18.694 526.276 18.9316 525.918 19.2246C525.553 19.5241 525.273 19.8594 525.078 20.2305C524.889 20.6016 524.792 20.9792 524.785 21.3633H526.602C526.602 21.1419 526.654 20.9303 526.758 20.7285C526.868 20.5202 527.021 20.3411 527.217 20.1914C527.412 20.0417 527.65 19.9212 527.93 19.8301C528.216 19.7389 528.538 19.6934 528.896 19.6934C529.281 19.6934 529.626 19.7422 529.932 19.8398C530.244 19.9375 530.508 20.0742 530.723 20.25C530.938 20.4323 531.104 20.6504 531.221 20.9043C531.338 21.1582 531.396 21.4447 531.396 21.7637V22.5938H529.424C528.688 22.5938 528.021 22.6654 527.422 22.8086C526.829 22.9518 526.322 23.1667 525.898 23.4531C525.475 23.7461 525.146 24.1107 524.912 24.5469C524.684 24.9831 524.57 25.4909 524.57 26.0703C524.57 26.513 524.655 26.9264 524.824 27.3105C525 27.6882 525.247 28.0137 525.566 28.2871C525.879 28.5671 526.26 28.7884 526.709 28.9512C527.165 29.1139 527.673 29.1953 528.232 29.1953C528.577 29.1953 528.903 29.1595 529.209 29.0879C529.515 29.0163 529.805 28.9186 530.078 28.7949C530.345 28.6712 530.589 28.528 530.811 28.3652C531.038 28.2025 531.243 28.0299 531.426 27.8477C531.445 28.069 531.475 28.2839 531.514 28.4922C531.559 28.694 531.618 28.8633 531.689 29ZM528.496 27.623C528.145 27.623 527.835 27.5775 527.568 27.4863C527.301 27.3952 527.08 27.2682 526.904 27.1055C526.729 26.9492 526.595 26.7604 526.504 26.5391C526.419 26.3177 526.377 26.0768 526.377 25.8164C526.377 25.543 526.426 25.2988 526.523 25.084C526.628 24.8691 526.777 24.6836 526.973 24.5273C527.246 24.306 527.614 24.1432 528.076 24.0391C528.545 23.9284 529.092 23.873 529.717 23.873H531.396V26.0117C531.292 26.2201 531.149 26.4219 530.967 26.6172C530.785 26.806 530.57 26.9753 530.322 27.125C530.068 27.2747 529.788 27.3952 529.482 27.4863C529.176 27.5775 528.848 27.623 528.496 27.623ZM537.041 14V15.5723H540.635V27.4375H537.041V29H545.889V27.4375H542.441V14H537.041ZM563.926 27.8281C563.926 28.2057 564.043 28.528 564.277 28.7949C564.518 29.0553 564.873 29.1855 565.342 29.1855C565.804 29.1855 566.159 29.0553 566.406 28.7949C566.654 28.5345 566.777 28.2122 566.777 27.8281C566.777 27.4375 566.654 27.1087 566.406 26.8418C566.165 26.5684 565.811 26.4316 565.342 26.4316C564.867 26.4316 564.512 26.5684 564.277 26.8418C564.043 27.1152 563.926 27.444 563.926 27.8281ZM575.938 27.8281C575.938 28.2057 576.055 28.528 576.289 28.7949C576.53 29.0553 576.885 29.1855 577.354 29.1855C577.816 29.1855 578.171 29.0553 578.418 28.7949C578.665 28.5345 578.789 28.2122 578.789 27.8281C578.789 27.4375 578.665 27.1087 578.418 26.8418C578.177 26.5684 577.822 26.4316 577.354 26.4316C576.878 26.4316 576.523 26.5684 576.289 26.8418C576.055 27.1152 575.938 27.444 575.938 27.8281ZM587.949 27.8281C587.949 28.2057 588.066 28.528 588.301 28.7949C588.542 29.0553 588.896 29.1855 589.365 29.1855C589.827 29.1855 590.182 29.0553 590.43 28.7949C590.677 28.5345 590.801 28.2122 590.801 27.8281C590.801 27.4375 590.677 27.1087 590.43 26.8418C590.189 26.5684 589.834 26.4316 589.365 26.4316C588.89 26.4316 588.535 26.5684 588.301 26.8418C588.066 27.1152 587.949 27.444 587.949 27.8281Z" fill="#484848"/>
<path d="M180.904 33.0039V14.7812H179.205V33.0039H180.904ZM200.006 14V15.5723H203.6V27.4375H200.006V29H208.854V27.4375H205.406V14H200.006ZM212.018 18.4336V20.0059H215.611V27.4375H212.018V29H220.865V27.4375H217.418V18.4336H212.018ZM215.377 15.6602C215.377 15.9531 215.465 16.1973 215.641 16.3926C215.823 16.5879 216.096 16.6855 216.461 16.6855C216.819 16.6855 217.089 16.5879 217.271 16.3926C217.454 16.1973 217.545 15.9531 217.545 15.6602C217.545 15.4974 217.519 15.3477 217.467 15.2109C217.415 15.0742 217.337 14.9603 217.232 14.8691C217.148 14.7845 217.04 14.7194 216.91 14.6738C216.78 14.6217 216.63 14.5957 216.461 14.5957C216.292 14.5957 216.139 14.6217 216.002 14.6738C215.872 14.7194 215.764 14.7845 215.68 14.8691C215.576 14.9668 215.497 15.084 215.445 15.2207C215.4 15.3574 215.377 15.5039 215.377 15.6602ZM224.576 18.4336H222.955V29H224.674V20.5918C224.713 20.4876 224.762 20.39 224.82 20.2988C224.885 20.2077 224.96 20.1263 225.045 20.0547C225.156 19.9635 225.289 19.8952 225.445 19.8496C225.608 19.7975 225.797 19.7715 226.012 19.7715C226.207 19.7715 226.376 19.7975 226.52 19.8496C226.669 19.8952 226.793 19.9701 226.891 20.0742C226.995 20.1849 227.07 20.3249 227.115 20.4941C227.167 20.6634 227.193 20.8587 227.193 21.0801V29H228.912V21.0898C228.912 21.0508 228.912 21.0182 228.912 20.9922C228.912 20.9596 228.912 20.9271 228.912 20.8945C228.932 20.7318 228.971 20.5853 229.029 20.4551C229.088 20.3184 229.169 20.1979 229.273 20.0938C229.378 19.9961 229.508 19.918 229.664 19.8594C229.82 19.8008 230.006 19.7715 230.221 19.7715C230.423 19.7715 230.598 19.7975 230.748 19.8496C230.904 19.9017 231.035 19.9798 231.139 20.084C231.236 20.1947 231.311 20.3346 231.363 20.5039C231.415 20.6732 231.441 20.8685 231.441 21.0898V29H233.16V21.1094C233.16 20.6016 233.102 20.1621 232.984 19.791C232.867 19.4134 232.698 19.1074 232.477 18.873C232.275 18.6647 232.027 18.5085 231.734 18.4043C231.441 18.2936 231.113 18.2383 230.748 18.2383C230.481 18.2448 230.234 18.2806 230.006 18.3457C229.785 18.4108 229.583 18.4987 229.4 18.6094C229.257 18.707 229.124 18.821 229 18.9512C228.876 19.0814 228.769 19.2214 228.678 19.3711C228.606 19.2083 228.518 19.0618 228.414 18.9316C228.316 18.8014 228.206 18.6908 228.082 18.5996C227.913 18.4824 227.714 18.3945 227.486 18.3359C227.265 18.2708 227.014 18.2383 226.734 18.2383C226.24 18.2448 225.816 18.3522 225.465 18.5605C225.12 18.7689 224.84 19.0586 224.625 19.4297L224.576 18.4336ZM236.041 18.4336V20.0059H239.635V27.4375H236.041V29H244.889V27.4375H241.441V18.4336H236.041ZM239.4 15.6602C239.4 15.9531 239.488 16.1973 239.664 16.3926C239.846 16.5879 240.12 16.6855 240.484 16.6855C240.842 16.6855 241.113 16.5879 241.295 16.3926C241.477 16.1973 241.568 15.9531 241.568 15.6602C241.568 15.4974 241.542 15.3477 241.49 15.2109C241.438 15.0742 241.36 14.9603 241.256 14.8691C241.171 14.7845 241.064 14.7194 240.934 14.6738C240.803 14.6217 240.654 14.5957 240.484 14.5957C240.315 14.5957 240.162 14.6217 240.025 14.6738C239.895 14.7194 239.788 14.7845 239.703 14.8691C239.599 14.9668 239.521 15.084 239.469 15.2207C239.423 15.3574 239.4 15.5039 239.4 15.6602ZM252.047 15.875H250.23V18.4336H247.457V19.8301H250.23V25.5723C250.23 26.2233 250.315 26.7799 250.484 27.2422C250.66 27.6979 250.898 28.069 251.197 28.3555C251.497 28.6484 251.848 28.8633 252.252 29C252.662 29.1302 253.102 29.1953 253.57 29.1953C253.85 29.1953 254.13 29.1823 254.41 29.1562C254.697 29.1302 254.967 29.0911 255.221 29.0391C255.475 28.9935 255.709 28.9382 255.924 28.873C256.139 28.8014 256.321 28.7201 256.471 28.6289L256.217 27.3496C256.106 27.3757 255.963 27.4082 255.787 27.4473C255.618 27.4798 255.436 27.5124 255.24 27.5449C255.038 27.5775 254.833 27.6068 254.625 27.6328C254.417 27.6523 254.215 27.6621 254.02 27.6621C253.753 27.6621 253.499 27.6296 253.258 27.5645C253.023 27.4993 252.815 27.3854 252.633 27.2227C252.451 27.0664 252.307 26.8548 252.203 26.5879C252.099 26.321 252.047 25.9824 252.047 25.5723V19.8301H256.07V18.4336H252.047V15.875ZM273.902 21.0215V22.4863H275.191C275.641 22.4863 276.051 22.5384 276.422 22.6426C276.799 22.7467 277.122 22.9062 277.389 23.1211C277.649 23.3359 277.851 23.6061 277.994 23.9316C278.144 24.2507 278.219 24.6315 278.219 25.0742C278.219 25.5234 278.154 25.9141 278.023 26.2461C277.9 26.5716 277.721 26.8451 277.486 27.0664C277.252 27.2878 276.969 27.4538 276.637 27.5645C276.305 27.6686 275.934 27.7207 275.523 27.7207C275.113 27.7207 274.739 27.6621 274.4 27.5449C274.068 27.4277 273.785 27.2617 273.551 27.0469C273.316 26.832 273.134 26.5716 273.004 26.2656C272.88 25.9596 272.818 25.6211 272.818 25.25H271.012C271.012 25.875 271.129 26.4316 271.363 26.9199C271.604 27.4082 271.926 27.8216 272.33 28.1602C272.734 28.4987 273.209 28.7559 273.756 28.9316C274.309 29.1074 274.898 29.1953 275.523 29.1953C276.161 29.1953 276.754 29.1042 277.301 28.9219C277.854 28.7331 278.333 28.4596 278.736 28.1016C279.14 27.75 279.456 27.3171 279.684 26.8027C279.911 26.2884 280.025 25.6992 280.025 25.0352C280.025 24.7096 279.986 24.3809 279.908 24.0488C279.837 23.7168 279.71 23.401 279.527 23.1016C279.339 22.8021 279.088 22.5319 278.775 22.291C278.469 22.0501 278.085 21.8548 277.623 21.7051C278.007 21.5423 278.336 21.3405 278.609 21.0996C278.889 20.8522 279.117 20.5885 279.293 20.3086C279.469 20.0352 279.599 19.752 279.684 19.459C279.768 19.166 279.811 18.8828 279.811 18.6094C279.811 17.9518 279.706 17.3724 279.498 16.8711C279.29 16.3698 278.997 15.9499 278.619 15.6113C278.242 15.2728 277.789 15.0189 277.262 14.8496C276.734 14.6738 276.152 14.5859 275.514 14.5859C274.856 14.5859 274.257 14.6901 273.717 14.8984C273.183 15.1003 272.724 15.377 272.34 15.7285C271.956 16.0866 271.656 16.5065 271.441 16.9883C271.233 17.4635 271.129 17.9714 271.129 18.5117H272.945C272.945 18.1406 273.007 17.8053 273.131 17.5059C273.255 17.2064 273.43 16.9492 273.658 16.7344C273.88 16.5195 274.146 16.3568 274.459 16.2461C274.778 16.1289 275.13 16.0703 275.514 16.0703C275.911 16.0703 276.262 16.1224 276.568 16.2266C276.881 16.3242 277.141 16.474 277.35 16.6758C277.564 16.8841 277.727 17.1478 277.838 17.4668C277.949 17.7793 278.004 18.1471 278.004 18.5703C278.004 18.9284 277.942 19.2572 277.818 19.5566C277.695 19.8561 277.516 20.1133 277.281 20.3281C277.04 20.543 276.744 20.7122 276.393 20.8359C276.048 20.9596 275.647 21.0215 275.191 21.0215H273.902Z" fill="#484848"/>
<defs>
<clipPath id="clip0_1_517">
<rect x="307" y="36" width="150" height="108" rx="8" fill="white"/>
</clipPath>
<clipPath id="clip1_1_517">
<rect width="150" height="36" fill="white" transform="translate(307 36)"/>
</clipPath>
<clipPath id="clip2_1_517">
<rect width="150" height="36" fill="white" transform="translate(307 72)"/>
</clipPath>
<clipPath id="clip3_1_517">
<rect width="150" height="36" fill="white" transform="translate(307 108)"/>
</clipPath>
<clipPath id="clip4_1_517">
<rect width="150" height="144" rx="8" fill="white"/>
</clipPath>
<clipPath id="clip5_1_517">
<rect width="150" height="36" fill="white"/>
</clipPath>
<clipPath id="clip6_1_517">
<rect width="150" height="36" fill="white" transform="translate(0 36)"/>
</clipPath>
<clipPath id="clip7_1_517">
<rect width="150" height="36" fill="white" transform="translate(0 72)"/>
</clipPath>
<clipPath id="clip8_1_517">
<rect width="150" height="36" fill="white" transform="translate(0 108)"/>
</clipPath>
<clipPath id="clip9_1_517">
<rect x="614" width="200" height="108" rx="8" fill="white"/>
</clipPath>
<clipPath id="clip10_1_517">
<rect width="50" height="108" fill="white" transform="translate(614)"/>
</clipPath>
<clipPath id="clip11_1_517">
<rect width="50" height="108" fill="white" transform="translate(664)"/>
</clipPath>
<clipPath id="clip12_1_517">
<rect width="50" height="108" fill="white" transform="translate(714)"/>
</clipPath>
<clipPath id="clip13_1_517">
<rect width="50" height="108" fill="white" transform="translate(764)"/>
</clipPath>
<clipPath id="clip14_1_517">
<rect x="307" width="150" height="108" rx="8" fill="white"/>
</clipPath>
<clipPath id="clip15_1_517">
<rect width="150" height="36" fill="white" transform="translate(307)"/>
</clipPath>
<clipPath id="clip16_1_517">
<rect width="150" height="36" fill="white" transform="translate(307 36)"/>
</clipPath>
<clipPath id="clip17_1_517">
<rect width="150" height="36" fill="white" transform="translate(307 72)"/>
</clipPath>
</defs>
</svg>
