<svg width="814" height="183" viewBox="0 0 814 183" fill="none" xmlns="http://www.w3.org/2000/svg">
<g clip-path="url(#clip0_1_517)">
<rect y="39" width="150" height="144" rx="8" fill="white"/>
<g clip-path="url(#clip1_1_517)">
<rect width="150" height="36" transform="translate(0 39)" fill="white" fill-opacity="0.01"/>
<mask id="path-3-inside-1_1_517" fill="white">
<path d="M0 39H50V75H0V39Z"/>
</mask>
<path d="M0 39H50V75H0V39Z" fill="white" fill-opacity="0.01"/>
<path d="M0 39V38H-2V39H0ZM0 40H50V38H0V40ZM2 75V39H-2V75H2Z" fill="black" mask="url(#path-3-inside-1_1_517)"/>
<mask id="path-5-inside-2_1_517" fill="white">
<path d="M50 39H100V75H50V39Z"/>
</mask>
<path d="M50 39H100V75H50V39Z" fill="white" fill-opacity="0.01"/>
<path d="M50 39V38H49V39H50ZM50 40H100V38H50V40ZM51 75V39H49V75H51Z" fill="black" mask="url(#path-5-inside-2_1_517)"/>
<mask id="path-7-inside-3_1_517" fill="white">
<path d="M100 39H150V75H100V39Z"/>
</mask>
<path d="M100 39H150V75H100V39Z" fill="white" fill-opacity="0.01"/>
<path d="M100 39V38H99V39H100ZM100 40H150V38H100V40ZM101 75V39H99V75H101Z" fill="black" mask="url(#path-7-inside-3_1_517)"/>
</g>
<g clip-path="url(#clip2_1_517)">
<rect width="150" height="36" transform="translate(0 75)" fill="white" fill-opacity="0.01"/>
<mask id="path-9-inside-4_1_517" fill="white">
<path d="M0 75H50V111H0V75Z"/>
</mask>
<path d="M0 75H50V111H0V75Z" fill="white" fill-opacity="0.01"/>
<path d="M0 75V74H-2V75H0ZM0 76H50V74H0V76ZM2 111V75H-2V111H2Z" fill="black" mask="url(#path-9-inside-4_1_517)"/>
<mask id="path-11-inside-5_1_517" fill="white">
<path d="M50 75H100V111H50V75Z"/>
</mask>
<path d="M50 75H100V111H50V75Z" fill="white" fill-opacity="0.01"/>
<path d="M50 75V74H49V75H50ZM50 76H100V74H50V76ZM51 111V75H49V111H51Z" fill="black" mask="url(#path-11-inside-5_1_517)"/>
<mask id="path-13-inside-6_1_517" fill="white">
<path d="M100 75H150V111H100V75Z"/>
</mask>
<path d="M100 75H150V111H100V75Z" fill="white" fill-opacity="0.01"/>
<path d="M100 75V74H99V75H100ZM100 76H150V74H100V76ZM101 111V75H99V111H101Z" fill="black" mask="url(#path-13-inside-6_1_517)"/>
</g>
<g clip-path="url(#clip3_1_517)">
<rect width="150" height="36" transform="translate(0 111)" fill="white" fill-opacity="0.01"/>
<mask id="path-15-inside-7_1_517" fill="white">
<path d="M0 111H50V147H0V111Z"/>
</mask>
<path d="M0 111H50V147H0V111Z" fill="white" fill-opacity="0.01"/>
<path d="M0 111V110H-2V111H0ZM0 112H50V110H0V112ZM2 147V111H-2V147H2Z" fill="black" mask="url(#path-15-inside-7_1_517)"/>
<mask id="path-17-inside-8_1_517" fill="white">
<path d="M50 111H100V147H50V111Z"/>
</mask>
<path d="M50 111H100V147H50V111Z" fill="white" fill-opacity="0.01"/>
<path d="M50 111V110H49V111H50ZM50 112H100V110H50V112ZM51 147V111H49V147H51Z" fill="black" mask="url(#path-17-inside-8_1_517)"/>
<mask id="path-19-inside-9_1_517" fill="white">
<path d="M100 111H150V147H100V111Z"/>
</mask>
<path d="M100 111H150V147H100V111Z" fill="white" fill-opacity="0.01"/>
<path d="M100 111V110H99V111H100ZM100 112H150V110H100V112ZM101 147V111H99V147H101Z" fill="black" mask="url(#path-19-inside-9_1_517)"/>
</g>
<g clip-path="url(#clip4_1_517)">
<rect width="150" height="36" transform="translate(0 147)" fill="white" fill-opacity="0.01"/>
<mask id="path-21-inside-10_1_517" fill="white">
<path d="M0 147H50V183H0V147Z"/>
</mask>
<path d="M0 147H50V183H0V147Z" fill="white" fill-opacity="0.01"/>
<path d="M0 147V146H-2V147H0ZM0 148H50V146H0V148ZM2 183V147H-2V183H2Z" fill="black" mask="url(#path-21-inside-10_1_517)"/>
<mask id="path-23-inside-11_1_517" fill="white">
<path d="M50 147H100V183H50V147Z"/>
</mask>
<path d="M50 147H100V183H50V147Z" fill="white" fill-opacity="0.01"/>
<path d="M50 147V146H49V147H50ZM50 148H100V146H50V148ZM51 183V147H49V183H51Z" fill="black" mask="url(#path-23-inside-11_1_517)"/>
<mask id="path-25-inside-12_1_517" fill="white">
<path d="M100 147H150V183H100V147Z"/>
</mask>
<path d="M100 147H150V183H100V147Z" fill="white" fill-opacity="0.01"/>
<path d="M100 147V146H99V147H100ZM100 148H150V146H100V148ZM101 183V147H99V183H101Z" fill="black" mask="url(#path-25-inside-12_1_517)"/>
</g>
</g>
<rect x="1.5" y="40.5" width="147" height="141" rx="6.5" stroke="#484848" stroke-width="3"/>
<g clip-path="url(#clip5_1_517)">
<rect x="614" y="39" width="200" height="108" rx="8" fill="white"/>
<g clip-path="url(#clip6_1_517)">
<rect width="50" height="108" transform="translate(614 39)" fill="white"/>
<mask id="path-29-inside-13_1_517" fill="white">
<path d="M614 39H664V75H614V39Z"/>
</mask>
<path d="M614 39H664V75H614V39Z" fill="white" fill-opacity="0.01"/>
<path d="M614 39V38H612V39H614ZM614 40H664V38H614V40ZM616 75V39H612V75H616Z" fill="black" mask="url(#path-29-inside-13_1_517)"/>
<mask id="path-31-inside-14_1_517" fill="white">
<path d="M614 75H664V111H614V75Z"/>
</mask>
<path d="M614 75H664V111H614V75Z" fill="white" fill-opacity="0.01"/>
<path d="M614 75V74H612V75H614ZM614 76H664V74H614V76ZM616 111V75H612V111H616Z" fill="black" mask="url(#path-31-inside-14_1_517)"/>
<mask id="path-33-inside-15_1_517" fill="white">
<path d="M614 111H664V147H614V111Z"/>
</mask>
<path d="M614 111H664V147H614V111Z" fill="white" fill-opacity="0.01"/>
<path d="M614 111V110H612V111H614ZM614 112H664V110H614V112ZM616 147V111H612V147H616Z" fill="black" mask="url(#path-33-inside-15_1_517)"/>
</g>
<g clip-path="url(#clip7_1_517)">
<rect width="50" height="108" transform="translate(664 39)" fill="white" fill-opacity="0.01"/>
<mask id="path-35-inside-16_1_517" fill="white">
<path d="M664 39H714V75H664V39Z"/>
</mask>
<path d="M664 39H714V75H664V39Z" fill="white" fill-opacity="0.01"/>
<path d="M664 39V38H663V39H664ZM664 40H714V38H664V40ZM665 75V39H663V75H665Z" fill="black" mask="url(#path-35-inside-16_1_517)"/>
<mask id="path-37-inside-17_1_517" fill="white">
<path d="M664 75H714V111H664V75Z"/>
</mask>
<path d="M664 75H714V111H664V75Z" fill="white" fill-opacity="0.01"/>
<path d="M664 75V74H663V75H664ZM664 76H714V74H664V76ZM665 111V75H663V111H665Z" fill="black" mask="url(#path-37-inside-17_1_517)"/>
<mask id="path-39-inside-18_1_517" fill="white">
<path d="M664 111H714V147H664V111Z"/>
</mask>
<path d="M664 111H714V147H664V111Z" fill="white" fill-opacity="0.01"/>
<path d="M664 111V110H663V111H664ZM664 112H714V110H664V112ZM665 147V111H663V147H665Z" fill="black" mask="url(#path-39-inside-18_1_517)"/>
</g>
<g clip-path="url(#clip8_1_517)">
<rect width="50" height="108" transform="translate(714 39)" fill="white" fill-opacity="0.01"/>
<mask id="path-41-inside-19_1_517" fill="white">
<path d="M714 39H764V75H714V39Z"/>
</mask>
<path d="M714 39H764V75H714V39Z" fill="white" fill-opacity="0.01"/>
<path d="M714 39V38H713V39H714ZM714 40H764V38H714V40ZM715 75V39H713V75H715Z" fill="black" mask="url(#path-41-inside-19_1_517)"/>
<mask id="path-43-inside-20_1_517" fill="white">
<path d="M714 75H764V111H714V75Z"/>
</mask>
<path d="M714 75H764V111H714V75Z" fill="white" fill-opacity="0.01"/>
<path d="M714 75V74H713V75H714ZM714 76H764V74H714V76ZM715 111V75H713V111H715Z" fill="black" mask="url(#path-43-inside-20_1_517)"/>
<mask id="path-45-inside-21_1_517" fill="white">
<path d="M714 111H764V147H714V111Z"/>
</mask>
<path d="M714 111H764V147H714V111Z" fill="white" fill-opacity="0.01"/>
<path d="M714 111V110H713V111H714ZM714 112H764V110H714V112ZM715 147V111H713V147H715Z" fill="black" mask="url(#path-45-inside-21_1_517)"/>
</g>
<g clip-path="url(#clip9_1_517)">
<rect width="50" height="108" transform="translate(764 39)" fill="#F990C6"/>
<mask id="path-47-inside-22_1_517" fill="white">
<path d="M764 39H814V75H764V39Z"/>
</mask>
<path d="M764 39H814V75H764V39Z" fill="white" fill-opacity="0.01"/>
<path d="M764 39V38H763V39H764ZM764 40H814V38H764V40ZM765 75V39H763V75H765Z" fill="black" mask="url(#path-47-inside-22_1_517)"/>
<mask id="path-49-inside-23_1_517" fill="white">
<path d="M764 75H814V111H764V75Z"/>
</mask>
<path d="M764 75H814V111H764V75Z" fill="white" fill-opacity="0.01"/>
<path d="M764 75V74H763V75H764ZM764 76H814V74H764V76ZM765 111V75H763V111H765Z" fill="black" mask="url(#path-49-inside-23_1_517)"/>
<mask id="path-51-inside-24_1_517" fill="white">
<path d="M764 111H814V147H764V111Z"/>
</mask>
<path d="M764 111H814V147H764V111Z" fill="white" fill-opacity="0.01"/>
<path d="M764 111V110H763V111H764ZM764 112H814V110H764V112ZM765 147V111H763V147H765Z" fill="black" mask="url(#path-51-inside-24_1_517)"/>
</g>
</g>
<rect x="615.5" y="40.5" width="197" height="105" rx="6.5" stroke="#484848" stroke-width="3"/>
<path d="M288.233 59.2348C289.744 58.5536 290.416 56.7771 289.735 55.2667L278.635 30.6538C277.954 29.1435 276.177 28.4713 274.667 29.1524C273.156 29.8335 272.484 31.6101 273.165 33.1205L283.032 54.9986L261.154 64.8651C259.643 65.5463 258.971 67.3229 259.652 68.8332C260.334 70.3436 262.11 71.0158 263.62 70.3347L288.233 59.2348ZM171.202 59.2485C202.387 45.6052 249.566 45.5433 285.938 59.3059L288.062 53.6942C250.434 39.4566 201.613 39.3948 168.798 53.7515L171.202 59.2485Z" fill="#484848"/>
<g clip-path="url(#clip10_1_517)">
<rect x="307" y="39" width="150" height="108" rx="8" fill="white"/>
<g clip-path="url(#clip11_1_517)">
<rect width="150" height="36" transform="translate(307 39)" fill="white" fill-opacity="0.01"/>
<mask id="path-56-inside-25_1_517" fill="white">
<path d="M307 39H357V75H307V39Z"/>
</mask>
<path d="M307 39H357V75H307V39Z" fill="white" fill-opacity="0.01"/>
<path d="M307 39V38H305V39H307ZM307 40H357V38H307V40ZM309 75V39H305V75H309Z" fill="black" mask="url(#path-56-inside-25_1_517)"/>
<mask id="path-58-inside-26_1_517" fill="white">
<path d="M357 39H407V75H357V39Z"/>
</mask>
<path d="M357 39H407V75H357V39Z" fill="white" fill-opacity="0.01"/>
<path d="M357 39V38H356V39H357ZM357 40H407V38H357V40ZM358 75V39H356V75H358Z" fill="black" mask="url(#path-58-inside-26_1_517)"/>
<mask id="path-60-inside-27_1_517" fill="white">
<path d="M407 39H457V75H407V39Z"/>
</mask>
<path d="M407 39H457V75H407V39Z" fill="white" fill-opacity="0.01"/>
<path d="M407 39V38H406V39H407ZM407 40H457V38H407V40ZM408 75V39H406V75H408Z" fill="black" mask="url(#path-60-inside-27_1_517)"/>
</g>
<g clip-path="url(#clip12_1_517)">
<rect width="150" height="36" transform="translate(307 75)" fill="white" fill-opacity="0.01"/>
<mask id="path-62-inside-28_1_517" fill="white">
<path d="M307 75H357V111H307V75Z"/>
</mask>
<path d="M307 75H357V111H307V75Z" fill="white" fill-opacity="0.01"/>
<path d="M307 75V74H305V75H307ZM307 76H357V74H307V76ZM309 111V75H305V111H309Z" fill="black" mask="url(#path-62-inside-28_1_517)"/>
<mask id="path-64-inside-29_1_517" fill="white">
<path d="M357 75H407V111H357V75Z"/>
</mask>
<path d="M357 75H407V111H357V75Z" fill="white" fill-opacity="0.01"/>
<path d="M357 75V74H356V75H357ZM357 76H407V74H357V76ZM358 111V75H356V111H358Z" fill="black" mask="url(#path-64-inside-29_1_517)"/>
<mask id="path-66-inside-30_1_517" fill="white">
<path d="M407 75H457V111H407V75Z"/>
</mask>
<path d="M407 75H457V111H407V75Z" fill="white" fill-opacity="0.01"/>
<path d="M407 75V74H406V75H407ZM407 76H457V74H407V76ZM408 111V75H406V111H408Z" fill="black" mask="url(#path-66-inside-30_1_517)"/>
</g>
<g clip-path="url(#clip13_1_517)">
<rect width="150" height="36" transform="translate(307 111)" fill="white" fill-opacity="0.01"/>
<mask id="path-68-inside-31_1_517" fill="white">
<path d="M307 111H357V147H307V111Z"/>
</mask>
<path d="M307 111H357V147H307V111Z" fill="white" fill-opacity="0.01"/>
<path d="M307 111V110H305V111H307ZM307 112H357V110H307V112ZM309 147V111H305V147H309Z" fill="black" mask="url(#path-68-inside-31_1_517)"/>
<mask id="path-70-inside-32_1_517" fill="white">
<path d="M357 111H407V147H357V111Z"/>
</mask>
<path d="M357 111H407V147H357V111Z" fill="white" fill-opacity="0.01"/>
<path d="M357 111V110H356V111H357ZM357 112H407V110H357V112ZM358 147V111H356V147H358Z" fill="black" mask="url(#path-70-inside-32_1_517)"/>
<mask id="path-72-inside-33_1_517" fill="white">
<path d="M407 111H457V147H407V111Z"/>
</mask>
<path d="M407 111H457V147H407V111Z" fill="white" fill-opacity="0.01"/>
<path d="M407 111V110H406V111H407ZM407 112H457V110H407V112ZM408 147V111H406V147H408Z" fill="black" mask="url(#path-72-inside-33_1_517)"/>
</g>
</g>
<rect x="308.5" y="40.5" width="147" height="105" rx="6.5" stroke="#484848" stroke-width="3"/>
<path d="M595.233 59.2348C596.744 58.5536 597.416 56.7771 596.735 55.2667L585.635 30.6538C584.954 29.1435 583.177 28.4713 581.667 29.1524C580.156 29.8335 579.484 31.6101 580.165 33.1205L590.032 54.9986L568.154 64.8651C566.643 65.5463 565.971 67.3229 566.652 68.8332C567.334 70.3436 569.11 71.0158 570.62 70.3347L595.233 59.2348ZM478.202 59.2485C509.387 45.6052 556.566 45.5433 592.938 59.3059L595.062 53.6942C557.434 39.4566 508.613 39.3948 475.798 53.7515L478.202 59.2485Z" fill="#484848"/>
<path d="M471.285 22.8047V0.9375H469.246V22.8047H471.285ZM499.633 18.2344C500.859 18.2344 501.922 17.9961 502.82 17.5195C503.719 17.043 504.375 16.5117 504.789 15.9258L503.16 14.168C502.785 14.6523 502.297 15.0156 501.695 15.2578C501.094 15.5 500.473 15.6211 499.832 15.6211C499.379 15.6211 498.961 15.5508 498.578 15.4102C498.195 15.2695 497.855 15.0703 497.559 14.8125C497.27 14.5625 497.039 14.2852 496.867 13.9805C496.695 13.668 496.555 13.2578 496.445 12.75V12.7148H505.047V11.332C505.047 10.4023 504.918 9.55469 504.66 8.78906C504.402 8.01562 504.027 7.35547 503.535 6.80859C503.035 6.26172 502.426 5.83984 501.707 5.54297C500.996 5.23828 500.184 5.08594 499.27 5.08594C498.387 5.08594 497.57 5.24609 496.82 5.56641C496.07 5.88672 495.422 6.33594 494.875 6.91406C494.328 7.49219 493.902 8.18359 493.598 8.98828C493.293 9.78516 493.141 10.668 493.141 11.6367V12.1055C493.141 12.957 493.293 13.7578 493.598 14.5078C493.91 15.25 494.352 15.8945 494.922 16.4414C495.492 16.9961 496.176 17.4336 496.973 17.7539C497.77 18.0742 498.656 18.2344 499.633 18.2344ZM499.246 7.72266C499.66 7.72266 500.023 7.78906 500.336 7.92188C500.656 8.04688 500.926 8.21875 501.145 8.4375C501.363 8.66406 501.535 8.92969 501.66 9.23438C501.785 9.53906 501.848 9.86328 501.848 10.207V10.4648H496.504C496.582 10.0508 496.699 9.67578 496.855 9.33984C497.012 9.00391 497.207 8.71484 497.441 8.47266C497.668 8.23047 497.934 8.04688 498.238 7.92188C498.543 7.78906 498.879 7.72266 499.246 7.72266ZM511.926 18H514.984L519.801 5.32031H516.402L513.625 14.2617L513.449 15.1523L513.273 14.2617L510.484 5.32031H507.086L511.926 18ZM530.23 18H533.535V17.8008C533.371 17.4805 533.246 17.0977 533.16 16.6523C533.074 16.207 533.031 15.6445 533.031 14.9648V9.52734C533.031 8.79297 532.895 8.14844 532.621 7.59375C532.348 7.03125 531.969 6.56641 531.484 6.19922C531 5.83203 530.426 5.55469 529.762 5.36719C529.105 5.17969 528.395 5.08594 527.629 5.08594C526.777 5.08594 526.02 5.19531 525.355 5.41406C524.699 5.625 524.145 5.91406 523.691 6.28125C523.23 6.64844 522.879 7.07422 522.637 7.55859C522.402 8.04297 522.285 8.55469 522.285 9.09375H525.543C525.543 8.86719 525.574 8.66016 525.637 8.47266C525.707 8.28516 525.812 8.125 525.953 7.99219C526.109 7.84375 526.312 7.73047 526.562 7.65234C526.812 7.56641 527.109 7.52344 527.453 7.52344C527.844 7.52344 528.184 7.57422 528.473 7.67578C528.77 7.76953 529.016 7.90625 529.211 8.08594C529.398 8.25781 529.539 8.46484 529.633 8.70703C529.727 8.94141 529.773 9.20703 529.773 9.50391V10.2539H527.957C527.02 10.2539 526.188 10.3398 525.461 10.5117C524.742 10.6758 524.137 10.918 523.645 11.2383C523.098 11.5898 522.688 12.0391 522.414 12.5859C522.141 13.125 522.004 13.7461 522.004 14.4492C522.004 14.9961 522.113 15.5039 522.332 15.9727C522.551 16.4336 522.855 16.832 523.246 17.168C523.637 17.5039 524.102 17.7656 524.641 17.9531C525.188 18.1406 525.785 18.2344 526.434 18.2344C526.832 18.2344 527.203 18.1953 527.547 18.1172C527.891 18.0469 528.207 17.9453 528.496 17.8125C528.777 17.6875 529.035 17.5391 529.27 17.3672C529.504 17.1953 529.711 17.0117 529.891 16.8164C529.93 17.043 529.977 17.2578 530.031 17.4609C530.086 17.6641 530.152 17.8438 530.23 18ZM527.125 15.7148C526.82 15.7148 526.551 15.6797 526.316 15.6094C526.09 15.5312 525.898 15.4297 525.742 15.3047C525.586 15.1719 525.465 15.0117 525.379 14.8242C525.301 14.6289 525.262 14.418 525.262 14.1914C525.262 13.9023 525.316 13.6367 525.426 13.3945C525.535 13.1445 525.703 12.9297 525.93 12.75C526.156 12.5781 526.449 12.4453 526.809 12.3516C527.168 12.25 527.602 12.1992 528.109 12.1992H529.773V14.3789C529.68 14.543 529.551 14.707 529.387 14.8711C529.223 15.0273 529.027 15.168 528.801 15.293C528.574 15.418 528.32 15.5195 528.039 15.5977C527.758 15.6758 527.453 15.7148 527.125 15.7148ZM537.402 0V2.66016H541.199V15.3516H537.402V18H548.125V15.3516H544.492V0H537.402ZM568.844 16.1133C568.844 16.7148 569.047 17.2188 569.453 17.625C569.859 18.0312 570.41 18.2344 571.105 18.2344C571.793 18.2344 572.34 18.0352 572.746 17.6367C573.16 17.2305 573.367 16.7227 573.367 16.1133C573.367 15.5039 573.164 14.9922 572.758 14.5781C572.359 14.1641 571.809 13.957 571.105 13.957C570.395 13.957 569.84 14.168 569.441 14.5898C569.043 15.0039 568.844 15.5117 568.844 16.1133ZM583.258 16.1133C583.258 16.7148 583.461 17.2188 583.867 17.625C584.273 18.0312 584.824 18.2344 585.52 18.2344C586.207 18.2344 586.754 18.0352 587.16 17.6367C587.574 17.2305 587.781 16.7227 587.781 16.1133C587.781 15.5039 587.578 14.9922 587.172 14.5781C586.773 14.1641 586.223 13.957 585.52 13.957C584.809 13.957 584.254 14.168 583.855 14.5898C583.457 15.0039 583.258 15.5117 583.258 16.1133ZM597.672 16.1133C597.672 16.7148 597.875 17.2188 598.281 17.625C598.688 18.0312 599.238 18.2344 599.934 18.2344C600.621 18.2344 601.168 18.0352 601.574 17.6367C601.988 17.2305 602.195 16.7227 602.195 16.1133C602.195 15.5039 601.992 14.9922 601.586 14.5781C601.188 14.1641 600.637 13.957 599.934 13.957C599.223 13.957 598.668 14.168 598.27 14.5898C597.871 15.0039 597.672 15.5117 597.672 16.1133Z" fill="#484848"/>
<path d="M171.074 22.6641V0.9375H169.328V22.6641H171.074ZM194.16 0V2.66016H197.957V15.3516H194.16V18H204.883V15.3516H201.25V0H194.16ZM208.762 5.32031V7.98047H212.371V15.3516H208.762V18H219.098V15.3516H215.664V5.32031H208.762ZM212.137 2.07422C212.137 2.32422 212.18 2.55859 212.266 2.77734C212.359 2.98828 212.488 3.16797 212.652 3.31641C212.816 3.47266 213.012 3.59375 213.238 3.67969C213.473 3.76562 213.73 3.80859 214.012 3.80859C214.59 3.80859 215.047 3.64844 215.383 3.32812C215.727 3 215.898 2.58203 215.898 2.07422C215.898 1.56641 215.727 1.15234 215.383 0.832031C215.047 0.503906 214.59 0.339844 214.012 0.339844C213.73 0.339844 213.473 0.382813 213.238 0.46875C213.012 0.554687 212.816 0.671875 212.652 0.820312C212.488 0.976562 212.359 1.16406 212.266 1.38281C212.18 1.59375 212.137 1.82422 212.137 2.07422ZM224.336 5.32031H221.535V18H224.5V8.50781C224.539 8.40625 224.582 8.3125 224.629 8.22656C224.676 8.14062 224.73 8.06641 224.793 8.00391C224.879 7.91797 224.977 7.85156 225.086 7.80469C225.195 7.75781 225.32 7.73438 225.461 7.73438C225.586 7.73438 225.703 7.75391 225.812 7.79297C225.922 7.82422 226.02 7.88281 226.105 7.96875C226.184 8.05469 226.246 8.17578 226.293 8.33203C226.34 8.48828 226.363 8.6875 226.363 8.92969V18H229.234V8.64844C229.234 8.55469 229.234 8.48047 229.234 8.42578C229.234 8.37109 229.234 8.33594 229.234 8.32031C229.273 8.23438 229.32 8.16016 229.375 8.09766C229.43 8.02734 229.492 7.96484 229.562 7.91016C229.648 7.85547 229.738 7.8125 229.832 7.78125C229.934 7.75 230.047 7.73438 230.172 7.73438C230.289 7.73438 230.402 7.75391 230.512 7.79297C230.629 7.82422 230.73 7.88281 230.816 7.96875C230.902 8.0625 230.969 8.1875 231.016 8.34375C231.07 8.5 231.098 8.69922 231.098 8.94141V18H234.062V8.95312C234.062 8.25 233.992 7.65625 233.852 7.17188C233.719 6.67969 233.531 6.27734 233.289 5.96484C233.039 5.66016 232.746 5.4375 232.41 5.29688C232.082 5.15625 231.727 5.08594 231.344 5.08594C231.039 5.08594 230.758 5.125 230.5 5.20312C230.242 5.28125 230.012 5.39062 229.809 5.53125C229.645 5.64062 229.492 5.77344 229.352 5.92969C229.219 6.07812 229.098 6.24609 228.988 6.43359C228.918 6.23828 228.832 6.06641 228.73 5.91797C228.637 5.76172 228.523 5.62891 228.391 5.51953C228.219 5.37109 228.016 5.26172 227.781 5.19141C227.547 5.12109 227.281 5.08594 226.984 5.08594C226.375 5.08594 225.855 5.24609 225.426 5.56641C225.004 5.87891 224.672 6.30859 224.43 6.85547L224.336 5.32031ZM237.59 5.32031V7.98047H241.199V15.3516H237.59V18H247.926V15.3516H244.492V5.32031H237.59ZM240.965 2.07422C240.965 2.32422 241.008 2.55859 241.094 2.77734C241.188 2.98828 241.316 3.16797 241.48 3.31641C241.645 3.47266 241.84 3.59375 242.066 3.67969C242.301 3.76562 242.559 3.80859 242.84 3.80859C243.418 3.80859 243.875 3.64844 244.211 3.32812C244.555 3 244.727 2.58203 244.727 2.07422C244.727 1.56641 244.555 1.15234 244.211 0.832031C243.875 0.503906 243.418 0.339844 242.84 0.339844C242.559 0.339844 242.301 0.382813 242.066 0.46875C241.84 0.554687 241.645 0.671875 241.48 0.820312C241.316 0.976562 241.188 1.16406 241.094 1.38281C241.008 1.59375 240.965 1.82422 240.965 2.07422ZM257.113 2.21484H253.855V5.32031H250.961V7.72266H253.855V13.4883C253.855 14.3242 253.965 15.043 254.184 15.6445C254.402 16.2383 254.715 16.7266 255.121 17.1094C255.52 17.5 256 17.7891 256.562 17.9766C257.133 18.1562 257.766 18.2461 258.461 18.2461C258.82 18.2461 259.184 18.2266 259.551 18.1875C259.926 18.1562 260.285 18.1094 260.629 18.0469C260.973 17.9844 261.297 17.9062 261.602 17.8125C261.906 17.7109 262.172 17.5938 262.398 17.4609L262.082 15.2227C261.934 15.2617 261.754 15.3008 261.543 15.3398C261.34 15.3789 261.121 15.4141 260.887 15.4453C260.645 15.4844 260.391 15.5156 260.125 15.5391C259.867 15.5625 259.613 15.5742 259.363 15.5742C259.02 15.5742 258.707 15.5352 258.426 15.457C258.152 15.3789 257.918 15.2461 257.723 15.0586C257.527 14.8789 257.375 14.6367 257.266 14.332C257.164 14.0195 257.113 13.6328 257.113 13.1719V7.72266H261.848V5.32031H257.113V2.21484ZM283.246 8.03906V10.5703H285.016C285.461 10.5703 285.859 10.6211 286.211 10.7227C286.57 10.8242 286.879 10.9805 287.137 11.1914C287.387 11.4023 287.578 11.6719 287.711 12C287.844 12.3281 287.91 12.7227 287.91 13.1836C287.91 13.5508 287.852 13.8828 287.734 14.1797C287.625 14.4766 287.461 14.7266 287.242 14.9297C287.016 15.1562 286.734 15.3281 286.398 15.4453C286.062 15.5625 285.684 15.6211 285.262 15.6211C284.887 15.6211 284.543 15.5664 284.23 15.457C283.918 15.3398 283.648 15.1797 283.422 14.9766C283.188 14.7812 283.008 14.5469 282.883 14.2734C282.758 13.9922 282.695 13.6875 282.695 13.3594H279.438C279.438 14.1875 279.598 14.9062 279.918 15.5156C280.246 16.125 280.68 16.6289 281.219 17.0273C281.758 17.4336 282.371 17.7383 283.059 17.9414C283.754 18.1367 284.465 18.2344 285.191 18.2344C286.035 18.2344 286.82 18.125 287.547 17.9062C288.281 17.6797 288.914 17.3516 289.445 16.9219C289.977 16.5 290.395 15.9766 290.699 15.3516C291.004 14.7266 291.156 14.0156 291.156 13.2188C291.156 12.7656 291.102 12.3359 290.992 11.9297C290.883 11.5234 290.715 11.1484 290.488 10.8047C290.262 10.4688 289.973 10.168 289.621 9.90234C289.277 9.63672 288.867 9.41797 288.391 9.24609C288.797 9.05078 289.156 8.82031 289.469 8.55469C289.781 8.28125 290.043 7.98438 290.254 7.66406C290.465 7.34375 290.625 7.00781 290.734 6.65625C290.844 6.29688 290.898 5.93359 290.898 5.56641C290.898 4.76953 290.758 4.07031 290.477 3.46875C290.203 2.85938 289.816 2.34766 289.316 1.93359C288.816 1.52734 288.215 1.22266 287.512 1.01953C286.809 0.808594 286.035 0.703125 285.191 0.703125C284.41 0.703125 283.68 0.816406 283 1.04297C282.328 1.26953 281.742 1.58594 281.242 1.99219C280.742 2.40625 280.348 2.89844 280.059 3.46875C279.777 4.03906 279.637 4.67188 279.637 5.36719H282.895C282.895 5.05469 282.957 4.77344 283.082 4.52344C283.207 4.27344 283.379 4.05859 283.598 3.87891C283.809 3.70703 284.055 3.57422 284.336 3.48047C284.625 3.38672 284.934 3.33984 285.262 3.33984C285.66 3.33984 286.008 3.39453 286.305 3.50391C286.609 3.61328 286.859 3.76562 287.055 3.96094C287.25 4.16406 287.395 4.40625 287.488 4.6875C287.59 4.96094 287.641 5.26562 287.641 5.60156C287.641 5.94531 287.59 6.26562 287.488 6.5625C287.395 6.85156 287.25 7.09766 287.055 7.30078C286.844 7.53516 286.566 7.71875 286.223 7.85156C285.887 7.97656 285.484 8.03906 285.016 8.03906H283.246Z" fill="#484848"/>
<defs>
<clipPath id="clip0_1_517">
<rect y="39" width="150" height="144" rx="8" fill="white"/>
</clipPath>
<clipPath id="clip1_1_517">
<rect width="150" height="36" fill="white" transform="translate(0 39)"/>
</clipPath>
<clipPath id="clip2_1_517">
<rect width="150" height="36" fill="white" transform="translate(0 75)"/>
</clipPath>
<clipPath id="clip3_1_517">
<rect width="150" height="36" fill="white" transform="translate(0 111)"/>
</clipPath>
<clipPath id="clip4_1_517">
<rect width="150" height="36" fill="white" transform="translate(0 147)"/>
</clipPath>
<clipPath id="clip5_1_517">
<rect x="614" y="39" width="200" height="108" rx="8" fill="white"/>
</clipPath>
<clipPath id="clip6_1_517">
<rect width="50" height="108" fill="white" transform="translate(614 39)"/>
</clipPath>
<clipPath id="clip7_1_517">
<rect width="50" height="108" fill="white" transform="translate(664 39)"/>
</clipPath>
<clipPath id="clip8_1_517">
<rect width="50" height="108" fill="white" transform="translate(714 39)"/>
</clipPath>
<clipPath id="clip9_1_517">
<rect width="50" height="108" fill="white" transform="translate(764 39)"/>
</clipPath>
<clipPath id="clip10_1_517">
<rect x="307" y="39" width="150" height="108" rx="8" fill="white"/>
</clipPath>
<clipPath id="clip11_1_517">
<rect width="150" height="36" fill="white" transform="translate(307 39)"/>
</clipPath>
<clipPath id="clip12_1_517">
<rect width="150" height="36" fill="white" transform="translate(307 75)"/>
</clipPath>
<clipPath id="clip13_1_517">
<rect width="150" height="36" fill="white" transform="translate(307 111)"/>
</clipPath>
</defs>
</svg>
