<svg version="1.1" viewBox="0.0 0.0 848.5564304461942 466.40419947506564" fill="none" stroke="none" stroke-linecap="square" stroke-miterlimit="10" xmlns:xlink="http://www.w3.org/1999/xlink" xmlns="http://www.w3.org/2000/svg"><clipPath id="p.0"><path d="m0 0l848.55646 0l0 466.4042l-848.55646 0l0 -466.4042z" clip-rule="nonzero"/></clipPath><g clip-path="url(#p.0)"><path fill="#000000" fill-opacity="0.0" d="m0 0l848.55646 0l0 466.4042l-848.55646 0z" fill-rule="evenodd"/><path fill="#000000" fill-opacity="0.0" d="m316.7981 269.6714l62.04724 -37.259857" fill-rule="evenodd"/><path stroke="#595959" stroke-width="2.0" stroke-linejoin="round" stroke-linecap="butt" d="m316.7981 269.6714l62.04724 -37.259857" fill-rule="evenodd"/><path fill="#000000" fill-opacity="0.0" d="m493.8952 301.96048l-47.93701 -69.54329" fill-rule="evenodd"/><path stroke="#595959" stroke-width="2.0" stroke-linejoin="round" stroke-linecap="butt" d="m493.8952 301.96048l-47.93701 -69.54329" fill-rule="evenodd"/><path fill="#000000" fill-opacity="0.0" d="m321.9582 133.24658l56.881897 33.5748" fill-rule="evenodd"/><path stroke="#595959" stroke-width="2.0" stroke-linejoin="round" stroke-linecap="butt" d="m321.9582 133.24658l56.881897 33.5748" fill-rule="evenodd"/><path fill="#000000" fill-opacity="0.0" d="m412.34937 113.28969l0.06298828 39.968506" fill-rule="evenodd"/><path stroke="#595959" stroke-width="2.0" stroke-linejoin="round" stroke-linecap="butt" d="m412.34937 113.28969l0.06298828 39.968506" fill-rule="evenodd"/><path fill="#000000" fill-opacity="0.0" d="m580.0236 136.3307l-136.47244 48.346466" fill-rule="evenodd"/><path stroke="#595959" stroke-width="2.0" stroke-linejoin="round" stroke-linecap="butt" d="m580.0236 136.3307l-136.47244 48.346466" fill-rule="evenodd"/><path fill="#000000" fill-opacity="0.0" d="m664.1732 281.2188l-214.64569 -64.03148" fill-rule="evenodd"/><path stroke="#595959" stroke-width="2.0" stroke-linejoin="round" stroke-linecap="butt" d="m664.1732 281.2188l-214.64569 -64.03148" fill-rule="evenodd"/><path fill="#000000" fill-opacity="0.0" d="m691.6533 377.1202l-248.09448 -160.62993" fill-rule="evenodd"/><path stroke="#595959" stroke-width="2.0" stroke-linejoin="round" stroke-linecap="butt" d="m691.6533 377.1202l-248.09448 -160.62993" fill-rule="evenodd"/><path fill="#000000" fill-opacity="0.0" d="m388.28082 385.21356l24.125977 -139.21259" fill-rule="evenodd"/><path stroke="#595959" stroke-width="2.0" stroke-linejoin="round" stroke-linecap="butt" d="m388.28082 385.21356l24.125977 -139.21259" fill-rule="evenodd"/><path fill="#000000" fill-opacity="0.0" d="m383.91357 209.20418l-259.3071 93.889755" fill-rule="evenodd"/><path stroke="#595959" stroke-width="2.0" stroke-linejoin="round" stroke-linecap="butt" d="m383.91357 209.20418l-259.3071 93.889755" fill-rule="evenodd"/><path fill="#000000" fill-opacity="0.0" d="m364.95798 199.62302l-267.7795 11.779526" fill-rule="evenodd"/><path stroke="#595959" stroke-width="2.0" stroke-linejoin="round" stroke-linecap="butt" d="m364.95798 199.62302l-267.7795 11.779526" fill-rule="evenodd"/><path fill="#000000" fill-opacity="0.0" d="m400.47787 204.59566l-275.65356 -122.26771" fill-rule="evenodd"/><path stroke="#595959" stroke-width="2.0" stroke-linejoin="round" stroke-linecap="butt" d="m400.47787 204.59566l-275.65356 -122.26771" fill-rule="evenodd"/><path fill="#7f8494" d="m334.83463 417.91437l0 0c0 -25.61383 21.24356 -46.37796 47.448822 -46.37796l0 0c12.584198 0 24.653015 4.8862305 33.55139 13.583801c8.898376 8.69754 13.89743 20.493958 13.89743 32.79416l0 0c0 25.61383 -21.24356 46.37793 -47.448822 46.37793l0 0c-26.205261 0 -47.448822 -20.7641 -47.448822 -46.37793z" fill-rule="evenodd"/><path fill="#00bfb3" d="m235.79788 302.46555l0 0c0 -25.61383 21.24356 -46.37796 47.448822 -46.37796l0 0c12.584198 0 24.652985 4.8862305 33.55139 13.583801c8.898376 8.69754 13.89743 20.493958 13.89743 32.79416l0 0c0 25.61383 -21.24356 46.37796 -47.448822 46.37796l0 0c-26.205261 0 -47.448822 -20.76413 -47.448822 -46.37796z" fill-rule="evenodd"/><path fill="#7f8494" d="m43.60628 335.88812l0 0c0 -25.613861 21.243557 -46.37796 47.44882 -46.37796l0 0c12.584206 0 24.653 4.8862305 33.551384 13.583771c8.898384 8.697571 13.897438 20.493988 13.897438 32.79419l0 0c0 25.61383 -21.24356 46.37793 -47.448822 46.37793l0 0c-26.205261 0 -47.44882 -20.7641 -47.44882 -46.37793z" fill-rule="evenodd"/><path fill="#7f8494" d="m43.824127 49.533783l0 0c0 -25.613838 21.24356 -46.377953 47.448822 -46.377953l0 0c12.584206 0 24.653 4.8862343 33.551376 13.583788c8.898376 8.697554 13.897446 20.493969 13.897446 32.794167l0 0c0 25.613838 -21.243568 46.377953 -47.448822 46.377953l0 0c-26.205261 0 -47.448822 -20.764114 -47.448822 -46.377953z" fill-rule="evenodd"/><path fill="#7f8494" d="m2.2834458 211.39467l0 0c0 -25.61383 21.24356 -46.377945 47.44882 -46.377945l0 0c12.584209 0 24.653004 4.8862305 33.55138 13.583786c8.898384 8.697556 13.897438 20.493973 13.897438 32.79416l0 0c0 25.613846 -21.24356 46.377945 -47.44882 46.377945l0 0c-26.20526 0 -47.44882 -20.7641 -47.44882 -46.377945z" fill-rule="evenodd"/><path fill="#00bfb3" d="m240.958 100.452415l0 0c0 -25.613838 21.243546 -46.377953 47.448807 -46.377953l0 0c12.5842285 0 24.653015 4.8862343 33.55139 13.583786c8.898376 8.697556 13.89743 20.493973 13.89743 32.794167l0 0c0 25.613838 -21.24356 46.377953 -47.448822 46.377953l0 0c-26.205261 0 -47.448807 -20.764114 -47.448807 -46.377953z" fill-rule="evenodd"/><path fill="#00bfb3" d="m569.2756 118.63877l0 0c0 -25.613838 21.24353 -46.377953 47.44879 -46.377953l0 0c12.5842285 0 24.653015 4.8862305 33.55139 13.583786c8.898376 8.697556 13.897461 20.493965 13.897461 32.794167l0 0c0 25.613838 -21.243591 46.377953 -47.448853 46.377953l0 0c-26.205261 0 -47.44879 -20.764114 -47.44879 -46.377953z" fill-rule="evenodd"/><path fill="#7f8494" d="m664.1732 281.2188l0 0c0 -25.61383 21.24353 -46.377945 47.44879 -46.377945l0 0c12.5842285 0 24.653015 4.8862305 33.55139 13.583786c8.898376 8.697571 13.897461 20.493958 13.897461 32.79416l0 0c0 25.61383 -21.243591 46.37796 -47.448853 46.37796l0 0c-26.205261 0 -47.44879 -20.76413 -47.44879 -46.37796z" fill-rule="evenodd"/><path fill="#7f8494" d="m677.75586 409.91437l0 0c0 -25.61383 21.243591 -46.37796 47.448853 -46.37796l0 0c12.5842285 0 24.653015 4.8862305 33.55139 13.583801c8.898376 8.69754 13.8974 20.493958 13.8974 32.79416l0 0c0 25.61383 -21.24353 46.37793 -47.44879 46.37793l0 0c-26.205261 0 -47.448853 -20.7641 -47.448853 -46.37793z" fill-rule="evenodd"/><path fill="#00bfb3" d="m364.90054 66.911736l0 0c0 -25.613838 21.24356 -46.377953 47.448822 -46.377953l0 0c12.584198 0 24.652985 4.8862343 33.55136 13.583788c8.898376 8.697552 13.897461 20.493969 13.897461 32.794167l0 0c0 25.613838 -21.24356 46.377953 -47.448822 46.377953l0 0c-26.205261 0 -47.448822 -20.764114 -47.448822 -46.377953z" fill-rule="evenodd"/><path fill="#0077cc" d="m364.95798 199.62302l0 0c0 -25.61383 21.24356 -46.377945 47.448822 -46.377945l0 0c12.5842285 0 24.653015 4.8862305 33.55139 13.583786c8.898376 8.697556 13.89743 20.493958 13.89743 32.79416l0 0c0 25.613846 -21.24356 46.37796 -47.448822 46.37796l0 0c-26.205261 0 -47.448822 -20.764114 -47.448822 -46.37796z" fill-rule="evenodd"/><path fill="#00bfb3" d="m464.66666 322.3028l0 0c0 -25.61383 21.24356 -46.37793 47.448822 -46.37793l0 0c12.5841675 0 24.653015 4.8862305 33.55139 13.583771c8.898376 8.697571 13.8974 20.493988 13.8974 32.79416l0 0c0 25.613861 -21.24353 46.37796 -47.44879 46.37796l0 0c-26.205261 0 -47.448822 -20.7641 -47.448822 -46.37796z" fill-rule="evenodd"/><path fill="#7f8494" d="m749.5144 152.52328l0 0c0 -25.613838 21.243591 -46.377953 47.448853 -46.377953l0 0c12.5841675 0 24.652954 4.8862305 33.55133 13.583786c8.8984375 8.697548 13.897461 20.493965 13.897461 32.794167l0 0c0 25.61383 -21.24353 46.377945 -47.44879 46.377945l0 0c-26.205261 0 -47.448853 -20.764114 -47.448853 -46.377945z" fill-rule="evenodd"/><path fill="#000000" fill-opacity="0.0" d="m751.2257 155.37105l-291.3701 44.25197" fill-rule="evenodd"/><path stroke="#595959" stroke-width="2.0" stroke-linejoin="round" stroke-linecap="butt" d="m751.2257 155.37105l-291.3701 44.25197" fill-rule="evenodd"/><path fill="#000000" fill-opacity="0.0" d="m352.9888 161.87286l118.834625 0l0 96.944885l-118.834625 0z" fill-rule="evenodd"/><path fill="#ffffff" d="m394.18344 195.58723l0 -5.40625q-0.4375 0.609375 -1.21875 1.015625q-0.78125 0.40625 -1.671875 0.40625q-1.96875 0 -3.390625 -1.5625q-1.421875 -1.578125 -1.421875 -4.328125q0 -1.65625 0.578125 -2.984375q0.578125 -1.328125 1.671875 -2.0q1.109375 -0.6875 2.421875 -0.6875q2.046875 0 3.21875 1.734375l0 -1.484375l1.6875 0l0 15.296875l-1.875 0zm-5.78125 -9.796875q0 2.140625 0.890625 3.203125q0.90625 1.0625 2.15625 1.0625q1.203125 0 2.0625 -1.015625q0.859375 -1.015625 0.859375 -3.078125q0 -2.21875 -0.90625 -3.328125q-0.90625 -1.109375 -2.140625 -1.109375q-1.21875 0 -2.078125 1.03125q-0.84375 1.03125 -0.84375 3.234375zm17.84607 5.5625l0 -1.625q-1.296875 1.875 -3.515625 1.875q-0.96875 0 -1.828125 -0.375q-0.84375 -0.375 -1.265625 -0.9375q-0.40625 -0.578125 -0.5625 -1.390625q-0.125 -0.5625 -0.125 -1.75l0 -6.859375l1.875 0l0 6.140625q0 1.46875 0.125 1.96875q0.171875 0.75 0.734375 1.171875q0.578125 0.421875 1.421875 0.421875q0.84375 0 1.578125 -0.4375q0.75 -0.4375 1.046875 -1.171875q0.3125 -0.75 0.3125 -2.171875l0 -5.921875l1.875 0l0 11.0625l-1.671875 0zm12.189819 -3.5625l1.921875 0.234375q-0.453125 1.703125 -1.6875 2.640625q-1.234375 0.9375 -3.171875 0.9375q-2.421875 0 -3.84375 -1.484375q-1.421875 -1.5 -1.421875 -4.203125q0 -2.796875 1.4375 -4.328125q1.4375 -1.546875 3.734375 -1.546875q2.21875 0 3.609375 1.515625q1.40625 1.5 1.40625 4.25q0 0.15625 0 0.5l-8.25 0q0.109375 1.8125 1.03125 2.78125q0.921875 0.96875 2.3125 0.96875q1.03125 0 1.75 -0.53125q0.734375 -0.546875 1.171875 -1.734375zm-6.15625 -3.03125l6.171875 0q-0.125 -1.390625 -0.703125 -2.09375q-0.90625 -1.078125 -2.328125 -1.078125q-1.296875 0 -2.171875 0.859375q-0.875 0.859375 -0.96875 2.3125zm10.424194 6.59375l0 -11.0625l1.6875 0l0 1.671875q0.640625 -1.171875 1.1875 -1.546875q0.546875 -0.375 1.203125 -0.375q0.953125 0 1.921875 0.609375l-0.640625 1.734375q-0.6875 -0.40625 -1.375 -0.40625q-0.609375 0 -1.109375 0.375q-0.484375 0.359375 -0.6875 1.015625q-0.3125 1.0 -0.3125 2.1875l0 5.796875l-1.875 0zm7.0399475 4.265625l-0.21875 -1.765625q0.625 0.171875 1.078125 0.171875q0.625 0 1.0 -0.21875q0.375 -0.203125 0.609375 -0.578125q0.1875 -0.28125 0.578125 -1.390625q0.046875 -0.15625 0.171875 -0.46875l-4.203125 -11.078125l2.015625 0l2.3125 6.40625q0.4375 1.21875 0.796875 2.5625q0.328125 -1.296875 0.765625 -2.515625l2.375 -6.453125l1.875 0l-4.21875 11.25q-0.671875 1.828125 -1.046875 2.515625q-0.5 0.921875 -1.15625 1.34375q-0.640625 0.4375 -1.53125 0.4375q-0.546875 0 -1.203125 -0.21875z" fill-rule="nonzero"/><path fill="#ffffff" d="m387.8507 216.95287l-4.21875 -11.0625l1.984375 0l2.375 6.625q0.390625 1.078125 0.703125 2.234375q0.25 -0.875 0.703125 -2.109375l2.453125 -6.75l1.9375 0l-4.1875 11.0625l-1.75 0zm15.1640625 -3.5625l1.921875 0.234375q-0.453125 1.703125 -1.6875 2.640625q-1.234375 0.9375 -3.171875 0.9375q-2.421875 0 -3.84375 -1.484375q-1.421875 -1.5 -1.421875 -4.203125q0 -2.796875 1.4375 -4.328125q1.4375 -1.546875 3.734375 -1.546875q2.21875 0 3.609375 1.515625q1.40625 1.5 1.40625 4.25q0 0.15625 0 0.5l-8.25 0q0.109375 1.8125 1.03125 2.78125q0.921875 0.96875 2.3125 0.96875q1.03125 0 1.75 -0.53125q0.734375 -0.546875 1.171875 -1.734375zm-6.15625 -3.03125l6.171875 0q-0.125 -1.390625 -0.703125 -2.09375q-0.90625 -1.078125 -2.328125 -1.078125q-1.296875 0 -2.171875 0.859375q-0.875 0.859375 -0.96875 2.3125zm17.65857 2.546875l1.84375 0.234375q-0.296875 1.90625 -1.546875 2.984375q-1.25 1.078125 -3.0625 1.078125q-2.265625 0 -3.65625 -1.484375q-1.375 -1.484375 -1.375 -4.25q0 -1.796875 0.59375 -3.140625q0.59375 -1.34375 1.8125 -2.015625q1.21875 -0.671875 2.640625 -0.671875q1.796875 0 2.9375 0.921875q1.15625 0.90625 1.484375 2.578125l-1.828125 0.28125q-0.265625 -1.109375 -0.921875 -1.671875q-0.65625 -0.5625 -1.59375 -0.5625q-1.421875 0 -2.3125 1.015625q-0.875 1.015625 -0.875 3.203125q0 2.234375 0.84375 3.25q0.859375 1.0 2.234375 1.0q1.109375 0 1.84375 -0.671875q0.734375 -0.671875 0.9375 -2.078125zm7.5390625 2.375l0.265625 1.65625q-0.78125 0.15625 -1.40625 0.15625q-1.03125 0 -1.59375 -0.3125q-0.5625 -0.328125 -0.796875 -0.84375q-0.21875 -0.53125 -0.21875 -2.21875l0 -6.375l-1.375 0l0 -1.453125l1.375 0l0 -2.734375l1.859375 -1.125l0 3.859375l1.890625 0l0 1.453125l-1.890625 0l0 6.46875q0 0.8125 0.09375 1.046875q0.109375 0.21875 0.328125 0.359375q0.234375 0.125 0.640625 0.125q0.3125 0 0.828125 -0.0625zm1.1287537 -3.859375q0 -3.078125 1.71875 -4.546875q1.421875 -1.234375 3.46875 -1.234375q2.28125 0 3.71875 1.5q1.453125 1.484375 1.453125 4.125q0 2.140625 -0.640625 3.359375q-0.625 1.21875 -1.859375 1.90625q-1.21875 0.671875 -2.671875 0.671875q-2.3125 0 -3.75 -1.484375q-1.4375 -1.5 -1.4375 -4.296875zm1.9375 0q0 2.125 0.921875 3.1875q0.921875 1.046875 2.328125 1.046875q1.40625 0 2.328125 -1.0625q0.921875 -1.0625 0.921875 -3.234375q0 -2.046875 -0.9375 -3.109375q-0.921875 -1.0625 -2.3125 -1.0625q-1.40625 0 -2.328125 1.0625q-0.921875 1.046875 -0.921875 3.171875zm10.611694 5.53125l0 -11.0625l1.6875 0l0 1.671875q0.640625 -1.171875 1.1875 -1.546875q0.546875 -0.375 1.203125 -0.375q0.953125 0 1.921875 0.609375l-0.640625 1.734375q-0.6875 -0.40625 -1.375 -0.40625q-0.609375 0 -1.109375 0.375q-0.484375 0.359375 -0.6875 1.015625q-0.3125 1.0 -0.3125 2.1875l0 5.796875l-1.875 0z" fill-rule="nonzero"/></g></svg>