<svg version="1.1" xmlns:xlink="http://www.w3.org/1999/xlink" xmlns="http://www.w3.org/2000/svg" width="1070" height="61" viewbox="0 0 1070 61"><defs><style type="text/css">.c{fill:none;stroke:#222222;}.k{fill:#000000;font-family: ui-monospace, SFMono-Regular, Menlo, Monaco, Consolas, "Liberation Mono", "Courier New", monospace;font-size:20px;}.s{fill:#e4f4ff;stroke:#222222;}.syn{fill:#8D8D8D;font-family: ui-monospace, SFMono-Regular, Menlo, Monaco, Consolas, "Liberation Mono", "Courier New", monospace;font-size:20px;}</style></defs><path class="c" d="M0 31h5m92 0h10m32 0h10m80 0h10m32 0h10m104 0h30m68 0h10m32 0h10m44 0h10m32 0h10m212 0h20m-463 0q5 0 5 5v10q0 5 5 5h438q5 0 5-5v-10q0-5 5-5m5 0h30m32 0h10m68 0h20m-145 0q5 0 5 5v10q0 5 5 5h120q5 0 5-5v-10q0-5 5-5m5 0h10m32 0h5"/><rect class="s" x="5" y="5" width="92" height="36"/><text class="k" x="15" y="31">BUCKET</text><rect class="s" x="107" y="5" width="32" height="36" rx="7"/><text class="syn" x="117" y="31">(</text><rect class="s" x="149" y="5" width="80" height="36" rx="7"/><text class="k" x="159" y="31">field</text><rect class="s" x="239" y="5" width="32" height="36" rx="7"/><text class="syn" x="249" y="31">,</text><rect class="s" x="281" y="5" width="104" height="36" rx="7"/><text class="k" x="291" y="31">buckets</text><rect class="s" x="415" y="5" width="68" height="36" rx="7"/><text class="k" x="425" y="31">from</text><rect class="s" x="493" y="5" width="32" height="36" rx="7"/><text class="syn" x="503" y="31">,</text><rect class="s" x="535" y="5" width="44" height="36" rx="7"/><text class="k" x="545" y="31">to</text><rect class="s" x="589" y="5" width="32" height="36" rx="7"/><text class="syn" x="599" y="31">,</text><rect class="s" x="631" y="5" width="212" height="36" rx="7"/><text class="k" x="641" y="31">emitEmptyBuckets</text><rect class="s" x="893" y="5" width="32" height="36" rx="7"/><text class="syn" x="903" y="31">,</text><rect class="s" x="935" y="5" width="68" height="36" rx="7"/><text class="k" x="945" y="31">from</text><rect class="s" x="1033" y="5" width="32" height="36" rx="7"/><text class="syn" x="1043" y="31">)</text></svg>