<svg version="1.1" xmlns:xlink="http://www.w3.org/1999/xlink" xmlns="http://www.w3.org/2000/svg" width="592" height="61" viewbox="0 0 592 61"><defs><style type="text/css">.c{fill:none;stroke:#222222;}.k{fill:#000000;font-family: ui-monospace, SFMono-Regular, Menlo, Monaco, Consolas, "Liberation Mono", "Courier New", monospace;font-size:20px;}.s{fill:#e4f4ff;stroke:#222222;}.syn{fill:#8D8D8D;font-family: ui-monospace, SFMono-Regular, Menlo, Monaco, Consolas, "Liberation Mono", "Courier New", monospace;font-size:20px;}</style></defs><path class="c" d="M0 31h5m188 0h10m32 0h10m80 0h10m32 0h30m128 0h20m-163 0q5 0 5 5v10q0 5 5 5h138q5 0 5-5v-10q0-5 5-5m5 0h10m32 0h5"/><rect class="s" x="5" y="5" width="188" height="36"/><text class="k" x="15" y="31">COUNT_DISTINCT</text><rect class="s" x="203" y="5" width="32" height="36" rx="7"/><text class="syn" x="213" y="31">(</text><rect class="s" x="245" y="5" width="80" height="36" rx="7"/><text class="k" x="255" y="31">field</text><rect class="s" x="335" y="5" width="32" height="36" rx="7"/><text class="syn" x="345" y="31">,</text><rect class="s" x="397" y="5" width="128" height="36" rx="7"/><text class="k" x="407" y="31">precision</text><rect class="s" x="555" y="5" width="32" height="36" rx="7"/><text class="syn" x="565" y="31">)</text></svg>