<svg version="1.1" xmlns:xlink="http://www.w3.org/1999/xlink" xmlns="http://www.w3.org/2000/svg" width="304" height="61" viewbox="0 0 304 61"><defs><style type="text/css">.c{fill:none;stroke:#222222;}.k{fill:#000000;font-family: ui-monospace, SFMono-Regular, Menlo, Monaco, Consolas, "Liberation Mono", "Courier New", monospace;font-size:20px;}.s{fill:#e4f4ff;stroke:#222222;}.syn{fill:#8D8D8D;font-family: ui-monospace, SFMono-Regular, Menlo, Monaco, Consolas, "Liberation Mono", "Courier New", monospace;font-size:20px;}</style></defs><path class="c" d="M0 31h5m80 0h10m32 0h30m80 0h20m-115 0q5 0 5 5v10q0 5 5 5h90q5 0 5-5v-10q0-5 5-5m5 0h10m32 0h5"/><rect class="s" x="5" y="5" width="80" height="36"/><text class="k" x="15" y="31">COUNT</text><rect class="s" x="95" y="5" width="32" height="36" rx="7"/><text class="syn" x="105" y="31">(</text><rect class="s" x="157" y="5" width="80" height="36" rx="7"/><text class="k" x="167" y="31">field</text><rect class="s" x="267" y="5" width="32" height="36" rx="7"/><text class="syn" x="277" y="31">)</text></svg>