<svg version="1.1" xmlns:xlink="http://www.w3.org/1999/xlink" xmlns="http://www.w3.org/2000/svg" width="756" height="46" viewbox="0 0 756 46"><defs><style type="text/css">.c{fill:none;stroke:#222222;}.k{fill:#000000;font-family: ui-monospace, SFMono-Regular, Menlo, Monaco, Consolas, "Liberation Mono", "Courier New", monospace;font-size:20px;}.s{fill:#e4f4ff;stroke:#222222;}.syn{fill:#8D8D8D;font-family: ui-monospace, SFMono-Regular, Menlo, Monaco, Consolas, "Liberation Mono", "Courier New", monospace;font-size:20px;}</style></defs><path class="c" d="M0 31h5m128 0h10m32 0h10m68 0h10m32 0h10m188 0h10m32 0h10m164 0h10m32 0h5"/><rect class="s" x="5" y="5" width="128" height="36"/><text class="k" x="15" y="31">DATE_DIFF</text><rect class="s" x="143" y="5" width="32" height="36" rx="7"/><text class="syn" x="153" y="31">(</text><rect class="s" x="185" y="5" width="68" height="36" rx="7"/><text class="k" x="195" y="31">unit</text><rect class="s" x="263" y="5" width="32" height="36" rx="7"/><text class="syn" x="273" y="31">,</text><rect class="s" x="305" y="5" width="188" height="36" rx="7"/><text class="k" x="315" y="31">startTimestamp</text><rect class="s" x="503" y="5" width="32" height="36" rx="7"/><text class="syn" x="513" y="31">,</text><rect class="s" x="545" y="5" width="164" height="36" rx="7"/><text class="k" x="555" y="31">endTimestamp</text><rect class="s" x="719" y="5" width="32" height="36" rx="7"/><text class="syn" x="729" y="31">)</text></svg>