<svg version="1.1" xmlns:xlink="http://www.w3.org/1999/xlink" xmlns="http://www.w3.org/2000/svg" width="432" height="46" viewbox="0 0 432 46"><defs><style type="text/css">.c{fill:none;stroke:#222222;}.k{fill:#000000;font-family: ui-monospace, SFMono-Regular, Menlo, Monaco, Consolas, "Liberation Mono", "Courier New", monospace;font-size:20px;}.s{fill:#e4f4ff;stroke:#222222;}.syn{fill:#8D8D8D;font-family: ui-monospace, SFMono-Regular, Menlo, Monaco, Consolas, "Liberation Mono", "Courier New", monospace;font-size:20px;}</style></defs><path class="c" d="M0 31h5m68 0h10m32 0h10m128 0h10m32 0h10m80 0h10m32 0h5"/><rect class="s" x="5" y="5" width="68" height="36"/><text class="k" x="15" y="31">HASH</text><rect class="s" x="83" y="5" width="32" height="36" rx="7"/><text class="syn" x="93" y="31">(</text><rect class="s" x="125" y="5" width="128" height="36" rx="7"/><text class="k" x="135" y="31">algorithm</text><rect class="s" x="263" y="5" width="32" height="36" rx="7"/><text class="syn" x="273" y="31">,</text><rect class="s" x="305" y="5" width="80" height="36" rx="7"/><text class="k" x="315" y="31">input</text><rect class="s" x="395" y="5" width="32" height="36" rx="7"/><text class="syn" x="405" y="31">)</text></svg>