<svg version="1.1" xmlns:xlink="http://www.w3.org/1999/xlink" xmlns="http://www.w3.org/2000/svg" width="640" height="61" viewbox="0 0 640 61"><defs><style type="text/css">.c{fill:none;stroke:#222222;}.k{fill:#000000;font-family: ui-monospace, SFMono-Regular, Menlo, Monaco, Consolas, "Liberation Mono", "Courier New", monospace;font-size:20px;}.s{fill:#e4f4ff;stroke:#222222;}.syn{fill:#8D8D8D;font-family: ui-monospace, SFMono-Regular, Menlo, Monaco, Consolas, "Liberation Mono", "Courier New", monospace;font-size:20px;}</style></defs><path class="c" d="M0 31h5m92 0h10m32 0h10m92 0h10m32 0h10m128 0h10m32 0h30m80 0h20m-115 0q5 0 5 5v10q0 5 5 5h90q5 0 5-5v-10q0-5 5-5m5 0h10m32 0h5"/><rect class="s" x="5" y="5" width="92" height="36"/><text class="k" x="15" y="31">LOCATE</text><rect class="s" x="107" y="5" width="32" height="36" rx="7"/><text class="syn" x="117" y="31">(</text><rect class="s" x="149" y="5" width="92" height="36" rx="7"/><text class="k" x="159" y="31">string</text><rect class="s" x="251" y="5" width="32" height="36" rx="7"/><text class="syn" x="261" y="31">,</text><rect class="s" x="293" y="5" width="128" height="36" rx="7"/><text class="k" x="303" y="31">substring</text><rect class="s" x="431" y="5" width="32" height="36" rx="7"/><text class="syn" x="441" y="31">,</text><rect class="s" x="493" y="5" width="80" height="36" rx="7"/><text class="k" x="503" y="31">start</text><rect class="s" x="603" y="5" width="32" height="36" rx="7"/><text class="syn" x="613" y="31">)</text></svg>