<svg version="1.1" xmlns:xlink="http://www.w3.org/1999/xlink" xmlns="http://www.w3.org/2000/svg" width="412" height="61" viewbox="0 0 412 61"><defs><style type="text/css">.c{fill:none;stroke:#222222;}.k{fill:#000000;font-family: ui-monospace, SFMono-Regular, Menlo, Monaco, Consolas, "Liberation Mono", "Courier New", monospace;font-size:20px;}.s{fill:#e4f4ff;stroke:#222222;}.syn{fill:#8D8D8D;font-family: ui-monospace, SFMono-Regular, Menlo, Monaco, Consolas, "Liberation Mono", "Courier New", monospace;font-size:20px;}</style></defs><path class="c" d="M0 31h5m56 0h10m32 0h30m68 0h10m32 0h20m-145 0q5 0 5 5v10q0 5 5 5h120q5 0 5-5v-10q0-5 5-5m5 0h10m92 0h10m32 0h5"/><rect class="s" x="5" y="5" width="56" height="36"/><text class="k" x="15" y="31">LOG</text><rect class="s" x="71" y="5" width="32" height="36" rx="7"/><text class="syn" x="81" y="31">(</text><rect class="s" x="133" y="5" width="68" height="36" rx="7"/><text class="k" x="143" y="31">base</text><rect class="s" x="211" y="5" width="32" height="36" rx="7"/><text class="syn" x="221" y="31">,</text><rect class="s" x="273" y="5" width="92" height="36" rx="7"/><text class="k" x="283" y="31">number</text><rect class="s" x="375" y="5" width="32" height="36" rx="7"/><text class="syn" x="385" y="31">)</text></svg>