<svg version="1.1" xmlns:xlink="http://www.w3.org/1999/xlink" xmlns="http://www.w3.org/2000/svg" width="676" height="61" viewbox="0 0 676 61"><defs><style type="text/css">.c{fill:none;stroke:#222222;}.k{fill:#000000;font-family: ui-monospace, SFMono-Regular, Menlo, Monaco, Consolas, "Liberation Mono", "Courier New", monospace;font-size:20px;}.s{fill:#e4f4ff;stroke:#222222;}.syn{fill:#8D8D8D;font-family: ui-monospace, SFMono-Regular, Menlo, Monaco, Consolas, "Liberation Mono", "Courier New", monospace;font-size:20px;}</style></defs><path class="c" d="M0 31h5m164 0h10m32 0h10m80 0h10m32 0h10m80 0h10m32 0h30m104 0h20m-139 0q5 0 5 5v10q0 5 5 5h114q5 0 5-5v-10q0-5 5-5m5 0h10m32 0h5"/><rect class="s" x="5" y="5" width="164" height="36"/><text class="k" x="15" y="31">MATCH_PHRASE</text><rect class="s" x="179" y="5" width="32" height="36" rx="7"/><text class="syn" x="189" y="31">(</text><rect class="s" x="221" y="5" width="80" height="36" rx="7"/><text class="k" x="231" y="31">field</text><rect class="s" x="311" y="5" width="32" height="36" rx="7"/><text class="syn" x="321" y="31">,</text><rect class="s" x="353" y="5" width="80" height="36" rx="7"/><text class="k" x="363" y="31">query</text><rect class="s" x="443" y="5" width="32" height="36" rx="7"/><text class="syn" x="453" y="31">,</text><rect class="s" x="505" y="5" width="104" height="36" rx="7"/><text class="k" x="515" y="31">options</text><rect class="s" x="639" y="5" width="32" height="36" rx="7"/><text class="syn" x="649" y="31">)</text></svg>