<svg version="1.1" xmlns:xlink="http://www.w3.org/1999/xlink" xmlns="http://www.w3.org/2000/svg" width="716" height="76" viewbox="0 0 716 76"><defs><style type="text/css">.c{fill:none;stroke:#222222;}.k{fill:#000000;font-family: ui-monospace, SFMono-Regular, Menlo, Monaco, Consolas, "Liberation Mono", "Courier New", monospace;font-size:20px;}.s{fill:#e4f4ff;stroke:#222222;}.syn{fill:#8D8D8D;font-family: ui-monospace, SFMono-Regular, Menlo, Monaco, Consolas, "Liberation Mono", "Courier New", monospace;font-size:20px;}</style></defs><path class="c" d="M0 46h5m152 0h10m32 0h10m80 0h30m-5 0q-5 0-5-5v-26q0-5 5-5h144q5 0 5 5v26q0 5-5 5m-107 0h10m92 0h30m32 0h30m104 0h20m-139 0q5 0 5 5v10q0 5 5 5h114q5 0 5-5v-10q0-5 5-5m5 0h10m32 0h5"/><rect class="s" x="5" y="20" width="152" height="36"/><text class="k" x="15" y="46">MULTI_MATCH</text><rect class="s" x="167" y="20" width="32" height="36" rx="7"/><text class="syn" x="177" y="46">(</text><rect class="s" x="209" y="20" width="80" height="36" rx="7"/><text class="k" x="219" y="46">query</text><rect class="s" x="319" y="20" width="32" height="36" rx="7"/><text class="syn" x="329" y="46">,</text><rect class="s" x="361" y="20" width="92" height="36" rx="7"/><text class="k" x="371" y="46">fields</text><rect class="s" x="483" y="20" width="32" height="36" rx="7"/><text class="syn" x="493" y="46">,</text><rect class="s" x="545" y="20" width="104" height="36" rx="7"/><text class="k" x="555" y="46">options</text><rect class="s" x="679" y="20" width="32" height="36" rx="7"/><text class="syn" x="689" y="46">)</text></svg>