<svg version="1.1" xmlns:xlink="http://www.w3.org/1999/xlink" xmlns="http://www.w3.org/2000/svg" width="628" height="61" viewbox="0 0 628 61"><defs><style type="text/css">.c{fill:none;stroke:#222222;}.k{fill:#000000;font-family: ui-monospace, SFMono-Regular, Menlo, Monaco, Consolas, "Liberation Mono", "Courier New", monospace;font-size:20px;}.s{fill:#e4f4ff;stroke:#222222;}.syn{fill:#8D8D8D;font-family: ui-monospace, SFMono-Regular, Menlo, Monaco, Consolas, "Liberation Mono", "Courier New", monospace;font-size:20px;}</style></defs><path class="c" d="M0 31h5m92 0h10m32 0h10m104 0h10m32 0h10m104 0h10m32 0h30m80 0h20m-115 0q5 0 5 5v10q0 5 5 5h90q5 0 5-5v-10q0-5 5-5m5 0h10m32 0h5"/><rect class="s" x="5" y="5" width="92" height="36"/><text class="k" x="15" y="31">MV_ZIP</text><rect class="s" x="107" y="5" width="32" height="36" rx="7"/><text class="syn" x="117" y="31">(</text><rect class="s" x="149" y="5" width="104" height="36" rx="7"/><text class="k" x="159" y="31">string1</text><rect class="s" x="263" y="5" width="32" height="36" rx="7"/><text class="syn" x="273" y="31">,</text><rect class="s" x="305" y="5" width="104" height="36" rx="7"/><text class="k" x="315" y="31">string2</text><rect class="s" x="419" y="5" width="32" height="36" rx="7"/><text class="syn" x="429" y="31">,</text><rect class="s" x="481" y="5" width="80" height="36" rx="7"/><text class="k" x="491" y="31">delim</text><rect class="s" x="591" y="5" width="32" height="36" rx="7"/><text class="syn" x="601" y="31">)</text></svg>