<svg version="1.1" xmlns:xlink="http://www.w3.org/1999/xlink" xmlns="http://www.w3.org/2000/svg" width="528" height="46" viewbox="0 0 528 46"><defs><style type="text/css">.c{fill:none;stroke:#222222;}.k{fill:#000000;font-family: ui-monospace, SFMono-Regular, Menlo, Monaco, Consolas, "Liberation Mono", "Courier New", monospace;font-size:20px;}.s{fill:#e4f4ff;stroke:#222222;}.syn{fill:#8D8D8D;font-family: ui-monospace, SFMono-Regular, Menlo, Monaco, Consolas, "Liberation Mono", "Courier New", monospace;font-size:20px;}</style></defs><path class="c" d="M0 31h5m140 0h10m32 0h10m92 0h10m32 0h10m140 0h10m32 0h5"/><rect class="s" x="5" y="5" width="140" height="36"/><text class="k" x="15" y="31">PERCENTILE</text><rect class="s" x="155" y="5" width="32" height="36" rx="7"/><text class="syn" x="165" y="31">(</text><rect class="s" x="197" y="5" width="92" height="36" rx="7"/><text class="k" x="207" y="31">number</text><rect class="s" x="299" y="5" width="32" height="36" rx="7"/><text class="syn" x="309" y="31">,</text><rect class="s" x="341" y="5" width="140" height="36" rx="7"/><text class="k" x="351" y="31">percentile</text><rect class="s" x="491" y="5" width="32" height="36" rx="7"/><text class="syn" x="501" y="31">)</text></svg>