<svg version="1.1" xmlns:xlink="http://www.w3.org/1999/xlink" xmlns="http://www.w3.org/2000/svg" width="792" height="46" viewbox="0 0 792 46"><defs><style type="text/css">.c{fill:none;stroke:#222222;}.k{fill:#000000;font-family: ui-monospace, SFMono-Regular, Menlo, Monaco, Consolas, "Liberation Mono", "Courier New", monospace;font-size:20px;}.s{fill:#e4f4ff;stroke:#222222;}.syn{fill:#8D8D8D;font-family: ui-monospace, SFMono-Regular, Menlo, Monaco, Consolas, "Liberation Mono", "Courier New", monospace;font-size:20px;}</style></defs><path class="c" d="M0 31h5m128 0h10m32 0h10m80 0h10m32 0h10m56 0h10m32 0h10m104 0h10m32 0h10m68 0h10m32 0h10m44 0h10m32 0h5"/><rect class="s" x="5" y="5" width="128" height="36"/><text class="k" x="15" y="31">SPARKLINE</text><rect class="s" x="143" y="5" width="32" height="36" rx="7"/><text class="syn" x="153" y="31">(</text><rect class="s" x="185" y="5" width="80" height="36" rx="7"/><text class="k" x="195" y="31">field</text><rect class="s" x="275" y="5" width="32" height="36" rx="7"/><text class="syn" x="285" y="31">,</text><rect class="s" x="317" y="5" width="56" height="36" rx="7"/><text class="k" x="327" y="31">key</text><rect class="s" x="383" y="5" width="32" height="36" rx="7"/><text class="syn" x="393" y="31">,</text><rect class="s" x="425" y="5" width="104" height="36" rx="7"/><text class="k" x="435" y="31">buckets</text><rect class="s" x="539" y="5" width="32" height="36" rx="7"/><text class="syn" x="549" y="31">,</text><rect class="s" x="581" y="5" width="68" height="36" rx="7"/><text class="k" x="591" y="31">from</text><rect class="s" x="659" y="5" width="32" height="36" rx="7"/><text class="syn" x="669" y="31">,</text><rect class="s" x="701" y="5" width="44" height="36" rx="7"/><text class="k" x="711" y="31">to</text><rect class="s" x="755" y="5" width="32" height="36" rx="7"/><text class="syn" x="765" y="31">)</text></svg>