<svg version="1.1" xmlns:xlink="http://www.w3.org/1999/xlink" xmlns="http://www.w3.org/2000/svg" width="864" height="46" viewbox="0 0 864 46"><defs><style type="text/css">.c{fill:none;stroke:#222222;}.k{fill:#000000;font-family: ui-monospace, SFMono-Regular, Menlo, Monaco, Consolas, "Liberation Mono", "Courier New", monospace;font-size:20px;}.s{fill:#e4f4ff;stroke:#222222;}.syn{fill:#8D8D8D;font-family: ui-monospace, SFMono-Regular, Menlo, Monaco, Consolas, "Liberation Mono", "Courier New", monospace;font-size:20px;}</style></defs><path class="c" d="M0 31h5m128 0h10m32 0h10m152 0h10m32 0h10m56 0h10m32 0h10m104 0h10m32 0h10m68 0h10m32 0h10m44 0h10m32 0h5"/><rect class="s" x="5" y="5" width="128" height="36"/><text class="k" x="15" y="31">SPARKLINE</text><rect class="s" x="143" y="5" width="32" height="36" rx="7"/><text class="syn" x="153" y="31">(</text><rect class="s" x="185" y="5" width="152" height="36" rx="7"/><text class="k" x="195" y="31">aggregation</text><rect class="s" x="347" y="5" width="32" height="36" rx="7"/><text class="syn" x="357" y="31">,</text><rect class="s" x="389" y="5" width="56" height="36" rx="7"/><text class="k" x="399" y="31">key</text><rect class="s" x="455" y="5" width="32" height="36" rx="7"/><text class="syn" x="465" y="31">,</text><rect class="s" x="497" y="5" width="104" height="36" rx="7"/><text class="k" x="507" y="31">buckets</text><rect class="s" x="611" y="5" width="32" height="36" rx="7"/><text class="syn" x="621" y="31">,</text><rect class="s" x="653" y="5" width="68" height="36" rx="7"/><text class="k" x="663" y="31">from</text><rect class="s" x="731" y="5" width="32" height="36" rx="7"/><text class="syn" x="741" y="31">,</text><rect class="s" x="773" y="5" width="44" height="36" rx="7"/><text class="k" x="783" y="31">to</text><rect class="s" x="827" y="5" width="32" height="36" rx="7"/><text class="syn" x="837" y="31">)</text></svg>