<svg xmlns="http://www.w3.org/2000/svg" width="360" height="240" viewBox="0 0 360 240">
  <path d="M 283.45 120.00 L 281.46 140.18 L 275.57 159.59 L 266.01 177.47 L 253.15 193.15 L 237.47 206.01 L 219.59 215.57 L 200.18 221.46 L 180.00 223.45 L 159.82 221.46 L 140.41 215.57 L 122.53 206.01 L 106.85 193.15 L 93.99 177.47 L 84.43 159.59 L 78.54 140.18 L 76.55 120.00 L 78.54 99.82 L 84.43 80.41 L 93.99 62.53 L 106.85 46.85 L 122.53 33.99 L 140.41 24.43 L 159.82 18.54 L 180.00 16.55 L 200.18 18.54 L 219.59 24.43 L 237.47 33.99 L 253.15 46.85 L 266.01 62.53 L 275.57 80.41 L 281.46 99.82 L 283.45 120.00 Z" fill="#80d0d0" fill-opacity="0.60" stroke="#0a8aa6" stroke-width="1.50" stroke-linejoin="round" stroke-linecap="round" fill-rule="evenodd"/>
  <circle cx="180.00" cy="120.00" r="4" fill="none" fill-opacity="1.00" stroke="#888888" stroke-width="1.50"/>
</svg>
