<svg version="1.1" xmlns:xlink="http://www.w3.org/1999/xlink" xmlns="http://www.w3.org/2000/svg" width="712" height="61" viewbox="0 0 712 61"><defs><style type="text/css">.c{fill:none;stroke:#222222;}.k{fill:#000000;font-family: ui-monospace, SFMono-Regular, Menlo, Monaco, Consolas, "Liberation Mono", "Courier New", monospace;font-size:20px;}.s{fill:#e4f4ff;stroke:#222222;}.syn{fill:#8D8D8D;font-family: ui-monospace, SFMono-Regular, Menlo, Monaco, Consolas, "Liberation Mono", "Courier New", monospace;font-size:20px;}</style></defs><path class="c" d="M0 31h5m128 0h10m32 0h10m116 0h10m32 0h10m128 0h10m32 0h30m92 0h20m-127 0q5 0 5 5v10q0 5 5 5h102q5 0 5-5v-10q0-5 5-5m5 0h10m32 0h5"/><rect class="s" x="5" y="5" width="128" height="36"/><text class="k" x="15" y="31">ST_GEOHEX</text><rect class="s" x="143" y="5" width="32" height="36" rx="7"/><text class="syn" x="153" y="31">(</text><rect class="s" x="185" y="5" width="116" height="36" rx="7"/><text class="k" x="195" y="31">geometry</text><rect class="s" x="311" y="5" width="32" height="36" rx="7"/><text class="syn" x="321" y="31">,</text><rect class="s" x="353" y="5" width="128" height="36" rx="7"/><text class="k" x="363" y="31">precision</text><rect class="s" x="491" y="5" width="32" height="36" rx="7"/><text class="syn" x="501" y="31">,</text><rect class="s" x="553" y="5" width="92" height="36" rx="7"/><text class="k" x="563" y="31">bounds</text><rect class="s" x="675" y="5" width="32" height="36" rx="7"/><text class="syn" x="685" y="31">)</text></svg>