<svg xmlns="http://www.w3.org/2000/svg" width="480" height="480" viewBox="0 0 480 480">
  <path d="M 446.90 358.05 L 437.37 380.16 L 433.51 379.50 L 424.71 374.95 L 428.49 371.10 L 420.77 369.50 L 425.11 364.97 L 419.58 365.14 L 423.38 360.65 L 417.58 355.56 L 421.71 354.39 L 417.73 351.72 L 422.32 345.56 L 439.16 342.80 L 442.92 332.89 L 446.90 358.05 Z" fill="#80d0d0" fill-opacity="0.60" stroke="#0a8aa6" stroke-width="1.50" stroke-linejoin="round" stroke-linecap="round" fill-rule="evenodd"/>
  <path d="M 42.25 179.29 L 46.94 176.54 L 33.10 179.02 L 33.95 173.10 L 81.18 163.68 L 80.56 167.05 L 83.94 165.29 L 93.35 174.31 L 103.93 168.84 L 113.62 174.17 L 114.62 168.84 L 131.64 170.42 L 125.96 167.43 L 126.10 153.62 L 118.35 149.04 L 114.94 139.22 L 134.33 140.04 L 138.52 150.13 L 164.49 152.04 L 182.71 147.08 L 173.12 144.47 L 177.63 139.07 L 219.12 125.69 L 215.34 123.23 L 216.46 106.16 L 243.65 99.84 L 251.31 110.36 L 261.19 108.74 L 265.27 116.03 L 275.02 117.49 L 277.58 122.63 L 291.70 123.58 L 290.14 131.97 L 304.98 131.69 L 309.88 126.59 L 310.84 137.19 L 328.39 145.72 L 355.72 146.68 L 364.70 155.54 L 384.82 155.25 L 407.63 161.33 L 396.37 171.24 L 389.77 185.50 L 389.90 201.00 L 383.90 205.45 L 372.21 203.76 L 369.11 207.65 L 374.02 208.37 L 356.88 219.49 L 342.80 240.99 L 348.14 242.43 L 358.05 233.81 L 366.83 234.81 L 366.20 242.38 L 373.60 248.92 L 367.08 254.91 L 377.59 264.13 L 374.77 269.33 L 361.50 272.65 L 373.17 280.78 L 374.55 284.75 L 368.21 289.10 L 372.21 297.32 L 391.90 299.43 L 386.73 311.32 L 365.21 321.62 L 363.16 327.90 L 349.30 332.36 L 316.19 323.71 L 321.75 319.52 L 316.06 317.27 L 311.04 323.54 L 306.39 316.68 L 310.02 323.41 L 286.08 317.49 L 260.75 330.33 L 258.78 345.31 L 262.68 349.82 L 228.84 352.26 L 220.56 344.67 L 191.74 337.87 L 189.41 342.51 L 154.39 339.97 L 133.67 330.25 L 128.74 332.10 L 130.29 326.37 L 120.35 325.00 L 128.18 316.65 L 134.50 288.46 L 140.65 285.19 L 137.17 282.03 L 134.43 286.40 L 139.46 259.21 L 155.38 278.68 L 153.59 274.93 L 156.56 275.70 L 147.85 261.87 L 134.79 255.15 L 142.32 254.92 L 137.57 250.57 L 138.74 238.03 L 119.23 232.60 L 109.62 223.09 L 113.34 216.86 L 106.09 213.76 L 108.29 210.41 L 97.41 209.22 L 101.96 203.24 L 86.80 201.76 L 92.66 199.32 L 84.91 198.72 L 80.38 204.08 L 80.77 196.75 L 73.84 197.75 L 76.02 195.15 L 71.28 197.54 L 51.49 191.20 L 44.56 194.57 L 42.74 189.71 L 34.28 187.83 L 46.94 185.88 L 39.19 183.90 L 39.51 178.99 L 42.25 179.29 Z" fill="#80d0d0" fill-opacity="0.60" stroke="#0a8aa6" stroke-width="1.50" stroke-linejoin="round" stroke-linecap="round" fill-rule="evenodd"/>
</svg>
