<svg xmlns="http://www.w3.org/2000/svg" width="360" height="240" viewBox="0 0 360 240">
  <path d="M 283.45 120.00 L 275.59 159.62 L 253.14 193.14 L 219.62 215.59 L 180.00 223.45 L 140.38 215.59 L 106.86 193.14 L 84.41 159.62 L 76.55 120.00 L 84.41 80.38 L 106.86 46.86 L 140.38 24.41 L 180.00 16.55 L 219.62 24.41 L 253.14 46.86 L 275.59 80.38 L 283.45 120.00 Z" fill="#80d0d0" fill-opacity="0.60" stroke="#0a8aa6" stroke-width="1.50" stroke-linejoin="round" stroke-linecap="round" fill-rule="evenodd"/>
  <path d="M 283.45 120.00 L 282.52 133.55 L 279.93 146.79 L 275.59 159.62 L 269.59 171.72 L 262.03 183.00 L 253.14 193.14 L 243.00 202.03 L 231.72 209.59 L 219.62 215.59 L 206.79 219.93 L 193.55 222.52 L 180.00 223.45 L 166.45 222.52 L 153.21 219.93 L 140.38 215.59 L 128.28 209.59 L 117.00 202.03 L 106.86 193.14 L 97.97 183.00 L 90.41 171.72 L 84.41 159.62 L 80.07 146.79 L 77.48 133.55 L 76.55 120.00 L 77.48 106.45 L 80.07 93.21 L 84.41 80.38 L 90.41 68.28 L 97.97 57.00 L 106.86 46.86 L 117.00 37.97 L 128.28 30.41 L 140.38 24.41 L 153.21 20.07 L 166.45 17.48 L 180.00 16.55 L 193.55 17.48 L 206.79 20.07 L 219.62 24.41 L 231.72 30.41 L 243.00 37.97 L 253.14 46.86 L 262.03 57.00 L 269.59 68.28 L 275.59 80.38 L 279.93 93.21 L 282.52 106.45 L 283.45 120.00 Z" fill="none" fill-opacity="1.00" stroke="#888888" stroke-width="1.50" stroke-linejoin="round" stroke-linecap="round" fill-rule="evenodd"/>
</svg>
