<svg xmlns="http://www.w3.org/2000/svg" width="460" height="420" viewBox="0 0 460 420">
  <path d="M 428.28 360.84 L 419.15 389.10 L 415.45 388.25 L 407.02 382.44 L 410.64 377.52 L 403.24 375.47 L 407.40 369.69 L 402.10 369.90 L 405.74 364.17 L 400.18 357.66 L 404.14 356.17 L 400.33 352.75 L 404.72 344.88 L 420.86 341.36 L 424.46 328.70 L 428.28 360.84 Z" fill="#80d0d0" fill-opacity="0.60" stroke="#0a8aa6" stroke-width="1.50" stroke-linejoin="round" stroke-linecap="round" fill-rule="evenodd"/>
  <path d="M 40.49 132.43 L 44.98 128.92 L 31.72 132.09 L 32.53 124.52 L 77.80 112.48 L 77.20 116.79 L 80.44 114.53 L 89.46 126.06 L 99.60 119.07 L 108.88 125.89 L 109.85 119.07 L 126.16 121.10 L 120.71 117.27 L 120.84 99.63 L 113.42 93.77 L 110.15 81.23 L 128.73 82.27 L 132.75 95.17 L 157.63 97.61 L 175.10 91.26 L 165.91 87.94 L 170.22 81.03 L 209.99 63.94 L 206.37 60.79 L 207.44 38.98 L 233.50 30.90 L 240.84 44.35 L 250.31 42.28 L 254.22 51.59 L 263.57 53.46 L 266.02 60.03 L 279.54 61.25 L 278.05 71.96 L 292.27 71.61 L 296.97 65.08 L 297.89 78.63 L 314.70 89.53 L 340.90 90.75 L 349.50 102.08 L 368.79 101.70 L 390.65 109.48 L 379.86 122.14 L 373.53 140.36 L 373.66 160.17 L 367.90 165.85 L 356.70 163.70 L 353.73 168.67 L 358.44 169.58 L 342.01 183.79 L 328.51 211.27 L 333.64 213.11 L 343.13 202.09 L 351.54 203.37 L 350.94 213.04 L 358.03 221.39 L 351.78 229.05 L 361.86 240.84 L 359.15 247.48 L 346.43 251.72 L 357.62 262.11 L 358.95 267.18 L 352.87 272.74 L 356.70 283.24 L 375.57 285.94 L 370.62 301.13 L 349.99 314.29 L 348.03 322.32 L 334.75 328.02 L 303.01 316.96 L 308.35 311.61 L 302.89 308.73 L 298.08 316.74 L 293.62 307.99 L 297.10 316.57 L 274.16 309.02 L 249.88 325.42 L 248.00 344.57 L 251.73 350.32 L 219.31 353.44 L 211.37 343.74 L 183.75 335.05 L 181.52 340.99 L 147.95 337.74 L 128.10 325.32 L 123.37 327.68 L 124.86 320.36 L 115.34 318.61 L 122.83 307.95 L 128.89 271.93 L 134.79 267.74 L 131.46 263.70 L 128.83 269.29 L 133.65 234.55 L 148.90 259.42 L 147.19 254.63 L 150.04 255.61 L 141.69 237.94 L 129.18 229.35 L 136.39 229.07 L 131.83 223.51 L 132.96 207.48 L 114.26 200.54 L 105.06 188.39 L 108.61 180.43 L 101.67 176.47 L 103.78 172.19 L 93.35 170.66 L 97.72 163.03 L 83.18 161.14 L 88.79 158.02 L 81.38 157.25 L 77.03 164.10 L 77.41 154.73 L 70.76 156.01 L 72.85 152.69 L 68.31 155.75 L 49.35 147.64 L 42.70 151.95 L 40.96 145.74 L 32.85 143.34 L 44.98 140.84 L 37.56 138.31 L 37.86 132.05 L 40.49 132.43 Z" fill="#80d0d0" fill-opacity="0.60" stroke="#0a8aa6" stroke-width="1.50" stroke-linejoin="round" stroke-linecap="round" fill-rule="evenodd"/>
</svg>
