<svg version="1.1" xmlns:xlink="http://www.w3.org/1999/xlink" xmlns="http://www.w3.org/2000/svg" width="456" height="46" viewbox="0 0 456 46"><defs><style type="text/css">.c{fill:none;stroke:#222222;}.k{fill:#000000;font-family: ui-monospace, SFMono-Regular, Menlo, Monaco, Consolas, "Liberation Mono", "Courier New", monospace;font-size:20px;}.s{fill:#e4f4ff;stroke:#222222;}.syn{fill:#8D8D8D;font-family: ui-monospace, SFMono-Regular, Menlo, Monaco, Consolas, "Liberation Mono", "Courier New", monospace;font-size:20px;}</style></defs><path class="c" d="M0 31h5m152 0h10m32 0h10m56 0h10m32 0h10m92 0h10m32 0h5"/><rect class="s" x="5" y="5" width="152" height="36"/><text class="k" x="15" y="31">STARTS_WITH</text><rect class="s" x="167" y="5" width="32" height="36" rx="7"/><text class="syn" x="177" y="31">(</text><rect class="s" x="209" y="5" width="56" height="36" rx="7"/><text class="k" x="219" y="31">str</text><rect class="s" x="275" y="5" width="32" height="36" rx="7"/><text class="syn" x="285" y="31">,</text><rect class="s" x="317" y="5" width="92" height="36" rx="7"/><text class="k" x="327" y="31">prefix</text><rect class="s" x="419" y="5" width="32" height="36" rx="7"/><text class="syn" x="429" y="31">)</text></svg>