<svg version="1.1" xmlns:xlink="http://www.w3.org/1999/xlink" xmlns="http://www.w3.org/2000/svg" width="568" height="61" viewbox="0 0 568 61"><defs><style type="text/css">.c{fill:none;stroke:#222222;}.k{fill:#000000;font-family: ui-monospace, SFMono-Regular, Menlo, Monaco, Consolas, "Liberation Mono", "Courier New", monospace;font-size:20px;}.s{fill:#e4f4ff;stroke:#222222;}.syn{fill:#8D8D8D;font-family: ui-monospace, SFMono-Regular, Menlo, Monaco, Consolas, "Liberation Mono", "Courier New", monospace;font-size:20px;}</style></defs><path class="c" d="M0 31h5m104 0h10m32 0h10m104 0h30m32 0h10m68 0h10m32 0h10m44 0h20m-241 0q5 0 5 5v10q0 5 5 5h216q5 0 5-5v-10q0-5 5-5m5 0h10m32 0h5"/><rect class="s" x="5" y="5" width="104" height="36"/><text class="k" x="15" y="31">TBUCKET</text><rect class="s" x="119" y="5" width="32" height="36" rx="7"/><text class="syn" x="129" y="31">(</text><rect class="s" x="161" y="5" width="104" height="36" rx="7"/><text class="k" x="171" y="31">buckets</text><rect class="s" x="295" y="5" width="32" height="36" rx="7"/><text class="syn" x="305" y="31">,</text><rect class="s" x="337" y="5" width="68" height="36" rx="7"/><text class="k" x="347" y="31">from</text><rect class="s" x="415" y="5" width="32" height="36" rx="7"/><text class="syn" x="425" y="31">,</text><rect class="s" x="457" y="5" width="44" height="36" rx="7"/><text class="k" x="467" y="31">to</text><rect class="s" x="531" y="5" width="32" height="36" rx="7"/><text class="syn" x="541" y="31">)</text></svg>