<svg version="1.1" xmlns:xlink="http://www.w3.org/1999/xlink" xmlns="http://www.w3.org/2000/svg" width="576" height="46" viewbox="0 0 576 46"><defs><style type="text/css">.c{fill:none;stroke:#222222;}.k{fill:#000000;font-family: ui-monospace, SFMono-Regular, Menlo, Monaco, Consolas, "Liberation Mono", "Courier New", monospace;font-size:20px;}.s{fill:#e4f4ff;stroke:#222222;}.syn{fill:#8D8D8D;font-family: ui-monospace, SFMono-Regular, Menlo, Monaco, Consolas, "Liberation Mono", "Courier New", monospace;font-size:20px;}</style></defs><path class="c" d="M0 31h5m188 0h10m32 0h10m68 0h10m32 0h10m164 0h10m32 0h5"/><rect class="s" x="5" y="5" width="188" height="36"/><text class="k" x="15" y="31">TEXT_EMBEDDING</text><rect class="s" x="203" y="5" width="32" height="36" rx="7"/><text class="syn" x="213" y="31">(</text><rect class="s" x="245" y="5" width="68" height="36" rx="7"/><text class="k" x="255" y="31">text</text><rect class="s" x="323" y="5" width="32" height="36" rx="7"/><text class="syn" x="333" y="31">,</text><rect class="s" x="365" y="5" width="164" height="36" rx="7"/><text class="k" x="375" y="31">inference_id</text><rect class="s" x="539" y="5" width="32" height="36" rx="7"/><text class="syn" x="549" y="31">)</text></svg>