<svg version="1.1" xmlns:xlink="http://www.w3.org/1999/xlink" xmlns="http://www.w3.org/2000/svg" width="772" height="61" viewbox="0 0 772 61"><defs><style type="text/css">.c{fill:none;stroke:#222222;}.k{fill:#000000;font-family: ui-monospace, SFMono-Regular, Menlo, Monaco, Consolas, "Liberation Mono", "Courier New", monospace;font-size:20px;}.s{fill:#e4f4ff;stroke:#222222;}.syn{fill:#8D8D8D;font-family: ui-monospace, SFMono-Regular, Menlo, Monaco, Consolas, "Liberation Mono", "Courier New", monospace;font-size:20px;}</style></defs><path class="c" d="M0 31h5m344 0h10m32 0h10m128 0h10m32 0h30m104 0h20m-139 0q5 0 5 5v10q0 5 5 5h114q5 0 5-5v-10q0-5 5-5m5 0h10m32 0h5"/><rect class="s" x="5" y="5" width="344" height="36"/><text class="k" x="15" y="31">TEXT_DENSE_VECTOR_EMBEDDING</text><rect class="s" x="359" y="5" width="32" height="36" rx="7"/><text class="syn" x="369" y="31">(</text><rect class="s" x="401" y="5" width="128" height="36" rx="7"/><text class="k" x="411" y="31">inputText</text><rect class="s" x="539" y="5" width="32" height="36" rx="7"/><text class="syn" x="549" y="31">,</text><rect class="s" x="601" y="5" width="104" height="36" rx="7"/><text class="k" x="611" y="31">options</text><rect class="s" x="735" y="5" width="32" height="36" rx="7"/><text class="syn" x="745" y="31">)</text></svg>