<svg version="1.1" xmlns:xlink="http://www.w3.org/1999/xlink" xmlns="http://www.w3.org/2000/svg" width="504" height="46" viewbox="0 0 504 46"><defs><style type="text/css">.c{fill:none;stroke:#222222;}.k{fill:#000000;font-family: ui-monospace, SFMono-Regular, Menlo, Monaco, Consolas, "Liberation Mono", "Courier New", monospace;font-size:20px;}.s{fill:#e4f4ff;stroke:#222222;}.syn{fill:#8D8D8D;font-family: ui-monospace, SFMono-Regular, Menlo, Monaco, Consolas, "Liberation Mono", "Courier New", monospace;font-size:20px;}</style></defs><path class="c" d="M0 31h5m56 0h10m32 0h10m80 0h10m32 0h10m80 0h10m32 0h10m80 0h10m32 0h5"/><rect class="s" x="5" y="5" width="56" height="36"/><text class="k" x="15" y="31">TOP</text><rect class="s" x="71" y="5" width="32" height="36" rx="7"/><text class="syn" x="81" y="31">(</text><rect class="s" x="113" y="5" width="80" height="36" rx="7"/><text class="k" x="123" y="31">field</text><rect class="s" x="203" y="5" width="32" height="36" rx="7"/><text class="syn" x="213" y="31">,</text><rect class="s" x="245" y="5" width="80" height="36" rx="7"/><text class="k" x="255" y="31">limit</text><rect class="s" x="335" y="5" width="32" height="36" rx="7"/><text class="syn" x="345" y="31">,</text><rect class="s" x="377" y="5" width="80" height="36" rx="7"/><text class="k" x="387" y="31">order</text><rect class="s" x="467" y="5" width="32" height="36" rx="7"/><text class="syn" x="477" y="31">)</text></svg>