<svg version="1.1" xmlns:xlink="http://www.w3.org/1999/xlink" xmlns="http://www.w3.org/2000/svg" width="508" height="61" viewbox="0 0 508 61"><defs><style type="text/css">.c{fill:none;stroke:#222222;}.k{fill:#000000;font-family: ui-monospace, SFMono-Regular, Menlo, Monaco, Consolas, "Liberation Mono", "Courier New", monospace;font-size:20px;}.s{fill:#e4f4ff;stroke:#222222;}.syn{fill:#8D8D8D;font-family: ui-monospace, SFMono-Regular, Menlo, Monaco, Consolas, "Liberation Mono", "Courier New", monospace;font-size:20px;}</style></defs><path class="c" d="M0 31h5m80 0h10m32 0h10m68 0h30m32 0h10m68 0h10m32 0h10m44 0h20m-241 0q5 0 5 5v10q0 5 5 5h216q5 0 5-5v-10q0-5 5-5m5 0h10m32 0h5"/><rect class="s" x="5" y="5" width="80" height="36"/><text class="k" x="15" y="31">TSTEP</text><rect class="s" x="95" y="5" width="32" height="36" rx="7"/><text class="syn" x="105" y="31">(</text><rect class="s" x="137" y="5" width="68" height="36" rx="7"/><text class="k" x="147" y="31">step</text><rect class="s" x="235" y="5" width="32" height="36" rx="7"/><text class="syn" x="245" y="31">,</text><rect class="s" x="277" y="5" width="68" height="36" rx="7"/><text class="k" x="287" y="31">from</text><rect class="s" x="355" y="5" width="32" height="36" rx="7"/><text class="syn" x="365" y="31">,</text><rect class="s" x="397" y="5" width="44" height="36" rx="7"/><text class="k" x="407" y="31">to</text><rect class="s" x="471" y="5" width="32" height="36" rx="7"/><text class="syn" x="481" y="31">)</text></svg>