<?xml version="1.0" encoding="UTF-8"?>
<svg width="602px" height="123px" viewBox="0 0 602 123" version="1.1" xmlns="http://www.w3.org/2000/svg" xmlns:xlink="http://www.w3.org/1999/xlink">
    <!-- Generator: Sketch 60.1 (88133) - https://sketch.com -->
    <title>Slice 1</title>
    <desc>Created with Sketch.</desc>
    <g id="Page-1" stroke="none" stroke-width="1" fill="none" fill-rule="evenodd">
        <g id="Analysis-(2)" transform="translate(1.000000, 1.000000)">
            <g id="Group">
                <path d="M0.209972,1.39317 L0.209972,1.39317 C0.209972,0.6962172 0.774963,0.13123 1.471912,0.13123 L46.318115,0.13123 C46.6528013,0.13123 46.9737775,0.26418746 47.2104414,0.50084365 C47.4470975,0.73749984 47.580055,1.05848375 47.580055,1.39317 L47.580055,48.948025 C47.580055,49.6449855 47.0150602,50.2099726 46.318115,50.2099726 L1.471912,50.2099726 C0.774963,50.2099726 0.209972,49.6449854 0.209972,48.948025 L0.209972,1.39317 Z" id="Path" fill-opacity="0" fill="#000000"></path>
                <path d="M0.209972,1.39317 L0.209972,1.39317 C0.209972,0.6962172 0.774963,0.13123 1.471912,0.13123 L46.318115,0.13123 C46.6528013,0.13123 46.9737775,0.26418746 47.2104414,0.50084365 C47.4470975,0.73749984 47.580055,1.05848375 47.580055,1.39317 L47.580055,48.948025 C47.580055,49.6449855 47.0150602,50.2099726 46.318115,50.2099726 L1.471912,50.2099726 C0.774963,50.2099726 0.209972,49.6449854 0.209972,48.948025 L0.209972,1.39317 Z" id="Path" stroke="#979CAB" stroke-width="2" stroke-linejoin="round"></path>
                <path d="M19.488403,25.49685 C19.488403,23.9239333 19.6498613,22.6583083 19.972778,21.699975 C20.2956947,20.731225 20.7748613,19.9864333 21.410278,19.4656 C22.0561113,18.9447667 22.863403,18.68435 23.832153,18.68435 C24.550903,18.68435 25.1811113,18.8301833 25.722778,19.12185 C26.2644447,19.4031 26.707153,19.8197667 27.050903,20.37185 C27.4050697,20.9135167 27.6811113,21.574975 27.879028,22.356225 C28.0873613,23.1270583 28.191528,24.1739333 28.191528,25.49685 C28.191528,27.0697667 28.0300697,28.3406025 27.707153,29.3093576 C27.3842363,30.2676909 26.8998613,31.0124826 26.254028,31.5437326 C25.6186113,32.0645659 24.8113197,32.3249826 23.832153,32.3249826 C22.550903,32.3249826 21.5404863,31.8614409 20.800903,30.9343576 C19.925903,29.8197743 19.488403,28.0072717 19.488403,25.49685 L19.488403,25.49685 Z M21.160278,25.49685 C21.160278,27.6947717 21.4154863,29.1583159 21.925903,29.8874826 C22.4467363,30.6062326 23.082153,30.9656076 23.832153,30.9656076 C24.5925697,30.9656076 25.2279863,30.6010243 25.738403,29.8718576 C26.2488197,29.1426909 26.504028,27.6843551 26.504028,25.49685 C26.504028,23.2989333 26.2488197,21.8406 25.738403,21.12185 C25.2279863,20.4031 24.5873613,20.043725 23.816528,20.043725 C23.066528,20.043725 22.4675697,20.3614333 22.019653,20.99685 C21.4467363,21.80935 21.160278,23.30935 21.160278,25.49685 L21.160278,25.49685 Z" id="Shape" fill="#000000" fill-rule="nonzero"></path>
                <path d="M183.71559,4.1045 L183.71559,4.1045 C183.71559,2.5803148 184.951186,1.344719 186.475371,1.344719 L228.325896,1.344719 C229.05783,1.344719 229.759795,1.63547523 230.277342,2.1530381 C230.794921,2.67060097 231.085662,3.3725587 231.085662,4.1044999 L231.085662,48.6636799 C231.085662,50.1878651 229.850066,51.4234609 228.325896,51.4234609 L186.475371,51.4234609 C184.951186,51.4234609 183.71559,50.1878652 183.71559,48.6636799 L183.71559,4.1045 Z" id="Path" fill-opacity="0" fill="#000000"></path>
                <path d="M183.71559,4.1045 L183.71559,4.1045 C183.71559,2.5803148 184.951186,1.344719 186.475371,1.344719 L228.325896,1.344719 C229.05783,1.344719 229.759795,1.63547523 230.277342,2.1530381 C230.794921,2.67060097 231.085662,3.3725587 231.085662,4.1044999 L231.085662,48.6636799 C231.085662,50.1878651 229.850066,51.4234609 228.325896,51.4234609 L186.475371,51.4234609 C184.951186,51.4234609 183.71559,50.1878652 183.71559,48.6636799 L183.71559,4.1045 Z" id="Path" stroke="#979CAB" stroke-width="2" stroke-linejoin="round"></path>
                <path d="M209.1659,33.3041 L207.525275,33.3041 L207.525275,22.850967 C207.129442,23.225967 206.608608,23.6061753 205.962775,23.991592 C205.327358,24.366592 204.754442,24.647842 204.244025,24.835342 L204.244025,23.241592 C205.160692,22.8145087 205.962775,22.2936753 206.650275,21.679092 C207.337775,21.0645087 207.82215,20.4707587 208.1034,19.897842 L209.1659,19.897842 L209.1659,33.3041 Z" id="Path" fill="#000000" fill-rule="nonzero"></path>
                <polygon id="Path" fill="#FFFFFF" points="39.08891 16.85302 58.521977 16.85302 58.521977 38.679795 39.08891 38.679795"></polygon>
                <polygon id="Path" fill="#FFFFFF" points="175.08891 16.85302 194.521985 16.85302 194.521985 38.679795 175.08891 38.679795"></polygon>
                <line x1="194.52199" y1="27.7664" x2="47.56136" y2="28.2073485" id="Path" fill-opacity="0" fill="#000000"></line>
                <line x1="176.52206" y1="27.82041" x2="47.56134" y2="28.20735" id="Path" stroke="#00BFB3" stroke-width="3" stroke-linejoin="round"></line>
                <polygon id="Path" stroke="#00BFB3" stroke-width="3" fill="#00BFB3" points="176.53693 32.77559 190.136295 27.779565 176.507206 22.8652355"></polygon>
                <path d="M367.71558,4.1045 L367.71558,4.1045 C367.71558,2.5803148 368.951206,1.344719 370.475376,1.344719 L412.325901,1.344719 C413.057835,1.344719 413.7598,1.63547523 414.277348,2.1530381 C414.794926,2.67060097 415.085667,3.3725587 415.085667,4.1044999 L415.085667,48.6636799 C415.085667,50.1878651 413.850071,51.4234609 412.325901,51.4234609 L370.475376,51.4234609 C368.951206,51.4234609 367.71558,50.1878652 367.71558,48.6636799 L367.71558,4.1045 Z" id="Path" fill-opacity="0" fill="#000000"></path>
                <path d="M367.71558,4.1045 L367.71558,4.1045 C367.71558,2.5803148 368.951206,1.344719 370.475376,1.344719 L412.325901,1.344719 C413.057835,1.344719 413.7598,1.63547523 414.277348,2.1530381 C414.794926,2.67060097 415.085667,3.3725587 415.085667,4.1044999 L415.085667,48.6636799 C415.085667,50.1878651 413.850071,51.4234609 412.325901,51.4234609 L370.475376,51.4234609 C368.951206,51.4234609 367.71558,50.1878652 367.71558,48.6636799 L367.71558,4.1045 Z" id="Path" stroke="#979CAB" stroke-width="2" stroke-linejoin="round"></path>
                <path d="M395.6034,31.72597 L395.6034,33.304095 L386.775275,33.304095 C386.764858,32.9082617 386.827358,32.5280533 386.962775,32.16347 C387.191942,31.5593033 387.551317,30.9655533 388.0409,30.38222 C388.5409,29.7988867 389.25965,29.1270117 390.19715,28.366595 C391.645067,27.1790899 392.624233,26.2363791 393.13465,25.5384624 C393.645067,24.8405457 393.900275,24.1842957 393.900275,23.5697124 C393.900275,22.9134624 393.6659,22.3665874 393.19715,21.9290874 C392.738817,21.4811707 392.13465,21.2572124 391.38465,21.2572124 C390.592983,21.2572124 389.957567,21.4967957 389.4784,21.9759624 C389.00965,22.4447124 388.775275,23.0957541 388.775275,23.9290874 L387.087775,23.7572124 C387.202358,22.4967957 387.63465,21.5384624 388.38465,20.8822124 C389.145067,20.2259624 390.155483,19.8978374 391.4159,19.8978374 C392.69715,19.8978374 393.712775,20.2520041 394.462775,20.9603374 C395.212775,21.6686707 395.587775,22.5488791 395.587775,23.6009624 C395.587775,24.1322124 395.4784,24.6582541 395.25965,25.1790874 C395.0409,25.6999207 394.676317,26.2467957 394.1659,26.8197124 C393.6659,27.3822124 392.82215,28.1634649 391.63465,29.16347 C390.655483,29.9863867 390.025275,30.5488867 389.744025,30.85097 C389.462775,31.1426367 389.233608,31.4343033 389.056525,31.72597 L395.6034,31.72597 Z" id="Path" fill="#000000" fill-rule="nonzero"></path>
                <polygon id="Path" fill="#FFFFFF" points="223.0889 16.85302 242.521975 16.85302 242.521975 38.679795 223.0889 38.679795"></polygon>
                <polygon id="Path" fill="#FFFFFF" points="359.0889 16.85302 378.521975 16.85302 378.521975 38.679795 359.0889 38.679795"></polygon>
                <line x1="378.52197" y1="27.7664" x2="231.56134" y2="28.2073485" id="Path" fill-opacity="0" fill="#000000"></line>
                <line x1="360.52206" y1="27.82041" x2="231.56134" y2="28.20735" id="Path" stroke="#00BFB3" stroke-width="3" stroke-linejoin="round"></line>
                <polygon id="Path" stroke="#00BFB3" stroke-width="3" fill="#00BFB3" points="360.53693 32.77559 374.136295 27.779565 360.507206 22.8652355"></polygon>
                <path d="M551.7156,4.1045 L551.7156,4.1045 C551.7156,2.5803148 552.951196,1.344719 554.475366,1.344719 L596.325891,1.344719 C597.057824,1.344719 597.75979,1.63547523 598.277368,2.1530381 C598.794946,2.67060097 599.085717,3.3725587 599.085717,4.1044999 L599.085717,48.6636799 C599.085717,50.1878651 597.850122,51.4234609 596.325891,51.4234609 L554.475366,51.4234609 C552.951196,51.4234609 551.7156,50.1878652 551.7156,48.6636799 L551.7156,4.1045 Z" id="Path" fill-opacity="0" fill="#000000"></path>
                <path d="M551.7156,4.1045 L551.7156,4.1045 C551.7156,2.5803148 552.951196,1.344719 554.475366,1.344719 L596.325891,1.344719 C597.057824,1.344719 597.75979,1.63547523 598.277368,2.1530381 C598.794946,2.67060097 599.085717,3.3725587 599.085717,4.1044999 L599.085717,48.6636799 C599.085717,50.1878651 597.850122,51.4234609 596.325891,51.4234609 L554.475366,51.4234609 C552.951196,51.4234609 551.7156,50.1878652 551.7156,48.6636799 L551.7156,4.1045 Z" id="Path" stroke="#979CAB" stroke-width="2" stroke-linejoin="round"></path>
                <path d="M570.994,29.77284 L572.634625,29.55409 C572.822125,30.49159 573.139833,31.163465 573.58775,31.569715 C574.046083,31.975965 574.598167,32.17909 575.244,32.17909 C576.014833,32.17909 576.665875,31.913465 577.197125,31.382215 C577.728375,30.850965 577.994,30.1895067 577.994,29.3978324 C577.994,28.64784 577.749208,28.0280458 577.259625,27.5384574 C576.770042,27.0488741 576.145042,26.8040824 575.384625,26.8040824 C575.072125,26.8040824 574.686708,26.8613741 574.228375,26.9759574 L574.415875,25.5384574 C574.520042,25.5488741 574.608583,25.5540824 574.6815,25.5540824 C575.379417,25.5540824 576.004417,25.3717907 576.5565,25.0072074 C577.119,24.6426241 577.40025,24.0853324 577.40025,23.3353324 C577.40025,22.7311657 577.197125,22.2311657 576.790875,21.8353324 C576.384625,21.4394991 575.858583,21.2415824 575.21275,21.2415824 C574.577333,21.2415824 574.046083,21.4447074 573.619,21.8509574 C573.191917,22.2467907 572.921083,22.8457491 572.8065,23.6478324 L571.165875,23.3509574 C571.363792,22.2572074 571.816917,21.4082491 572.52525,20.8040824 C573.233583,20.1999157 574.119,19.8978324 575.1815,19.8978324 C575.910667,19.8978324 576.577333,20.0540824 577.1815,20.3665824 C577.796083,20.6790824 578.264833,21.1061657 578.58775,21.6478324 C578.921083,22.1894991 579.08775,22.7624157 579.08775,23.3665824 C579.08775,23.9394991 578.9315,24.4655407 578.619,24.9447074 C578.3065,25.4134574 577.848167,25.7884574 577.244,26.0697074 C578.035667,26.2572074 578.65025,26.6374157 579.08775,27.2103324 C579.52525,27.7832541 579.744,28.5020067 579.744,29.36659 C579.744,30.52284 579.316917,31.507215 578.46275,32.319715 C577.619,33.132215 576.546083,33.538465 575.244,33.538465 C574.066917,33.538465 573.092958,33.1895067 572.322125,32.49159 C571.551292,31.7936733 571.108583,30.8874233 570.994,29.77284 Z" id="Path" fill="#000000" fill-rule="nonzero"></path>
                <polygon id="Path" fill="#FFFFFF" points="407.0889 16.85302 426.521975 16.85302 426.521975 38.679795 407.0889 38.679795"></polygon>
                <polygon id="Path" fill="#FFFFFF" points="543.0889 16.85302 562.521944 16.85302 562.521944 38.679795 543.0889 38.679795"></polygon>
                <line x1="562.522" y1="27.7664" x2="415.56137" y2="28.2073485" id="Path" fill-opacity="0" fill="#000000"></line>
                <line x1="544.52203" y1="27.82041" x2="415.56133" y2="28.20735" id="Path" stroke="#00BFB3" stroke-width="3" stroke-linejoin="round"></line>
                <polygon id="Path" stroke="#00BFB3" stroke-width="3" fill="#00BFB3" points="544.5369 32.77559 558.136265 27.779565 544.507176 22.8652355"></polygon>
                <polygon id="Path" fill="#FFFFFF" points="15.088913 39.14516 34.52198 39.14516 34.52198 60.971927 15.088913 60.971927"></polygon>
                <polygon id="Path" fill="#FFFFFF" points="199.08891 39.14516 218.52197 39.14516 218.52197 60.971927 199.08891 60.971927"></polygon>
                <polygon id="Path" fill="#FFFFFF" points="73.96063 10.47244 152.35432 10.47244 152.35432 41.842511 73.96063 41.842511"></polygon>
                <path d="M84.39813,33.07748 L84.39813,19.718097 L89.445005,19.718097 C90.3304217,19.718097 91.007505,19.7597637 91.476255,19.843097 C92.1220883,19.9576803 92.6689633,20.171222 93.11688,20.483722 C93.5647967,20.7858053 93.9241717,21.2128887 94.195005,21.764972 C94.4658383,22.3170553 94.601255,22.9264303 94.601255,23.593097 C94.601255,24.7285137 94.2366717,25.6920553 93.507505,26.483722 C92.788755,27.264972 91.4814633,27.655597 89.58563,27.655597 L86.163755,27.655597 L86.163755,33.07748 L84.39813,33.07748 L84.39813,33.07748 Z M86.163755,26.0774724 L89.61688,26.0774724 C90.7627133,26.0774724 91.5752133,25.8639307 92.05438,25.4368474 C92.5335467,25.0097641 92.77313,24.4108057 92.77313,23.6399724 C92.77313,23.0774724 92.632505,22.5983057 92.351255,22.2024724 C92.070005,21.8066391 91.695005,21.5462224 91.226255,21.4212224 C90.9345883,21.3378891 90.3877133,21.2962224 89.58563,21.2962224 L86.163755,21.2962224 L86.163755,26.0774724 L86.163755,26.0774724 Z M96.029203,28.23373 C96.029203,26.4420583 96.5239947,25.1191391 97.513578,24.2649724 C98.3469113,23.5462224 99.3625363,23.1868474 100.560453,23.1868474 C101.893786,23.1868474 102.982328,23.6243474 103.826078,24.4993474 C104.669828,25.3639307 105.091703,26.5670583 105.091703,28.10873 C105.091703,29.3483133 104.904203,30.32748 104.529203,31.04623 C104.154203,31.7545633 103.607328,32.3066467 102.888578,32.70248 C102.180245,33.0983133 101.404203,33.29623 100.560453,33.29623 C99.2062863,33.29623 98.1125363,32.8639383 97.279203,31.999355 C96.4458697,31.124355 96.029203,29.8691467 96.029203,28.23373 Z M97.716703,28.23373 C97.716703,29.4733133 97.982328,30.405605 98.513578,31.030605 C99.0552447,31.6451883 99.7375363,31.95248 100.560453,31.95248 C101.372953,31.95248 102.050036,31.6451883 102.591703,31.030605 C103.13337,30.405605 103.404203,29.4576883 103.404203,28.186855 C103.404203,26.9889333 103.13337,26.0826807 102.591703,25.4680974 C102.050036,24.8535141 101.372953,24.5462224 100.560453,24.5462224 C99.7375363,24.5462224 99.0552447,24.8535141 98.513578,25.4680974 C97.982328,26.0722641 97.716703,26.9941416 97.716703,28.23373 Z M108.795545,33.07748 L105.826795,23.405597 L107.52992,23.405597 L109.06117,28.9837296 L109.639295,31.0618546 C109.670545,30.9576879 109.837212,30.2910213 110.139295,29.0618546 L111.68617,23.405597 L113.37367,23.405597 L114.81117,29.0149796 L115.295545,30.8587296 L115.858045,28.9993546 L117.514295,23.405597 L119.108045,23.405597 L116.076795,33.07748 L114.37367,33.07748 L112.84242,27.2805974 L112.46742,25.6399724 L110.514295,33.07748 L108.795545,33.07748 Z M127.112241,29.968105 L128.799741,30.17123 C128.528908,31.1608133 128.034116,31.9316467 127.315366,32.48373 C126.596616,33.0253967 125.674741,33.29623 124.549741,33.29623 C123.133074,33.29623 122.008074,32.8639383 121.174741,31.999355 C120.351824,31.124355 119.940366,29.9003967 119.940366,28.32748 C119.940366,26.6920583 120.357033,25.4264307 121.190366,24.5305974 C122.034116,23.6347641 123.122658,23.1868474 124.455991,23.1868474 C125.747658,23.1868474 126.799741,23.6295557 127.612241,24.5149724 C128.435158,25.3899724 128.846616,26.6243499 128.846616,28.218105 C128.846616,28.3222717 128.846616,28.468105 128.846616,28.655605 L121.627866,28.655605 C121.690366,29.718105 121.992449,30.5358133 122.534116,31.10873 C123.075783,31.67123 123.747658,31.95248 124.549741,31.95248 C125.153908,31.95248 125.669533,31.79623 126.096616,31.48373 C126.523699,31.1608133 126.862241,30.655605 127.112241,29.968105 Z M121.721616,27.3118474 L127.127866,27.3118474 C127.054949,26.4993474 126.846616,25.8899724 126.502866,25.4837224 C125.982033,24.8483057 125.304949,24.5305974 124.471616,24.5305974 C123.721616,24.5305974 123.086199,24.7858057 122.565366,25.2962224 C122.054949,25.7962224 121.773699,26.4680974 121.721616,27.3118474 Z M130.847333,33.07748 L130.847333,23.405597 L132.316083,23.405597 L132.316083,24.874347 C132.691083,24.186847 133.034833,23.733722 133.347333,23.514972 C133.67025,23.296222 134.024416,23.186847 134.409833,23.186847 C134.961916,23.186847 135.524416,23.3639303 136.097333,23.718097 L135.534833,25.233722 C135.128583,24.9941387 134.727541,24.874347 134.331708,24.874347 C133.967125,24.874347 133.644208,24.983722 133.362958,25.202472 C133.081708,25.421222 132.878583,25.718097 132.753583,26.093097 C132.566083,26.6764303 132.472333,27.3170579 132.472333,28.0149796 L132.472333,33.07748 L130.847333,33.07748 L130.847333,33.07748 Z" id="Shape" fill="#000000" fill-rule="nonzero"></path>
                <polygon id="Path" fill="#FFFFFF" points="265.96063 10.47244 332.38583 10.47244 332.38583 41.842511 265.96063 41.842511"></polygon>
                <path d="M280.82782,28.78061 L282.48407,28.639985 C282.567403,29.3066517 282.749695,29.8535267 283.030945,30.28061 C283.322612,30.7076933 283.770528,31.0566517 284.374695,31.327485 C284.989278,31.5879017 285.676778,31.71811 286.437195,31.71811 C287.103862,31.71811 287.697612,31.6191517 288.218445,31.421235 C288.739278,31.2233183 289.124695,30.952485 289.374695,30.608735 C289.624695,30.2545683 289.749695,29.8691517 289.749695,29.452485 C289.749695,29.0358183 289.624695,28.671235 289.374695,28.358735 C289.135112,28.0462299 288.739278,27.7806024 288.187195,27.5618524 C287.822612,27.4264357 287.025737,27.2128941 285.79657,26.9212274 C284.57782,26.6191441 283.723653,26.3378941 283.23407,26.0774774 C282.588237,25.7441441 282.10907,25.3326857 281.79657,24.8431024 C281.48407,24.3431024 281.32782,23.7858107 281.32782,23.1712274 C281.32782,22.5045607 281.520528,21.8795607 281.905945,21.2962274 C282.291362,20.7024774 282.848653,20.2545607 283.57782,19.9524774 C284.317403,19.6503941 285.135112,19.4993524 286.030945,19.4993524 C287.020528,19.4993524 287.89032,19.6608107 288.64032,19.9837274 C289.400737,20.2962274 289.98407,20.7649774 290.39032,21.3899774 C290.79657,22.0045607 291.01532,22.7024774 291.04657,23.4837274 L289.35907,23.6087274 C289.26532,22.7649774 288.95282,22.1295607 288.42157,21.7024774 C287.900737,21.2649774 287.129903,21.0462274 286.10907,21.0462274 C285.036153,21.0462274 284.254903,21.2441441 283.76532,21.6399774 C283.275737,22.0358107 283.030945,22.5097691 283.030945,23.0618524 C283.030945,23.5410191 283.208028,23.9316441 283.562195,24.2337274 C283.895528,24.5462274 284.780945,24.8691441 286.218445,25.2024774 C287.655945,25.5253941 288.64032,25.8066441 289.17157,26.0462274 C289.95282,26.4003941 290.525737,26.8535191 290.89032,27.4056024 C291.26532,27.9576908 291.45282,28.59311 291.45282,29.31186 C291.45282,30.0201933 291.249695,30.6920683 290.843445,31.327485 C290.437195,31.952485 289.853862,32.4420683 289.093445,32.796235 C288.333028,33.139985 287.473653,33.31186 286.51532,33.31186 C285.306987,33.31186 284.291362,33.1347767 283.468445,32.78061 C282.655945,32.4264433 282.01532,31.8951933 281.54657,31.18686 C281.088237,30.4785267 280.848653,29.6764433 280.82782,28.78061 Z M293.662018,33.077485 L293.662018,19.718102 L295.302643,19.718102 L295.302643,24.514977 C296.06306,23.6295603 297.026601,23.186852 298.193268,23.186852 C298.912018,23.186852 299.53181,23.327477 300.052643,23.608727 C300.583893,23.889977 300.964101,24.280602 301.193268,24.780602 C301.422435,25.280602 301.537018,26.0045603 301.537018,26.952477 L301.537018,33.077485 L299.896393,33.077485 L299.896393,26.952477 C299.896393,26.1295603 299.71931,25.530602 299.365143,25.155602 C299.010976,24.780602 298.505768,24.593102 297.849518,24.593102 C297.370351,24.593102 296.917226,24.7233103 296.490143,24.983727 C296.06306,25.233727 295.755768,25.5722687 295.568268,25.999352 C295.391185,26.4264353 295.302643,27.0201853 295.302643,27.780602 L295.302643,33.077485 L293.662018,33.077485 L293.662018,33.077485 Z M303.428375,28.233735 C303.428375,26.4420633 303.923167,25.1191441 304.91275,24.2649774 C305.746083,23.5462274 306.761708,23.1868524 307.959625,23.1868524 C309.292958,23.1868524 310.3815,23.6243524 311.22525,24.4993524 C312.069,25.3639357 312.490875,26.5670633 312.490875,28.108735 C312.490875,29.3483183 312.303375,30.327485 311.928375,31.046235 C311.553375,31.7545683 311.0065,32.3066517 310.28775,32.702485 C309.579417,33.0983183 308.803375,33.296235 307.959625,33.296235 C306.605458,33.296235 305.511708,32.8639433 304.678375,31.99936 C303.845042,31.12436 303.428375,29.8691517 303.428375,28.233735 Z M305.115875,28.233735 C305.115875,29.4733183 305.3815,30.40561 305.91275,31.03061 C306.454417,31.6451933 307.136708,31.952485 307.959625,31.952485 C308.772125,31.952485 309.449208,31.6451933 309.990875,31.03061 C310.532542,30.40561 310.803375,29.4576933 310.803375,28.18686 C310.803375,26.9889383 310.532542,26.0826857 309.990875,25.4681024 C309.449208,24.8535191 308.772125,24.5462274 307.959625,24.5462274 C307.136708,24.5462274 306.454417,24.8535191 305.91275,25.4681024 C305.3815,26.0722691 305.115875,26.9941466 305.115875,28.233735 Z M317.991577,31.608735 L318.225952,33.06186 C317.767619,33.15561 317.35616,33.202485 316.991577,33.202485 C316.397827,33.202485 315.934285,33.108735 315.600952,32.921235 C315.278035,32.733735 315.048869,32.4889433 314.913452,32.18686 C314.778035,31.87436 314.710327,31.2285267 314.710327,30.24936 L314.710327,24.6712274 L313.507202,24.6712274 L313.507202,23.4056024 L314.710327,23.4056024 L314.710327,21.0149774 L316.335327,20.0306024 L316.335327,23.4056024 L317.991577,23.4056024 L317.991577,24.6712274 L316.335327,24.6712274 L316.335327,30.34311 C316.335327,30.8014433 316.361369,31.0983183 316.413452,31.233735 C316.475952,31.3691517 316.569702,31.4785267 316.694702,31.56186 C316.830119,31.6347767 317.022827,31.671235 317.272827,31.671235 C317.44991,31.671235 317.689494,31.6504017 317.991577,31.608735 Z" id="Shape" fill="#000000" fill-rule="nonzero"></path>
                <polygon id="Path" fill="#FFFFFF" points="447.53366 10.47244 518.43127 10.47244 518.43127 41.842511 447.53366 41.842511"></polygon>
                <path d="M471.62164,31.49936 L471.62164,33.077485 L462.793545,33.077485 C462.783129,32.6816517 462.845629,32.3014433 462.981045,31.93686 C463.210212,31.3326933 463.569587,30.7389433 464.05917,30.15561 C464.55917,29.5722767 465.27792,28.9004017 466.21542,28.139985 C467.663337,26.9524799 468.642504,26.0097691 469.15292,25.3118524 C469.663337,24.6139357 469.918545,23.9576857 469.918545,23.3431024 C469.918545,22.6868524 469.68417,22.1399774 469.21542,21.7024774 C468.757087,21.2545607 468.15292,21.0306024 467.40292,21.0306024 C466.611254,21.0306024 465.975837,21.2701857 465.49667,21.7493524 C465.02792,22.2181024 464.793545,22.8691441 464.793545,23.7024774 L463.106045,23.5306024 C463.220629,22.2701857 463.65292,21.3118524 464.40292,20.6556024 C465.163337,19.9993524 466.173754,19.6712274 467.43417,19.6712274 C468.71542,19.6712274 469.731045,20.0253941 470.481045,20.7337274 C471.231025,21.4420607 471.606015,22.3222691 471.606015,23.3743524 C471.606015,23.9056024 471.49664,24.4316441 471.27789,24.9524774 C471.05916,25.4733107 470.694587,26.0201857 470.18417,26.5931024 C469.68417,27.1556024 468.84042,27.9368549 467.65292,28.93686 C466.673754,29.7597767 466.043545,30.3222767 465.762295,30.62436 C465.481045,30.9160267 465.251879,31.2076933 465.074795,31.49936 L471.62164,31.49936 Z M473.387997,26.4837274 C473.387997,24.9108107 473.549456,23.6451857 473.872372,22.6868524 C474.195289,21.7181024 474.674456,20.9733107 475.309872,20.4524774 C475.955706,19.9316441 476.762997,19.6712274 477.731747,19.6712274 C478.450497,19.6712274 479.080706,19.8170607 479.622372,20.1087274 C480.164039,20.3899774 480.606747,20.8066441 480.950497,21.3587274 C481.304664,21.9003941 481.580706,22.5618524 481.778622,23.3431024 C481.986956,24.1139357 482.091122,25.1608107 482.091122,26.4837274 C482.091122,28.0566491 481.929664,29.327485 481.606747,30.296235 C481.283831,31.2545683 480.799456,31.99936 480.153622,32.53061 C479.518206,33.0514433 478.710914,33.31186 477.731747,33.31186 C476.450497,33.31186 475.440081,32.8483183 474.700497,31.921235 C473.825497,30.8066517 473.387997,28.9941491 473.387997,26.4837274 Z M475.059872,26.4837274 C475.059872,28.6816491 475.315081,30.1451933 475.825497,30.87436 C476.346331,31.59311 476.981747,31.952485 477.731747,31.952485 C478.492164,31.952485 479.127581,31.5879017 479.637997,30.858735 C480.148414,30.1295683 480.403622,28.6712325 480.403622,26.4837274 C480.403622,24.2858107 480.148414,22.8274774 479.637997,22.1087274 C479.127581,21.3899774 478.486956,21.0306024 477.716122,21.0306024 C476.966122,21.0306024 476.367164,21.3483107 475.919247,21.9837274 C475.346331,22.7962274 475.059872,24.2962274 475.059872,26.4837274 Z M483.763729,26.4837274 C483.763729,24.9108107 483.925188,23.6451857 484.248104,22.6868524 C484.571021,21.7181024 485.050188,20.9733107 485.685604,20.4524774 C486.331438,19.9316441 487.138729,19.6712274 488.107479,19.6712274 C488.826229,19.6712274 489.456438,19.8170607 489.998104,20.1087274 C490.539771,20.3899774 490.982479,20.8066441 491.326229,21.3587274 C491.680396,21.9003941 491.956438,22.5618524 492.154354,23.3431024 C492.362688,24.1139357 492.466854,25.1608107 492.466854,26.4837274 C492.466854,28.0566491 492.305396,29.327485 491.982479,30.296235 C491.659563,31.2545683 491.175188,31.99936 490.529354,32.53061 C489.893938,33.0514433 489.086646,33.31186 488.107479,33.31186 C486.826229,33.31186 485.815813,32.8483183 485.076229,31.921235 C484.201229,30.8066517 483.763729,28.9941491 483.763729,26.4837274 Z M485.435604,26.4837274 C485.435604,28.6816491 485.690813,30.1451933 486.201229,30.87436 C486.722063,31.59311 487.357479,31.952485 488.107479,31.952485 C488.867896,31.952485 489.503313,31.5879017 490.013729,30.858735 C490.524146,30.1295683 490.779354,28.6712325 490.779354,26.4837274 C490.779354,24.2858107 490.524146,22.8274774 490.013729,22.1087274 C489.503313,21.3899774 488.862688,21.0306024 488.091854,21.0306024 C487.341854,21.0306024 486.742896,21.3483107 486.294979,21.9837274 C485.722063,22.7962274 485.435604,24.2962274 485.435604,26.4837274 Z M494.139461,26.4837274 C494.139461,24.9108107 494.30092,23.6451857 494.623836,22.6868524 C494.946753,21.7181024 495.42592,20.9733107 496.061336,20.4524774 C496.70717,19.9316441 497.514461,19.6712274 498.483211,19.6712274 C499.201961,19.6712274 499.83217,19.8170607 500.373836,20.1087274 C500.915503,20.3899774 501.358211,20.8066441 501.701961,21.3587274 C502.056128,21.9003941 502.33217,22.5618524 502.530086,23.3431024 C502.73842,24.1139357 502.842586,25.1608107 502.842586,26.4837274 C502.842586,28.0566491 502.681128,29.327485 502.358211,30.296235 C502.035295,31.2545683 501.55092,31.99936 500.905086,32.53061 C500.26967,33.0514433 499.462378,33.31186 498.483211,33.31186 C497.201961,33.31186 496.191545,32.8483183 495.451961,31.921235 C494.576961,30.8066517 494.139461,28.9941491 494.139461,26.4837274 Z M495.811336,26.4837274 C495.811336,28.6816491 496.066545,30.1451933 496.576961,30.87436 C497.097795,31.59311 497.733211,31.952485 498.483211,31.952485 C499.243628,31.952485 499.879045,31.5879017 500.389461,30.858735 C500.899878,30.1295683 501.155086,28.6712325 501.155086,26.4837274 C501.155086,24.2858107 500.899878,22.8274774 500.389461,22.1087274 C499.879045,21.3899774 499.23842,21.0306024 498.467586,21.0306024 C497.717586,21.0306024 497.118628,21.3483107 496.670711,21.9837274 C496.097795,22.7962274 495.811336,24.2962274 495.811336,26.4837274 Z" id="Shape" fill="#000000" fill-rule="nonzero"></path>
                <polygon id="Path" fill="#FFFFFF" points="380.66196 40.35864 400.095035 40.35864 400.095035 62.185407 380.66196 62.185407"></polygon>
                <polyline id="Path" fill-opacity="0" fill="#000000" points="390.37848 40.35864 390.37848 106.29133 24.80368 106.29133 24.80368 39.13029"></polyline>
                <polyline id="Path" stroke="#00BFB3" stroke-width="3" stroke-linejoin="round" points="390.37848 58.35864 390.37848 106.291333 24.80368 106.291333 24.80368 39.130293"></polyline>
                <polygon id="Path" stroke="#00BFB3" stroke-width="3" fill="#00BFB3" points="395.33368 58.35864 390.37848 44.744336 385.42328 58.35864"></polygon>
                <polygon id="Path" fill="#FFFFFF" points="149.10759 90.47244 266.14697 90.47244 266.14697 121.842511 149.10759 121.842511"></polygon>
                <path d="M163.4353,113.07748 L163.4353,99.718105 L168.482175,99.718105 C169.367592,99.718105 170.044675,99.7597717 170.513425,99.843105 C171.159258,99.9576883 171.706133,100.17123 172.15405,100.48373 C172.601967,100.785813 172.961342,101.212897 173.232175,101.76498 C173.503008,102.317063 173.638425,102.926438 173.638425,103.593105 C173.638425,104.728522 173.273842,105.692063 172.544675,106.48373 C171.825925,107.26498 170.518633,107.655605 168.6228,107.655605 L165.200925,107.655605 L165.200925,113.07748 L163.4353,113.07748 Z M165.200925,106.07748 L168.65405,106.07748 C169.799883,106.07748 170.612383,105.863938 171.09155,105.436855 C171.570717,105.009772 171.8103,104.410813 171.8103,103.63998 C171.8103,103.07748 171.669675,102.598313 171.388425,102.20248 C171.107175,101.806647 170.732175,101.54623 170.263425,101.42123 C169.971758,101.337897 169.424883,101.29623 168.6228,101.29623 L165.200925,101.29623 L165.200925,106.07748 Z M175.066373,108.23373 C175.066373,106.442063 175.561165,105.119147 176.550748,104.26498 C177.384081,103.54623 178.399706,103.186855 179.597623,103.186855 C180.930956,103.186855 182.019498,103.624355 182.863248,104.499355 C183.706998,105.363938 184.128873,106.567063 184.128873,108.10873 C184.128873,109.348313 183.941373,110.32748 183.566373,111.04623 C183.191373,111.754563 182.644498,112.306647 181.925748,112.70248 C181.217415,113.098313 180.441373,113.29623 179.597623,113.29623 C178.243456,113.29623 177.149706,112.863938 176.316373,111.999355 C175.48304,111.124355 175.066373,109.869147 175.066373,108.23373 Z M176.753873,108.23373 C176.753873,109.473313 177.019498,110.405605 177.550748,111.030605 C178.092415,111.645188 178.774706,111.95248 179.597623,111.95248 C180.410123,111.95248 181.087206,111.645188 181.628873,111.030605 C182.17054,110.405605 182.441373,109.457688 182.441373,108.186855 C182.441373,106.988938 182.17054,106.082688 181.628873,105.468105 C181.087206,104.853522 180.410123,104.54623 179.597623,104.54623 C178.774706,104.54623 178.092415,104.853522 177.550748,105.468105 C177.019498,106.072272 176.753873,106.994147 176.753873,108.23373 Z M187.832715,113.07748 L184.863965,103.405605 L186.56709,103.405605 L188.09834,108.98373 L188.676465,111.061855 C188.707715,110.957688 188.874382,110.291022 189.176465,109.061855 L190.72334,103.405605 L192.41084,103.405605 L193.84834,109.01498 L194.332715,110.85873 L194.895215,108.999355 L196.551465,103.405605 L198.145215,103.405605 L195.113965,113.07748 L193.41084,113.07748 L191.87959,107.280605 L191.50459,105.63998 L189.551465,113.07748 L187.832715,113.07748 Z M206.149411,109.968105 L207.836911,110.17123 C207.566078,111.160813 207.071286,111.931647 206.352536,112.48373 C205.633786,113.025397 204.711911,113.29623 203.586911,113.29623 C202.170244,113.29623 201.045244,112.863938 200.211911,111.999355 C199.388994,111.124355 198.977536,109.900397 198.977536,108.32748 C198.977536,106.692063 199.394203,105.426438 200.227536,104.530605 C201.071286,103.634772 202.159828,103.186855 203.493161,103.186855 C204.784828,103.186855 205.836911,103.629563 206.649411,104.51498 C207.472328,105.38998 207.883786,106.624355 207.883786,108.218105 C207.883786,108.322272 207.883786,108.468105 207.883786,108.655605 L200.665036,108.655605 C200.727536,109.718105 201.029619,110.535813 201.571286,111.10873 C202.112953,111.67123 202.784828,111.95248 203.586911,111.95248 C204.191078,111.95248 204.706703,111.79623 205.133786,111.48373 C205.560869,111.160813 205.899411,110.655605 206.149411,109.968105 Z M200.758786,107.311855 L206.165036,107.311855 C206.092119,106.499355 205.883786,105.88998 205.540036,105.48373 C205.019203,104.848313 204.342119,104.530605 203.508786,104.530605 C202.758786,104.530605 202.123369,104.785813 201.602536,105.29623 C201.092119,105.79623 200.810869,106.468105 200.758786,107.311855 Z M209.884503,113.07748 L209.884503,103.405605 L211.353253,103.405605 L211.353253,104.874355 C211.728253,104.186855 212.072003,103.73373 212.384503,103.51498 C212.70742,103.29623 213.061586,103.186855 213.447003,103.186855 C213.999086,103.186855 214.561591,103.363938 215.134518,103.718105 L214.572003,105.23373 C214.165753,104.994147 213.764711,104.874355 213.368878,104.874355 C213.004295,104.874355 212.681378,104.98373 212.400128,105.20248 C212.118878,105.42123 211.915753,105.718105 211.790753,106.093105 C211.603253,106.676438 211.509503,107.317063 211.509503,108.01498 L211.509503,113.07748 L209.884503,113.07748 L209.884503,113.07748 Z M215.722195,108.780605 L217.378445,108.63998 C217.461779,109.306647 217.64407,109.853522 217.92532,110.280605 C218.216987,110.707688 218.664904,111.056647 219.26907,111.32748 C219.883654,111.587897 220.571154,111.718105 221.33157,111.718105 C221.998237,111.718105 222.591987,111.619147 223.11282,111.42123 C223.633654,111.223313 224.01907,110.95248 224.26907,110.60873 C224.51907,110.254563 224.64407,109.869147 224.64407,109.45248 C224.64407,109.035813 224.51907,108.67123 224.26907,108.35873 C224.029487,108.04623 223.633654,107.780605 223.08157,107.561855 C222.716987,107.426438 221.920112,107.212897 220.690945,106.92123 C219.472195,106.619147 218.618029,106.337897 218.128445,106.07748 C217.482612,105.744147 217.003445,105.332688 216.690945,104.843105 C216.378445,104.343105 216.222195,103.785813 216.222195,103.17123 C216.222195,102.504563 216.414904,101.879563 216.80032,101.29623 C217.185737,100.70248 217.743029,100.254563 218.472195,99.95248 C219.211779,99.6503967 220.029487,99.499355 220.92532,99.499355 C221.914904,99.499355 222.784695,99.6608133 223.534695,99.98373 C224.295112,100.29623 224.878445,100.76498 225.284695,101.38998 C225.690945,102.004563 225.909695,102.70248 225.940945,103.48373 L224.253445,103.60873 C224.159695,102.76498 223.847195,102.129563 223.315945,101.70248 C222.795112,101.26498 222.024279,101.04623 221.003445,101.04623 C219.930529,101.04623 219.149279,101.244147 218.659695,101.63998 C218.170112,102.035813 217.92532,102.509772 217.92532,103.061855 C217.92532,103.541022 218.102404,103.931647 218.45657,104.23373 C218.789904,104.54623 219.67532,104.869147 221.11282,105.20248 C222.55032,105.525397 223.534695,105.806647 224.065945,106.04623 C224.847195,106.400397 225.420112,106.853522 225.784695,107.405605 C226.159695,107.957688 226.347195,108.593105 226.347195,109.311855 C226.347195,110.020188 226.14407,110.692063 225.73782,111.32748 C225.33157,111.95248 224.748237,112.442063 223.98782,112.79623 C223.227404,113.13998 222.368029,113.311855 221.409695,113.311855 C220.201362,113.311855 219.185737,113.134772 218.36282,112.780605 C217.55032,112.426438 216.909695,111.895188 216.440945,111.186855 C215.982612,110.478522 215.743029,109.676438 215.722195,108.780605 Z M228.556393,113.07748 L228.556393,99.718105 L230.197018,99.718105 L230.197018,104.51498 C230.957435,103.629563 231.920977,103.186855 233.087643,103.186855 C233.806393,103.186855 234.426185,103.32748 234.947018,103.60873 C235.478268,103.88998 235.858477,104.280605 236.087643,104.780605 C236.31681,105.280605 236.431393,106.004563 236.431393,106.95248 L236.431393,113.07748 L234.790768,113.07748 L234.790768,106.95248 C234.790768,106.129563 234.613685,105.530605 234.259518,105.155605 C233.905352,104.780605 233.400143,104.593105 232.743893,104.593105 C232.264727,104.593105 231.811602,104.723313 231.384518,104.98373 C230.957435,105.23373 230.650143,105.572272 230.462643,105.999355 C230.28556,106.426438 230.197018,107.020188 230.197018,107.780605 L230.197018,113.07748 L228.556393,113.07748 Z M238.32272,108.23373 C238.32272,106.442063 238.817512,105.119147 239.807095,104.26498 C240.640429,103.54623 241.656054,103.186855 242.85397,103.186855 C244.187304,103.186855 245.275845,103.624355 246.119595,104.499355 C246.963345,105.363938 247.38522,106.567063 247.38522,108.10873 C247.38522,109.348313 247.19772,110.32748 246.82272,111.04623 C246.44772,111.754563 245.900845,112.306647 245.182095,112.70248 C244.473762,113.098313 243.69772,113.29623 242.85397,113.29623 C241.499804,113.29623 240.406054,112.863938 239.57272,111.999355 C238.739387,111.124355 238.32272,109.869147 238.32272,108.23373 Z M240.01022,108.23373 C240.01022,109.473313 240.275845,110.405605 240.807095,111.030605 C241.348762,111.645188 242.031054,111.95248 242.85397,111.95248 C243.66647,111.95248 244.343554,111.645188 244.88522,111.030605 C245.426887,110.405605 245.69772,109.457688 245.69772,108.186855 C245.69772,106.988938 245.426887,106.082688 244.88522,105.468105 C244.343554,104.853522 243.66647,104.54623 242.85397,104.54623 C242.031054,104.54623 241.348762,104.853522 240.807095,105.468105 C240.275845,106.072272 240.01022,106.994147 240.01022,108.23373 Z M252.885952,111.60873 L253.120327,113.061855 C252.661994,113.155605 252.250536,113.20248 251.885952,113.20248 C251.292202,113.20248 250.828661,113.10873 250.495327,112.92123 C250.172411,112.73373 249.943244,112.488938 249.807827,112.186855 C249.672411,111.874355 249.604702,111.228522 249.604702,110.249355 L249.604702,104.67123 L248.401577,104.67123 L248.401577,103.405605 L249.604702,103.405605 L249.604702,101.01498 L251.229702,100.030605 L251.229702,103.405605 L252.885952,103.405605 L252.885952,104.67123 L251.229702,104.67123 L251.229702,110.343105 C251.229702,110.801438 251.255744,111.098313 251.307827,111.23373 C251.370327,111.369147 251.464077,111.478522 251.589077,111.561855 C251.724494,111.634772 251.917202,111.67123 252.167202,111.67123 C252.344286,111.67123 252.583869,111.650397 252.885952,111.60873 Z" id="Shape" fill="#000000" fill-rule="nonzero"></path>
            </g>
        </g>
    </g>
</svg>