<?xml version="1.0" encoding="UTF-8"?>
<svg width="157px" height="409px" viewBox="0 0 157 409" version="1.1" xmlns="http://www.w3.org/2000/svg" xmlns:xlink="http://www.w3.org/1999/xlink">
    <!-- Generator: Sketch 53.2 (72643) - https://sketchapp.com -->
    <title>Enrich process 2</title>
    <desc>Created with Sketch.</desc>
    <defs>
        <polygon id="path-1" points="0 0 156 0 156 408 0 408"></polygon>
    </defs>
    <g id="Page-1" stroke="none" stroke-width="1" fill="none" fill-rule="evenodd">
        <g id="Enrich-process" transform="translate(1.000000, 1.000000)">
            <mask id="mask-2" fill="white">
                <use xlink:href="#path-1"></use>
            </mask>
            <g id="path2"></g>
            <g id="g47" mask="url(#mask-2)">
                <g transform="translate(-0.021000, -0.666667)">
                    <polygon id="path5" stroke="none" fill="#FFFFFF" fill-rule="evenodd" points="14.66667 0.666667 148 0.666667 148 407.33333 14.66667 407.33333"></polygon>
                    <polygon id="path7" stroke="none" fill-opacity="0" fill="#000000" fill-rule="evenodd" points="0.021 145.40158 155.70603 145.40158 155.70603 171.70079 0.021 171.70079"></polygon>
                    <path d="M27.7776,159.91783 L27.7776,158.30845 L29.18385,158.30845 L29.18385,159.91783 L27.7776,159.91783 Z M27.7776,169.76158 L27.7776,161.4647 L29.18385,161.4647 L29.18385,169.76158 L27.7776,169.76158 Z M31.33229,169.76158 L31.33229,161.4647 L32.59791,161.4647 L32.59791,162.63658 C33.2020767,161.730327 34.0822867,161.2772 35.23854,161.2772 C35.73854,161.2772 36.1968733,161.365743 36.61354,161.54283 C37.0302067,161.71991 37.3427067,161.954283 37.55104,162.24595 C37.7593733,162.537617 37.9052067,162.886577 37.98854,163.29283 C38.0406067,163.553243 38.06664,164.006367 38.06664,164.6522 L38.06664,169.76158 L36.66039,169.76158 L36.66039,164.7147 C36.66039,164.141787 36.6031,163.714703 36.48852,163.43345 C36.3843533,163.141783 36.1916433,162.912617 35.91039,162.74595 C35.6395567,162.579283 35.31664,162.49595 34.94164,162.49595 C34.3374733,162.49595 33.81664,162.68866 33.37914,163.07408 C32.95206,163.44908 32.73852,164.16783 32.73852,165.23033 L32.73852,169.76158 L31.33229,169.76158 Z M39.9651,170.44908 L41.3401,170.6522 C41.3921667,171.079287 41.5484167,171.38658 41.80885,171.57408 C42.1630167,171.834493 42.6421833,171.9647 43.24635,171.9647 C43.8921833,171.9647 44.3921833,171.834493 44.74635,171.57408 C45.1005167,171.31366 45.3401,170.949077 45.4651,170.48033 C45.5380133,170.199077 45.57447,169.59491 45.57447,168.66783 C44.95989,169.396997 44.1942667,169.76158 43.2776,169.76158 C42.1317667,169.76158 41.24635,169.35012 40.62135,168.5272 C39.99635,167.704287 39.68385,166.714703 39.68385,165.55845 C39.68385,164.766783 39.8244733,164.037617 40.10572,163.37095 C40.3973867,162.704283 40.8140533,162.18866 41.35572,161.82408 C41.9078067,161.459493 42.5484333,161.2772 43.2776,161.2772 C44.2567667,161.2772 45.0640567,161.673033 45.69947,162.4647 L45.69947,161.4647 L46.99635,161.4647 L46.99635,168.63658 C46.99635,169.928247 46.86614,170.844913 46.60572,171.38658 C46.3453067,171.928247 45.92864,172.35533 45.35572,172.66783 C44.7828067,172.98033 44.0796833,173.13658 43.24635,173.13658 C42.2567633,173.13658 41.45468,172.91262 40.8401,172.4647 C40.2359333,172.016787 39.9442667,171.344913 39.9651,170.44908 Z M41.13697,165.4647 C41.13697,166.548033 41.3505133,167.3397 41.7776,167.8397 C42.2151,168.3397 42.7567667,168.5897 43.4026,168.5897 C44.0484333,168.5897 44.5901,168.34491 45.0276,167.85533 C45.4651,167.35533 45.68385,166.57408 45.68385,165.51158 C45.68385,164.490747 45.45989,163.72512 45.01197,163.2147 C44.5640567,162.693867 44.02239,162.43345 43.38697,162.43345 C42.76197,162.43345 42.23072,162.68866 41.79322,163.19908 C41.35572,163.709493 41.13697,164.4647 41.13697,165.4647 Z M54.80104,167.0897 L56.25416,167.26158 C56.0249933,168.115747 55.59791,168.777203 54.97291,169.24595 C54.35833,169.714703 53.5718733,169.94908 52.61354,169.94908 C51.3947867,169.94908 50.4312433,169.57408 49.72291,168.82408 C49.0145767,168.07408 48.66041,167.027203 48.66041,165.68345 C48.66041,164.287617 49.0197867,163.204283 49.73854,162.43345 C50.4572867,161.662617 51.3895767,161.2772 52.53541,161.2772 C53.6395767,161.2772 54.54062,161.65741 55.23854,162.41783 C55.9468733,163.16783 56.30104,164.22512 56.30104,165.5897 C56.30104,165.673033 56.30104,165.798033 56.30104,165.9647 L50.11354,165.9647 C50.1656067,166.881367 50.4208133,167.584493 50.87916,168.07408 C51.3479133,168.553247 51.92604,168.79283 52.61354,168.79283 C53.1343733,168.79283 53.57708,168.657413 53.94166,168.38658 C54.3062467,168.115747 54.5927067,167.683453 54.80104,167.0897 Z M50.19166,164.80845 L54.81666,164.80845 C54.7541933,164.110537 54.57711,163.589703 54.28541,163.24595 C53.8374967,162.704283 53.2593733,162.43345 52.55104,162.43345 C51.9052067,162.43345 51.35833,162.6522 50.91041,163.0897 C50.47291,163.516787 50.2333267,164.089703 50.19166,164.80845 Z M57.4651,167.2772 L58.85572,167.05845 C58.92864,167.62095 59.1421833,168.053243 59.49635,168.35533 C59.86093,168.646997 60.36093,168.79283 60.99635,168.79283 C61.6421833,168.79283 62.12135,168.66262 62.43385,168.4022 C62.74635,168.131367 62.9026,167.818867 62.9026,167.4647 C62.9026,167.1522 62.7671833,166.9022 62.49635,166.7147 C62.29843,166.5897 61.8192633,166.43345 61.05885,166.24595 C60.0275967,165.985537 59.3088467,165.76158 58.9026,165.57408 C58.5067667,165.37616 58.2046833,165.110533 57.99635,164.7772 C57.79843,164.443867 57.69947,164.074077 57.69947,163.66783 C57.69947,163.29283 57.7828033,162.94908 57.94947,162.63658 C58.1161367,162.32408 58.3453033,162.063663 58.63697,161.85533 C58.8557233,161.688663 59.1526,161.553247 59.5276,161.44908 C59.9130133,161.334493 60.3192633,161.2772 60.74635,161.2772 C61.4025967,161.2772 61.9755133,161.37095 62.4651,161.55845 C62.95468,161.74595 63.3140533,162.00116 63.54322,162.32408 C63.7828067,162.63658 63.9494733,163.063663 64.04322,163.60533 L62.66822,163.79283 C62.6057533,163.365743 62.4234633,163.03241 62.12135,162.79283 C61.8192633,162.553243 61.3973867,162.43345 60.85572,162.43345 C60.2098867,162.43345 59.7463467,162.542827 59.4651,162.76158 C59.1942667,162.969913 59.05885,163.214703 59.05885,163.49595 C59.05885,163.68345 59.11614,163.850117 59.23072,163.99595 C59.3453067,164.141783 59.52239,164.266783 59.76197,164.37095 C59.9078033,164.423017 60.32447,164.54281 61.01197,164.73033 C62.0015567,164.990743 62.6942667,165.209493 63.0901,165.38658 C63.4859333,165.553247 63.7932233,165.798037 64.01197,166.12095 C64.2411367,166.44387 64.35572,166.844913 64.35572,167.32408 C64.35572,167.792827 64.2150967,168.235533 63.93385,168.6522 C63.6630167,169.058453 63.2671833,169.376163 62.74635,169.60533 C62.23593,169.834497 61.6578033,169.94908 61.01197,169.94908 C59.9286367,169.94908 59.10572,169.72512 58.54322,169.2772 C57.98072,168.829287 57.6213467,168.16262 57.4651,167.2772 Z M69.0901,168.49595 L69.29322,169.74595 C68.8973867,169.829283 68.54322,169.87095 68.23072,169.87095 C67.7203067,169.87095 67.3244733,169.792827 67.04322,169.63658 C66.7619733,169.469913 66.5640567,169.25637 66.44947,168.99595 C66.33489,168.725117 66.2776,168.167827 66.2776,167.32408 L66.2776,162.55845 L65.24635,162.55845 L65.24635,161.4647 L66.2776,161.4647 L66.2776,159.4022 L67.68385,158.55845 L67.68385,161.4647 L69.0901,161.4647 L69.0901,162.55845 L67.68385,162.55845 L67.68385,167.4022 C67.68385,167.808453 67.7046833,168.06887 67.74635,168.18345 C67.7984167,168.298037 67.88175,168.391787 67.99635,168.4647 C68.11093,168.527167 68.2723867,168.5584 68.48072,168.5584 C68.6369733,168.5584 68.8401,168.537567 69.0901,168.4959 L69.0901,168.49595 Z M74.91822,172.94908 L74.91822,161.4647 L76.19947,161.4647 L76.19947,162.54283 C76.5015567,162.115743 76.8401,161.798033 77.2151,161.5897 C77.6005133,161.381367 78.0640533,161.2772 78.60572,161.2772 C79.3140533,161.2772 79.9390533,161.459493 80.48072,161.82408 C81.0223867,162.18866 81.4286367,162.704283 81.69947,163.37095 C81.9807233,164.027203 82.12135,164.751163 82.12135,165.54283 C82.12135,166.396997 81.9651,167.16262 81.6526,167.8397 C81.3505133,168.516787 80.9078033,169.03762 80.32447,169.4022 C79.7515567,169.766787 79.1421833,169.94908 78.49635,169.94908 C78.0275967,169.94908 77.60572,169.85012 77.23072,169.6522 C76.86614,169.454287 76.5640567,169.204287 76.32447,168.9022 L76.32447,172.94908 L74.91822,172.94908 Z M76.18385,165.6522 C76.18385,166.72512 76.39739,167.516787 76.82447,168.0272 C77.26197,168.53762 77.7880133,168.79283 78.4026,168.79283 C79.0276,168.79283 79.5640567,168.527203 80.01197,167.99595 C80.45989,167.464703 80.68385,166.646997 80.68385,165.54283 C80.68385,164.48033 80.4651,163.688663 80.0276,163.16783 C79.5901,162.636577 79.0692667,162.37095 78.4651,162.37095 C77.8713467,162.37095 77.3400967,162.6522 76.87135,163.2147 C76.4130167,163.7772 76.18385,164.5897 76.18385,165.6522 Z M83.81666,159.91783 L83.81666,158.30845 L85.22291,158.30845 L85.22291,159.91783 L83.81666,159.91783 Z M83.81666,169.76158 L83.81666,161.4647 L85.22291,161.4647 L85.22291,169.76158 L83.81666,169.76158 Z M87.37135,172.94908 L87.37135,161.4647 L88.6526,161.4647 L88.6526,162.54283 C88.95468,162.115743 89.29322,161.798033 89.66822,161.5897 C90.05364,161.381367 90.5171833,161.2772 91.05885,161.2772 C91.7671833,161.2772 92.3921833,161.459493 92.93385,161.82408 C93.4755167,162.18866 93.8817667,162.704283 94.1526,163.37095 C94.4338467,164.027203 94.57447,164.751163 94.57447,165.54283 C94.57447,166.396997 94.41822,167.16262 94.10572,167.8397 C93.80364,168.516787 93.3609333,169.03762 92.7776,169.4022 C92.20468,169.766787 91.5953033,169.94908 90.94947,169.94908 C90.4807233,169.94908 90.05885,169.85012 89.68385,169.6522 C89.3192633,169.454287 89.01718,169.204287 88.7776,168.9022 L88.7776,172.94908 L87.37135,172.94908 Z M88.63697,165.6522 C88.63697,166.72512 88.8505133,167.516787 89.2776,168.0272 C89.7151,168.53762 90.24114,168.79283 90.85572,168.79283 C91.48072,168.79283 92.01718,168.527203 92.4651,167.99595 C92.9130133,167.464703 93.13697,166.646997 93.13697,165.54283 C93.13697,164.48033 92.91822,163.688663 92.48072,163.16783 C92.04322,162.636577 91.5223867,162.37095 90.91822,162.37095 C90.3244733,162.37095 89.7932233,162.6522 89.32447,163.2147 C88.8661367,163.7772 88.63697,164.5897 88.63697,165.6522 Z M101.94166,167.0897 L103.39479,167.26158 C103.165623,168.115747 102.73854,168.777203 102.11354,169.24595 C101.498953,169.714703 100.712493,169.94908 99.75416,169.94908 C98.5354133,169.94908 97.5718733,169.57408 96.86354,168.82408 C96.1552067,168.07408 95.80104,167.027203 95.80104,165.68345 C95.80104,164.287617 96.1604133,163.204283 96.87916,162.43345 C97.5979133,161.662617 98.5302067,161.2772 99.67604,161.2772 C100.780207,161.2772 101.681247,161.65741 102.37916,162.41783 C103.087493,163.16783 103.44166,164.22512 103.44166,165.5897 C103.44166,165.673033 103.44166,165.798033 103.44166,165.9647 L97.25416,165.9647 C97.3062267,166.881367 97.5614367,167.584493 98.01979,168.07408 C98.4885367,168.553247 99.06666,168.79283 99.75416,168.79283 C100.274993,168.79283 100.717703,168.657413 101.08229,168.38658 C101.44687,168.115747 101.733327,167.683453 101.94166,167.0897 Z M97.33229,164.80845 L101.95729,164.80845 C101.894823,164.110537 101.71774,163.589703 101.42604,163.24595 C100.97812,162.704283 100.399993,162.43345 99.69166,162.43345 C99.0458267,162.43345 98.4989533,162.6522 98.05104,163.0897 C97.61354,163.516787 97.3739567,164.089703 97.33229,164.80845 Z M105.13697,169.76158 L105.13697,158.30845 L106.54322,158.30845 L106.54322,169.76158 L105.13697,169.76158 Z M108.72291,159.91783 L108.72291,158.30845 L110.12916,158.30845 L110.12916,159.91783 L108.72291,159.91783 Z M108.72291,169.76158 L108.72291,161.4647 L110.12916,161.4647 L110.12916,169.76158 L108.72291,169.76158 Z M112.2776,169.76158 L112.2776,161.4647 L113.54322,161.4647 L113.54322,162.63658 C114.147387,161.730327 115.027597,161.2772 116.18385,161.2772 C116.68385,161.2772 117.142183,161.365743 117.55885,161.54283 C117.975517,161.71991 118.288017,161.954283 118.49635,162.24595 C118.704683,162.537617 118.850517,162.886577 118.93385,163.29283 C118.985917,163.553243 119.01195,164.006367 119.01195,164.6522 L119.01195,169.76158 L117.6057,169.76158 L117.6057,164.7147 C117.6057,164.141787 117.54841,163.714703 117.43383,163.43345 C117.329663,163.141783 117.136953,162.912617 116.8557,162.74595 C116.584867,162.579283 116.26195,162.49595 115.88695,162.49595 C115.282783,162.49595 114.76195,162.68866 114.32445,163.07408 C113.89737,163.44908 113.68383,164.16783 113.68383,165.23033 L113.68383,169.76158 L112.2776,169.76158 Z M126.84791,167.0897 L128.30104,167.26158 C128.071873,168.115747 127.64479,168.777203 127.01979,169.24595 C126.405203,169.714703 125.618743,169.94908 124.66041,169.94908 C123.441663,169.94908 122.478123,169.57408 121.76979,168.82408 C121.061457,168.07408 120.70729,167.027203 120.70729,165.68345 C120.70729,164.287617 121.066663,163.204283 121.78541,162.43345 C122.504163,161.662617 123.436457,161.2772 124.58229,161.2772 C125.686457,161.2772 126.587497,161.65741 127.28541,162.41783 C127.993743,163.16783 128.34791,164.22512 128.34791,165.5897 C128.34791,165.673033 128.34791,165.798033 128.34791,165.9647 L122.16041,165.9647 C122.212477,166.881367 122.467687,167.584493 122.92604,168.07408 C123.394787,168.553247 123.97291,168.79283 124.66041,168.79283 C125.181243,168.79283 125.623953,168.657413 125.98854,168.38658 C126.35312,168.115747 126.639577,167.683453 126.84791,167.0897 Z M122.23854,164.80845 L126.86354,164.80845 C126.801073,164.110537 126.62399,163.589703 126.33229,163.24595 C125.88437,162.704283 125.306243,162.43345 124.59791,162.43345 C123.952077,162.43345 123.405203,162.6522 122.95729,163.0897 C122.51979,163.516787 122.280207,164.089703 122.23854,164.80845 Z" id="path9" stroke="none" fill="#000000" fill-rule="nonzero"></path>
                    <path d="M26.4777,360.92145 L26.4777,360.92145 C26.4777,356.12906 30.36268,352.24408 35.15504,352.24408 L120.572,352.24408 C122.87339,352.24408 125.08051,353.15833 126.70783,354.78562 C128.33512,356.41294 129.24934,358.62006 129.24934,360.92145 L129.24934,395.62976 C129.24934,400.42212 125.36439,404.3071 120.572,404.3071 L35.15504,404.3071 C30.36268,404.3071 26.4777,400.42212 26.4777,395.62976 L26.4777,360.92145 Z" id="path11" stroke="none" fill="#FEC514" fill-rule="evenodd"></path>
                    <path d="M61.5315,373.36996 L61.73462,374.61996 C61.3387867,374.703293 60.98462,374.74496 60.67212,374.74496 C60.1617067,374.74496 59.7658733,374.666833 59.48462,374.51058 C59.2033733,374.343913 59.0054567,374.130373 58.89087,373.86996 C58.77629,373.599127 58.719,373.041833 58.719,372.19808 L58.719,367.43246 L57.68775,367.43246 L57.68775,366.33871 L58.719,366.33871 L58.719,364.27621 L60.12525,363.43246 L60.12525,366.33871 L61.5315,366.33871 L61.5315,367.43246 L60.12525,367.43246 L60.12525,372.27621 C60.12525,372.682457 60.1460833,372.942873 60.18775,373.05746 C60.2398167,373.17204 60.32315,373.26579 60.43775,373.33871 C60.55233,373.401177 60.7137867,373.43241 60.92212,373.43241 C61.0783733,373.43241 61.2815,373.411577 61.5315,373.36991 L61.5315,373.36996 Z M68.32056,373.60433 C67.7997267,374.05225 67.2997267,374.36996 66.82056,374.55746 C66.3413933,374.73454 65.82577,374.82308 65.27369,374.82308 C64.3570233,374.82308 63.6538967,374.599123 63.16431,374.15121 C62.67473,373.70329 62.42994,373.13558 62.42994,372.44808 C62.42994,372.041833 62.52369,371.672043 62.71119,371.33871 C62.89869,370.994957 63.1382733,370.724123 63.42994,370.52621 C63.73202,370.317877 64.07056,370.161627 64.44556,370.05746 C64.7268133,369.98454 65.14348,369.91683 65.69556,369.85433 C66.83098,369.718917 67.6695233,369.55746 68.21119,369.36996 C68.21119,369.17204 68.21119,369.04704 68.21119,368.99496 C68.21119,368.42204 68.08098,368.020997 67.82056,367.79183 C67.45598,367.468917 66.9195233,367.30746 66.21119,367.30746 C65.5549367,367.30746 65.0653533,367.42725 64.74244,367.66683 C64.42994,367.895997 64.2007733,368.302247 64.05494,368.88558 L62.67994,368.69808 C62.80494,368.114747 63.0080633,367.64079 63.28931,367.27621 C63.5809767,366.911623 63.9976433,366.63558 64.53931,366.44808 C65.0809767,366.250167 65.7059767,366.15121 66.41431,366.15121 C67.1226433,366.15121 67.69556,366.234543 68.13306,366.40121 C68.58098,366.567877 68.9091067,366.77621 69.11744,367.02621 C69.3257733,367.27621 69.4716067,367.593917 69.55494,367.97933 C69.6070067,368.218917 69.63304,368.65121 69.63304,369.27621 L69.63304,371.15121 C69.63304,372.46371 69.6590733,373.291833 69.71114,373.63558 C69.7736067,373.979333 69.8933967,374.312667 70.07051,374.63558 L68.60176,374.63558 C68.4559267,374.343913 68.3621767,374.000163 68.32051,373.60433 L68.32056,373.60433 Z M68.21119,370.46371 C67.70077,370.672043 66.9351433,370.849127 65.91431,370.99496 C65.3309767,371.078293 64.91952,371.172043 64.67994,371.27621 C64.4403533,371.380377 64.2528533,371.536627 64.11744,371.74496 C63.99244,371.942873 63.92994,372.161623 63.92994,372.40121 C63.92994,372.77621 64.0705633,373.08871 64.35181,373.33871 C64.6434767,373.58871 65.0601433,373.71371 65.60181,373.71371 C66.1434767,373.71371 66.6226433,373.599127 67.03931,373.36996 C67.4663967,373.130373 67.7788967,372.802247 67.97681,372.38558 C68.1330633,372.07308 68.21119,371.60433 68.21119,370.97933 L68.21119,370.46371 Z M71.79712,374.63558 L71.79712,366.33871 L73.06275,366.33871 L73.06275,367.58871 C73.3856633,367.005377 73.6825367,366.61996 73.95337,366.43246 C74.2242033,366.24496 74.5262867,366.15121 74.85962,366.15121 C75.3283733,366.15121 75.80754,366.30225 76.29712,366.60433 L75.81275,367.90121 C75.4689967,367.70329 75.1252467,367.60433 74.7815,367.60433 C74.4794133,367.60433 74.20337,367.69808 73.95337,367.88558 C73.71379,368.062667 73.5419167,368.317877 73.43775,368.65121 C73.2814967,369.15121 73.20337,369.698083 73.20337,370.29183 L73.20337,374.63558 L71.79712,374.63558 Z M76.87525,375.32308 L78.25025,375.52621 C78.3023167,375.95329 78.4585667,376.26058 78.719,376.44808 C79.0731667,376.7085 79.5523333,376.83871 80.1565,376.83871 C80.8023333,376.83871 81.3023333,376.7085 81.6565,376.44808 C82.0106667,376.187667 82.25025,375.823083 82.37525,375.35433 C82.4481633,375.073083 82.48462,374.468917 82.48462,373.54183 C81.87004,374.270997 81.1044167,374.63558 80.18775,374.63558 C79.0419167,374.63558 78.1565,374.224123 77.5315,373.40121 C76.9065,372.57829 76.594,371.588707 76.594,370.43246 C76.594,369.640793 76.7346233,368.911627 77.01587,368.24496 C77.3075367,367.578293 77.7242033,367.062667 78.26587,366.69808 C78.8179567,366.3335 79.4585833,366.15121 80.18775,366.15121 C81.1669167,366.15121 81.9742067,366.547043 82.60962,367.33871 L82.60962,366.33871 L83.9065,366.33871 L83.9065,373.51058 C83.9065,374.802247 83.77629,375.718913 83.51587,376.26058 C83.2554567,376.802247 82.83879,377.22933 82.26587,377.54183 C81.6929567,377.85433 80.9898333,378.01058 80.1565,378.01058 C79.1669133,378.01058 78.36483,377.786623 77.75025,377.33871 C77.1460833,376.89079 76.8544167,376.218913 76.87525,375.32308 Z M78.04712,370.33871 C78.04712,371.422043 78.2606633,372.21371 78.68775,372.71371 C79.12525,373.21371 79.6669167,373.46371 80.31275,373.46371 C80.9585833,373.46371 81.50025,373.218917 81.93775,372.72933 C82.37525,372.22933 82.594,371.44808 82.594,370.38558 C82.594,369.364747 82.37004,368.599123 81.92212,368.08871 C81.4742067,367.567877 80.93254,367.30746 80.29712,367.30746 C79.67212,367.30746 79.14087,367.562667 78.70337,368.07308 C78.26587,368.5835 78.04712,369.33871 78.04712,370.33871 Z M91.71119,371.96371 L93.16431,372.13558 C92.9351433,372.989747 92.50806,373.651207 91.88306,374.11996 C91.26848,374.588707 90.4820233,374.82308 89.52369,374.82308 C88.3049367,374.82308 87.3413933,374.44808 86.63306,373.69808 C85.9247267,372.94808 85.57056,371.901207 85.57056,370.55746 C85.57056,369.161627 85.9299367,368.078293 86.64869,367.30746 C87.3674367,366.536627 88.2997267,366.15121 89.44556,366.15121 C90.5497267,366.15121 91.45077,366.531417 92.14869,367.29183 C92.8570233,368.04183 93.21119,369.099123 93.21119,370.46371 C93.21119,370.547043 93.21119,370.672043 93.21119,370.83871 L87.02369,370.83871 C87.0757567,371.755377 87.3309633,372.4585 87.78931,372.94808 C88.2580633,373.427247 88.83619,373.66683 89.52369,373.66683 C90.0445233,373.66683 90.48723,373.531413 90.85181,373.26058 C91.2163967,372.989747 91.5028567,372.557457 91.71119,371.96371 Z M87.10181,369.68246 L91.72681,369.68246 C91.6643433,368.98454 91.48726,368.463707 91.19556,368.11996 C90.7476467,367.578293 90.1695233,367.30746 89.46119,367.30746 C88.8153567,367.30746 88.26848,367.52621 87.82056,367.96371 C87.38306,368.39079 87.1434767,368.963707 87.10181,369.68246 Z M98.00025,373.36996 L98.20337,374.61996 C97.8075367,374.703293 97.45337,374.74496 97.14087,374.74496 C96.6304567,374.74496 96.2346233,374.666833 95.95337,374.51058 C95.6721233,374.343913 95.4742067,374.130373 95.35962,373.86996 C95.24504,373.599127 95.18775,373.041833 95.18775,372.19808 L95.18775,367.43246 L94.1565,367.43246 L94.1565,366.33871 L95.18775,366.33871 L95.18775,364.27621 L96.594,363.43246 L96.594,366.33871 L98.00025,366.33871 L98.00025,367.43246 L96.594,367.43246 L96.594,372.27621 C96.594,372.682457 96.6148333,372.942873 96.6565,373.05746 C96.7085667,373.17204 96.7919,373.26579 96.9065,373.33871 C97.02108,373.401177 97.1825367,373.43241 97.39087,373.43241 C97.5471233,373.43241 97.75025,373.411577 98.00025,373.36991 L98.00025,373.36996 Z" id="path13" stroke="none" fill="#FFFFFF" fill-rule="nonzero"></path>
                    <path d="M59.80103,383.79184 L59.80103,382.18246 L61.20728,382.18246 L61.20728,383.79184 L59.80103,383.79184 Z M59.80103,393.63559 L59.80103,385.33871 L61.20728,385.33871 L61.20728,393.63559 L59.80103,393.63559 Z M63.35572,393.63559 L63.35572,385.33871 L64.62134,385.33871 L64.62134,386.51059 C65.2255067,385.604337 66.1057167,385.15121 67.26197,385.15121 C67.76197,385.15121 68.2203033,385.239753 68.63697,385.41684 C69.0536367,385.59392 69.3661367,385.828293 69.57447,386.11996 C69.7828033,386.411627 69.9286367,386.760587 70.01197,387.16684 C70.0640367,387.427253 70.09007,387.880377 70.09007,388.52621 L70.09007,393.63559 L68.68382,393.63559 L68.68382,388.58871 C68.68382,388.015797 68.62653,387.588713 68.51195,387.30746 C68.4077833,387.015793 68.2150733,386.786627 67.93382,386.61996 C67.6629867,386.453293 67.34007,386.36996 66.96507,386.36996 C66.3609033,386.36996 65.84007,386.56267 65.40257,386.94809 C64.97549,387.32309 64.76195,388.04184 64.76195,389.10434 L64.76195,393.63559 L63.35572,393.63559 Z M77.62916,393.63559 L77.62916,392.58871 C77.1083267,393.41163 76.3374933,393.82309 75.31666,393.82309 C74.6499933,393.82309 74.0406167,393.640797 73.48853,393.27621 C72.93645,392.91163 72.50416,392.401213 72.19166,391.74496 C71.8895733,391.088713 71.73853,390.338713 71.73853,389.49496 C71.73853,388.661627 71.8739467,387.911627 72.14478,387.24496 C72.4260333,386.56788 72.8427,386.052257 73.39478,385.69809 C73.9468667,385.333503 74.56666,385.15121 75.25416,385.15121 C75.75416,385.15121 76.1968667,385.255377 76.58228,385.46371 C76.9781133,385.672043 77.2958233,385.948087 77.53541,386.29184 L77.53541,382.18246 L78.94166,382.18246 L78.94166,393.63559 L77.62916,393.63559 Z M73.19166,389.49496 C73.19166,390.55746 73.4156167,391.354337 73.86353,391.88559 C74.31145,392.406423 74.8374933,392.66684 75.44166,392.66684 C76.05624,392.66684 76.5770733,392.41684 77.00416,391.91684 C77.44166,391.40642 77.66041,390.635587 77.66041,389.60434 C77.66041,388.46892 77.44166,387.635587 77.00416,387.10434 C76.56666,386.573087 76.0249933,386.30746 75.37916,386.30746 C74.75416,386.30746 74.2333267,386.56267 73.81666,387.07309 C73.3999933,387.583503 73.19166,388.390793 73.19166,389.49496 Z M86.82447,390.96371 L88.27759,391.13559 C88.0484233,391.989757 87.62134,392.651213 86.99634,393.11996 C86.38176,393.588713 85.5953033,393.82309 84.63697,393.82309 C83.4182167,393.82309 82.4546733,393.44809 81.74634,392.69809 C81.0380067,391.94809 80.68384,390.901213 80.68384,389.55746 C80.68384,388.161627 81.0432167,387.078293 81.76197,386.30746 C82.4807167,385.536627 83.4130067,385.15121 84.55884,385.15121 C85.6630067,385.15121 86.56405,385.53142 87.26197,386.29184 C87.9703033,387.04184 88.32447,388.09913 88.32447,389.46371 C88.32447,389.547043 88.32447,389.672043 88.32447,389.83871 L82.13697,389.83871 C82.1890367,390.755377 82.4442433,391.458503 82.90259,391.94809 C83.3713433,392.427257 83.94947,392.66684 84.63697,392.66684 C85.1578033,392.66684 85.60051,392.531423 85.96509,392.26059 C86.3296767,391.989757 86.6161367,391.557463 86.82447,390.96371 Z M82.21509,388.68246 L86.84009,388.68246 C86.7776233,387.984547 86.60054,387.463713 86.30884,387.11996 C85.8609267,386.578293 85.2828033,386.30746 84.57447,386.30746 C83.9286367,386.30746 83.38176,386.52621 82.93384,386.96371 C82.49634,387.390797 82.2567567,387.963713 82.21509,388.68246 Z M89.11353,393.63559 L92.14478,389.32309 L89.33228,385.33871 L91.09791,385.33871 L92.36353,387.27621 C92.6031167,387.65121 92.7958267,387.96371 92.94166,388.21371 C93.1708267,387.869963 93.3843667,387.562673 93.58228,387.29184 L94.97291,385.33871 L96.66041,385.33871 L93.78541,389.24496 L96.87916,393.63559 L95.14478,393.63559 L93.44166,391.05746 L92.98853,390.35434 L90.81666,393.63559 L89.11353,393.63559 Z" id="path15" stroke="none" fill="#FFFFFF" fill-rule="nonzero"></path>
                    <path d="M26.4777,196.84286 L26.4777,196.84286 C26.4777,187.38279 34.14658,179.71391 43.60664,179.71391 L112.1204,179.71391 L112.1204,179.71391 C116.66327,179.71391 121.02009,181.51856 124.2324,184.73086 C127.44471,187.94316 129.24933,192.29998 129.24933,196.84286 L129.24933,304.34872 C129.24933,313.8088 121.58045,321.47769 112.1204,321.47769 L43.60664,321.47769 C34.14658,321.47769 26.4777,313.8088 26.4777,304.34872 L26.4777,196.84286 Z" id="path17" stroke="none" fill-opacity="0" fill="#000000" fill-rule="evenodd"></path>
                    <path d="M26.4777,196.84286 L26.4777,196.84286 C26.4777,187.38279 34.14658,179.71391 43.60664,179.71391 L112.1204,179.71391 L112.1204,179.71391 C116.66327,179.71391 121.02009,181.51856 124.2324,184.73086 C127.44471,187.94316 129.24933,192.29998 129.24933,196.84286 L129.24933,304.34872 C129.24933,313.8088 121.58045,321.47769 112.1204,321.47769 L43.60664,321.47769 C34.14658,321.47769 26.4777,313.8088 26.4777,304.34872 L26.4777,196.84286 Z" id="path19" stroke="#00BFB3" stroke-width="2" fill="none" stroke-linejoin="round"></path>
                    <path d="M59.4026,237.4558 L59.4026,236.40892 C58.8817667,237.23184 58.1109333,237.6433 57.0901,237.6433 C56.4234333,237.6433 55.8140567,237.461007 55.26197,237.09642 C54.70989,236.73184 54.2776,236.221423 53.9651,235.56517 C53.6630133,234.908923 53.51197,234.158923 53.51197,233.31517 C53.51197,232.481837 53.6473867,231.731837 53.91822,231.06517 C54.1994733,230.38809 54.61614,229.872467 55.16822,229.5183 C55.7203067,229.153713 56.3401,228.97142 57.0276,228.97142 C57.5276,228.97142 57.9703067,229.075587 58.35572,229.28392 C58.7515533,229.492253 59.0692633,229.768297 59.30885,230.11205 L59.30885,226.00267 L60.7151,226.00267 L60.7151,237.4558 L59.4026,237.4558 Z M54.9651,233.31517 C54.9651,234.37767 55.1890567,235.174547 55.63697,235.7058 C56.08489,236.226633 56.6109333,236.48705 57.2151,236.48705 C57.82968,236.48705 58.3505133,236.23705 58.7776,235.73705 C59.2151,235.22663 59.43385,234.455797 59.43385,233.42455 C59.43385,232.28913 59.2151,231.455797 58.7776,230.92455 C58.3401,230.393297 57.7984333,230.12767 57.1526,230.12767 C56.5276,230.12767 56.0067667,230.38288 55.5901,230.8933 C55.1734333,231.403713 54.9651,232.211003 54.9651,233.31517 Z M62.92604,227.61205 L62.92604,226.00267 L64.33229,226.00267 L64.33229,227.61205 L62.92604,227.61205 Z M62.92604,237.4558 L62.92604,229.15892 L64.33229,229.15892 L64.33229,237.4558 L62.92604,237.4558 Z M65.91822,234.97142 L67.30885,234.75267 C67.3817633,235.31517 67.5953033,235.747463 67.94947,236.04955 C68.3140567,236.341217 68.8140567,236.48705 69.44947,236.48705 C70.0953033,236.48705 70.57447,236.35684 70.88697,236.09642 C71.19947,235.825587 71.35572,235.513087 71.35572,235.15892 C71.35572,234.84642 71.2203033,234.59642 70.94947,234.40892 C70.7515567,234.28392 70.27239,234.12767 69.51197,233.94017 C68.4807233,233.679757 67.7619733,233.4558 67.35572,233.2683 C66.9598867,233.07038 66.6578033,232.804753 66.44947,232.47142 C66.2515567,232.138087 66.1526,231.768297 66.1526,231.36205 C66.1526,230.98705 66.2359333,230.6433 66.4026,230.3308 C66.5692667,230.0183 66.7984333,229.757883 67.0901,229.54955 C67.3088467,229.382883 67.60572,229.247467 67.98072,229.1433 C68.36614,229.028713 68.77239,228.97142 69.19947,228.97142 C69.8557233,228.97142 70.42864,229.06517 70.91822,229.25267 C71.4078067,229.44017 71.7671833,229.69538 71.99635,230.0183 C72.23593,230.3308 72.4025967,230.757883 72.49635,231.29955 L71.12135,231.48705 C71.0588833,231.059963 70.87659,230.72663 70.57447,230.48705 C70.27239,230.247463 69.8505167,230.12767 69.30885,230.12767 C68.6630167,230.12767 68.1994733,230.237047 67.91822,230.4558 C67.6473867,230.664133 67.51197,230.908923 67.51197,231.19017 C67.51197,231.37767 67.5692633,231.544337 67.68385,231.69017 C67.79843,231.836003 67.9755133,231.961003 68.2151,232.06517 C68.3609333,232.117237 68.7776,232.23703 69.4651,232.42455 C70.45468,232.684963 71.1473867,232.903713 71.54322,233.0808 C71.9390533,233.247467 72.2463467,233.492257 72.4651,233.81517 C72.6942667,234.13809 72.80885,234.539133 72.80885,235.0183 C72.80885,235.487047 72.6682233,235.929753 72.38697,236.34642 C72.1161367,236.752673 71.7203033,237.070383 71.19947,237.29955 C70.6890567,237.528717 70.1109333,237.6433 69.4651,237.6433 C68.3817667,237.6433 67.55885,237.41934 66.99635,236.97142 C66.43385,236.523507 66.0744733,235.85684 65.91822,234.97142 Z M73.91822,234.97142 L75.30885,234.75267 C75.3817633,235.31517 75.5953033,235.747463 75.94947,236.04955 C76.3140567,236.341217 76.8140567,236.48705 77.44947,236.48705 C78.0953033,236.48705 78.57447,236.35684 78.88697,236.09642 C79.19947,235.825587 79.35572,235.513087 79.35572,235.15892 C79.35572,234.84642 79.2203033,234.59642 78.94947,234.40892 C78.7515567,234.28392 78.27239,234.12767 77.51197,233.94017 C76.4807233,233.679757 75.7619733,233.4558 75.35572,233.2683 C74.9598867,233.07038 74.6578033,232.804753 74.44947,232.47142 C74.2515567,232.138087 74.1526,231.768297 74.1526,231.36205 C74.1526,230.98705 74.2359333,230.6433 74.4026,230.3308 C74.5692667,230.0183 74.7984333,229.757883 75.0901,229.54955 C75.3088467,229.382883 75.60572,229.247467 75.98072,229.1433 C76.36614,229.028713 76.77239,228.97142 77.19947,228.97142 C77.8557233,228.97142 78.42864,229.06517 78.91822,229.25267 C79.4078067,229.44017 79.7671833,229.69538 79.99635,230.0183 C80.23593,230.3308 80.4025967,230.757883 80.49635,231.29955 L79.12135,231.48705 C79.0588833,231.059963 78.87659,230.72663 78.57447,230.48705 C78.27239,230.247463 77.8505167,230.12767 77.30885,230.12767 C76.6630167,230.12767 76.1994733,230.237047 75.91822,230.4558 C75.6473867,230.664133 75.51197,230.908923 75.51197,231.19017 C75.51197,231.37767 75.5692633,231.544337 75.68385,231.69017 C75.79843,231.836003 75.9755133,231.961003 76.2151,232.06517 C76.3609333,232.117237 76.7776,232.23703 77.4651,232.42455 C78.45468,232.684963 79.1473867,232.903713 79.54322,233.0808 C79.9390533,233.247467 80.2463467,233.492257 80.4651,233.81517 C80.6942667,234.13809 80.80885,234.539133 80.80885,235.0183 C80.80885,235.487047 80.6682233,235.929753 80.38697,236.34642 C80.1161367,236.752673 79.7203033,237.070383 79.19947,237.29955 C78.6890567,237.528717 78.1109333,237.6433 77.4651,237.6433 C76.3817667,237.6433 75.55885,237.41934 74.99635,236.97142 C74.43385,236.523507 74.0744733,235.85684 73.91822,234.97142 Z M88.1526,234.78392 L89.60572,234.9558 C89.3765533,235.809967 88.94947,236.471423 88.32447,236.94017 C87.70989,237.408923 86.9234333,237.6433 85.9651,237.6433 C84.7463467,237.6433 83.7828033,237.2683 83.07447,236.5183 C82.3661367,235.7683 82.01197,234.721423 82.01197,233.37767 C82.01197,231.981837 82.3713467,230.898503 83.0901,230.12767 C83.8088467,229.356837 84.7411367,228.97142 85.88697,228.97142 C86.9911367,228.97142 87.89218,229.35163 88.5901,230.11205 C89.2984333,230.86205 89.6526,231.91934 89.6526,233.28392 C89.6526,233.367253 89.6526,233.492253 89.6526,233.65892 L83.4651,233.65892 C83.5171667,234.575587 83.7723733,235.278713 84.23072,235.7683 C84.6994733,236.247467 85.2776,236.48705 85.9651,236.48705 C86.4859333,236.48705 86.92864,236.351633 87.29322,236.0808 C87.6578067,235.809967 87.9442667,235.377673 88.1526,234.78392 Z M83.54322,232.50267 L88.16822,232.50267 C88.1057533,231.804757 87.92867,231.283923 87.63697,230.94017 C87.1890567,230.398503 86.6109333,230.12767 85.9026,230.12767 C85.2567667,230.12767 84.70989,230.34642 84.26197,230.78392 C83.82447,231.211007 83.5848867,231.783923 83.54322,232.50267 Z M96.78541,234.40892 L98.17604,234.59642 C98.0197867,235.54434 97.62916,236.289133 97.00416,236.8308 C96.38958,237.372467 95.6291633,237.6433 94.72291,237.6433 C93.5874967,237.6433 92.67083,237.273507 91.97291,236.53392 C91.28541,235.78392 90.94166,234.716213 90.94166,233.3308 C90.94166,232.434967 91.0874933,231.653717 91.37916,230.98705 C91.6812467,230.309963 92.1343733,229.804753 92.73854,229.47142 C93.35312,229.138087 94.0145767,228.97142 94.72291,228.97142 C95.6291633,228.97142 96.3687467,229.200587 96.94166,229.65892 C97.51458,230.10684 97.8791633,230.752673 98.03541,231.59642 L96.67604,231.79955 C96.54062,231.247463 96.3062433,230.830797 95.97291,230.54955 C95.6499967,230.268297 95.2541633,230.12767 94.78541,230.12767 C94.0770767,230.12767 93.4989533,230.38288 93.05104,230.8933 C92.61354,231.3933 92.39479,232.195383 92.39479,233.29955 C92.39479,234.41413 92.60833,235.22663 93.03541,235.73705 C93.4624967,236.23705 94.01979,236.48705 94.70729,236.48705 C95.25937,236.48705 95.7177033,236.320383 96.08229,235.98705 C96.45729,235.643297 96.6916633,235.117253 96.78541,234.40892 Z M102.44166,236.19017 L102.64479,237.44017 C102.248957,237.523503 101.89479,237.56517 101.58229,237.56517 C101.07187,237.56517 100.676037,237.487047 100.39479,237.3308 C100.113537,237.164133 99.91562,236.95059 99.80104,236.69017 C99.6864533,236.419337 99.62916,235.862047 99.62916,235.0183 L99.62916,230.25267 L98.59791,230.25267 L98.59791,229.15892 L99.62916,229.15892 L99.62916,227.09642 L101.03541,226.25267 L101.03541,229.15892 L102.44166,229.15892 L102.44166,230.25267 L101.03541,230.25267 L101.03541,235.09642 C101.03541,235.502673 101.056243,235.76309 101.09791,235.87767 C101.149977,235.992257 101.23331,236.086007 101.34791,236.15892 C101.462497,236.221387 101.623957,236.25262 101.83229,236.25262 C101.988537,236.25262 102.19166,236.231787 102.44166,236.19012 L102.44166,236.19017 Z" id="path21" stroke="none" fill="#3EBEB0" fill-rule="nonzero"></path>
                    <path d="M42.87915,275.4558 L42.87915,264.00267 L44.2854,264.00267 L44.2854,275.4558 L42.87915,275.4558 Z M45.93384,271.29955 C45.93384,269.768297 46.3609233,268.63288 47.21509,267.8933 C47.9338367,267.278713 48.8036267,266.97142 49.82446,266.97142 C50.9702933,266.97142 51.9025867,267.34642 52.62134,268.09642 C53.3505067,268.836007 53.71509,269.867257 53.71509,271.19017 C53.71509,272.25267 53.55363,273.091213 53.23071,273.7058 C52.9077967,274.32038 52.4390467,274.799547 51.82446,275.1433 C51.2202933,275.476633 50.5536267,275.6433 49.82446,275.6433 C48.6682133,275.6433 47.7307133,275.273507 47.01196,274.53392 C46.2932133,273.78392 45.93384,272.705797 45.93384,271.29955 Z M47.38696,271.29955 C47.38696,272.36205 47.6161267,273.158923 48.07446,273.69017 C48.5432133,274.221423 49.1265467,274.48705 49.82446,274.48705 C50.52238,274.48705 51.1005067,274.221423 51.55884,273.69017 C52.0275867,273.158923 52.26196,272.346423 52.26196,271.25267 C52.26196,270.231837 52.0275867,269.455797 51.55884,268.92455 C51.1005067,268.393297 50.52238,268.12767 49.82446,268.12767 C49.1265467,268.12767 48.5432133,268.393297 48.07446,268.92455 C47.6161267,269.445383 47.38696,270.23705 47.38696,271.29955 Z M56.89477,275.4558 L54.3479,267.15892 L55.80102,267.15892 L57.12915,271.94017 L57.61352,273.72142 C57.63432,273.638087 57.7801533,273.07038 58.05102,272.0183 L59.36352,267.15892 L60.81665,267.15892 L62.05102,271.97142 L62.4729,273.54955 L62.94165,271.9558 L64.36352,267.15892 L65.73852,267.15892 L63.14477,275.4558 L61.67602,275.4558 L60.36352,270.48705 L60.0354,269.06517 L58.36352,275.4558 L56.89477,275.4558 Z M72.59009,272.78392 L74.04321,272.9558 C73.8140433,273.809967 73.38696,274.471423 72.76196,274.94017 C72.14738,275.408923 71.3609233,275.6433 70.40259,275.6433 C69.1838367,275.6433 68.2202933,275.2683 67.51196,274.5183 C66.8036267,273.7683 66.44946,272.721423 66.44946,271.37767 C66.44946,269.981837 66.8088367,268.898503 67.52759,268.12767 C68.2463367,267.356837 69.1786267,266.97142 70.32446,266.97142 C71.4286267,266.97142 72.32967,267.35163 73.02759,268.11205 C73.7359233,268.86205 74.09009,269.91934 74.09009,271.28392 C74.09009,271.367253 74.09009,271.492253 74.09009,271.65892 L67.90259,271.65892 C67.9546567,272.575587 68.2098633,273.278713 68.66821,273.7683 C69.1369633,274.247467 69.71509,274.48705 70.40259,274.48705 C70.9234233,274.48705 71.36613,274.351633 71.73071,274.0808 C72.0952967,273.809967 72.3817567,273.377673 72.59009,272.78392 Z M67.98071,270.50267 L72.60571,270.50267 C72.5432433,269.804757 72.36616,269.283923 72.07446,268.94017 C71.6265467,268.398503 71.0484233,268.12767 70.34009,268.12767 C69.6942567,268.12767 69.14738,268.34642 68.69946,268.78392 C68.26196,269.211007 68.0223767,269.783923 67.98071,270.50267 Z M75.80102,275.4558 L75.80102,267.15892 L77.06665,267.15892 L77.06665,268.40892 C77.3895633,267.825587 77.6864367,267.44017 77.95727,267.25267 C78.2281033,267.06517 78.5301867,266.97142 78.86352,266.97142 C79.3322733,266.97142 79.81144,267.122463 80.30102,267.42455 L79.81665,268.72142 C79.4728967,268.523507 79.1291467,268.42455 78.7854,268.42455 C78.4833133,268.42455 78.20727,268.5183 77.95727,268.7058 C77.71769,268.88288 77.5458167,269.138087 77.44165,269.47142 C77.2853967,269.97142 77.20727,270.518297 77.20727,271.11205 L77.20727,275.4558 L75.80102,275.4558 Z M86.55102,272.40892 L87.94165,272.59642 C87.7853967,273.54434 87.39477,274.289133 86.76977,274.8308 C86.15519,275.372467 85.3947733,275.6433 84.48852,275.6433 C83.3531067,275.6433 82.43644,275.273507 81.73852,274.53392 C81.05102,273.78392 80.70727,272.716213 80.70727,271.3308 C80.70727,270.434967 80.8531033,269.653717 81.14477,268.98705 C81.4468567,268.309963 81.8999833,267.804753 82.50415,267.47142 C83.11873,267.138087 83.7801867,266.97142 84.48852,266.97142 C85.3947733,266.97142 86.1343567,267.200587 86.70727,267.65892 C87.28019,268.10684 87.6447733,268.752673 87.80102,269.59642 L86.44165,269.79955 C86.30623,269.247463 86.0718533,268.830797 85.73852,268.54955 C85.4156067,268.268297 85.0197733,268.12767 84.55102,268.12767 C83.8426867,268.12767 83.2645633,268.38288 82.81665,268.8933 C82.37915,269.3933 82.1604,270.195383 82.1604,271.29955 C82.1604,272.41413 82.37394,273.22663 82.80102,273.73705 C83.2281067,274.23705 83.7854,274.48705 84.4729,274.48705 C85.02498,274.48705 85.4833133,274.320383 85.8479,273.98705 C86.2229,273.643297 86.4572733,273.117253 86.55102,272.40892 Z M94.55102,274.42455 C94.0301867,274.872463 93.5301867,275.19017 93.05102,275.37767 C92.5718533,275.554757 92.05623,275.6433 91.50415,275.6433 C90.5874833,275.6433 89.8843567,275.41934 89.39477,274.97142 C88.90519,274.523507 88.6604,273.9558 88.6604,273.2683 C88.6604,272.862047 88.75415,272.492253 88.94165,272.15892 C89.12915,271.815173 89.3687333,271.54434 89.6604,271.34642 C89.96248,271.138087 90.30102,270.981837 90.67602,270.87767 C90.9572733,270.804757 91.37394,270.73705 91.92602,270.67455 C93.06144,270.53913 93.8999833,270.37767 94.44165,270.19017 C94.44165,269.992257 94.44165,269.867257 94.44165,269.81517 C94.44165,269.242257 94.31144,268.841217 94.05102,268.61205 C93.68644,268.28913 93.1499833,268.12767 92.44165,268.12767 C91.7853967,268.12767 91.2958133,268.247463 90.9729,268.48705 C90.6604,268.716217 90.4312333,269.122467 90.2854,269.7058 L88.9104,269.5183 C89.0354,268.934967 89.2385233,268.461007 89.51977,268.09642 C89.8114367,267.73184 90.2281033,267.4558 90.76977,267.2683 C91.3114367,267.07038 91.9364367,266.97142 92.64477,266.97142 C93.3531033,266.97142 93.92602,267.054753 94.36352,267.22142 C94.81144,267.388087 95.1395667,267.59642 95.3479,267.84642 C95.5562333,268.09642 95.7020667,268.41413 95.7854,268.79955 C95.8374667,269.03913 95.8635,269.47142 95.8635,270.09642 L95.8635,271.97142 C95.8635,273.28392 95.8895333,274.112047 95.9416,274.4558 C96.0040667,274.799547 96.1238567,275.13288 96.30097,275.4558 L94.83222,275.4558 C94.6863867,275.164133 94.5926367,274.820383 94.55097,274.42455 L94.55102,274.42455 Z M94.44165,271.28392 C93.93123,271.492253 93.1656033,271.669337 92.14477,271.81517 C91.5614367,271.898503 91.14998,271.992253 90.9104,272.09642 C90.6708133,272.200587 90.4833133,272.356837 90.3479,272.56517 C90.2229,272.76309 90.1604,272.98184 90.1604,273.22142 C90.1604,273.59642 90.3010233,273.90892 90.58227,274.15892 C90.8739367,274.40892 91.2906033,274.53392 91.83227,274.53392 C92.3739367,274.53392 92.8531033,274.419337 93.26977,274.19017 C93.6968567,273.95059 94.0093567,273.622467 94.20727,273.2058 C94.3635233,272.8933 94.44165,272.42455 94.44165,271.79955 L94.44165,271.28392 Z M97.48071,272.97142 L98.87134,272.75267 C98.9442533,273.31517 99.1577933,273.747463 99.51196,274.04955 C99.8765467,274.341217 100.376547,274.48705 101.01196,274.48705 C101.657793,274.48705 102.13696,274.35684 102.44946,274.09642 C102.76196,273.825587 102.91821,273.513087 102.91821,273.15892 C102.91821,272.84642 102.782793,272.59642 102.51196,272.40892 C102.314047,272.28392 101.83488,272.12767 101.07446,271.94017 C100.043213,271.679757 99.3244633,271.4558 98.91821,271.2683 C98.5223767,271.07038 98.2202933,270.804753 98.01196,270.47142 C97.8140467,270.138087 97.71509,269.768297 97.71509,269.36205 C97.71509,268.98705 97.7984233,268.6433 97.96509,268.3308 C98.1317567,268.0183 98.3609233,267.757883 98.65259,267.54955 C98.8713367,267.382883 99.16821,267.247467 99.54321,267.1433 C99.92863,267.028713 100.33488,266.97142 100.76196,266.97142 C101.418213,266.97142 101.99113,267.06517 102.48071,267.25267 C102.970297,267.44017 103.329673,267.69538 103.55884,268.0183 C103.79842,268.3308 103.965087,268.757883 104.05884,269.29955 L102.68384,269.48705 C102.621373,269.059963 102.43908,268.72663 102.13696,268.48705 C101.83488,268.247463 101.413007,268.12767 100.87134,268.12767 C100.225507,268.12767 99.7619633,268.237047 99.48071,268.4558 C99.2098767,268.664133 99.07446,268.908923 99.07446,269.19017 C99.07446,269.37767 99.1317533,269.544337 99.24634,269.69017 C99.36092,269.836003 99.5380033,269.961003 99.77759,270.06517 C99.9234233,270.117237 100.34009,270.23703 101.02759,270.42455 C102.01717,270.684963 102.709877,270.903713 103.10571,271.0808 C103.501543,271.247467 103.808837,271.492257 104.02759,271.81517 C104.256757,272.13809 104.37134,272.539133 104.37134,273.0183 C104.37134,273.487047 104.230713,273.929753 103.94946,274.34642 C103.678627,274.752673 103.282793,275.070383 102.76196,275.29955 C102.251547,275.528717 101.673423,275.6433 101.02759,275.6433 C99.9442567,275.6433 99.12134,275.41934 98.55884,274.97142 C97.99634,274.523507 97.6369633,273.85684 97.48071,272.97142 Z M111.71509,272.78392 L113.16821,272.9558 C112.939043,273.809967 112.51196,274.471423 111.88696,274.94017 C111.27238,275.408923 110.485923,275.6433 109.52759,275.6433 C108.308837,275.6433 107.345293,275.2683 106.63696,274.5183 C105.928627,273.7683 105.57446,272.721423 105.57446,271.37767 C105.57446,269.981837 105.933837,268.898503 106.65259,268.12767 C107.371337,267.356837 108.303627,266.97142 109.44946,266.97142 C110.553627,266.97142 111.45467,267.35163 112.15259,268.11205 C112.860923,268.86205 113.21509,269.91934 113.21509,271.28392 C113.21509,271.367253 113.21509,271.492253 113.21509,271.65892 L107.02759,271.65892 C107.079657,272.575587 107.334863,273.278713 107.79321,273.7683 C108.261963,274.247467 108.84009,274.48705 109.52759,274.48705 C110.048423,274.48705 110.49113,274.351633 110.85571,274.0808 C111.220297,273.809967 111.506757,273.377673 111.71509,272.78392 Z M107.10571,270.50267 L111.73071,270.50267 C111.668243,269.804757 111.49116,269.283923 111.19946,268.94017 C110.751547,268.398503 110.173423,268.12767 109.46509,268.12767 C108.819257,268.12767 108.27238,268.34642 107.82446,268.78392 C107.38696,269.211007 107.147377,269.783923 107.10571,270.50267 Z" id="path23" stroke="none" fill="#3EBEB0" fill-rule="nonzero"></path>
                    <polygon id="path25" stroke="none" fill="#3D99D7" fill-rule="evenodd" points="26.4777 12.217848 129.24934 12.217848 129.24934 89.51413 113.78971 104.97375 26.47771 104.97375"></polygon>
                    <polygon id="path27" stroke="none" fill="#307AAB" fill-rule="evenodd" points="113.7897 104.97375 116.88165 92.60605 129.24933 89.51413"></polygon>
                    <polyline id="path29" stroke="none" fill-opacity="0" fill="#000000" fill-rule="evenodd" points="113.7897 104.97375 116.88165 92.60605 129.24933 89.51413 113.7897 104.97375 26.47769 104.97375 26.47769 12.21785 129.24933 12.21785 129.24933 89.51413"></polyline>
                    <path d="M46.9104,37.382236 L46.9104,35.772861 L48.31665,35.772861 L48.31665,37.382236 L46.9104,37.382236 Z M46.9104,47.225986 L46.9104,38.929111 L48.31665,38.929111 L48.31665,47.225986 L46.9104,47.225986 Z M50.46509,47.225986 L50.46509,38.929111 L51.73071,38.929111 L51.73071,40.100986 C52.3348767,39.194736 53.2150867,38.741611 54.37134,38.741611 C54.87134,38.741611 55.3296733,38.8301527 55.74634,39.007236 C56.1630067,39.1843193 56.4755067,39.4186943 56.68384,39.710361 C56.8921733,40.0020277 57.0380067,40.350986 57.12134,40.757236 C57.1734067,41.0176527 57.19944,41.4707777 57.19944,42.116611 L57.19944,47.225986 L55.79319,47.225986 L55.79319,42.179111 C55.79319,41.6061943 55.7359,41.179111 55.62132,40.897861 C55.5171533,40.6061943 55.3244433,40.3770277 55.04319,40.210361 C54.7723567,40.0436943 54.44944,39.960361 54.07444,39.960361 C53.4702733,39.960361 52.94944,40.1530693 52.51194,40.538486 C52.08486,40.913486 51.87132,41.632236 51.87132,42.694736 L51.87132,47.225986 L50.46509,47.225986 Z M64.76977,44.179111 L66.1604,44.366611 C66.0041467,45.3145277 65.61352,46.0593193 64.98852,46.600986 C64.37394,47.1426527 63.6135233,47.413486 62.70727,47.413486 C61.5718567,47.413486 60.65519,47.0436943 59.95727,46.304111 C59.26977,45.554111 58.92602,44.4864027 58.92602,43.100986 C58.92602,42.2051527 59.0718533,41.4239027 59.36352,40.757236 C59.6656067,40.0801527 60.1187333,39.5749443 60.7229,39.241611 C61.33748,38.9082777 61.9989367,38.741611 62.70727,38.741611 C63.6135233,38.741611 64.3531067,38.9707777 64.92602,39.429111 C65.49894,39.8770277 65.8635233,40.522861 66.01977,41.366611 L64.6604,41.569736 C64.52498,41.0176527 64.2906033,40.600986 63.95727,40.319736 C63.6343567,40.038486 63.2385233,39.897861 62.76977,39.897861 C62.0614367,39.897861 61.4833133,40.1530693 61.0354,40.663486 C60.5979,41.163486 60.37915,41.9655693 60.37915,43.069736 C60.37915,44.1843193 60.59269,44.9968193 61.01977,45.507236 C61.4468567,46.007236 62.00415,46.257236 62.69165,46.257236 C63.24373,46.257236 63.7020633,46.0905693 64.06665,45.757236 C64.44165,45.413486 64.6760233,44.8874443 64.76977,44.179111 Z M66.83227,43.069736 C66.83227,41.538486 67.2593533,40.4030693 68.11352,39.663486 C68.8322733,39.0489027 69.7020667,38.741611 70.7229,38.741611 C71.8687333,38.741611 72.8010233,39.116611 73.51977,39.866611 C74.2489367,40.6061943 74.61352,41.6374443 74.61352,42.960361 C74.61352,44.022861 74.4520633,44.8614027 74.12915,45.475986 C73.80623,46.0905693 73.33748,46.569736 72.7229,46.913486 C72.1187333,47.2468193 71.4520667,47.413486 70.7229,47.413486 C69.5666467,47.413486 68.6291467,47.0436943 67.9104,46.304111 C67.1916467,45.554111 66.83227,44.475986 66.83227,43.069736 Z M68.2854,43.069736 C68.2854,44.132236 68.5145667,44.929111 68.9729,45.460361 C69.4416467,45.991611 70.02498,46.257236 70.7229,46.257236 C71.4208133,46.257236 71.9989367,45.991611 72.45727,45.460361 C72.9260233,44.929111 73.1604,44.116611 73.1604,43.022861 C73.1604,42.0020277 72.9260233,41.225986 72.45727,40.694736 C71.9989367,40.163486 71.4208133,39.897861 70.7229,39.897861 C70.02498,39.897861 69.4416467,40.163486 68.9729,40.694736 C68.5145667,41.2155693 68.2854,42.007236 68.2854,43.069736 Z M76.26196,47.225986 L76.26196,38.929111 L77.51196,38.929111 L77.51196,40.085361 C77.77238,39.679111 78.11613,39.3561943 78.54321,39.116611 C78.98071,38.866611 79.4755033,38.741611 80.02759,38.741611 C80.64217,38.741611 81.1473767,38.8718193 81.54321,39.132236 C81.9390433,39.382236 82.2150867,39.7364027 82.37134,40.194736 C83.0275867,39.225986 83.8817533,38.741611 84.93384,38.741611 C85.7567533,38.741611 86.38696,38.9707777 86.82446,39.429111 C87.27238,39.8770277 87.49634,40.5749443 87.49634,41.522861 L87.49634,47.225986 L86.10571,47.225986 L86.10571,41.991611 C86.10571,41.429111 86.0588367,41.0280693 85.96509,40.788486 C85.8713367,40.538486 85.70467,40.3405693 85.46509,40.194736 C85.2255033,40.038486 84.9442533,39.960361 84.62134,39.960361 C84.0380067,39.960361 83.55363,40.1530693 83.16821,40.538486 C82.7827967,40.9239027 82.59009,41.5436943 82.59009,42.397861 L82.59009,47.225986 L81.18384,47.225986 L81.18384,41.835361 C81.18384,41.210361 81.0692567,40.741611 80.84009,40.429111 C80.6109233,40.116611 80.2359233,39.960361 79.71509,39.960361 C79.3192567,39.960361 78.9546733,40.0645277 78.62134,40.272861 C78.2880067,40.4811943 78.0432133,40.788486 77.88696,41.194736 C77.7411267,41.5905693 77.66821,42.163486 77.66821,42.913486 L77.66821,47.225986 L76.26196,47.225986 Z M89.59009,37.382236 L89.59009,35.772861 L90.99634,35.772861 L90.99634,37.382236 L89.59009,37.382236 Z M89.59009,47.225986 L89.59009,38.929111 L90.99634,38.929111 L90.99634,47.225986 L89.59009,47.225986 Z M93.14477,47.225986 L93.14477,38.929111 L94.4104,38.929111 L94.4104,40.100986 C95.0145667,39.194736 95.8947733,38.741611 97.05102,38.741611 C97.55102,38.741611 98.0093533,38.8301527 98.42602,39.007236 C98.8426867,39.1843193 99.1551867,39.4186943 99.36352,39.710361 C99.5718533,40.0020277 99.7176867,40.350986 99.80102,40.757236 C99.8530867,41.0176527 99.87912,41.4707777 99.87912,42.116611 L99.87912,47.225986 L98.47287,47.225986 L98.47287,42.179111 C98.47287,41.6061943 98.4155767,41.179111 98.30099,40.897861 C98.1968233,40.6061943 98.0041167,40.3770277 97.72287,40.210361 C97.4520367,40.0436943 97.12912,39.960361 96.75412,39.960361 C96.1499533,39.960361 95.62912,40.1530693 95.19162,40.538486 C94.7645333,40.913486 94.55099,41.632236 94.55099,42.694736 L94.55099,47.225986 L93.14477,47.225986 Z M101.77759,47.913486 L103.15259,48.116615 C103.204657,48.5436983 103.360907,48.85099 103.62134,49.03849 C103.975507,49.2989067 104.454673,49.429115 105.05884,49.429115 C105.704673,49.429115 106.204673,49.2989067 106.55884,49.03849 C106.913007,48.7780733 107.15259,48.4134887 107.27759,47.944736 C107.350503,47.663486 107.38696,47.0593193 107.38696,46.132236 C106.77238,46.8614027 106.006757,47.225986 105.09009,47.225986 C103.944257,47.225986 103.05884,46.8145277 102.43384,45.991611 C101.80884,45.1686943 101.49634,44.179111 101.49634,43.022861 C101.49634,42.2311943 101.636963,41.5020277 101.91821,40.835361 C102.209877,40.1686943 102.626543,39.6530693 103.16821,39.288486 C103.720297,38.9239027 104.360923,38.741611 105.09009,38.741611 C106.069257,38.741611 106.876547,39.1374443 107.51196,39.929111 L107.51196,38.929111 L108.80884,38.929111 L108.80884,46.100986 C108.80884,47.3926553 108.67863,48.3093233 108.41821,48.85099 C108.157797,49.3926567 107.74113,49.81974 107.16821,50.13224 C106.595297,50.44474 105.892173,50.60099 105.05884,50.60099 C104.069253,50.60099 103.26717,50.3770317 102.65259,49.929115 C102.048423,49.4811983 101.756757,48.809322 101.77759,47.913486 Z M102.94946,42.929111 C102.94946,44.0124443 103.163003,44.804111 103.59009,45.304111 C104.02759,45.804111 104.569257,46.054111 105.21509,46.054111 C105.860923,46.054111 106.40259,45.8093193 106.84009,45.319736 C107.27759,44.819736 107.49634,44.038486 107.49634,42.975986 C107.49634,41.9551527 107.27238,41.1895277 106.82446,40.679111 C106.376547,40.1582777 105.83488,39.897861 105.19946,39.897861 C104.57446,39.897861 104.04321,40.1530693 103.60571,40.663486 C103.16821,41.1739027 102.94946,41.929111 102.94946,42.929111 Z" id="path31" stroke="none" fill="#FFFFFF" fill-rule="nonzero"></path>
                    <path d="M45.1682,66.22599 L45.1682,65.179115 C44.6473667,66.0020317 43.8765333,66.41349 42.8557,66.41349 C42.1890333,66.41349 41.57966,66.2311983 41.02758,65.866615 C40.4754933,65.5020317 40.0432,64.991615 39.7307,64.335365 C39.42862,63.679115 39.27758,62.929115 39.27758,62.085365 C39.27758,61.2520317 39.4129967,60.5020317 39.68383,59.835365 C39.9650767,59.1582817 40.3817433,58.6426567 40.93383,58.28849 C41.48591,57.9239067 42.1057,57.741615 42.7932,57.741615 C43.2932,57.741615 43.73591,57.8457817 44.12133,58.054115 C44.5171633,58.2624483 44.83487,58.53849 45.07445,58.88224 L45.07445,54.772865 L46.4807,54.772865 L46.4807,66.22599 L45.1682,66.22599 Z M40.7307,62.085365 C40.7307,63.147865 40.95466,63.94474 41.40258,64.47599 C41.8504933,64.9968233 42.3765333,65.25724 42.9807,65.25724 C43.5952867,65.25724 44.11612,65.00724 44.5432,64.50724 C44.9807,63.9968233 45.19945,63.22599 45.19945,62.19474 C45.19945,61.0593233 44.9807,60.22599 44.5432,59.69474 C44.1057,59.16349 43.5640333,58.897865 42.9182,58.897865 C42.2932,58.897865 41.7723667,59.1530733 41.3557,59.66349 C40.9390333,60.1739067 40.7307,60.9811983 40.7307,62.085365 Z M48.16039,62.069735 C48.16039,60.538485 48.5874733,59.4030683 49.44164,58.663485 C50.1603867,58.0489017 51.0301767,57.74161 52.05101,57.74161 C53.1968433,57.74161 54.1291367,58.11661 54.84789,58.86661 C55.5770567,59.6061933 55.94164,60.6374433 55.94164,61.96036 C55.94164,63.02286 55.78018,63.8614017 55.45726,64.475985 C55.1343467,65.0905683 54.6655967,65.569735 54.05101,65.913485 C53.4468433,66.2468183 52.7801767,66.413485 52.05101,66.413485 C50.8947633,66.413485 49.9572633,66.0436933 49.23851,65.30411 C48.5197633,64.55411 48.16039,63.475985 48.16039,62.069735 Z M49.61351,62.069735 C49.61351,63.132235 49.8426767,63.92911 50.30101,64.46036 C50.7697633,64.99161 51.3530967,65.257235 52.05101,65.257235 C52.74893,65.257235 53.3270567,64.99161 53.78539,64.46036 C54.2541367,63.92911 54.48851,63.11661 54.48851,62.02286 C54.48851,61.0020267 54.2541367,60.225985 53.78539,59.694735 C53.3270567,59.163485 52.74893,58.89786 52.05101,58.89786 C51.3530967,58.89786 50.7697633,59.163485 50.30101,59.694735 C49.8426767,60.2155683 49.61351,61.007235 49.61351,62.069735 Z M62.99633,63.17911 L64.38695,63.36661 C64.2307033,64.3145267 63.84008,65.0593183 63.21508,65.600985 C62.6004933,66.1426517 61.8400767,66.413485 60.93383,66.413485 C59.79841,66.413485 58.8817433,66.0436933 58.18383,65.30411 C57.49633,64.55411 57.15258,63.4864017 57.15258,62.100985 C57.15258,61.2051517 57.2984133,60.4239017 57.59008,59.757235 C57.89216,59.0801517 58.3452833,58.5749433 58.94945,58.24161 C59.5640367,57.9082767 60.2254967,57.74161 60.93383,57.74161 C61.8400767,57.74161 62.57966,57.9707767 63.15258,58.42911 C63.7254933,58.8770267 64.0900767,59.52286 64.24633,60.36661 L62.88695,60.569735 C62.7515367,60.0176517 62.5171633,59.600985 62.18383,59.319735 C61.86091,59.038485 61.4650767,58.89786 60.99633,58.89786 C60.2879967,58.89786 59.70987,59.1530683 59.26195,59.663485 C58.82445,60.163485 58.6057,60.9655683 58.6057,62.069735 C58.6057,63.1843183 58.8192433,63.9968183 59.24633,64.507235 C59.67341,65.007235 60.2307,65.257235 60.9182,65.257235 C61.4702867,65.257235 61.92862,65.0905683 62.2932,64.757235 C62.6682,64.413485 62.9025767,63.8874433 62.99633,63.17911 Z M71.02758,66.225985 L71.02758,65.007235 C70.3817467,65.944735 69.5015367,66.413485 68.38695,66.413485 C67.89737,66.413485 67.4390367,66.319735 67.01195,66.132235 C66.5952833,65.944735 66.2827833,65.71036 66.07445,65.42911 C65.8661167,65.1374433 65.7202833,64.788485 65.63695,64.382235 C65.5848833,64.100985 65.55885,63.663485 65.55885,63.069735 L65.55885,57.92911 L66.9651,57.92911 L66.9651,62.52286 C66.9651,63.2624433 66.9911333,63.757235 67.0432,64.007235 C67.1369533,64.382235 67.3244533,64.6739017 67.6057,64.882235 C67.8973667,65.0905683 68.2515333,65.194735 68.6682,65.194735 C69.0952867,65.194735 69.49112,65.0905683 69.8557,64.882235 C70.2307,64.663485 70.4911167,64.36661 70.63695,63.99161 C70.7932033,63.61661 70.87133,63.0749433 70.87133,62.36661 L70.87133,57.92911 L72.27758,57.92911 L72.27758,66.225985 L71.02758,66.225985 Z M74.48851,66.225985 L74.48851,57.92911 L75.73851,57.92911 L75.73851,59.08536 C75.99893,58.67911 76.34268,58.3561933 76.76976,58.11661 C77.20726,57.86661 77.7020533,57.74161 78.25414,57.74161 C78.86872,57.74161 79.3739267,57.8718183 79.76976,58.132235 C80.1655933,58.382235 80.4416367,58.7364017 80.59789,59.194735 C81.2541367,58.225985 82.1083033,57.74161 83.16039,57.74161 C83.9833033,57.74161 84.61351,57.9707767 85.05101,58.42911 C85.49893,58.8770267 85.72289,59.5749433 85.72289,60.52286 L85.72289,66.225985 L84.33226,66.225985 L84.33226,60.99161 C84.33226,60.42911 84.2853867,60.0280683 84.19164,59.788485 C84.0978867,59.538485 83.93122,59.3405683 83.69164,59.194735 C83.4520533,59.038485 83.1708033,58.96036 82.84789,58.96036 C82.2645567,58.96036 81.78018,59.1530683 81.39476,59.538485 C81.0093467,59.9239017 80.81664,60.5436933 80.81664,61.39786 L80.81664,66.225985 L79.41039,66.225985 L79.41039,60.83536 C79.41039,60.21036 79.2958067,59.74161 79.06664,59.42911 C78.8374733,59.11661 78.4624733,58.96036 77.94164,58.96036 C77.5458067,58.96036 77.1812233,59.0645267 76.84789,59.27286 C76.5145567,59.4811933 76.2697633,59.788485 76.11351,60.194735 C75.9676767,60.5905683 75.89476,61.163485 75.89476,61.913485 L75.89476,66.225985 L74.48851,66.225985 Z M93.48851,63.55411 L94.94164,63.725985 C94.7124733,64.5801517 94.28539,65.24161 93.66039,65.71036 C93.0458033,66.17911 92.2593433,66.413485 91.30101,66.413485 C90.0822633,66.413485 89.1187233,66.038485 88.41039,65.288485 C87.7020567,64.538485 87.34789,63.49161 87.34789,62.14786 C87.34789,60.7520267 87.7072633,59.6686933 88.42601,58.89786 C89.1447633,58.1270267 90.0770567,57.74161 91.22289,57.74161 C92.3270567,57.74161 93.2280967,58.1218183 93.92601,58.882235 C94.6343433,59.632235 94.98851,60.6895267 94.98851,62.05411 C94.98851,62.1374433 94.98851,62.2624433 94.98851,62.42911 L88.80101,62.42911 C88.8530767,63.3457767 89.1082867,64.0489017 89.56664,64.538485 C90.0353867,65.0176517 90.61351,65.257235 91.30101,65.257235 C91.8218433,65.257235 92.2645533,65.1218183 92.62914,64.850985 C92.99372,64.5801517 93.2801767,64.14786 93.48851,63.55411 Z M88.87914,61.27286 L93.50414,61.27286 C93.4416733,60.5749433 93.26459,60.05411 92.97289,59.71036 C92.52497,59.1686933 91.9468433,58.89786 91.23851,58.89786 C90.5926767,58.89786 90.0458033,59.11661 89.59789,59.55411 C89.16039,59.9811933 88.9208067,60.55411 88.87914,61.27286 Z M96.71508,66.225985 L96.71508,57.92911 L97.9807,57.92911 L97.9807,59.100985 C98.5848667,58.194735 99.4650767,57.74161 100.62133,57.74161 C101.12133,57.74161 101.579663,57.8301517 101.99633,58.007235 C102.412997,58.1843183 102.725497,58.4186933 102.93383,58.71036 C103.142163,59.0020267 103.287997,59.350985 103.37133,59.757235 C103.423397,60.0176517 103.44943,60.4707767 103.44943,61.11661 L103.44943,66.225985 L102.04318,66.225985 L102.04318,61.17911 C102.04318,60.6061933 101.98589,60.17911 101.87131,59.89786 C101.767143,59.6061933 101.574433,59.3770267 101.29318,59.21036 C101.022347,59.0436933 100.69943,58.96036 100.32443,58.96036 C99.7202633,58.96036 99.19943,59.1530683 98.76193,59.538485 C98.33485,59.913485 98.12131,60.632235 98.12131,61.694735 L98.12131,66.225985 L96.71508,66.225985 Z M108.67601,64.96036 L108.87914,66.21036 C108.483307,66.2936933 108.12914,66.33536 107.81664,66.33536 C107.30622,66.33536 106.910387,66.257235 106.62914,66.100985 C106.347887,65.9343183 106.14997,65.7207767 106.03539,65.46036 C105.920803,65.1895267 105.86351,64.632235 105.86351,63.788485 L105.86351,59.02286 L104.83226,59.02286 L104.83226,57.92911 L105.86351,57.92911 L105.86351,55.86661 L107.26976,55.02286 L107.26976,57.92911 L108.67601,57.92911 L108.67601,59.02286 L107.26976,59.02286 L107.26976,63.86661 C107.26976,64.27286 107.290593,64.5332767 107.33226,64.64786 C107.384327,64.7624433 107.46766,64.8561933 107.58226,64.92911 C107.696847,64.99161 107.858307,65.02286 108.06664,65.02286 C108.222887,65.02286 108.42601,65.0020267 108.67601,64.96036 Z M109.49633,63.74161 L110.88695,63.52286 C110.95987,64.08536 111.173413,64.5176517 111.52758,64.819735 C111.89216,65.1114017 112.39216,65.257235 113.02758,65.257235 C113.673413,65.257235 114.15258,65.1270267 114.46508,64.86661 C114.77758,64.5957767 114.93383,64.2832767 114.93383,63.92911 C114.93383,63.61661 114.798413,63.36661 114.52758,63.17911 C114.32966,63.05411 113.850493,62.89786 113.09008,62.71036 C112.058827,62.4499433 111.340077,62.225985 110.93383,62.038485 C110.537997,61.8405683 110.235913,61.5749433 110.02758,61.24161 C109.82966,60.9082767 109.7307,60.538485 109.7307,60.132235 C109.7307,59.757235 109.814033,59.413485 109.9807,59.100985 C110.147367,58.788485 110.376533,58.5280683 110.6682,58.319735 C110.886953,58.1530683 111.18383,58.0176517 111.55883,57.913485 C111.944243,57.7989017 112.350493,57.74161 112.77758,57.74161 C113.433827,57.74161 114.006743,57.83536 114.49633,58.02286 C114.98591,58.21036 115.345283,58.4655683 115.57445,58.788485 C115.814037,59.100985 115.980703,59.5280683 116.07445,60.069735 L114.69945,60.257235 C114.636983,59.8301517 114.454693,59.4968183 114.15258,59.257235 C113.850493,59.0176517 113.428617,58.89786 112.88695,58.89786 C112.241117,58.89786 111.777577,59.007235 111.49633,59.225985 C111.225497,59.4343183 111.09008,59.67911 111.09008,59.96036 C111.09008,60.14786 111.14737,60.3145267 111.26195,60.46036 C111.376537,60.6061933 111.55362,60.7311933 111.7932,60.83536 C111.939033,60.8874467 112.3557,61.0072383 113.0432,61.194735 C114.032787,61.4551517 114.725497,61.6739017 115.12133,61.850985 C115.517163,62.0176517 115.824453,62.2624433 116.0432,62.58536 C116.272367,62.9082767 116.38695,63.3093183 116.38695,63.788485 C116.38695,64.257235 116.246327,64.6999433 115.96508,65.11661 C115.694247,65.52286 115.298413,65.8405683 114.77758,66.069735 C114.26716,66.2989017 113.689033,66.413485 113.0432,66.413485 C111.959867,66.413485 111.13695,66.1895267 110.57445,65.74161 C110.01195,65.2936933 109.652577,64.6270267 109.49633,63.74161 Z" id="path33" stroke="none" fill="#FFFFFF" fill-rule="nonzero"></path>
                    <path d="M77.86353,104.97375 L77.86353,145.4147" id="path35" stroke="none" fill-opacity="0" fill="#000000" fill-rule="evenodd"></path>
                    <path d="M77.86353,104.97375 L77.86353,133.4147" id="path37" stroke="#0097A7" stroke-width="2" fill="none" stroke-linejoin="round"></path>
                    <polygon id="path39" stroke="#0097A7" stroke-width="2" fill="#0097A7" fill-rule="evenodd" points="74.56006 133.4147 77.86353 142.49089 81.16699 133.4147"></polygon>
                    <path d="M77.86353,321.4777 L77.86353,352.24934" id="path41" stroke="none" fill-opacity="0" fill="#000000" fill-rule="evenodd"></path>
                    <path d="M77.86353,321.4777 L77.86353,340.24934" id="path43" stroke="#3D99D7" stroke-width="2" fill="none" stroke-linejoin="round"></path>
                    <polygon id="path45" stroke="#3D99D7" stroke-width="2" fill="#3D99D7" fill-rule="evenodd" points="74.56006 340.24936 77.86353 349.32553 81.16699 340.24936"></polygon>
                </g>
            </g>
        </g>
    </g>
</svg>